%TF.GenerationSoftware,KiCad,Pcbnew,10.0.4*%
%TF.CreationDate,2026-07-07T20:32:40-04:00*%
%TF.ProjectId,diddys disciples,64696464-7973-4206-9469-736369706c65,rev?*%
%TF.SameCoordinates,Original*%
%TF.FileFunction,Soldermask,Bot*%
%TF.FilePolarity,Negative*%
%FSLAX46Y46*%
G04 Gerber Fmt 4.6, Leading zero omitted, Abs format (unit mm)*
G04 Created by KiCad (PCBNEW 10.0.4) date 2026-07-07 20:32:40*
%MOMM*%
%LPD*%
G01*
G04 APERTURE LIST*
G04 APERTURE END LIST*
G36*
X103049134Y-134103806D02*
G01*
X103065355Y-134114645D01*
X103076194Y-134130866D01*
X103080000Y-134150000D01*
X103080000Y-135850000D01*
X103076194Y-135869134D01*
X103065355Y-135885355D01*
X103049134Y-135896194D01*
X103030000Y-135900000D01*
X101330000Y-135900000D01*
X101310866Y-135896194D01*
X101294645Y-135885355D01*
X101283806Y-135869134D01*
X101280000Y-135850000D01*
X101280000Y-134150000D01*
X101283806Y-134130866D01*
X101294645Y-134114645D01*
X101310866Y-134103806D01*
X101330000Y-134100000D01*
X103030000Y-134100000D01*
X103049134Y-134103806D01*
G37*
G36*
X104981256Y-134138754D02*
G01*
X105144257Y-134206271D01*
X105290954Y-134304291D01*
X105415709Y-134429046D01*
X105513729Y-134575743D01*
X105581246Y-134738744D01*
X105615666Y-134911785D01*
X105615666Y-135088215D01*
X105581246Y-135261256D01*
X105513729Y-135424257D01*
X105415709Y-135570954D01*
X105290954Y-135695709D01*
X105144257Y-135793729D01*
X104981256Y-135861246D01*
X104808215Y-135895666D01*
X104631785Y-135895666D01*
X104458744Y-135861246D01*
X104295743Y-135793729D01*
X104149046Y-135695709D01*
X104024291Y-135570954D01*
X103926271Y-135424257D01*
X103858754Y-135261256D01*
X103824334Y-135088215D01*
X103824334Y-134911785D01*
X103858754Y-134738744D01*
X103926271Y-134575743D01*
X104024291Y-134429046D01*
X104149046Y-134304291D01*
X104295743Y-134206271D01*
X104458744Y-134138754D01*
X104631785Y-134104334D01*
X104808215Y-134104334D01*
X104981256Y-134138754D01*
G37*
G36*
X107521256Y-134138754D02*
G01*
X107684257Y-134206271D01*
X107830954Y-134304291D01*
X107955709Y-134429046D01*
X108053729Y-134575743D01*
X108121246Y-134738744D01*
X108155666Y-134911785D01*
X108155666Y-135088215D01*
X108121246Y-135261256D01*
X108053729Y-135424257D01*
X107955709Y-135570954D01*
X107830954Y-135695709D01*
X107684257Y-135793729D01*
X107521256Y-135861246D01*
X107348215Y-135895666D01*
X107171785Y-135895666D01*
X106998744Y-135861246D01*
X106835743Y-135793729D01*
X106689046Y-135695709D01*
X106564291Y-135570954D01*
X106466271Y-135424257D01*
X106398754Y-135261256D01*
X106364334Y-135088215D01*
X106364334Y-134911785D01*
X106398754Y-134738744D01*
X106466271Y-134575743D01*
X106564291Y-134429046D01*
X106689046Y-134304291D01*
X106835743Y-134206271D01*
X106998744Y-134138754D01*
X107171785Y-134104334D01*
X107348215Y-134104334D01*
X107521256Y-134138754D01*
G37*
G36*
X110061256Y-134138754D02*
G01*
X110224257Y-134206271D01*
X110370954Y-134304291D01*
X110495709Y-134429046D01*
X110593729Y-134575743D01*
X110661246Y-134738744D01*
X110695666Y-134911785D01*
X110695666Y-135088215D01*
X110661246Y-135261256D01*
X110593729Y-135424257D01*
X110495709Y-135570954D01*
X110370954Y-135695709D01*
X110224257Y-135793729D01*
X110061256Y-135861246D01*
X109888215Y-135895666D01*
X109711785Y-135895666D01*
X109538744Y-135861246D01*
X109375743Y-135793729D01*
X109229046Y-135695709D01*
X109104291Y-135570954D01*
X109006271Y-135424257D01*
X108938754Y-135261256D01*
X108904334Y-135088215D01*
X108904334Y-134911785D01*
X108938754Y-134738744D01*
X109006271Y-134575743D01*
X109104291Y-134429046D01*
X109229046Y-134304291D01*
X109375743Y-134206271D01*
X109538744Y-134138754D01*
X109711785Y-134104334D01*
X109888215Y-134104334D01*
X110061256Y-134138754D01*
G37*
G36*
X112601256Y-134138754D02*
G01*
X112764257Y-134206271D01*
X112910954Y-134304291D01*
X113035709Y-134429046D01*
X113133729Y-134575743D01*
X113201246Y-134738744D01*
X113235666Y-134911785D01*
X113235666Y-135088215D01*
X113201246Y-135261256D01*
X113133729Y-135424257D01*
X113035709Y-135570954D01*
X112910954Y-135695709D01*
X112764257Y-135793729D01*
X112601256Y-135861246D01*
X112428215Y-135895666D01*
X112251785Y-135895666D01*
X112078744Y-135861246D01*
X111915743Y-135793729D01*
X111769046Y-135695709D01*
X111644291Y-135570954D01*
X111546271Y-135424257D01*
X111478754Y-135261256D01*
X111444334Y-135088215D01*
X111444334Y-134911785D01*
X111478754Y-134738744D01*
X111546271Y-134575743D01*
X111644291Y-134429046D01*
X111769046Y-134304291D01*
X111915743Y-134206271D01*
X112078744Y-134138754D01*
X112251785Y-134104334D01*
X112428215Y-134104334D01*
X112601256Y-134138754D01*
G37*
G36*
X115141256Y-134138754D02*
G01*
X115304257Y-134206271D01*
X115450954Y-134304291D01*
X115575709Y-134429046D01*
X115673729Y-134575743D01*
X115741246Y-134738744D01*
X115775666Y-134911785D01*
X115775666Y-135088215D01*
X115741246Y-135261256D01*
X115673729Y-135424257D01*
X115575709Y-135570954D01*
X115450954Y-135695709D01*
X115304257Y-135793729D01*
X115141256Y-135861246D01*
X114968215Y-135895666D01*
X114791785Y-135895666D01*
X114618744Y-135861246D01*
X114455743Y-135793729D01*
X114309046Y-135695709D01*
X114184291Y-135570954D01*
X114086271Y-135424257D01*
X114018754Y-135261256D01*
X113984334Y-135088215D01*
X113984334Y-134911785D01*
X114018754Y-134738744D01*
X114086271Y-134575743D01*
X114184291Y-134429046D01*
X114309046Y-134304291D01*
X114455743Y-134206271D01*
X114618744Y-134138754D01*
X114791785Y-134104334D01*
X114968215Y-134104334D01*
X115141256Y-134138754D01*
G37*
G36*
X117681256Y-134138754D02*
G01*
X117844257Y-134206271D01*
X117990954Y-134304291D01*
X118115709Y-134429046D01*
X118213729Y-134575743D01*
X118281246Y-134738744D01*
X118315666Y-134911785D01*
X118315666Y-135088215D01*
X118281246Y-135261256D01*
X118213729Y-135424257D01*
X118115709Y-135570954D01*
X117990954Y-135695709D01*
X117844257Y-135793729D01*
X117681256Y-135861246D01*
X117508215Y-135895666D01*
X117331785Y-135895666D01*
X117158744Y-135861246D01*
X116995743Y-135793729D01*
X116849046Y-135695709D01*
X116724291Y-135570954D01*
X116626271Y-135424257D01*
X116558754Y-135261256D01*
X116524334Y-135088215D01*
X116524334Y-134911785D01*
X116558754Y-134738744D01*
X116626271Y-134575743D01*
X116724291Y-134429046D01*
X116849046Y-134304291D01*
X116995743Y-134206271D01*
X117158744Y-134138754D01*
X117331785Y-134104334D01*
X117508215Y-134104334D01*
X117681256Y-134138754D01*
G37*
G36*
X120221256Y-134138754D02*
G01*
X120384257Y-134206271D01*
X120530954Y-134304291D01*
X120655709Y-134429046D01*
X120753729Y-134575743D01*
X120821246Y-134738744D01*
X120855666Y-134911785D01*
X120855666Y-135088215D01*
X120821246Y-135261256D01*
X120753729Y-135424257D01*
X120655709Y-135570954D01*
X120530954Y-135695709D01*
X120384257Y-135793729D01*
X120221256Y-135861246D01*
X120048215Y-135895666D01*
X119871785Y-135895666D01*
X119698744Y-135861246D01*
X119535743Y-135793729D01*
X119389046Y-135695709D01*
X119264291Y-135570954D01*
X119166271Y-135424257D01*
X119098754Y-135261256D01*
X119064334Y-135088215D01*
X119064334Y-134911785D01*
X119098754Y-134738744D01*
X119166271Y-134575743D01*
X119264291Y-134429046D01*
X119389046Y-134304291D01*
X119535743Y-134206271D01*
X119698744Y-134138754D01*
X119871785Y-134104334D01*
X120048215Y-134104334D01*
X120221256Y-134138754D01*
G37*
G36*
X122761256Y-134138754D02*
G01*
X122924257Y-134206271D01*
X123070954Y-134304291D01*
X123195709Y-134429046D01*
X123293729Y-134575743D01*
X123361246Y-134738744D01*
X123395666Y-134911785D01*
X123395666Y-135088215D01*
X123361246Y-135261256D01*
X123293729Y-135424257D01*
X123195709Y-135570954D01*
X123070954Y-135695709D01*
X122924257Y-135793729D01*
X122761256Y-135861246D01*
X122588215Y-135895666D01*
X122411785Y-135895666D01*
X122238744Y-135861246D01*
X122075743Y-135793729D01*
X121929046Y-135695709D01*
X121804291Y-135570954D01*
X121706271Y-135424257D01*
X121638754Y-135261256D01*
X121604334Y-135088215D01*
X121604334Y-134911785D01*
X121638754Y-134738744D01*
X121706271Y-134575743D01*
X121804291Y-134429046D01*
X121929046Y-134304291D01*
X122075743Y-134206271D01*
X122238744Y-134138754D01*
X122411785Y-134104334D01*
X122588215Y-134104334D01*
X122761256Y-134138754D01*
G37*
G36*
X125301256Y-134138754D02*
G01*
X125464257Y-134206271D01*
X125610954Y-134304291D01*
X125735709Y-134429046D01*
X125833729Y-134575743D01*
X125901246Y-134738744D01*
X125935666Y-134911785D01*
X125935666Y-135088215D01*
X125901246Y-135261256D01*
X125833729Y-135424257D01*
X125735709Y-135570954D01*
X125610954Y-135695709D01*
X125464257Y-135793729D01*
X125301256Y-135861246D01*
X125128215Y-135895666D01*
X124951785Y-135895666D01*
X124778744Y-135861246D01*
X124615743Y-135793729D01*
X124469046Y-135695709D01*
X124344291Y-135570954D01*
X124246271Y-135424257D01*
X124178754Y-135261256D01*
X124144334Y-135088215D01*
X124144334Y-134911785D01*
X124178754Y-134738744D01*
X124246271Y-134575743D01*
X124344291Y-134429046D01*
X124469046Y-134304291D01*
X124615743Y-134206271D01*
X124778744Y-134138754D01*
X124951785Y-134104334D01*
X125128215Y-134104334D01*
X125301256Y-134138754D01*
G37*
G36*
X127841256Y-134138754D02*
G01*
X128004257Y-134206271D01*
X128150954Y-134304291D01*
X128275709Y-134429046D01*
X128373729Y-134575743D01*
X128441246Y-134738744D01*
X128475666Y-134911785D01*
X128475666Y-135088215D01*
X128441246Y-135261256D01*
X128373729Y-135424257D01*
X128275709Y-135570954D01*
X128150954Y-135695709D01*
X128004257Y-135793729D01*
X127841256Y-135861246D01*
X127668215Y-135895666D01*
X127491785Y-135895666D01*
X127318744Y-135861246D01*
X127155743Y-135793729D01*
X127009046Y-135695709D01*
X126884291Y-135570954D01*
X126786271Y-135424257D01*
X126718754Y-135261256D01*
X126684334Y-135088215D01*
X126684334Y-134911785D01*
X126718754Y-134738744D01*
X126786271Y-134575743D01*
X126884291Y-134429046D01*
X127009046Y-134304291D01*
X127155743Y-134206271D01*
X127318744Y-134138754D01*
X127491785Y-134104334D01*
X127668215Y-134104334D01*
X127841256Y-134138754D01*
G37*
G36*
X130381256Y-134138754D02*
G01*
X130544257Y-134206271D01*
X130690954Y-134304291D01*
X130815709Y-134429046D01*
X130913729Y-134575743D01*
X130981246Y-134738744D01*
X131015666Y-134911785D01*
X131015666Y-135088215D01*
X130981246Y-135261256D01*
X130913729Y-135424257D01*
X130815709Y-135570954D01*
X130690954Y-135695709D01*
X130544257Y-135793729D01*
X130381256Y-135861246D01*
X130208215Y-135895666D01*
X130031785Y-135895666D01*
X129858744Y-135861246D01*
X129695743Y-135793729D01*
X129549046Y-135695709D01*
X129424291Y-135570954D01*
X129326271Y-135424257D01*
X129258754Y-135261256D01*
X129224334Y-135088215D01*
X129224334Y-134911785D01*
X129258754Y-134738744D01*
X129326271Y-134575743D01*
X129424291Y-134429046D01*
X129549046Y-134304291D01*
X129695743Y-134206271D01*
X129858744Y-134138754D01*
X130031785Y-134104334D01*
X130208215Y-134104334D01*
X130381256Y-134138754D01*
G37*
G36*
X132921256Y-134138754D02*
G01*
X133084257Y-134206271D01*
X133230954Y-134304291D01*
X133355709Y-134429046D01*
X133453729Y-134575743D01*
X133521246Y-134738744D01*
X133555666Y-134911785D01*
X133555666Y-135088215D01*
X133521246Y-135261256D01*
X133453729Y-135424257D01*
X133355709Y-135570954D01*
X133230954Y-135695709D01*
X133084257Y-135793729D01*
X132921256Y-135861246D01*
X132748215Y-135895666D01*
X132571785Y-135895666D01*
X132398744Y-135861246D01*
X132235743Y-135793729D01*
X132089046Y-135695709D01*
X131964291Y-135570954D01*
X131866271Y-135424257D01*
X131798754Y-135261256D01*
X131764334Y-135088215D01*
X131764334Y-134911785D01*
X131798754Y-134738744D01*
X131866271Y-134575743D01*
X131964291Y-134429046D01*
X132089046Y-134304291D01*
X132235743Y-134206271D01*
X132398744Y-134138754D01*
X132571785Y-134104334D01*
X132748215Y-134104334D01*
X132921256Y-134138754D01*
G37*
G36*
X135461256Y-134138754D02*
G01*
X135624257Y-134206271D01*
X135770954Y-134304291D01*
X135895709Y-134429046D01*
X135993729Y-134575743D01*
X136061246Y-134738744D01*
X136095666Y-134911785D01*
X136095666Y-135088215D01*
X136061246Y-135261256D01*
X135993729Y-135424257D01*
X135895709Y-135570954D01*
X135770954Y-135695709D01*
X135624257Y-135793729D01*
X135461256Y-135861246D01*
X135288215Y-135895666D01*
X135111785Y-135895666D01*
X134938744Y-135861246D01*
X134775743Y-135793729D01*
X134629046Y-135695709D01*
X134504291Y-135570954D01*
X134406271Y-135424257D01*
X134338754Y-135261256D01*
X134304334Y-135088215D01*
X134304334Y-134911785D01*
X134338754Y-134738744D01*
X134406271Y-134575743D01*
X134504291Y-134429046D01*
X134629046Y-134304291D01*
X134775743Y-134206271D01*
X134938744Y-134138754D01*
X135111785Y-134104334D01*
X135288215Y-134104334D01*
X135461256Y-134138754D01*
G37*
G36*
X105232370Y-121206832D02*
G01*
X105339757Y-121268832D01*
X105427438Y-121356513D01*
X105489438Y-121463900D01*
X105521531Y-121583675D01*
X105521531Y-121707675D01*
X105489438Y-121827450D01*
X105427438Y-121934837D01*
X105339757Y-122022518D01*
X105232370Y-122084518D01*
X105230768Y-122084946D01*
X105210658Y-122096558D01*
X105230517Y-122170675D01*
X105475595Y-122170675D01*
X105494729Y-122174481D01*
X105510950Y-122185320D01*
X105521789Y-122201541D01*
X105525595Y-122220675D01*
X105525595Y-123070675D01*
X105521789Y-123089809D01*
X105510950Y-123106030D01*
X105494729Y-123116869D01*
X105475595Y-123120675D01*
X104625595Y-123120675D01*
X104606461Y-123116869D01*
X104590240Y-123106030D01*
X104579401Y-123089809D01*
X104575595Y-123070675D01*
X104575595Y-122220675D01*
X104579401Y-122201541D01*
X104590240Y-122185320D01*
X104606461Y-122174481D01*
X104625595Y-122170675D01*
X104870673Y-122170675D01*
X104890532Y-122096558D01*
X104870420Y-122084946D01*
X104868820Y-122084518D01*
X104761433Y-122022518D01*
X104673752Y-121934837D01*
X104611752Y-121827450D01*
X104579659Y-121707675D01*
X104579659Y-121583675D01*
X104611752Y-121463900D01*
X104673752Y-121356513D01*
X104761433Y-121268832D01*
X104868820Y-121206832D01*
X104988595Y-121174739D01*
X105112595Y-121174739D01*
X105232370Y-121206832D01*
G37*
G36*
X108458924Y-118353512D02*
G01*
X108520854Y-118361665D01*
X108536431Y-118368929D01*
X108555360Y-118372694D01*
X108580431Y-118389445D01*
X108606219Y-118401471D01*
X108621908Y-118417160D01*
X108642549Y-118430952D01*
X108656340Y-118451592D01*
X108672029Y-118467281D01*
X108684053Y-118493067D01*
X108700807Y-118518141D01*
X108704572Y-118537071D01*
X108711835Y-118552646D01*
X108719986Y-118614563D01*
X108721264Y-118620987D01*
X108721264Y-119383487D01*
X108719986Y-119389911D01*
X108711835Y-119451827D01*
X108704572Y-119467401D01*
X108700807Y-119486333D01*
X108684051Y-119511408D01*
X108672029Y-119537192D01*
X108656342Y-119552878D01*
X108642549Y-119573522D01*
X108621905Y-119587315D01*
X108606219Y-119603002D01*
X108580435Y-119615024D01*
X108555360Y-119631780D01*
X108536428Y-119635545D01*
X108520854Y-119642808D01*
X108458938Y-119650959D01*
X108452514Y-119652237D01*
X108015014Y-119652237D01*
X108008590Y-119650959D01*
X107946673Y-119642808D01*
X107931098Y-119635545D01*
X107912168Y-119631780D01*
X107887094Y-119615026D01*
X107861308Y-119603002D01*
X107845619Y-119587313D01*
X107824979Y-119573522D01*
X107811187Y-119552881D01*
X107795498Y-119537192D01*
X107783472Y-119511404D01*
X107766721Y-119486333D01*
X107762956Y-119467404D01*
X107755692Y-119451827D01*
X107747539Y-119389897D01*
X107746264Y-119383487D01*
X107746264Y-118620987D01*
X107747538Y-118614578D01*
X107755692Y-118552646D01*
X107762956Y-118537067D01*
X107766721Y-118518141D01*
X107783471Y-118493072D01*
X107795498Y-118467281D01*
X107811189Y-118451589D01*
X107824979Y-118430952D01*
X107845616Y-118417162D01*
X107861308Y-118401471D01*
X107887099Y-118389444D01*
X107912168Y-118372694D01*
X107931094Y-118368929D01*
X107946673Y-118361665D01*
X108008605Y-118353511D01*
X108015014Y-118352237D01*
X108452514Y-118352237D01*
X108458924Y-118353512D01*
G37*
G36*
X110583924Y-118353512D02*
G01*
X110645854Y-118361665D01*
X110661431Y-118368929D01*
X110680360Y-118372694D01*
X110705431Y-118389445D01*
X110731219Y-118401471D01*
X110746908Y-118417160D01*
X110767549Y-118430952D01*
X110781340Y-118451592D01*
X110797029Y-118467281D01*
X110809053Y-118493067D01*
X110825807Y-118518141D01*
X110829572Y-118537071D01*
X110836835Y-118552646D01*
X110844986Y-118614563D01*
X110846264Y-118620987D01*
X110846264Y-119383487D01*
X110844986Y-119389911D01*
X110836835Y-119451827D01*
X110829572Y-119467401D01*
X110825807Y-119486333D01*
X110809051Y-119511408D01*
X110797029Y-119537192D01*
X110781342Y-119552878D01*
X110767549Y-119573522D01*
X110746905Y-119587315D01*
X110731219Y-119603002D01*
X110705435Y-119615024D01*
X110680360Y-119631780D01*
X110661428Y-119635545D01*
X110645854Y-119642808D01*
X110583938Y-119650959D01*
X110577514Y-119652237D01*
X110140014Y-119652237D01*
X110133590Y-119650959D01*
X110071673Y-119642808D01*
X110056098Y-119635545D01*
X110037168Y-119631780D01*
X110012094Y-119615026D01*
X109986308Y-119603002D01*
X109970619Y-119587313D01*
X109949979Y-119573522D01*
X109936187Y-119552881D01*
X109920498Y-119537192D01*
X109908472Y-119511404D01*
X109891721Y-119486333D01*
X109887956Y-119467404D01*
X109880692Y-119451827D01*
X109872539Y-119389897D01*
X109871264Y-119383487D01*
X109871264Y-118620987D01*
X109872538Y-118614578D01*
X109880692Y-118552646D01*
X109887956Y-118537067D01*
X109891721Y-118518141D01*
X109908471Y-118493072D01*
X109920498Y-118467281D01*
X109936189Y-118451589D01*
X109949979Y-118430952D01*
X109970616Y-118417162D01*
X109986308Y-118401471D01*
X110012099Y-118389444D01*
X110037168Y-118372694D01*
X110056094Y-118368929D01*
X110071673Y-118361665D01*
X110133605Y-118353511D01*
X110140014Y-118352237D01*
X110577514Y-118352237D01*
X110583924Y-118353512D01*
G37*
G36*
X118036955Y-112622354D02*
G01*
X118190900Y-112686120D01*
X118329447Y-112778694D01*
X118447272Y-112896519D01*
X118539846Y-113035066D01*
X118603612Y-113189011D01*
X118636120Y-113352438D01*
X118636120Y-113519068D01*
X118603612Y-113682495D01*
X118539846Y-113836440D01*
X118447272Y-113974987D01*
X118329447Y-114092812D01*
X118190900Y-114185386D01*
X118036955Y-114249152D01*
X117873528Y-114281660D01*
X117706898Y-114281660D01*
X117543471Y-114249152D01*
X117389526Y-114185386D01*
X117250979Y-114092812D01*
X117133154Y-113974987D01*
X117040580Y-113836440D01*
X116976814Y-113682495D01*
X116944306Y-113519068D01*
X116944306Y-113352438D01*
X116976814Y-113189011D01*
X117040580Y-113035066D01*
X117133154Y-112896519D01*
X117250979Y-112778694D01*
X117389526Y-112686120D01*
X117543471Y-112622354D01*
X117706898Y-112589846D01*
X117873528Y-112589846D01*
X118036955Y-112622354D01*
G37*
G36*
X118559347Y-110099559D02*
G01*
X118575568Y-110110398D01*
X118586407Y-110126619D01*
X118590213Y-110145753D01*
X118590213Y-111645753D01*
X118586407Y-111664887D01*
X118575568Y-111681108D01*
X118559347Y-111691947D01*
X118540213Y-111695753D01*
X117040213Y-111695753D01*
X117021079Y-111691947D01*
X117004858Y-111681108D01*
X116994019Y-111664887D01*
X116990213Y-111645753D01*
X116990213Y-110145753D01*
X116994019Y-110126619D01*
X117004858Y-110110398D01*
X117021079Y-110099559D01*
X117040213Y-110095753D01*
X118540213Y-110095753D01*
X118559347Y-110099559D01*
G37*
G36*
X107187450Y-109213825D02*
G01*
X107250999Y-109222191D01*
X107266984Y-109229645D01*
X107286279Y-109233483D01*
X107311833Y-109250558D01*
X107338331Y-109262914D01*
X107354453Y-109279036D01*
X107375495Y-109293096D01*
X107389554Y-109314137D01*
X107405676Y-109330259D01*
X107418031Y-109356754D01*
X107435108Y-109382312D01*
X107438946Y-109401608D01*
X107446399Y-109417591D01*
X107454763Y-109481127D01*
X107456041Y-109487550D01*
X107456041Y-109937550D01*
X107454763Y-109943974D01*
X107446399Y-110007508D01*
X107438946Y-110023489D01*
X107435108Y-110042788D01*
X107418029Y-110068347D01*
X107405676Y-110094840D01*
X107389557Y-110110958D01*
X107375495Y-110132004D01*
X107354449Y-110146066D01*
X107338331Y-110162185D01*
X107311838Y-110174538D01*
X107286279Y-110191617D01*
X107266980Y-110195455D01*
X107250999Y-110202908D01*
X107187465Y-110211272D01*
X107181041Y-110212550D01*
X106681041Y-110212550D01*
X106674618Y-110211272D01*
X106611082Y-110202908D01*
X106595099Y-110195455D01*
X106575803Y-110191617D01*
X106550245Y-110174540D01*
X106523750Y-110162185D01*
X106507628Y-110146063D01*
X106486587Y-110132004D01*
X106472527Y-110110962D01*
X106456405Y-110094840D01*
X106444049Y-110068342D01*
X106426974Y-110042788D01*
X106423136Y-110023493D01*
X106415682Y-110007508D01*
X106407316Y-109943959D01*
X106406041Y-109937550D01*
X106406041Y-109487550D01*
X106407315Y-109481142D01*
X106415682Y-109417591D01*
X106423136Y-109401604D01*
X106426974Y-109382312D01*
X106444047Y-109356759D01*
X106456405Y-109330259D01*
X106472529Y-109314134D01*
X106486587Y-109293096D01*
X106507625Y-109279038D01*
X106523750Y-109262914D01*
X106550250Y-109250556D01*
X106575803Y-109233483D01*
X106595095Y-109229645D01*
X106611082Y-109222191D01*
X106674633Y-109213824D01*
X106681041Y-109212550D01*
X107181041Y-109212550D01*
X107187450Y-109213825D01*
G37*
G36*
X99325056Y-108152496D02*
G01*
X99376417Y-108158455D01*
X99393963Y-108166202D01*
X99416680Y-108170721D01*
X99441000Y-108186971D01*
X99461802Y-108196156D01*
X99476009Y-108210363D01*
X99497786Y-108224914D01*
X99512336Y-108246690D01*
X99526543Y-108260897D01*
X99535727Y-108281697D01*
X99551979Y-108306020D01*
X99556498Y-108328739D01*
X99564244Y-108346282D01*
X99570201Y-108397631D01*
X99571009Y-108401691D01*
X99571009Y-108951691D01*
X99570201Y-108955750D01*
X99564244Y-109007099D01*
X99556498Y-109024641D01*
X99551979Y-109047362D01*
X99535725Y-109071686D01*
X99526543Y-109092484D01*
X99512338Y-109106688D01*
X99497786Y-109128468D01*
X99476006Y-109143020D01*
X99461802Y-109157225D01*
X99441004Y-109166407D01*
X99416680Y-109182661D01*
X99393959Y-109187180D01*
X99376417Y-109194926D01*
X99325070Y-109200883D01*
X99321009Y-109201691D01*
X98921009Y-109201691D01*
X98916950Y-109200883D01*
X98865600Y-109194926D01*
X98848057Y-109187180D01*
X98825338Y-109182661D01*
X98801015Y-109166409D01*
X98780215Y-109157225D01*
X98766008Y-109143018D01*
X98744232Y-109128468D01*
X98729681Y-109106691D01*
X98715474Y-109092484D01*
X98706289Y-109071682D01*
X98690039Y-109047362D01*
X98685520Y-109024645D01*
X98677773Y-109007099D01*
X98671814Y-108955740D01*
X98671009Y-108951691D01*
X98671009Y-108401691D01*
X98671813Y-108397644D01*
X98677773Y-108346282D01*
X98685520Y-108328734D01*
X98690039Y-108306020D01*
X98706287Y-108281701D01*
X98715474Y-108260897D01*
X98729683Y-108246687D01*
X98744232Y-108224914D01*
X98766005Y-108210365D01*
X98780215Y-108196156D01*
X98801019Y-108186969D01*
X98825338Y-108170721D01*
X98848052Y-108166202D01*
X98865600Y-108158455D01*
X98916961Y-108152496D01*
X98921009Y-108151691D01*
X99321009Y-108151691D01*
X99325056Y-108152496D01*
G37*
G36*
X100975056Y-108152496D02*
G01*
X101026417Y-108158455D01*
X101043963Y-108166202D01*
X101066680Y-108170721D01*
X101091000Y-108186971D01*
X101111802Y-108196156D01*
X101126009Y-108210363D01*
X101147786Y-108224914D01*
X101162336Y-108246690D01*
X101176543Y-108260897D01*
X101185727Y-108281697D01*
X101201979Y-108306020D01*
X101206498Y-108328739D01*
X101214244Y-108346282D01*
X101220201Y-108397631D01*
X101221009Y-108401691D01*
X101221009Y-108951691D01*
X101220201Y-108955750D01*
X101214244Y-109007099D01*
X101206498Y-109024641D01*
X101201979Y-109047362D01*
X101185725Y-109071686D01*
X101176543Y-109092484D01*
X101162338Y-109106688D01*
X101147786Y-109128468D01*
X101126006Y-109143020D01*
X101111802Y-109157225D01*
X101091004Y-109166407D01*
X101066680Y-109182661D01*
X101043959Y-109187180D01*
X101026417Y-109194926D01*
X100975070Y-109200883D01*
X100971009Y-109201691D01*
X100571009Y-109201691D01*
X100566950Y-109200883D01*
X100515600Y-109194926D01*
X100498057Y-109187180D01*
X100475338Y-109182661D01*
X100451015Y-109166409D01*
X100430215Y-109157225D01*
X100416008Y-109143018D01*
X100394232Y-109128468D01*
X100379681Y-109106691D01*
X100365474Y-109092484D01*
X100356289Y-109071682D01*
X100340039Y-109047362D01*
X100335520Y-109024645D01*
X100327773Y-109007099D01*
X100321814Y-108955740D01*
X100321009Y-108951691D01*
X100321009Y-108401691D01*
X100321813Y-108397644D01*
X100327773Y-108346282D01*
X100335520Y-108328734D01*
X100340039Y-108306020D01*
X100356287Y-108281701D01*
X100365474Y-108260897D01*
X100379683Y-108246687D01*
X100394232Y-108224914D01*
X100416005Y-108210365D01*
X100430215Y-108196156D01*
X100451019Y-108186969D01*
X100475338Y-108170721D01*
X100498052Y-108166202D01*
X100515600Y-108158455D01*
X100566961Y-108152496D01*
X100571009Y-108151691D01*
X100971009Y-108151691D01*
X100975056Y-108152496D01*
G37*
G36*
X118036955Y-107542354D02*
G01*
X118190900Y-107606120D01*
X118329447Y-107698694D01*
X118447272Y-107816519D01*
X118539846Y-107955066D01*
X118603612Y-108109011D01*
X118636120Y-108272438D01*
X118636120Y-108439068D01*
X118603612Y-108602495D01*
X118539846Y-108756440D01*
X118447272Y-108894987D01*
X118329447Y-109012812D01*
X118190900Y-109105386D01*
X118036955Y-109169152D01*
X117873528Y-109201660D01*
X117706898Y-109201660D01*
X117543471Y-109169152D01*
X117389526Y-109105386D01*
X117250979Y-109012812D01*
X117133154Y-108894987D01*
X117040580Y-108756440D01*
X116976814Y-108602495D01*
X116944306Y-108439068D01*
X116944306Y-108272438D01*
X116976814Y-108109011D01*
X117040580Y-107955066D01*
X117133154Y-107816519D01*
X117250979Y-107698694D01*
X117389526Y-107606120D01*
X117543471Y-107542354D01*
X117706898Y-107509846D01*
X117873528Y-107509846D01*
X118036955Y-107542354D01*
G37*
G36*
X107187450Y-107663825D02*
G01*
X107250999Y-107672191D01*
X107266984Y-107679645D01*
X107286279Y-107683483D01*
X107311833Y-107700558D01*
X107338331Y-107712914D01*
X107354453Y-107729036D01*
X107375495Y-107743096D01*
X107389554Y-107764137D01*
X107405676Y-107780259D01*
X107418031Y-107806754D01*
X107435108Y-107832312D01*
X107438946Y-107851608D01*
X107446399Y-107867591D01*
X107454763Y-107931127D01*
X107456041Y-107937550D01*
X107456041Y-108387550D01*
X107454763Y-108393974D01*
X107446399Y-108457508D01*
X107438946Y-108473489D01*
X107435108Y-108492788D01*
X107418029Y-108518347D01*
X107405676Y-108544840D01*
X107389557Y-108560958D01*
X107375495Y-108582004D01*
X107354449Y-108596066D01*
X107338331Y-108612185D01*
X107311838Y-108624538D01*
X107286279Y-108641617D01*
X107266980Y-108645455D01*
X107250999Y-108652908D01*
X107187465Y-108661272D01*
X107181041Y-108662550D01*
X106681041Y-108662550D01*
X106674618Y-108661272D01*
X106611082Y-108652908D01*
X106595099Y-108645455D01*
X106575803Y-108641617D01*
X106550245Y-108624540D01*
X106523750Y-108612185D01*
X106507628Y-108596063D01*
X106486587Y-108582004D01*
X106472527Y-108560962D01*
X106456405Y-108544840D01*
X106444049Y-108518342D01*
X106426974Y-108492788D01*
X106423136Y-108473493D01*
X106415682Y-108457508D01*
X106407316Y-108393959D01*
X106406041Y-108387550D01*
X106406041Y-107937550D01*
X106407315Y-107931142D01*
X106415682Y-107867591D01*
X106423136Y-107851604D01*
X106426974Y-107832312D01*
X106444047Y-107806759D01*
X106456405Y-107780259D01*
X106472529Y-107764134D01*
X106486587Y-107743096D01*
X106507625Y-107729038D01*
X106523750Y-107712914D01*
X106550250Y-107700556D01*
X106575803Y-107683483D01*
X106595095Y-107679645D01*
X106611082Y-107672191D01*
X106674633Y-107663824D01*
X106681041Y-107662550D01*
X107181041Y-107662550D01*
X107187450Y-107663825D01*
G37*
G36*
X106905674Y-105943361D02*
G01*
X106921895Y-105954200D01*
X106932734Y-105970421D01*
X106936540Y-105989555D01*
X106936540Y-106695955D01*
X106932734Y-106715089D01*
X106921895Y-106731310D01*
X106905674Y-106742149D01*
X106886540Y-106745955D01*
X106631740Y-106745955D01*
X106612606Y-106742149D01*
X106596385Y-106731310D01*
X106585546Y-106715089D01*
X106581740Y-106695955D01*
X106581740Y-105989555D01*
X106585546Y-105970421D01*
X106596385Y-105954200D01*
X106612606Y-105943361D01*
X106631740Y-105939555D01*
X106886540Y-105939555D01*
X106905674Y-105943361D01*
G37*
G36*
X107405675Y-105943361D02*
G01*
X107421896Y-105954200D01*
X107432735Y-105970421D01*
X107436541Y-105989555D01*
X107436541Y-106695955D01*
X107432735Y-106715089D01*
X107421896Y-106731310D01*
X107405675Y-106742149D01*
X107386541Y-106745955D01*
X107131741Y-106745955D01*
X107112607Y-106742149D01*
X107096386Y-106731310D01*
X107085547Y-106715089D01*
X107081741Y-106695955D01*
X107081741Y-105989555D01*
X107085547Y-105970421D01*
X107096386Y-105954200D01*
X107112607Y-105943361D01*
X107131741Y-105939555D01*
X107386541Y-105939555D01*
X107405675Y-105943361D01*
G37*
G36*
X107905675Y-105943361D02*
G01*
X107921896Y-105954200D01*
X107932735Y-105970421D01*
X107936541Y-105989555D01*
X107936541Y-106695955D01*
X107932735Y-106715089D01*
X107921896Y-106731310D01*
X107905675Y-106742149D01*
X107886541Y-106745955D01*
X107631741Y-106745955D01*
X107612607Y-106742149D01*
X107596386Y-106731310D01*
X107585547Y-106715089D01*
X107581741Y-106695955D01*
X107581741Y-105989555D01*
X107585547Y-105970421D01*
X107596386Y-105954200D01*
X107612607Y-105943361D01*
X107631741Y-105939555D01*
X107886541Y-105939555D01*
X107905675Y-105943361D01*
G37*
G36*
X108405676Y-105943361D02*
G01*
X108421897Y-105954200D01*
X108432736Y-105970421D01*
X108436542Y-105989555D01*
X108436542Y-106695955D01*
X108432736Y-106715089D01*
X108421897Y-106731310D01*
X108405676Y-106742149D01*
X108386542Y-106745955D01*
X108131742Y-106745955D01*
X108112608Y-106742149D01*
X108096387Y-106731310D01*
X108085548Y-106715089D01*
X108081742Y-106695955D01*
X108081742Y-105989555D01*
X108085548Y-105970421D01*
X108096387Y-105954200D01*
X108112608Y-105943361D01*
X108131742Y-105939555D01*
X108386542Y-105939555D01*
X108405676Y-105943361D01*
G37*
G36*
X108175975Y-104851161D02*
G01*
X108192196Y-104862000D01*
X108203035Y-104878221D01*
X108206841Y-104897355D01*
X108206841Y-105786355D01*
X108203035Y-105805489D01*
X108192196Y-105821710D01*
X108175975Y-105832549D01*
X108156841Y-105836355D01*
X106861441Y-105836355D01*
X106842307Y-105832549D01*
X106826086Y-105821710D01*
X106815247Y-105805489D01*
X106811441Y-105786355D01*
X106811441Y-104897355D01*
X106815247Y-104878221D01*
X106826086Y-104862000D01*
X106842307Y-104851161D01*
X106861441Y-104847355D01*
X108156841Y-104847355D01*
X108175975Y-104851161D01*
G37*
G36*
X106905674Y-103941561D02*
G01*
X106921895Y-103952400D01*
X106932734Y-103968621D01*
X106936540Y-103987755D01*
X106936540Y-104694155D01*
X106932734Y-104713289D01*
X106921895Y-104729510D01*
X106905674Y-104740349D01*
X106886540Y-104744155D01*
X106631740Y-104744155D01*
X106612606Y-104740349D01*
X106596385Y-104729510D01*
X106585546Y-104713289D01*
X106581740Y-104694155D01*
X106581740Y-103987755D01*
X106585546Y-103968621D01*
X106596385Y-103952400D01*
X106612606Y-103941561D01*
X106631740Y-103937755D01*
X106886540Y-103937755D01*
X106905674Y-103941561D01*
G37*
G36*
X107405675Y-103941561D02*
G01*
X107421896Y-103952400D01*
X107432735Y-103968621D01*
X107436541Y-103987755D01*
X107436541Y-104694155D01*
X107432735Y-104713289D01*
X107421896Y-104729510D01*
X107405675Y-104740349D01*
X107386541Y-104744155D01*
X107131741Y-104744155D01*
X107112607Y-104740349D01*
X107096386Y-104729510D01*
X107085547Y-104713289D01*
X107081741Y-104694155D01*
X107081741Y-103987755D01*
X107085547Y-103968621D01*
X107096386Y-103952400D01*
X107112607Y-103941561D01*
X107131741Y-103937755D01*
X107386541Y-103937755D01*
X107405675Y-103941561D01*
G37*
G36*
X107905675Y-103941561D02*
G01*
X107921896Y-103952400D01*
X107932735Y-103968621D01*
X107936541Y-103987755D01*
X107936541Y-104694155D01*
X107932735Y-104713289D01*
X107921896Y-104729510D01*
X107905675Y-104740349D01*
X107886541Y-104744155D01*
X107631741Y-104744155D01*
X107612607Y-104740349D01*
X107596386Y-104729510D01*
X107585547Y-104713289D01*
X107581741Y-104694155D01*
X107581741Y-103987755D01*
X107585547Y-103968621D01*
X107596386Y-103952400D01*
X107612607Y-103941561D01*
X107631741Y-103937755D01*
X107886541Y-103937755D01*
X107905675Y-103941561D01*
G37*
G36*
X108405676Y-103941561D02*
G01*
X108421897Y-103952400D01*
X108432736Y-103968621D01*
X108436542Y-103987755D01*
X108436542Y-104694155D01*
X108432736Y-104713289D01*
X108421897Y-104729510D01*
X108405676Y-104740349D01*
X108386542Y-104744155D01*
X108131742Y-104744155D01*
X108112608Y-104740349D01*
X108096387Y-104729510D01*
X108085548Y-104713289D01*
X108081742Y-104694155D01*
X108081742Y-103987755D01*
X108085548Y-103968621D01*
X108096387Y-103952400D01*
X108112608Y-103941561D01*
X108131742Y-103937755D01*
X108386542Y-103937755D01*
X108405676Y-103941561D01*
G37*
G36*
X97307222Y-100065621D02*
G01*
X97358583Y-100071580D01*
X97376129Y-100079327D01*
X97398846Y-100083846D01*
X97423166Y-100100096D01*
X97443968Y-100109281D01*
X97458175Y-100123488D01*
X97479952Y-100138039D01*
X97494502Y-100159815D01*
X97508709Y-100174022D01*
X97517893Y-100194822D01*
X97534145Y-100219145D01*
X97538664Y-100241864D01*
X97546410Y-100259407D01*
X97552367Y-100310756D01*
X97553175Y-100314816D01*
X97553175Y-100864816D01*
X97552367Y-100868875D01*
X97546410Y-100920224D01*
X97538664Y-100937766D01*
X97534145Y-100960487D01*
X97517891Y-100984811D01*
X97508709Y-101005609D01*
X97494504Y-101019813D01*
X97479952Y-101041593D01*
X97458172Y-101056145D01*
X97443968Y-101070350D01*
X97423170Y-101079532D01*
X97398846Y-101095786D01*
X97376125Y-101100305D01*
X97358583Y-101108051D01*
X97307236Y-101114008D01*
X97303175Y-101114816D01*
X96903175Y-101114816D01*
X96899116Y-101114008D01*
X96847766Y-101108051D01*
X96830223Y-101100305D01*
X96807504Y-101095786D01*
X96783181Y-101079534D01*
X96762381Y-101070350D01*
X96748174Y-101056143D01*
X96726398Y-101041593D01*
X96711847Y-101019816D01*
X96697640Y-101005609D01*
X96688455Y-100984807D01*
X96672205Y-100960487D01*
X96667686Y-100937770D01*
X96659939Y-100920224D01*
X96653980Y-100868865D01*
X96653175Y-100864816D01*
X96653175Y-100314816D01*
X96653979Y-100310769D01*
X96659939Y-100259407D01*
X96667686Y-100241859D01*
X96672205Y-100219145D01*
X96688453Y-100194826D01*
X96697640Y-100174022D01*
X96711849Y-100159812D01*
X96726398Y-100138039D01*
X96748171Y-100123490D01*
X96762381Y-100109281D01*
X96783185Y-100100094D01*
X96807504Y-100083846D01*
X96830218Y-100079327D01*
X96847766Y-100071580D01*
X96899127Y-100065621D01*
X96903175Y-100064816D01*
X97303175Y-100064816D01*
X97307222Y-100065621D01*
G37*
G36*
X98957222Y-100065621D02*
G01*
X99008583Y-100071580D01*
X99026129Y-100079327D01*
X99048846Y-100083846D01*
X99073166Y-100100096D01*
X99093968Y-100109281D01*
X99108175Y-100123488D01*
X99129952Y-100138039D01*
X99144502Y-100159815D01*
X99158709Y-100174022D01*
X99167893Y-100194822D01*
X99184145Y-100219145D01*
X99188664Y-100241864D01*
X99196410Y-100259407D01*
X99202367Y-100310756D01*
X99203175Y-100314816D01*
X99203175Y-100864816D01*
X99202367Y-100868875D01*
X99196410Y-100920224D01*
X99188664Y-100937766D01*
X99184145Y-100960487D01*
X99167891Y-100984811D01*
X99158709Y-101005609D01*
X99144504Y-101019813D01*
X99129952Y-101041593D01*
X99108172Y-101056145D01*
X99093968Y-101070350D01*
X99073170Y-101079532D01*
X99048846Y-101095786D01*
X99026125Y-101100305D01*
X99008583Y-101108051D01*
X98957236Y-101114008D01*
X98953175Y-101114816D01*
X98553175Y-101114816D01*
X98549116Y-101114008D01*
X98497766Y-101108051D01*
X98480223Y-101100305D01*
X98457504Y-101095786D01*
X98433181Y-101079534D01*
X98412381Y-101070350D01*
X98398174Y-101056143D01*
X98376398Y-101041593D01*
X98361847Y-101019816D01*
X98347640Y-101005609D01*
X98338455Y-100984807D01*
X98322205Y-100960487D01*
X98317686Y-100937770D01*
X98309939Y-100920224D01*
X98303980Y-100868865D01*
X98303175Y-100864816D01*
X98303175Y-100314816D01*
X98303979Y-100310769D01*
X98309939Y-100259407D01*
X98317686Y-100241859D01*
X98322205Y-100219145D01*
X98338453Y-100194826D01*
X98347640Y-100174022D01*
X98361849Y-100159812D01*
X98376398Y-100138039D01*
X98398171Y-100123490D01*
X98412381Y-100109281D01*
X98433185Y-100100094D01*
X98457504Y-100083846D01*
X98480218Y-100079327D01*
X98497766Y-100071580D01*
X98549127Y-100065621D01*
X98553175Y-100064816D01*
X98953175Y-100064816D01*
X98957222Y-100065621D01*
G37*
G36*
X138266789Y-99524705D02*
G01*
X138405476Y-99561866D01*
X138529819Y-99633656D01*
X138631344Y-99735181D01*
X138703134Y-99859524D01*
X138740295Y-99998211D01*
X138740295Y-100141789D01*
X138703134Y-100280476D01*
X138631344Y-100404819D01*
X138529819Y-100506344D01*
X138405476Y-100578134D01*
X138266789Y-100615295D01*
X138195000Y-100620000D01*
X138193363Y-100620000D01*
X137096637Y-100620000D01*
X137095000Y-100620000D01*
X137023211Y-100615295D01*
X136884524Y-100578134D01*
X136760181Y-100506344D01*
X136658656Y-100404819D01*
X136586866Y-100280476D01*
X136549705Y-100141789D01*
X136549705Y-99998211D01*
X136586866Y-99859524D01*
X136658656Y-99735181D01*
X136760181Y-99633656D01*
X136884524Y-99561866D01*
X137023211Y-99524705D01*
X137095000Y-99520000D01*
X138195000Y-99520000D01*
X138266789Y-99524705D01*
G37*
G36*
X142296789Y-99524705D02*
G01*
X142435476Y-99561866D01*
X142559819Y-99633656D01*
X142661344Y-99735181D01*
X142733134Y-99859524D01*
X142770295Y-99998211D01*
X142770295Y-100141789D01*
X142733134Y-100280476D01*
X142661344Y-100404819D01*
X142559819Y-100506344D01*
X142435476Y-100578134D01*
X142296789Y-100615295D01*
X142225000Y-100620000D01*
X142223363Y-100620000D01*
X141426637Y-100620000D01*
X141425000Y-100620000D01*
X141353211Y-100615295D01*
X141214524Y-100578134D01*
X141090181Y-100506344D01*
X140988656Y-100404819D01*
X140916866Y-100280476D01*
X140879705Y-100141789D01*
X140879705Y-99998211D01*
X140916866Y-99859524D01*
X140988656Y-99735181D01*
X141090181Y-99633656D01*
X141214524Y-99561866D01*
X141353211Y-99524705D01*
X141425000Y-99520000D01*
X142225000Y-99520000D01*
X142296789Y-99524705D01*
G37*
G36*
X138288506Y-98293545D02*
G01*
X138373286Y-98342492D01*
X138442508Y-98411714D01*
X138491455Y-98496494D01*
X138516792Y-98591053D01*
X138516792Y-98688947D01*
X138491455Y-98783506D01*
X138442508Y-98868286D01*
X138373286Y-98937508D01*
X138288506Y-98986455D01*
X138193947Y-99011792D01*
X138096053Y-99011792D01*
X138001494Y-98986455D01*
X137916714Y-98937508D01*
X137847492Y-98868286D01*
X137798545Y-98783506D01*
X137773208Y-98688947D01*
X137773208Y-98591053D01*
X137798545Y-98496494D01*
X137847492Y-98411714D01*
X137916714Y-98342492D01*
X138001494Y-98293545D01*
X138096053Y-98268208D01*
X138193947Y-98268208D01*
X138288506Y-98293545D01*
G37*
G36*
X118146533Y-92871106D02*
G01*
X118162754Y-92881945D01*
X118173593Y-92898166D01*
X118177399Y-92917300D01*
X118177399Y-93865000D01*
X118173593Y-93884134D01*
X118162754Y-93900355D01*
X118146533Y-93911194D01*
X118127399Y-93915000D01*
X118122468Y-93915000D01*
X118086257Y-93922202D01*
X118095139Y-94012400D01*
X118404856Y-94012400D01*
X118413740Y-93922204D01*
X118377525Y-93915000D01*
X118372601Y-93915000D01*
X118353467Y-93911194D01*
X118337246Y-93900355D01*
X118326407Y-93884134D01*
X118322601Y-93865000D01*
X118322601Y-92917300D01*
X118326407Y-92898166D01*
X118337246Y-92881945D01*
X118353467Y-92871106D01*
X118372601Y-92867300D01*
X118627401Y-92867300D01*
X118646535Y-92871106D01*
X118662756Y-92881945D01*
X118673595Y-92898166D01*
X118677401Y-92917300D01*
X118677401Y-93865000D01*
X118673595Y-93884134D01*
X118662756Y-93900355D01*
X118646535Y-93911194D01*
X118627401Y-93915000D01*
X118622470Y-93915000D01*
X118586259Y-93922202D01*
X118595141Y-94012400D01*
X118904855Y-94012400D01*
X118913739Y-93922204D01*
X118877524Y-93915000D01*
X118872600Y-93915000D01*
X118853466Y-93911194D01*
X118837245Y-93900355D01*
X118826406Y-93884134D01*
X118822600Y-93865000D01*
X118822600Y-92917300D01*
X118826406Y-92898166D01*
X118837245Y-92881945D01*
X118853466Y-92871106D01*
X118872600Y-92867300D01*
X119127400Y-92867300D01*
X119146534Y-92871106D01*
X119162755Y-92881945D01*
X119173594Y-92898166D01*
X119177400Y-92917300D01*
X119177400Y-93865000D01*
X119173594Y-93884134D01*
X119162755Y-93900355D01*
X119146534Y-93911194D01*
X119127400Y-93915000D01*
X119122469Y-93915000D01*
X119086258Y-93922202D01*
X119095140Y-94012400D01*
X119404854Y-94012400D01*
X119413738Y-93922204D01*
X119377523Y-93915000D01*
X119372599Y-93915000D01*
X119353465Y-93911194D01*
X119337244Y-93900355D01*
X119326405Y-93884134D01*
X119322599Y-93865000D01*
X119322599Y-92917300D01*
X119326405Y-92898166D01*
X119337244Y-92881945D01*
X119353465Y-92871106D01*
X119372599Y-92867300D01*
X119627399Y-92867300D01*
X119646533Y-92871106D01*
X119662754Y-92881945D01*
X119673593Y-92898166D01*
X119677399Y-92917300D01*
X119677399Y-93865000D01*
X119673593Y-93884134D01*
X119662754Y-93900355D01*
X119646533Y-93911194D01*
X119627399Y-93915000D01*
X119622468Y-93915000D01*
X119586257Y-93922202D01*
X119595139Y-94012400D01*
X119904856Y-94012400D01*
X119913740Y-93922204D01*
X119877525Y-93915000D01*
X119872601Y-93915000D01*
X119853467Y-93911194D01*
X119837246Y-93900355D01*
X119826407Y-93884134D01*
X119822601Y-93865000D01*
X119822601Y-92917300D01*
X119826407Y-92898166D01*
X119837246Y-92881945D01*
X119853467Y-92871106D01*
X119872601Y-92867300D01*
X120127401Y-92867300D01*
X120146535Y-92871106D01*
X120162756Y-92881945D01*
X120173595Y-92898166D01*
X120177401Y-92917300D01*
X120177401Y-93865000D01*
X120173595Y-93884134D01*
X120162756Y-93900355D01*
X120146535Y-93911194D01*
X120127401Y-93915000D01*
X120122470Y-93915000D01*
X120086259Y-93922202D01*
X120095141Y-94012400D01*
X120260054Y-94012400D01*
X120270622Y-94016777D01*
X120275000Y-94027345D01*
X120275000Y-94192254D01*
X120365196Y-94201138D01*
X120372400Y-94164920D01*
X120372400Y-94159999D01*
X120376206Y-94140865D01*
X120387045Y-94124644D01*
X120403266Y-94113805D01*
X120422400Y-94109999D01*
X121370100Y-94109999D01*
X121389234Y-94113805D01*
X121405455Y-94124644D01*
X121416294Y-94140865D01*
X121420100Y-94159999D01*
X121420100Y-94414799D01*
X121416294Y-94433933D01*
X121405455Y-94450154D01*
X121389234Y-94460993D01*
X121370100Y-94464799D01*
X120422400Y-94464799D01*
X120403266Y-94460993D01*
X120387045Y-94450154D01*
X120376206Y-94433933D01*
X120372400Y-94414799D01*
X120372400Y-94409870D01*
X120365198Y-94373657D01*
X120275000Y-94382539D01*
X120275000Y-94692256D01*
X120365196Y-94701140D01*
X120372400Y-94664922D01*
X120372400Y-94660001D01*
X120376206Y-94640867D01*
X120387045Y-94624646D01*
X120403266Y-94613807D01*
X120422400Y-94610001D01*
X121370100Y-94610001D01*
X121389234Y-94613807D01*
X121405455Y-94624646D01*
X121416294Y-94640867D01*
X121420100Y-94660001D01*
X121420100Y-94914801D01*
X121416294Y-94933935D01*
X121405455Y-94950156D01*
X121389234Y-94960995D01*
X121370100Y-94964801D01*
X120422400Y-94964801D01*
X120403266Y-94960995D01*
X120387045Y-94950156D01*
X120376206Y-94933935D01*
X120372400Y-94914801D01*
X120372400Y-94909872D01*
X120365198Y-94873659D01*
X120275000Y-94882541D01*
X120275000Y-95192255D01*
X120365196Y-95201139D01*
X120372400Y-95164921D01*
X120372400Y-95160000D01*
X120376206Y-95140866D01*
X120387045Y-95124645D01*
X120403266Y-95113806D01*
X120422400Y-95110000D01*
X121370100Y-95110000D01*
X121389234Y-95113806D01*
X121405455Y-95124645D01*
X121416294Y-95140866D01*
X121420100Y-95160000D01*
X121420100Y-95414800D01*
X121416294Y-95433934D01*
X121405455Y-95450155D01*
X121389234Y-95460994D01*
X121370100Y-95464800D01*
X120422400Y-95464800D01*
X120403266Y-95460994D01*
X120387045Y-95450155D01*
X120376206Y-95433934D01*
X120372400Y-95414800D01*
X120372400Y-95409871D01*
X120365198Y-95373658D01*
X120275000Y-95382540D01*
X120275000Y-95692254D01*
X120365196Y-95701138D01*
X120372400Y-95664920D01*
X120372400Y-95659999D01*
X120376206Y-95640865D01*
X120387045Y-95624644D01*
X120403266Y-95613805D01*
X120422400Y-95609999D01*
X121370100Y-95609999D01*
X121389234Y-95613805D01*
X121405455Y-95624644D01*
X121416294Y-95640865D01*
X121420100Y-95659999D01*
X121420100Y-95914799D01*
X121416294Y-95933933D01*
X121405455Y-95950154D01*
X121389234Y-95960993D01*
X121370100Y-95964799D01*
X120422400Y-95964799D01*
X120403266Y-95960993D01*
X120387045Y-95950154D01*
X120376206Y-95933933D01*
X120372400Y-95914799D01*
X120372400Y-95909870D01*
X120365198Y-95873657D01*
X120275000Y-95882539D01*
X120275000Y-96192256D01*
X120365196Y-96201140D01*
X120372400Y-96164922D01*
X120372400Y-96160001D01*
X120376206Y-96140867D01*
X120387045Y-96124646D01*
X120403266Y-96113807D01*
X120422400Y-96110001D01*
X121370100Y-96110001D01*
X121389234Y-96113807D01*
X121405455Y-96124646D01*
X121416294Y-96140867D01*
X121420100Y-96160001D01*
X121420100Y-96414801D01*
X121416294Y-96433935D01*
X121405455Y-96450156D01*
X121389234Y-96460995D01*
X121370100Y-96464801D01*
X120422400Y-96464801D01*
X120403266Y-96460995D01*
X120387045Y-96450156D01*
X120376206Y-96433935D01*
X120372400Y-96414801D01*
X120372400Y-96409872D01*
X120365198Y-96373659D01*
X120275000Y-96382541D01*
X120275000Y-96547454D01*
X120270622Y-96558022D01*
X120260054Y-96562400D01*
X120095146Y-96562400D01*
X120086262Y-96652596D01*
X120122479Y-96659800D01*
X120127401Y-96659800D01*
X120146535Y-96663606D01*
X120162756Y-96674445D01*
X120173595Y-96690666D01*
X120177401Y-96709800D01*
X120177401Y-97657500D01*
X120173595Y-97676634D01*
X120162756Y-97692855D01*
X120146535Y-97703694D01*
X120127401Y-97707500D01*
X119872601Y-97707500D01*
X119853467Y-97703694D01*
X119837246Y-97692855D01*
X119826407Y-97676634D01*
X119822601Y-97657500D01*
X119822601Y-96709800D01*
X119826407Y-96690666D01*
X119837246Y-96674445D01*
X119853467Y-96663606D01*
X119872601Y-96659800D01*
X119877529Y-96659800D01*
X119913743Y-96652598D01*
X119904861Y-96562400D01*
X119595144Y-96562400D01*
X119586260Y-96652596D01*
X119622477Y-96659800D01*
X119627399Y-96659800D01*
X119646533Y-96663606D01*
X119662754Y-96674445D01*
X119673593Y-96690666D01*
X119677399Y-96709800D01*
X119677399Y-97657500D01*
X119673593Y-97676634D01*
X119662754Y-97692855D01*
X119646533Y-97703694D01*
X119627399Y-97707500D01*
X119372599Y-97707500D01*
X119353465Y-97703694D01*
X119337244Y-97692855D01*
X119326405Y-97676634D01*
X119322599Y-97657500D01*
X119322599Y-96709800D01*
X119326405Y-96690666D01*
X119337244Y-96674445D01*
X119353465Y-96663606D01*
X119372599Y-96659800D01*
X119377527Y-96659800D01*
X119413741Y-96652598D01*
X119404859Y-96562400D01*
X119095145Y-96562400D01*
X119086261Y-96652596D01*
X119122478Y-96659800D01*
X119127400Y-96659800D01*
X119146534Y-96663606D01*
X119162755Y-96674445D01*
X119173594Y-96690666D01*
X119177400Y-96709800D01*
X119177400Y-97657500D01*
X119173594Y-97676634D01*
X119162755Y-97692855D01*
X119146534Y-97703694D01*
X119127400Y-97707500D01*
X118872600Y-97707500D01*
X118853466Y-97703694D01*
X118837245Y-97692855D01*
X118826406Y-97676634D01*
X118822600Y-97657500D01*
X118822600Y-96709800D01*
X118826406Y-96690666D01*
X118837245Y-96674445D01*
X118853466Y-96663606D01*
X118872600Y-96659800D01*
X118877528Y-96659800D01*
X118913742Y-96652598D01*
X118904860Y-96562400D01*
X118595146Y-96562400D01*
X118586262Y-96652596D01*
X118622479Y-96659800D01*
X118627401Y-96659800D01*
X118646535Y-96663606D01*
X118662756Y-96674445D01*
X118673595Y-96690666D01*
X118677401Y-96709800D01*
X118677401Y-97657500D01*
X118673595Y-97676634D01*
X118662756Y-97692855D01*
X118646535Y-97703694D01*
X118627401Y-97707500D01*
X118372601Y-97707500D01*
X118353467Y-97703694D01*
X118337246Y-97692855D01*
X118326407Y-97676634D01*
X118322601Y-97657500D01*
X118322601Y-96709800D01*
X118326407Y-96690666D01*
X118337246Y-96674445D01*
X118353467Y-96663606D01*
X118372601Y-96659800D01*
X118377529Y-96659800D01*
X118413743Y-96652598D01*
X118404861Y-96562400D01*
X118095144Y-96562400D01*
X118086260Y-96652596D01*
X118122477Y-96659800D01*
X118127399Y-96659800D01*
X118146533Y-96663606D01*
X118162754Y-96674445D01*
X118173593Y-96690666D01*
X118177399Y-96709800D01*
X118177399Y-97657500D01*
X118173593Y-97676634D01*
X118162754Y-97692855D01*
X118146533Y-97703694D01*
X118127399Y-97707500D01*
X117872599Y-97707500D01*
X117853465Y-97703694D01*
X117837244Y-97692855D01*
X117826405Y-97676634D01*
X117822599Y-97657500D01*
X117822599Y-96709800D01*
X117826405Y-96690666D01*
X117837244Y-96674445D01*
X117853465Y-96663606D01*
X117872599Y-96659800D01*
X117877527Y-96659800D01*
X117913741Y-96652598D01*
X117904859Y-96562400D01*
X117739946Y-96562400D01*
X117729377Y-96558022D01*
X117725000Y-96547454D01*
X117725000Y-96382544D01*
X117634803Y-96373661D01*
X117627600Y-96409873D01*
X117627600Y-96414801D01*
X117623794Y-96433935D01*
X117612955Y-96450156D01*
X117596734Y-96460995D01*
X117577600Y-96464801D01*
X116629900Y-96464801D01*
X116610766Y-96460995D01*
X116594545Y-96450156D01*
X116583706Y-96433935D01*
X116579900Y-96414801D01*
X116579900Y-96160001D01*
X116583706Y-96140867D01*
X116594545Y-96124646D01*
X116610766Y-96113807D01*
X116629900Y-96110001D01*
X117577600Y-96110001D01*
X117596734Y-96113807D01*
X117612955Y-96124646D01*
X117623794Y-96140867D01*
X117627600Y-96160001D01*
X117627600Y-96164928D01*
X117634802Y-96201143D01*
X117725000Y-96192260D01*
X117725000Y-95882542D01*
X117634803Y-95873659D01*
X117627600Y-95909871D01*
X117627600Y-95914799D01*
X117623794Y-95933933D01*
X117612955Y-95950154D01*
X117596734Y-95960993D01*
X117577600Y-95964799D01*
X116629900Y-95964799D01*
X116610766Y-95960993D01*
X116594545Y-95950154D01*
X116583706Y-95933933D01*
X116579900Y-95914799D01*
X116579900Y-95659999D01*
X116583706Y-95640865D01*
X116594545Y-95624644D01*
X116610766Y-95613805D01*
X116629900Y-95609999D01*
X117577600Y-95609999D01*
X117596734Y-95613805D01*
X117612955Y-95624644D01*
X117623794Y-95640865D01*
X117627600Y-95659999D01*
X117627600Y-95664926D01*
X117634802Y-95701141D01*
X117725000Y-95692258D01*
X117725000Y-95382543D01*
X117634803Y-95373660D01*
X117627600Y-95409872D01*
X117627600Y-95414800D01*
X117623794Y-95433934D01*
X117612955Y-95450155D01*
X117596734Y-95460994D01*
X117577600Y-95464800D01*
X116629900Y-95464800D01*
X116610766Y-95460994D01*
X116594545Y-95450155D01*
X116583706Y-95433934D01*
X116579900Y-95414800D01*
X116579900Y-95160000D01*
X116583706Y-95140866D01*
X116594545Y-95124645D01*
X116610766Y-95113806D01*
X116629900Y-95110000D01*
X117577600Y-95110000D01*
X117596734Y-95113806D01*
X117612955Y-95124645D01*
X117623794Y-95140866D01*
X117627600Y-95160000D01*
X117627600Y-95164927D01*
X117634802Y-95201142D01*
X117725000Y-95192259D01*
X117725000Y-94882544D01*
X117634803Y-94873661D01*
X117627600Y-94909873D01*
X117627600Y-94914801D01*
X117623794Y-94933935D01*
X117612955Y-94950156D01*
X117596734Y-94960995D01*
X117577600Y-94964801D01*
X116629900Y-94964801D01*
X116610766Y-94960995D01*
X116594545Y-94950156D01*
X116583706Y-94933935D01*
X116579900Y-94914801D01*
X116579900Y-94660001D01*
X116583706Y-94640867D01*
X116594545Y-94624646D01*
X116610766Y-94613807D01*
X116629900Y-94610001D01*
X117577600Y-94610001D01*
X117596734Y-94613807D01*
X117612955Y-94624646D01*
X117623794Y-94640867D01*
X117627600Y-94660001D01*
X117627600Y-94664928D01*
X117634802Y-94701143D01*
X117725000Y-94692260D01*
X117725000Y-94382542D01*
X117634803Y-94373659D01*
X117627600Y-94409871D01*
X117627600Y-94414799D01*
X117623794Y-94433933D01*
X117612955Y-94450154D01*
X117596734Y-94460993D01*
X117577600Y-94464799D01*
X116629900Y-94464799D01*
X116610766Y-94460993D01*
X116594545Y-94450154D01*
X116583706Y-94433933D01*
X116579900Y-94414799D01*
X116579900Y-94159999D01*
X116583706Y-94140865D01*
X116594545Y-94124644D01*
X116610766Y-94113805D01*
X116629900Y-94109999D01*
X117577600Y-94109999D01*
X117596734Y-94113805D01*
X117612955Y-94124644D01*
X117623794Y-94140865D01*
X117627600Y-94159999D01*
X117627600Y-94164926D01*
X117634802Y-94201141D01*
X117725000Y-94192258D01*
X117725000Y-94027345D01*
X117729377Y-94016777D01*
X117739946Y-94012400D01*
X117904854Y-94012400D01*
X117913738Y-93922204D01*
X117877523Y-93915000D01*
X117872599Y-93915000D01*
X117853465Y-93911194D01*
X117837244Y-93900355D01*
X117826405Y-93884134D01*
X117822599Y-93865000D01*
X117822599Y-92917300D01*
X117826405Y-92898166D01*
X117837244Y-92881945D01*
X117853465Y-92871106D01*
X117872599Y-92867300D01*
X118127399Y-92867300D01*
X118146533Y-92871106D01*
G37*
G36*
X127911043Y-95011324D02*
G01*
X127962404Y-95017283D01*
X127979950Y-95025030D01*
X128002667Y-95029549D01*
X128026987Y-95045799D01*
X128047789Y-95054984D01*
X128061996Y-95069191D01*
X128083773Y-95083742D01*
X128098323Y-95105518D01*
X128112530Y-95119725D01*
X128121714Y-95140525D01*
X128137966Y-95164848D01*
X128142485Y-95187567D01*
X128150231Y-95205110D01*
X128156188Y-95256459D01*
X128156996Y-95260519D01*
X128156996Y-95810519D01*
X128156188Y-95814578D01*
X128150231Y-95865927D01*
X128142485Y-95883469D01*
X128137966Y-95906190D01*
X128121712Y-95930514D01*
X128112530Y-95951312D01*
X128098325Y-95965516D01*
X128083773Y-95987296D01*
X128061993Y-96001848D01*
X128047789Y-96016053D01*
X128026991Y-96025235D01*
X128002667Y-96041489D01*
X127979946Y-96046008D01*
X127962404Y-96053754D01*
X127911057Y-96059711D01*
X127906996Y-96060519D01*
X127506996Y-96060519D01*
X127502937Y-96059711D01*
X127451587Y-96053754D01*
X127434044Y-96046008D01*
X127411325Y-96041489D01*
X127387002Y-96025237D01*
X127366202Y-96016053D01*
X127351995Y-96001846D01*
X127330219Y-95987296D01*
X127315668Y-95965519D01*
X127301461Y-95951312D01*
X127292276Y-95930510D01*
X127276026Y-95906190D01*
X127271507Y-95883473D01*
X127263760Y-95865927D01*
X127257801Y-95814568D01*
X127256996Y-95810519D01*
X127256996Y-95260519D01*
X127257800Y-95256472D01*
X127263760Y-95205110D01*
X127271507Y-95187562D01*
X127276026Y-95164848D01*
X127292274Y-95140529D01*
X127301461Y-95119725D01*
X127315670Y-95105515D01*
X127330219Y-95083742D01*
X127351992Y-95069193D01*
X127366202Y-95054984D01*
X127387006Y-95045797D01*
X127411325Y-95029549D01*
X127434039Y-95025030D01*
X127451587Y-95017283D01*
X127502948Y-95011324D01*
X127506996Y-95010519D01*
X127906996Y-95010519D01*
X127911043Y-95011324D01*
G37*
G36*
X129561043Y-95011324D02*
G01*
X129612404Y-95017283D01*
X129629950Y-95025030D01*
X129652667Y-95029549D01*
X129676987Y-95045799D01*
X129697789Y-95054984D01*
X129711996Y-95069191D01*
X129733773Y-95083742D01*
X129748323Y-95105518D01*
X129762530Y-95119725D01*
X129771714Y-95140525D01*
X129787966Y-95164848D01*
X129792485Y-95187567D01*
X129800231Y-95205110D01*
X129806188Y-95256459D01*
X129806996Y-95260519D01*
X129806996Y-95810519D01*
X129806188Y-95814578D01*
X129800231Y-95865927D01*
X129792485Y-95883469D01*
X129787966Y-95906190D01*
X129771712Y-95930514D01*
X129762530Y-95951312D01*
X129748325Y-95965516D01*
X129733773Y-95987296D01*
X129711993Y-96001848D01*
X129697789Y-96016053D01*
X129676991Y-96025235D01*
X129652667Y-96041489D01*
X129629946Y-96046008D01*
X129612404Y-96053754D01*
X129561057Y-96059711D01*
X129556996Y-96060519D01*
X129156996Y-96060519D01*
X129152937Y-96059711D01*
X129101587Y-96053754D01*
X129084044Y-96046008D01*
X129061325Y-96041489D01*
X129037002Y-96025237D01*
X129016202Y-96016053D01*
X129001995Y-96001846D01*
X128980219Y-95987296D01*
X128965668Y-95965519D01*
X128951461Y-95951312D01*
X128942276Y-95930510D01*
X128926026Y-95906190D01*
X128921507Y-95883473D01*
X128913760Y-95865927D01*
X128907801Y-95814568D01*
X128906996Y-95810519D01*
X128906996Y-95260519D01*
X128907800Y-95256472D01*
X128913760Y-95205110D01*
X128921507Y-95187562D01*
X128926026Y-95164848D01*
X128942274Y-95140529D01*
X128951461Y-95119725D01*
X128965670Y-95105515D01*
X128980219Y-95083742D01*
X129001992Y-95069193D01*
X129016202Y-95054984D01*
X129037006Y-95045797D01*
X129061325Y-95029549D01*
X129084039Y-95025030D01*
X129101587Y-95017283D01*
X129152948Y-95011324D01*
X129156996Y-95010519D01*
X129556996Y-95010519D01*
X129561043Y-95011324D01*
G37*
G36*
X129256266Y-92989605D02*
G01*
X129307627Y-92995564D01*
X129325173Y-93003311D01*
X129347890Y-93007830D01*
X129372210Y-93024080D01*
X129393012Y-93033265D01*
X129407219Y-93047472D01*
X129428996Y-93062023D01*
X129443546Y-93083799D01*
X129457753Y-93098006D01*
X129466937Y-93118806D01*
X129483189Y-93143129D01*
X129487708Y-93165848D01*
X129495454Y-93183391D01*
X129501411Y-93234740D01*
X129502219Y-93238800D01*
X129502219Y-93788800D01*
X129501411Y-93792859D01*
X129495454Y-93844208D01*
X129487708Y-93861750D01*
X129483189Y-93884471D01*
X129466935Y-93908795D01*
X129457753Y-93929593D01*
X129443548Y-93943797D01*
X129428996Y-93965577D01*
X129407216Y-93980129D01*
X129393012Y-93994334D01*
X129372214Y-94003516D01*
X129347890Y-94019770D01*
X129325169Y-94024289D01*
X129307627Y-94032035D01*
X129256280Y-94037992D01*
X129252219Y-94038800D01*
X128852219Y-94038800D01*
X128848160Y-94037992D01*
X128796810Y-94032035D01*
X128779267Y-94024289D01*
X128756548Y-94019770D01*
X128732225Y-94003518D01*
X128711425Y-93994334D01*
X128697218Y-93980127D01*
X128675442Y-93965577D01*
X128660891Y-93943800D01*
X128646684Y-93929593D01*
X128637499Y-93908791D01*
X128621249Y-93884471D01*
X128616730Y-93861754D01*
X128608983Y-93844208D01*
X128603024Y-93792849D01*
X128602219Y-93788800D01*
X128602219Y-93238800D01*
X128603023Y-93234753D01*
X128608983Y-93183391D01*
X128616730Y-93165843D01*
X128621249Y-93143129D01*
X128637497Y-93118810D01*
X128646684Y-93098006D01*
X128660893Y-93083796D01*
X128675442Y-93062023D01*
X128697215Y-93047474D01*
X128711425Y-93033265D01*
X128732229Y-93024078D01*
X128756548Y-93007830D01*
X128779262Y-93003311D01*
X128796810Y-92995564D01*
X128848171Y-92989605D01*
X128852219Y-92988800D01*
X129252219Y-92988800D01*
X129256266Y-92989605D01*
G37*
G36*
X130906266Y-92989605D02*
G01*
X130957627Y-92995564D01*
X130975173Y-93003311D01*
X130997890Y-93007830D01*
X131022210Y-93024080D01*
X131043012Y-93033265D01*
X131057219Y-93047472D01*
X131078996Y-93062023D01*
X131093546Y-93083799D01*
X131107753Y-93098006D01*
X131116937Y-93118806D01*
X131133189Y-93143129D01*
X131137708Y-93165848D01*
X131145454Y-93183391D01*
X131151411Y-93234740D01*
X131152219Y-93238800D01*
X131152219Y-93788800D01*
X131151411Y-93792859D01*
X131145454Y-93844208D01*
X131137708Y-93861750D01*
X131133189Y-93884471D01*
X131116935Y-93908795D01*
X131107753Y-93929593D01*
X131093548Y-93943797D01*
X131078996Y-93965577D01*
X131057216Y-93980129D01*
X131043012Y-93994334D01*
X131022214Y-94003516D01*
X130997890Y-94019770D01*
X130975169Y-94024289D01*
X130957627Y-94032035D01*
X130906280Y-94037992D01*
X130902219Y-94038800D01*
X130502219Y-94038800D01*
X130498160Y-94037992D01*
X130446810Y-94032035D01*
X130429267Y-94024289D01*
X130406548Y-94019770D01*
X130382225Y-94003518D01*
X130361425Y-93994334D01*
X130347218Y-93980127D01*
X130325442Y-93965577D01*
X130310891Y-93943800D01*
X130296684Y-93929593D01*
X130287499Y-93908791D01*
X130271249Y-93884471D01*
X130266730Y-93861754D01*
X130258983Y-93844208D01*
X130253024Y-93792849D01*
X130252219Y-93788800D01*
X130252219Y-93238800D01*
X130253023Y-93234753D01*
X130258983Y-93183391D01*
X130266730Y-93165843D01*
X130271249Y-93143129D01*
X130287497Y-93118810D01*
X130296684Y-93098006D01*
X130310893Y-93083796D01*
X130325442Y-93062023D01*
X130347215Y-93047474D01*
X130361425Y-93033265D01*
X130382229Y-93024078D01*
X130406548Y-93007830D01*
X130429262Y-93003311D01*
X130446810Y-92995564D01*
X130498171Y-92989605D01*
X130502219Y-92988800D01*
X130902219Y-92988800D01*
X130906266Y-92989605D01*
G37*
G36*
X138288506Y-92513545D02*
G01*
X138373286Y-92562492D01*
X138442508Y-92631714D01*
X138491455Y-92716494D01*
X138516792Y-92811053D01*
X138516792Y-92908947D01*
X138491455Y-93003506D01*
X138442508Y-93088286D01*
X138373286Y-93157508D01*
X138288506Y-93206455D01*
X138193947Y-93231792D01*
X138096053Y-93231792D01*
X138001494Y-93206455D01*
X137916714Y-93157508D01*
X137847492Y-93088286D01*
X137798545Y-93003506D01*
X137773208Y-92908947D01*
X137773208Y-92811053D01*
X137798545Y-92716494D01*
X137847492Y-92631714D01*
X137916714Y-92562492D01*
X138001494Y-92513545D01*
X138096053Y-92488208D01*
X138193947Y-92488208D01*
X138288506Y-92513545D01*
G37*
G36*
X138266789Y-90884705D02*
G01*
X138405476Y-90921866D01*
X138529819Y-90993656D01*
X138631344Y-91095181D01*
X138703134Y-91219524D01*
X138740295Y-91358211D01*
X138740295Y-91501789D01*
X138703134Y-91640476D01*
X138631344Y-91764819D01*
X138529819Y-91866344D01*
X138405476Y-91938134D01*
X138266789Y-91975295D01*
X138195000Y-91980000D01*
X138193363Y-91980000D01*
X137096637Y-91980000D01*
X137095000Y-91980000D01*
X137023211Y-91975295D01*
X136884524Y-91938134D01*
X136760181Y-91866344D01*
X136658656Y-91764819D01*
X136586866Y-91640476D01*
X136549705Y-91501789D01*
X136549705Y-91358211D01*
X136586866Y-91219524D01*
X136658656Y-91095181D01*
X136760181Y-90993656D01*
X136884524Y-90921866D01*
X137023211Y-90884705D01*
X137095000Y-90880000D01*
X138195000Y-90880000D01*
X138266789Y-90884705D01*
G37*
G36*
X142296789Y-90884705D02*
G01*
X142435476Y-90921866D01*
X142559819Y-90993656D01*
X142661344Y-91095181D01*
X142733134Y-91219524D01*
X142770295Y-91358211D01*
X142770295Y-91501789D01*
X142733134Y-91640476D01*
X142661344Y-91764819D01*
X142559819Y-91866344D01*
X142435476Y-91938134D01*
X142296789Y-91975295D01*
X142225000Y-91980000D01*
X142223363Y-91980000D01*
X141426637Y-91980000D01*
X141425000Y-91980000D01*
X141353211Y-91975295D01*
X141214524Y-91938134D01*
X141090181Y-91866344D01*
X140988656Y-91764819D01*
X140916866Y-91640476D01*
X140879705Y-91501789D01*
X140879705Y-91358211D01*
X140916866Y-91219524D01*
X140988656Y-91095181D01*
X141090181Y-90993656D01*
X141214524Y-90921866D01*
X141353211Y-90884705D01*
X141425000Y-90880000D01*
X142225000Y-90880000D01*
X142296789Y-90884705D01*
G37*
G36*
X128448070Y-85984425D02*
G01*
X128456743Y-85988254D01*
X128464310Y-85989357D01*
X128511608Y-86012479D01*
X128548926Y-86028957D01*
X128552381Y-86032412D01*
X128553305Y-86032864D01*
X128622976Y-86102535D01*
X128623427Y-86103458D01*
X128626884Y-86106915D01*
X128643363Y-86144238D01*
X128666483Y-86191529D01*
X128667585Y-86199095D01*
X128671416Y-86207771D01*
X128679385Y-86276456D01*
X128679385Y-88276456D01*
X128671416Y-88345141D01*
X128667584Y-88353817D01*
X128666483Y-88361381D01*
X128643370Y-88408658D01*
X128626884Y-88445997D01*
X128623426Y-88449454D01*
X128622976Y-88450376D01*
X128553305Y-88520047D01*
X128552383Y-88520497D01*
X128548926Y-88523955D01*
X128511592Y-88540439D01*
X128464311Y-88563554D01*
X128456746Y-88564656D01*
X128448070Y-88568487D01*
X128379385Y-88576456D01*
X126979385Y-88576456D01*
X126910700Y-88568487D01*
X126902023Y-88564656D01*
X126894459Y-88563554D01*
X126847172Y-88540437D01*
X126809844Y-88523955D01*
X126806387Y-88520498D01*
X126805464Y-88520047D01*
X126735793Y-88450376D01*
X126735341Y-88449452D01*
X126731886Y-88445997D01*
X126715410Y-88408684D01*
X126692286Y-88361382D01*
X126691183Y-88353813D01*
X126687354Y-88345141D01*
X126679385Y-88276456D01*
X126679385Y-86276456D01*
X126687354Y-86207771D01*
X126691183Y-86199098D01*
X126692286Y-86191530D01*
X126715413Y-86144222D01*
X126731886Y-86106915D01*
X126735340Y-86103460D01*
X126735793Y-86102535D01*
X126805464Y-86032864D01*
X126806389Y-86032411D01*
X126809844Y-86028957D01*
X126847146Y-86012486D01*
X126894458Y-85989357D01*
X126902027Y-85988254D01*
X126910700Y-85984425D01*
X126979385Y-85976456D01*
X128379385Y-85976456D01*
X128448070Y-85984425D01*
G37*
G36*
X132848070Y-85984425D02*
G01*
X132856743Y-85988254D01*
X132864310Y-85989357D01*
X132911608Y-86012479D01*
X132948926Y-86028957D01*
X132952381Y-86032412D01*
X132953305Y-86032864D01*
X133022976Y-86102535D01*
X133023427Y-86103458D01*
X133026884Y-86106915D01*
X133043363Y-86144238D01*
X133066483Y-86191529D01*
X133067585Y-86199095D01*
X133071416Y-86207771D01*
X133079385Y-86276456D01*
X133079385Y-88276456D01*
X133071416Y-88345141D01*
X133067584Y-88353817D01*
X133066483Y-88361381D01*
X133043370Y-88408658D01*
X133026884Y-88445997D01*
X133023426Y-88449454D01*
X133022976Y-88450376D01*
X132953305Y-88520047D01*
X132952383Y-88520497D01*
X132948926Y-88523955D01*
X132911592Y-88540439D01*
X132864311Y-88563554D01*
X132856746Y-88564656D01*
X132848070Y-88568487D01*
X132779385Y-88576456D01*
X131379385Y-88576456D01*
X131310700Y-88568487D01*
X131302023Y-88564656D01*
X131294459Y-88563554D01*
X131247172Y-88540437D01*
X131209844Y-88523955D01*
X131206387Y-88520498D01*
X131205464Y-88520047D01*
X131135793Y-88450376D01*
X131135341Y-88449452D01*
X131131886Y-88445997D01*
X131115410Y-88408684D01*
X131092286Y-88361382D01*
X131091183Y-88353813D01*
X131087354Y-88345141D01*
X131079385Y-88276456D01*
X131079385Y-86276456D01*
X131087354Y-86207771D01*
X131091183Y-86199098D01*
X131092286Y-86191530D01*
X131115413Y-86144222D01*
X131131886Y-86106915D01*
X131135340Y-86103460D01*
X131135793Y-86102535D01*
X131205464Y-86032864D01*
X131206389Y-86032411D01*
X131209844Y-86028957D01*
X131247146Y-86012486D01*
X131294458Y-85989357D01*
X131302027Y-85988254D01*
X131310700Y-85984425D01*
X131379385Y-85976456D01*
X132779385Y-85976456D01*
X132848070Y-85984425D01*
G37*
G36*
X134714520Y-86587966D02*
G01*
X134778069Y-86596332D01*
X134794054Y-86603786D01*
X134813349Y-86607624D01*
X134838903Y-86624699D01*
X134865401Y-86637055D01*
X134881523Y-86653177D01*
X134902565Y-86667237D01*
X134916624Y-86688278D01*
X134932746Y-86704400D01*
X134945101Y-86730895D01*
X134962178Y-86756453D01*
X134966016Y-86775749D01*
X134973469Y-86791732D01*
X134981833Y-86855268D01*
X134983111Y-86861691D01*
X134983111Y-87361691D01*
X134981833Y-87368115D01*
X134973469Y-87431649D01*
X134966016Y-87447630D01*
X134962178Y-87466929D01*
X134945099Y-87492488D01*
X134932746Y-87518981D01*
X134916627Y-87535099D01*
X134902565Y-87556145D01*
X134881519Y-87570207D01*
X134865401Y-87586326D01*
X134838908Y-87598679D01*
X134813349Y-87615758D01*
X134794050Y-87619596D01*
X134778069Y-87627049D01*
X134714535Y-87635413D01*
X134708111Y-87636691D01*
X134258111Y-87636691D01*
X134251688Y-87635413D01*
X134188152Y-87627049D01*
X134172169Y-87619596D01*
X134152873Y-87615758D01*
X134127315Y-87598681D01*
X134100820Y-87586326D01*
X134084698Y-87570204D01*
X134063657Y-87556145D01*
X134049597Y-87535103D01*
X134033475Y-87518981D01*
X134021119Y-87492483D01*
X134004044Y-87466929D01*
X134000206Y-87447634D01*
X133992752Y-87431649D01*
X133984386Y-87368100D01*
X133983111Y-87361691D01*
X133983111Y-86861691D01*
X133984385Y-86855283D01*
X133992752Y-86791732D01*
X134000206Y-86775745D01*
X134004044Y-86756453D01*
X134021117Y-86730900D01*
X134033475Y-86704400D01*
X134049599Y-86688275D01*
X134063657Y-86667237D01*
X134084695Y-86653179D01*
X134100820Y-86637055D01*
X134127320Y-86624697D01*
X134152873Y-86607624D01*
X134172165Y-86603786D01*
X134188152Y-86596332D01*
X134251703Y-86587965D01*
X134258111Y-86586691D01*
X134708111Y-86586691D01*
X134714520Y-86587966D01*
G37*
G36*
X136264520Y-86587966D02*
G01*
X136328069Y-86596332D01*
X136344054Y-86603786D01*
X136363349Y-86607624D01*
X136388903Y-86624699D01*
X136415401Y-86637055D01*
X136431523Y-86653177D01*
X136452565Y-86667237D01*
X136466624Y-86688278D01*
X136482746Y-86704400D01*
X136495101Y-86730895D01*
X136512178Y-86756453D01*
X136516016Y-86775749D01*
X136523469Y-86791732D01*
X136531833Y-86855268D01*
X136533111Y-86861691D01*
X136533111Y-87361691D01*
X136531833Y-87368115D01*
X136523469Y-87431649D01*
X136516016Y-87447630D01*
X136512178Y-87466929D01*
X136495099Y-87492488D01*
X136482746Y-87518981D01*
X136466627Y-87535099D01*
X136452565Y-87556145D01*
X136431519Y-87570207D01*
X136415401Y-87586326D01*
X136388908Y-87598679D01*
X136363349Y-87615758D01*
X136344050Y-87619596D01*
X136328069Y-87627049D01*
X136264535Y-87635413D01*
X136258111Y-87636691D01*
X135808111Y-87636691D01*
X135801688Y-87635413D01*
X135738152Y-87627049D01*
X135722169Y-87619596D01*
X135702873Y-87615758D01*
X135677315Y-87598681D01*
X135650820Y-87586326D01*
X135634698Y-87570204D01*
X135613657Y-87556145D01*
X135599597Y-87535103D01*
X135583475Y-87518981D01*
X135571119Y-87492483D01*
X135554044Y-87466929D01*
X135550206Y-87447634D01*
X135542752Y-87431649D01*
X135534386Y-87368100D01*
X135533111Y-87361691D01*
X135533111Y-86861691D01*
X135534385Y-86855283D01*
X135542752Y-86791732D01*
X135550206Y-86775745D01*
X135554044Y-86756453D01*
X135571117Y-86730900D01*
X135583475Y-86704400D01*
X135599599Y-86688275D01*
X135613657Y-86667237D01*
X135634695Y-86653179D01*
X135650820Y-86637055D01*
X135677320Y-86624697D01*
X135702873Y-86607624D01*
X135722165Y-86603786D01*
X135738152Y-86596332D01*
X135801703Y-86587965D01*
X135808111Y-86586691D01*
X136258111Y-86586691D01*
X136264520Y-86587966D01*
G37*
G36*
X127280739Y-79591950D02*
G01*
X127342669Y-79600103D01*
X127358246Y-79607367D01*
X127377175Y-79611132D01*
X127402246Y-79627883D01*
X127428034Y-79639909D01*
X127443723Y-79655598D01*
X127464364Y-79669390D01*
X127478155Y-79690030D01*
X127493844Y-79705719D01*
X127505868Y-79731505D01*
X127522622Y-79756579D01*
X127526387Y-79775509D01*
X127533650Y-79791084D01*
X127541801Y-79853001D01*
X127543079Y-79859425D01*
X127543079Y-80296925D01*
X127541801Y-80303349D01*
X127533650Y-80365265D01*
X127526387Y-80380839D01*
X127522622Y-80399771D01*
X127505866Y-80424846D01*
X127493844Y-80450630D01*
X127478157Y-80466316D01*
X127464364Y-80486960D01*
X127443720Y-80500753D01*
X127428034Y-80516440D01*
X127402250Y-80528462D01*
X127377175Y-80545218D01*
X127358243Y-80548983D01*
X127342669Y-80556246D01*
X127280753Y-80564397D01*
X127274329Y-80565675D01*
X126511829Y-80565675D01*
X126505405Y-80564397D01*
X126443488Y-80556246D01*
X126427913Y-80548983D01*
X126408983Y-80545218D01*
X126383909Y-80528464D01*
X126358123Y-80516440D01*
X126342434Y-80500751D01*
X126321794Y-80486960D01*
X126308002Y-80466319D01*
X126292313Y-80450630D01*
X126280287Y-80424842D01*
X126263536Y-80399771D01*
X126259771Y-80380842D01*
X126252507Y-80365265D01*
X126244354Y-80303335D01*
X126243079Y-80296925D01*
X126243079Y-79859425D01*
X126244353Y-79853016D01*
X126252507Y-79791084D01*
X126259771Y-79775505D01*
X126263536Y-79756579D01*
X126280286Y-79731510D01*
X126292313Y-79705719D01*
X126308004Y-79690027D01*
X126321794Y-79669390D01*
X126342431Y-79655600D01*
X126358123Y-79639909D01*
X126383914Y-79627882D01*
X126408983Y-79611132D01*
X126427909Y-79607367D01*
X126443488Y-79600103D01*
X126505420Y-79591949D01*
X126511829Y-79590675D01*
X127274329Y-79590675D01*
X127280739Y-79591950D01*
G37*
G36*
X127280739Y-77466950D02*
G01*
X127342669Y-77475103D01*
X127358246Y-77482367D01*
X127377175Y-77486132D01*
X127402246Y-77502883D01*
X127428034Y-77514909D01*
X127443723Y-77530598D01*
X127464364Y-77544390D01*
X127478155Y-77565030D01*
X127493844Y-77580719D01*
X127505868Y-77606505D01*
X127522622Y-77631579D01*
X127526387Y-77650509D01*
X127533650Y-77666084D01*
X127541801Y-77728001D01*
X127543079Y-77734425D01*
X127543079Y-78171925D01*
X127541801Y-78178349D01*
X127533650Y-78240265D01*
X127526387Y-78255839D01*
X127522622Y-78274771D01*
X127505866Y-78299846D01*
X127493844Y-78325630D01*
X127478157Y-78341316D01*
X127464364Y-78361960D01*
X127443720Y-78375753D01*
X127428034Y-78391440D01*
X127402250Y-78403462D01*
X127377175Y-78420218D01*
X127358243Y-78423983D01*
X127342669Y-78431246D01*
X127280753Y-78439397D01*
X127274329Y-78440675D01*
X126511829Y-78440675D01*
X126505405Y-78439397D01*
X126443488Y-78431246D01*
X126427913Y-78423983D01*
X126408983Y-78420218D01*
X126383909Y-78403464D01*
X126358123Y-78391440D01*
X126342434Y-78375751D01*
X126321794Y-78361960D01*
X126308002Y-78341319D01*
X126292313Y-78325630D01*
X126280287Y-78299842D01*
X126263536Y-78274771D01*
X126259771Y-78255842D01*
X126252507Y-78240265D01*
X126244354Y-78178335D01*
X126243079Y-78171925D01*
X126243079Y-77734425D01*
X126244353Y-77728016D01*
X126252507Y-77666084D01*
X126259771Y-77650505D01*
X126263536Y-77631579D01*
X126280286Y-77606510D01*
X126292313Y-77580719D01*
X126308004Y-77565027D01*
X126321794Y-77544390D01*
X126342431Y-77530600D01*
X126358123Y-77514909D01*
X126383914Y-77502882D01*
X126408983Y-77486132D01*
X126427909Y-77482367D01*
X126443488Y-77475103D01*
X126505420Y-77466949D01*
X126511829Y-77465675D01*
X127274329Y-77465675D01*
X127280739Y-77466950D01*
G37*
G36*
X114176121Y-72864841D02*
G01*
X114238051Y-72872994D01*
X114253628Y-72880258D01*
X114272557Y-72884023D01*
X114297628Y-72900774D01*
X114323416Y-72912800D01*
X114339105Y-72928489D01*
X114359746Y-72942281D01*
X114373537Y-72962921D01*
X114389226Y-72978610D01*
X114401250Y-73004396D01*
X114418004Y-73029470D01*
X114421769Y-73048400D01*
X114429032Y-73063975D01*
X114437183Y-73125892D01*
X114438461Y-73132316D01*
X114438461Y-73894816D01*
X114437183Y-73901240D01*
X114429032Y-73963156D01*
X114421769Y-73978730D01*
X114418004Y-73997662D01*
X114401248Y-74022737D01*
X114389226Y-74048521D01*
X114373539Y-74064207D01*
X114359746Y-74084851D01*
X114339102Y-74098644D01*
X114323416Y-74114331D01*
X114297632Y-74126353D01*
X114272557Y-74143109D01*
X114253625Y-74146874D01*
X114238051Y-74154137D01*
X114176135Y-74162288D01*
X114169711Y-74163566D01*
X113732211Y-74163566D01*
X113725787Y-74162288D01*
X113663870Y-74154137D01*
X113648295Y-74146874D01*
X113629365Y-74143109D01*
X113604291Y-74126355D01*
X113578505Y-74114331D01*
X113562816Y-74098642D01*
X113542176Y-74084851D01*
X113528384Y-74064210D01*
X113512695Y-74048521D01*
X113500669Y-74022733D01*
X113483918Y-73997662D01*
X113480153Y-73978733D01*
X113472889Y-73963156D01*
X113464736Y-73901226D01*
X113463461Y-73894816D01*
X113463461Y-73132316D01*
X113464735Y-73125907D01*
X113472889Y-73063975D01*
X113480153Y-73048396D01*
X113483918Y-73029470D01*
X113500668Y-73004401D01*
X113512695Y-72978610D01*
X113528386Y-72962918D01*
X113542176Y-72942281D01*
X113562813Y-72928491D01*
X113578505Y-72912800D01*
X113604296Y-72900773D01*
X113629365Y-72884023D01*
X113648291Y-72880258D01*
X113663870Y-72872994D01*
X113725802Y-72864840D01*
X113732211Y-72863566D01*
X114169711Y-72863566D01*
X114176121Y-72864841D01*
G37*
G36*
X116301121Y-72864841D02*
G01*
X116363051Y-72872994D01*
X116378628Y-72880258D01*
X116397557Y-72884023D01*
X116422628Y-72900774D01*
X116448416Y-72912800D01*
X116464105Y-72928489D01*
X116484746Y-72942281D01*
X116498537Y-72962921D01*
X116514226Y-72978610D01*
X116526250Y-73004396D01*
X116543004Y-73029470D01*
X116546769Y-73048400D01*
X116554032Y-73063975D01*
X116562183Y-73125892D01*
X116563461Y-73132316D01*
X116563461Y-73894816D01*
X116562183Y-73901240D01*
X116554032Y-73963156D01*
X116546769Y-73978730D01*
X116543004Y-73997662D01*
X116526248Y-74022737D01*
X116514226Y-74048521D01*
X116498539Y-74064207D01*
X116484746Y-74084851D01*
X116464102Y-74098644D01*
X116448416Y-74114331D01*
X116422632Y-74126353D01*
X116397557Y-74143109D01*
X116378625Y-74146874D01*
X116363051Y-74154137D01*
X116301135Y-74162288D01*
X116294711Y-74163566D01*
X115857211Y-74163566D01*
X115850787Y-74162288D01*
X115788870Y-74154137D01*
X115773295Y-74146874D01*
X115754365Y-74143109D01*
X115729291Y-74126355D01*
X115703505Y-74114331D01*
X115687816Y-74098642D01*
X115667176Y-74084851D01*
X115653384Y-74064210D01*
X115637695Y-74048521D01*
X115625669Y-74022733D01*
X115608918Y-73997662D01*
X115605153Y-73978733D01*
X115597889Y-73963156D01*
X115589736Y-73901226D01*
X115588461Y-73894816D01*
X115588461Y-73132316D01*
X115589735Y-73125907D01*
X115597889Y-73063975D01*
X115605153Y-73048396D01*
X115608918Y-73029470D01*
X115625668Y-73004401D01*
X115637695Y-72978610D01*
X115653386Y-72962918D01*
X115667176Y-72942281D01*
X115687813Y-72928491D01*
X115703505Y-72912800D01*
X115729296Y-72900773D01*
X115754365Y-72884023D01*
X115773291Y-72880258D01*
X115788870Y-72872994D01*
X115850802Y-72864840D01*
X115857211Y-72863566D01*
X116294711Y-72863566D01*
X116301121Y-72864841D01*
G37*
G36*
X116267705Y-64399059D02*
G01*
X116331254Y-64407425D01*
X116347239Y-64414879D01*
X116366534Y-64418717D01*
X116392088Y-64435792D01*
X116418586Y-64448148D01*
X116434708Y-64464270D01*
X116455750Y-64478330D01*
X116469809Y-64499371D01*
X116485931Y-64515493D01*
X116498286Y-64541988D01*
X116515363Y-64567546D01*
X116519201Y-64586842D01*
X116526654Y-64602825D01*
X116535018Y-64666361D01*
X116536296Y-64672784D01*
X116536296Y-65122784D01*
X116535018Y-65129208D01*
X116526654Y-65192742D01*
X116519201Y-65208723D01*
X116515363Y-65228022D01*
X116498284Y-65253581D01*
X116485931Y-65280074D01*
X116469812Y-65296192D01*
X116455750Y-65317238D01*
X116434704Y-65331300D01*
X116418586Y-65347419D01*
X116392093Y-65359772D01*
X116366534Y-65376851D01*
X116347235Y-65380689D01*
X116331254Y-65388142D01*
X116267720Y-65396506D01*
X116261296Y-65397784D01*
X115761296Y-65397784D01*
X115754873Y-65396506D01*
X115691337Y-65388142D01*
X115675354Y-65380689D01*
X115656058Y-65376851D01*
X115630500Y-65359774D01*
X115604005Y-65347419D01*
X115587883Y-65331297D01*
X115566842Y-65317238D01*
X115552782Y-65296196D01*
X115536660Y-65280074D01*
X115524304Y-65253576D01*
X115507229Y-65228022D01*
X115503391Y-65208727D01*
X115495937Y-65192742D01*
X115487571Y-65129193D01*
X115486296Y-65122784D01*
X115486296Y-64672784D01*
X115487570Y-64666376D01*
X115495937Y-64602825D01*
X115503391Y-64586838D01*
X115507229Y-64567546D01*
X115524302Y-64541993D01*
X115536660Y-64515493D01*
X115552784Y-64499368D01*
X115566842Y-64478330D01*
X115587880Y-64464272D01*
X115604005Y-64448148D01*
X115630505Y-64435790D01*
X115656058Y-64418717D01*
X115675350Y-64414879D01*
X115691337Y-64407425D01*
X115754888Y-64399058D01*
X115761296Y-64397784D01*
X116261296Y-64397784D01*
X116267705Y-64399059D01*
G37*
G36*
X116267705Y-62849059D02*
G01*
X116331254Y-62857425D01*
X116347239Y-62864879D01*
X116366534Y-62868717D01*
X116392088Y-62885792D01*
X116418586Y-62898148D01*
X116434708Y-62914270D01*
X116455750Y-62928330D01*
X116469809Y-62949371D01*
X116485931Y-62965493D01*
X116498286Y-62991988D01*
X116515363Y-63017546D01*
X116519201Y-63036842D01*
X116526654Y-63052825D01*
X116535018Y-63116361D01*
X116536296Y-63122784D01*
X116536296Y-63572784D01*
X116535018Y-63579208D01*
X116526654Y-63642742D01*
X116519201Y-63658723D01*
X116515363Y-63678022D01*
X116498284Y-63703581D01*
X116485931Y-63730074D01*
X116469812Y-63746192D01*
X116455750Y-63767238D01*
X116434704Y-63781300D01*
X116418586Y-63797419D01*
X116392093Y-63809772D01*
X116366534Y-63826851D01*
X116347235Y-63830689D01*
X116331254Y-63838142D01*
X116267720Y-63846506D01*
X116261296Y-63847784D01*
X115761296Y-63847784D01*
X115754873Y-63846506D01*
X115691337Y-63838142D01*
X115675354Y-63830689D01*
X115656058Y-63826851D01*
X115630500Y-63809774D01*
X115604005Y-63797419D01*
X115587883Y-63781297D01*
X115566842Y-63767238D01*
X115552782Y-63746196D01*
X115536660Y-63730074D01*
X115524304Y-63703576D01*
X115507229Y-63678022D01*
X115503391Y-63658727D01*
X115495937Y-63642742D01*
X115487571Y-63579193D01*
X115486296Y-63572784D01*
X115486296Y-63122784D01*
X115487570Y-63116376D01*
X115495937Y-63052825D01*
X115503391Y-63036838D01*
X115507229Y-63017546D01*
X115524302Y-62991993D01*
X115536660Y-62965493D01*
X115552784Y-62949368D01*
X115566842Y-62928330D01*
X115587880Y-62914272D01*
X115604005Y-62898148D01*
X115630505Y-62885790D01*
X115656058Y-62868717D01*
X115675350Y-62864879D01*
X115691337Y-62857425D01*
X115754888Y-62849058D01*
X115761296Y-62847784D01*
X116261296Y-62847784D01*
X116267705Y-62849059D01*
G37*
G36*
X110759451Y-62663824D02*
G01*
X110810812Y-62669783D01*
X110828358Y-62677530D01*
X110851075Y-62682049D01*
X110875395Y-62698299D01*
X110896197Y-62707484D01*
X110910404Y-62721691D01*
X110932181Y-62736242D01*
X110946731Y-62758018D01*
X110960938Y-62772225D01*
X110970122Y-62793025D01*
X110986374Y-62817348D01*
X110990893Y-62840067D01*
X110998639Y-62857610D01*
X111004596Y-62908959D01*
X111005404Y-62913019D01*
X111005404Y-63463019D01*
X111004596Y-63467078D01*
X110998639Y-63518427D01*
X110990893Y-63535969D01*
X110986374Y-63558690D01*
X110970120Y-63583014D01*
X110960938Y-63603812D01*
X110946733Y-63618016D01*
X110932181Y-63639796D01*
X110910401Y-63654348D01*
X110896197Y-63668553D01*
X110875399Y-63677735D01*
X110851075Y-63693989D01*
X110828354Y-63698508D01*
X110810812Y-63706254D01*
X110759465Y-63712211D01*
X110755404Y-63713019D01*
X110355404Y-63713019D01*
X110351345Y-63712211D01*
X110299995Y-63706254D01*
X110282452Y-63698508D01*
X110259733Y-63693989D01*
X110235410Y-63677737D01*
X110214610Y-63668553D01*
X110200403Y-63654346D01*
X110178627Y-63639796D01*
X110164076Y-63618019D01*
X110149869Y-63603812D01*
X110140684Y-63583010D01*
X110124434Y-63558690D01*
X110119915Y-63535973D01*
X110112168Y-63518427D01*
X110106209Y-63467068D01*
X110105404Y-63463019D01*
X110105404Y-62913019D01*
X110106208Y-62908972D01*
X110112168Y-62857610D01*
X110119915Y-62840062D01*
X110124434Y-62817348D01*
X110140682Y-62793029D01*
X110149869Y-62772225D01*
X110164078Y-62758015D01*
X110178627Y-62736242D01*
X110200400Y-62721693D01*
X110214610Y-62707484D01*
X110235414Y-62698297D01*
X110259733Y-62682049D01*
X110282447Y-62677530D01*
X110299995Y-62669783D01*
X110351356Y-62663824D01*
X110355404Y-62663019D01*
X110755404Y-62663019D01*
X110759451Y-62663824D01*
G37*
G36*
X112409451Y-62663824D02*
G01*
X112460812Y-62669783D01*
X112478358Y-62677530D01*
X112501075Y-62682049D01*
X112525395Y-62698299D01*
X112546197Y-62707484D01*
X112560404Y-62721691D01*
X112582181Y-62736242D01*
X112596731Y-62758018D01*
X112610938Y-62772225D01*
X112620122Y-62793025D01*
X112636374Y-62817348D01*
X112640893Y-62840067D01*
X112648639Y-62857610D01*
X112654596Y-62908959D01*
X112655404Y-62913019D01*
X112655404Y-63463019D01*
X112654596Y-63467078D01*
X112648639Y-63518427D01*
X112640893Y-63535969D01*
X112636374Y-63558690D01*
X112620120Y-63583014D01*
X112610938Y-63603812D01*
X112596733Y-63618016D01*
X112582181Y-63639796D01*
X112560401Y-63654348D01*
X112546197Y-63668553D01*
X112525399Y-63677735D01*
X112501075Y-63693989D01*
X112478354Y-63698508D01*
X112460812Y-63706254D01*
X112409465Y-63712211D01*
X112405404Y-63713019D01*
X112005404Y-63713019D01*
X112001345Y-63712211D01*
X111949995Y-63706254D01*
X111932452Y-63698508D01*
X111909733Y-63693989D01*
X111885410Y-63677737D01*
X111864610Y-63668553D01*
X111850403Y-63654346D01*
X111828627Y-63639796D01*
X111814076Y-63618019D01*
X111799869Y-63603812D01*
X111790684Y-63583010D01*
X111774434Y-63558690D01*
X111769915Y-63535973D01*
X111762168Y-63518427D01*
X111756209Y-63467068D01*
X111755404Y-63463019D01*
X111755404Y-62913019D01*
X111756208Y-62908972D01*
X111762168Y-62857610D01*
X111769915Y-62840062D01*
X111774434Y-62817348D01*
X111790682Y-62793029D01*
X111799869Y-62772225D01*
X111814078Y-62758015D01*
X111828627Y-62736242D01*
X111850400Y-62721693D01*
X111864610Y-62707484D01*
X111885414Y-62698297D01*
X111909733Y-62682049D01*
X111932447Y-62677530D01*
X111949995Y-62669783D01*
X112001356Y-62663824D01*
X112005404Y-62663019D01*
X112405404Y-62663019D01*
X112409451Y-62663824D01*
G37*
G36*
X116918452Y-59941222D02*
G01*
X116927125Y-59945051D01*
X116934692Y-59946154D01*
X116981990Y-59969276D01*
X117019308Y-59985754D01*
X117022763Y-59989209D01*
X117023687Y-59989661D01*
X117093358Y-60059332D01*
X117093809Y-60060255D01*
X117097266Y-60063712D01*
X117113745Y-60101035D01*
X117136865Y-60148326D01*
X117137967Y-60155892D01*
X117141798Y-60164568D01*
X117149767Y-60233253D01*
X117149767Y-61633253D01*
X117141798Y-61701938D01*
X117137966Y-61710614D01*
X117136865Y-61718178D01*
X117113752Y-61765455D01*
X117097266Y-61802794D01*
X117093808Y-61806251D01*
X117093358Y-61807173D01*
X117023687Y-61876844D01*
X117022765Y-61877294D01*
X117019308Y-61880752D01*
X116981974Y-61897236D01*
X116934693Y-61920351D01*
X116927128Y-61921453D01*
X116918452Y-61925284D01*
X116849767Y-61933253D01*
X114849767Y-61933253D01*
X114781082Y-61925284D01*
X114772405Y-61921453D01*
X114764841Y-61920351D01*
X114717554Y-61897234D01*
X114680226Y-61880752D01*
X114676769Y-61877295D01*
X114675846Y-61876844D01*
X114606175Y-61807173D01*
X114605723Y-61806249D01*
X114602268Y-61802794D01*
X114585792Y-61765481D01*
X114562668Y-61718179D01*
X114561565Y-61710610D01*
X114557736Y-61701938D01*
X114549767Y-61633253D01*
X114549767Y-60233253D01*
X114557736Y-60164568D01*
X114561565Y-60155895D01*
X114562668Y-60148327D01*
X114585795Y-60101019D01*
X114602268Y-60063712D01*
X114605722Y-60060257D01*
X114606175Y-60059332D01*
X114675846Y-59989661D01*
X114676771Y-59989208D01*
X114680226Y-59985754D01*
X114717528Y-59969283D01*
X114764840Y-59946154D01*
X114772409Y-59945051D01*
X114781082Y-59941222D01*
X114849767Y-59933253D01*
X116849767Y-59933253D01*
X116918452Y-59941222D01*
G37*
G36*
X121625209Y-59187445D02*
G01*
X121688758Y-59195811D01*
X121704743Y-59203265D01*
X121724038Y-59207103D01*
X121749592Y-59224178D01*
X121776090Y-59236534D01*
X121792212Y-59252656D01*
X121813254Y-59266716D01*
X121827313Y-59287757D01*
X121843435Y-59303879D01*
X121855790Y-59330374D01*
X121872867Y-59355932D01*
X121876705Y-59375228D01*
X121884158Y-59391211D01*
X121892522Y-59454747D01*
X121893800Y-59461170D01*
X121893800Y-59961170D01*
X121892522Y-59967594D01*
X121884158Y-60031128D01*
X121876705Y-60047109D01*
X121872867Y-60066408D01*
X121855788Y-60091967D01*
X121843435Y-60118460D01*
X121827316Y-60134578D01*
X121813254Y-60155624D01*
X121792208Y-60169686D01*
X121776090Y-60185805D01*
X121749597Y-60198158D01*
X121724038Y-60215237D01*
X121704739Y-60219075D01*
X121688758Y-60226528D01*
X121625224Y-60234892D01*
X121618800Y-60236170D01*
X121168800Y-60236170D01*
X121162377Y-60234892D01*
X121098841Y-60226528D01*
X121082858Y-60219075D01*
X121063562Y-60215237D01*
X121038004Y-60198160D01*
X121011509Y-60185805D01*
X120995387Y-60169683D01*
X120974346Y-60155624D01*
X120960286Y-60134582D01*
X120944164Y-60118460D01*
X120931808Y-60091962D01*
X120914733Y-60066408D01*
X120910895Y-60047113D01*
X120903441Y-60031128D01*
X120895075Y-59967579D01*
X120893800Y-59961170D01*
X120893800Y-59461170D01*
X120895074Y-59454762D01*
X120903441Y-59391211D01*
X120910895Y-59375224D01*
X120914733Y-59355932D01*
X120931806Y-59330379D01*
X120944164Y-59303879D01*
X120960288Y-59287754D01*
X120974346Y-59266716D01*
X120995384Y-59252658D01*
X121011509Y-59236534D01*
X121038009Y-59224176D01*
X121063562Y-59207103D01*
X121082854Y-59203265D01*
X121098841Y-59195811D01*
X121162392Y-59187444D01*
X121168800Y-59186170D01*
X121618800Y-59186170D01*
X121625209Y-59187445D01*
G37*
G36*
X123175209Y-59187445D02*
G01*
X123238758Y-59195811D01*
X123254743Y-59203265D01*
X123274038Y-59207103D01*
X123299592Y-59224178D01*
X123326090Y-59236534D01*
X123342212Y-59252656D01*
X123363254Y-59266716D01*
X123377313Y-59287757D01*
X123393435Y-59303879D01*
X123405790Y-59330374D01*
X123422867Y-59355932D01*
X123426705Y-59375228D01*
X123434158Y-59391211D01*
X123442522Y-59454747D01*
X123443800Y-59461170D01*
X123443800Y-59961170D01*
X123442522Y-59967594D01*
X123434158Y-60031128D01*
X123426705Y-60047109D01*
X123422867Y-60066408D01*
X123405788Y-60091967D01*
X123393435Y-60118460D01*
X123377316Y-60134578D01*
X123363254Y-60155624D01*
X123342208Y-60169686D01*
X123326090Y-60185805D01*
X123299597Y-60198158D01*
X123274038Y-60215237D01*
X123254739Y-60219075D01*
X123238758Y-60226528D01*
X123175224Y-60234892D01*
X123168800Y-60236170D01*
X122718800Y-60236170D01*
X122712377Y-60234892D01*
X122648841Y-60226528D01*
X122632858Y-60219075D01*
X122613562Y-60215237D01*
X122588004Y-60198160D01*
X122561509Y-60185805D01*
X122545387Y-60169683D01*
X122524346Y-60155624D01*
X122510286Y-60134582D01*
X122494164Y-60118460D01*
X122481808Y-60091962D01*
X122464733Y-60066408D01*
X122460895Y-60047113D01*
X122453441Y-60031128D01*
X122445075Y-59967579D01*
X122443800Y-59961170D01*
X122443800Y-59461170D01*
X122445074Y-59454762D01*
X122453441Y-59391211D01*
X122460895Y-59375224D01*
X122464733Y-59355932D01*
X122481806Y-59330379D01*
X122494164Y-59303879D01*
X122510288Y-59287754D01*
X122524346Y-59266716D01*
X122545384Y-59252658D01*
X122561509Y-59236534D01*
X122588009Y-59224176D01*
X122613562Y-59207103D01*
X122632854Y-59203265D01*
X122648841Y-59195811D01*
X122712392Y-59187444D01*
X122718800Y-59186170D01*
X123168800Y-59186170D01*
X123175209Y-59187445D01*
G37*
G36*
X121625209Y-57226275D02*
G01*
X121688758Y-57234641D01*
X121704743Y-57242095D01*
X121724038Y-57245933D01*
X121749592Y-57263008D01*
X121776090Y-57275364D01*
X121792212Y-57291486D01*
X121813254Y-57305546D01*
X121827313Y-57326587D01*
X121843435Y-57342709D01*
X121855790Y-57369204D01*
X121872867Y-57394762D01*
X121876705Y-57414058D01*
X121884158Y-57430041D01*
X121892522Y-57493577D01*
X121893800Y-57500000D01*
X121893800Y-58000000D01*
X121892522Y-58006424D01*
X121884158Y-58069958D01*
X121876705Y-58085939D01*
X121872867Y-58105238D01*
X121855788Y-58130797D01*
X121843435Y-58157290D01*
X121827316Y-58173408D01*
X121813254Y-58194454D01*
X121792208Y-58208516D01*
X121776090Y-58224635D01*
X121749597Y-58236988D01*
X121724038Y-58254067D01*
X121704739Y-58257905D01*
X121688758Y-58265358D01*
X121625224Y-58273722D01*
X121618800Y-58275000D01*
X121168800Y-58275000D01*
X121162377Y-58273722D01*
X121098841Y-58265358D01*
X121082858Y-58257905D01*
X121063562Y-58254067D01*
X121038004Y-58236990D01*
X121011509Y-58224635D01*
X120995387Y-58208513D01*
X120974346Y-58194454D01*
X120960286Y-58173412D01*
X120944164Y-58157290D01*
X120931808Y-58130792D01*
X120914733Y-58105238D01*
X120910895Y-58085943D01*
X120903441Y-58069958D01*
X120895075Y-58006409D01*
X120893800Y-58000000D01*
X120893800Y-57500000D01*
X120895074Y-57493592D01*
X120903441Y-57430041D01*
X120910895Y-57414054D01*
X120914733Y-57394762D01*
X120931806Y-57369209D01*
X120944164Y-57342709D01*
X120960288Y-57326584D01*
X120974346Y-57305546D01*
X120995384Y-57291488D01*
X121011509Y-57275364D01*
X121038009Y-57263006D01*
X121063562Y-57245933D01*
X121082854Y-57242095D01*
X121098841Y-57234641D01*
X121162392Y-57226274D01*
X121168800Y-57225000D01*
X121618800Y-57225000D01*
X121625209Y-57226275D01*
G37*
G36*
X123175209Y-57226275D02*
G01*
X123238758Y-57234641D01*
X123254743Y-57242095D01*
X123274038Y-57245933D01*
X123299592Y-57263008D01*
X123326090Y-57275364D01*
X123342212Y-57291486D01*
X123363254Y-57305546D01*
X123377313Y-57326587D01*
X123393435Y-57342709D01*
X123405790Y-57369204D01*
X123422867Y-57394762D01*
X123426705Y-57414058D01*
X123434158Y-57430041D01*
X123442522Y-57493577D01*
X123443800Y-57500000D01*
X123443800Y-58000000D01*
X123442522Y-58006424D01*
X123434158Y-58069958D01*
X123426705Y-58085939D01*
X123422867Y-58105238D01*
X123405788Y-58130797D01*
X123393435Y-58157290D01*
X123377316Y-58173408D01*
X123363254Y-58194454D01*
X123342208Y-58208516D01*
X123326090Y-58224635D01*
X123299597Y-58236988D01*
X123274038Y-58254067D01*
X123254739Y-58257905D01*
X123238758Y-58265358D01*
X123175224Y-58273722D01*
X123168800Y-58275000D01*
X122718800Y-58275000D01*
X122712377Y-58273722D01*
X122648841Y-58265358D01*
X122632858Y-58257905D01*
X122613562Y-58254067D01*
X122588004Y-58236990D01*
X122561509Y-58224635D01*
X122545387Y-58208513D01*
X122524346Y-58194454D01*
X122510286Y-58173412D01*
X122494164Y-58157290D01*
X122481808Y-58130792D01*
X122464733Y-58105238D01*
X122460895Y-58085943D01*
X122453441Y-58069958D01*
X122445075Y-58006409D01*
X122443800Y-58000000D01*
X122443800Y-57500000D01*
X122445074Y-57493592D01*
X122453441Y-57430041D01*
X122460895Y-57414054D01*
X122464733Y-57394762D01*
X122481806Y-57369209D01*
X122494164Y-57342709D01*
X122510288Y-57326584D01*
X122524346Y-57305546D01*
X122545384Y-57291488D01*
X122561509Y-57275364D01*
X122588009Y-57263006D01*
X122613562Y-57245933D01*
X122632854Y-57242095D01*
X122648841Y-57234641D01*
X122712392Y-57226274D01*
X122718800Y-57225000D01*
X123168800Y-57225000D01*
X123175209Y-57226275D01*
G37*
G36*
X99349134Y-52913806D02*
G01*
X99365355Y-52924645D01*
X99376194Y-52940866D01*
X99380000Y-52960000D01*
X99380000Y-58040000D01*
X99376194Y-58059134D01*
X99365355Y-58075355D01*
X99349134Y-58086194D01*
X99330000Y-58090000D01*
X96910000Y-58090000D01*
X96890866Y-58086194D01*
X96874645Y-58075355D01*
X96863806Y-58059134D01*
X96860000Y-58040000D01*
X96860000Y-52960000D01*
X96863806Y-52940866D01*
X96874645Y-52924645D01*
X96890866Y-52913806D01*
X96910000Y-52910000D01*
X99330000Y-52910000D01*
X99349134Y-52913806D01*
G37*
G36*
X108109134Y-52913806D02*
G01*
X108125355Y-52924645D01*
X108136194Y-52940866D01*
X108140000Y-52960000D01*
X108140000Y-58040000D01*
X108136194Y-58059134D01*
X108125355Y-58075355D01*
X108109134Y-58086194D01*
X108090000Y-58090000D01*
X105670000Y-58090000D01*
X105650866Y-58086194D01*
X105634645Y-58075355D01*
X105623806Y-58059134D01*
X105620000Y-58040000D01*
X105620000Y-52960000D01*
X105623806Y-52940866D01*
X105634645Y-52924645D01*
X105650866Y-52913806D01*
X105670000Y-52910000D01*
X108090000Y-52910000D01*
X108109134Y-52913806D01*
G37*
G36*
X131599134Y-52913806D02*
G01*
X131615355Y-52924645D01*
X131626194Y-52940866D01*
X131630000Y-52960000D01*
X131630000Y-58040000D01*
X131626194Y-58059134D01*
X131615355Y-58075355D01*
X131599134Y-58086194D01*
X131580000Y-58090000D01*
X129160000Y-58090000D01*
X129140866Y-58086194D01*
X129124645Y-58075355D01*
X129113806Y-58059134D01*
X129110000Y-58040000D01*
X129110000Y-52960000D01*
X129113806Y-52940866D01*
X129124645Y-52924645D01*
X129140866Y-52913806D01*
X129160000Y-52910000D01*
X131580000Y-52910000D01*
X131599134Y-52913806D01*
G37*
G36*
X140359134Y-52913806D02*
G01*
X140375355Y-52924645D01*
X140386194Y-52940866D01*
X140390000Y-52960000D01*
X140390000Y-58040000D01*
X140386194Y-58059134D01*
X140375355Y-58075355D01*
X140359134Y-58086194D01*
X140340000Y-58090000D01*
X137920000Y-58090000D01*
X137900866Y-58086194D01*
X137884645Y-58075355D01*
X137873806Y-58059134D01*
X137870000Y-58040000D01*
X137870000Y-52960000D01*
X137873806Y-52940866D01*
X137884645Y-52924645D01*
X137900866Y-52913806D01*
X137920000Y-52910000D01*
X140340000Y-52910000D01*
X140359134Y-52913806D01*
G37*
G36*
X116918452Y-55541222D02*
G01*
X116927125Y-55545051D01*
X116934692Y-55546154D01*
X116981990Y-55569276D01*
X117019308Y-55585754D01*
X117022763Y-55589209D01*
X117023687Y-55589661D01*
X117093358Y-55659332D01*
X117093809Y-55660255D01*
X117097266Y-55663712D01*
X117113745Y-55701035D01*
X117136865Y-55748326D01*
X117137967Y-55755892D01*
X117141798Y-55764568D01*
X117149767Y-55833253D01*
X117149767Y-57233253D01*
X117141798Y-57301938D01*
X117137966Y-57310614D01*
X117136865Y-57318178D01*
X117113752Y-57365455D01*
X117097266Y-57402794D01*
X117093808Y-57406251D01*
X117093358Y-57407173D01*
X117023687Y-57476844D01*
X117022765Y-57477294D01*
X117019308Y-57480752D01*
X116981974Y-57497236D01*
X116934693Y-57520351D01*
X116927128Y-57521453D01*
X116918452Y-57525284D01*
X116849767Y-57533253D01*
X114849767Y-57533253D01*
X114781082Y-57525284D01*
X114772405Y-57521453D01*
X114764841Y-57520351D01*
X114717554Y-57497234D01*
X114680226Y-57480752D01*
X114676769Y-57477295D01*
X114675846Y-57476844D01*
X114606175Y-57407173D01*
X114605723Y-57406249D01*
X114602268Y-57402794D01*
X114585792Y-57365481D01*
X114562668Y-57318179D01*
X114561565Y-57310610D01*
X114557736Y-57301938D01*
X114549767Y-57233253D01*
X114549767Y-55833253D01*
X114557736Y-55764568D01*
X114561565Y-55755895D01*
X114562668Y-55748327D01*
X114585795Y-55701019D01*
X114602268Y-55663712D01*
X114605722Y-55660257D01*
X114606175Y-55659332D01*
X114675846Y-55589661D01*
X114676771Y-55589208D01*
X114680226Y-55585754D01*
X114717528Y-55569283D01*
X114764840Y-55546154D01*
X114772409Y-55545051D01*
X114781082Y-55541222D01*
X114849767Y-55533253D01*
X116849767Y-55533253D01*
X116918452Y-55541222D01*
G37*
M02*
