%TF.GenerationSoftware,KiCad,Pcbnew,10.0.4*%
%TF.CreationDate,2026-07-07T20:32:40-04:00*%
%TF.ProjectId,diddys disciples,64696464-7973-4206-9469-736369706c65,rev?*%
%TF.SameCoordinates,Original*%
%TF.FileFunction,Soldermask,Top*%
%TF.FilePolarity,Negative*%
%FSLAX46Y46*%
G04 Gerber Fmt 4.6, Leading zero omitted, Abs format (unit mm)*
G04 Created by KiCad (PCBNEW 10.0.4) date 2026-07-07 20:32:40*
%MOMM*%
%LPD*%
G01*
G04 APERTURE LIST*
G04 APERTURE END LIST*
G36*
X103049134Y-134103806D02*
G01*
X103065355Y-134114645D01*
X103076194Y-134130866D01*
X103080000Y-134150000D01*
X103080000Y-135850000D01*
X103076194Y-135869134D01*
X103065355Y-135885355D01*
X103049134Y-135896194D01*
X103030000Y-135900000D01*
X101330000Y-135900000D01*
X101310866Y-135896194D01*
X101294645Y-135885355D01*
X101283806Y-135869134D01*
X101280000Y-135850000D01*
X101280000Y-134150000D01*
X101283806Y-134130866D01*
X101294645Y-134114645D01*
X101310866Y-134103806D01*
X101330000Y-134100000D01*
X103030000Y-134100000D01*
X103049134Y-134103806D01*
G37*
G36*
X104981256Y-134138754D02*
G01*
X105144257Y-134206271D01*
X105290954Y-134304291D01*
X105415709Y-134429046D01*
X105513729Y-134575743D01*
X105581246Y-134738744D01*
X105615666Y-134911785D01*
X105615666Y-135088215D01*
X105581246Y-135261256D01*
X105513729Y-135424257D01*
X105415709Y-135570954D01*
X105290954Y-135695709D01*
X105144257Y-135793729D01*
X104981256Y-135861246D01*
X104808215Y-135895666D01*
X104631785Y-135895666D01*
X104458744Y-135861246D01*
X104295743Y-135793729D01*
X104149046Y-135695709D01*
X104024291Y-135570954D01*
X103926271Y-135424257D01*
X103858754Y-135261256D01*
X103824334Y-135088215D01*
X103824334Y-134911785D01*
X103858754Y-134738744D01*
X103926271Y-134575743D01*
X104024291Y-134429046D01*
X104149046Y-134304291D01*
X104295743Y-134206271D01*
X104458744Y-134138754D01*
X104631785Y-134104334D01*
X104808215Y-134104334D01*
X104981256Y-134138754D01*
G37*
G36*
X107521256Y-134138754D02*
G01*
X107684257Y-134206271D01*
X107830954Y-134304291D01*
X107955709Y-134429046D01*
X108053729Y-134575743D01*
X108121246Y-134738744D01*
X108155666Y-134911785D01*
X108155666Y-135088215D01*
X108121246Y-135261256D01*
X108053729Y-135424257D01*
X107955709Y-135570954D01*
X107830954Y-135695709D01*
X107684257Y-135793729D01*
X107521256Y-135861246D01*
X107348215Y-135895666D01*
X107171785Y-135895666D01*
X106998744Y-135861246D01*
X106835743Y-135793729D01*
X106689046Y-135695709D01*
X106564291Y-135570954D01*
X106466271Y-135424257D01*
X106398754Y-135261256D01*
X106364334Y-135088215D01*
X106364334Y-134911785D01*
X106398754Y-134738744D01*
X106466271Y-134575743D01*
X106564291Y-134429046D01*
X106689046Y-134304291D01*
X106835743Y-134206271D01*
X106998744Y-134138754D01*
X107171785Y-134104334D01*
X107348215Y-134104334D01*
X107521256Y-134138754D01*
G37*
G36*
X110061256Y-134138754D02*
G01*
X110224257Y-134206271D01*
X110370954Y-134304291D01*
X110495709Y-134429046D01*
X110593729Y-134575743D01*
X110661246Y-134738744D01*
X110695666Y-134911785D01*
X110695666Y-135088215D01*
X110661246Y-135261256D01*
X110593729Y-135424257D01*
X110495709Y-135570954D01*
X110370954Y-135695709D01*
X110224257Y-135793729D01*
X110061256Y-135861246D01*
X109888215Y-135895666D01*
X109711785Y-135895666D01*
X109538744Y-135861246D01*
X109375743Y-135793729D01*
X109229046Y-135695709D01*
X109104291Y-135570954D01*
X109006271Y-135424257D01*
X108938754Y-135261256D01*
X108904334Y-135088215D01*
X108904334Y-134911785D01*
X108938754Y-134738744D01*
X109006271Y-134575743D01*
X109104291Y-134429046D01*
X109229046Y-134304291D01*
X109375743Y-134206271D01*
X109538744Y-134138754D01*
X109711785Y-134104334D01*
X109888215Y-134104334D01*
X110061256Y-134138754D01*
G37*
G36*
X112601256Y-134138754D02*
G01*
X112764257Y-134206271D01*
X112910954Y-134304291D01*
X113035709Y-134429046D01*
X113133729Y-134575743D01*
X113201246Y-134738744D01*
X113235666Y-134911785D01*
X113235666Y-135088215D01*
X113201246Y-135261256D01*
X113133729Y-135424257D01*
X113035709Y-135570954D01*
X112910954Y-135695709D01*
X112764257Y-135793729D01*
X112601256Y-135861246D01*
X112428215Y-135895666D01*
X112251785Y-135895666D01*
X112078744Y-135861246D01*
X111915743Y-135793729D01*
X111769046Y-135695709D01*
X111644291Y-135570954D01*
X111546271Y-135424257D01*
X111478754Y-135261256D01*
X111444334Y-135088215D01*
X111444334Y-134911785D01*
X111478754Y-134738744D01*
X111546271Y-134575743D01*
X111644291Y-134429046D01*
X111769046Y-134304291D01*
X111915743Y-134206271D01*
X112078744Y-134138754D01*
X112251785Y-134104334D01*
X112428215Y-134104334D01*
X112601256Y-134138754D01*
G37*
G36*
X115141256Y-134138754D02*
G01*
X115304257Y-134206271D01*
X115450954Y-134304291D01*
X115575709Y-134429046D01*
X115673729Y-134575743D01*
X115741246Y-134738744D01*
X115775666Y-134911785D01*
X115775666Y-135088215D01*
X115741246Y-135261256D01*
X115673729Y-135424257D01*
X115575709Y-135570954D01*
X115450954Y-135695709D01*
X115304257Y-135793729D01*
X115141256Y-135861246D01*
X114968215Y-135895666D01*
X114791785Y-135895666D01*
X114618744Y-135861246D01*
X114455743Y-135793729D01*
X114309046Y-135695709D01*
X114184291Y-135570954D01*
X114086271Y-135424257D01*
X114018754Y-135261256D01*
X113984334Y-135088215D01*
X113984334Y-134911785D01*
X114018754Y-134738744D01*
X114086271Y-134575743D01*
X114184291Y-134429046D01*
X114309046Y-134304291D01*
X114455743Y-134206271D01*
X114618744Y-134138754D01*
X114791785Y-134104334D01*
X114968215Y-134104334D01*
X115141256Y-134138754D01*
G37*
G36*
X117681256Y-134138754D02*
G01*
X117844257Y-134206271D01*
X117990954Y-134304291D01*
X118115709Y-134429046D01*
X118213729Y-134575743D01*
X118281246Y-134738744D01*
X118315666Y-134911785D01*
X118315666Y-135088215D01*
X118281246Y-135261256D01*
X118213729Y-135424257D01*
X118115709Y-135570954D01*
X117990954Y-135695709D01*
X117844257Y-135793729D01*
X117681256Y-135861246D01*
X117508215Y-135895666D01*
X117331785Y-135895666D01*
X117158744Y-135861246D01*
X116995743Y-135793729D01*
X116849046Y-135695709D01*
X116724291Y-135570954D01*
X116626271Y-135424257D01*
X116558754Y-135261256D01*
X116524334Y-135088215D01*
X116524334Y-134911785D01*
X116558754Y-134738744D01*
X116626271Y-134575743D01*
X116724291Y-134429046D01*
X116849046Y-134304291D01*
X116995743Y-134206271D01*
X117158744Y-134138754D01*
X117331785Y-134104334D01*
X117508215Y-134104334D01*
X117681256Y-134138754D01*
G37*
G36*
X120221256Y-134138754D02*
G01*
X120384257Y-134206271D01*
X120530954Y-134304291D01*
X120655709Y-134429046D01*
X120753729Y-134575743D01*
X120821246Y-134738744D01*
X120855666Y-134911785D01*
X120855666Y-135088215D01*
X120821246Y-135261256D01*
X120753729Y-135424257D01*
X120655709Y-135570954D01*
X120530954Y-135695709D01*
X120384257Y-135793729D01*
X120221256Y-135861246D01*
X120048215Y-135895666D01*
X119871785Y-135895666D01*
X119698744Y-135861246D01*
X119535743Y-135793729D01*
X119389046Y-135695709D01*
X119264291Y-135570954D01*
X119166271Y-135424257D01*
X119098754Y-135261256D01*
X119064334Y-135088215D01*
X119064334Y-134911785D01*
X119098754Y-134738744D01*
X119166271Y-134575743D01*
X119264291Y-134429046D01*
X119389046Y-134304291D01*
X119535743Y-134206271D01*
X119698744Y-134138754D01*
X119871785Y-134104334D01*
X120048215Y-134104334D01*
X120221256Y-134138754D01*
G37*
G36*
X122761256Y-134138754D02*
G01*
X122924257Y-134206271D01*
X123070954Y-134304291D01*
X123195709Y-134429046D01*
X123293729Y-134575743D01*
X123361246Y-134738744D01*
X123395666Y-134911785D01*
X123395666Y-135088215D01*
X123361246Y-135261256D01*
X123293729Y-135424257D01*
X123195709Y-135570954D01*
X123070954Y-135695709D01*
X122924257Y-135793729D01*
X122761256Y-135861246D01*
X122588215Y-135895666D01*
X122411785Y-135895666D01*
X122238744Y-135861246D01*
X122075743Y-135793729D01*
X121929046Y-135695709D01*
X121804291Y-135570954D01*
X121706271Y-135424257D01*
X121638754Y-135261256D01*
X121604334Y-135088215D01*
X121604334Y-134911785D01*
X121638754Y-134738744D01*
X121706271Y-134575743D01*
X121804291Y-134429046D01*
X121929046Y-134304291D01*
X122075743Y-134206271D01*
X122238744Y-134138754D01*
X122411785Y-134104334D01*
X122588215Y-134104334D01*
X122761256Y-134138754D01*
G37*
G36*
X125301256Y-134138754D02*
G01*
X125464257Y-134206271D01*
X125610954Y-134304291D01*
X125735709Y-134429046D01*
X125833729Y-134575743D01*
X125901246Y-134738744D01*
X125935666Y-134911785D01*
X125935666Y-135088215D01*
X125901246Y-135261256D01*
X125833729Y-135424257D01*
X125735709Y-135570954D01*
X125610954Y-135695709D01*
X125464257Y-135793729D01*
X125301256Y-135861246D01*
X125128215Y-135895666D01*
X124951785Y-135895666D01*
X124778744Y-135861246D01*
X124615743Y-135793729D01*
X124469046Y-135695709D01*
X124344291Y-135570954D01*
X124246271Y-135424257D01*
X124178754Y-135261256D01*
X124144334Y-135088215D01*
X124144334Y-134911785D01*
X124178754Y-134738744D01*
X124246271Y-134575743D01*
X124344291Y-134429046D01*
X124469046Y-134304291D01*
X124615743Y-134206271D01*
X124778744Y-134138754D01*
X124951785Y-134104334D01*
X125128215Y-134104334D01*
X125301256Y-134138754D01*
G37*
G36*
X127841256Y-134138754D02*
G01*
X128004257Y-134206271D01*
X128150954Y-134304291D01*
X128275709Y-134429046D01*
X128373729Y-134575743D01*
X128441246Y-134738744D01*
X128475666Y-134911785D01*
X128475666Y-135088215D01*
X128441246Y-135261256D01*
X128373729Y-135424257D01*
X128275709Y-135570954D01*
X128150954Y-135695709D01*
X128004257Y-135793729D01*
X127841256Y-135861246D01*
X127668215Y-135895666D01*
X127491785Y-135895666D01*
X127318744Y-135861246D01*
X127155743Y-135793729D01*
X127009046Y-135695709D01*
X126884291Y-135570954D01*
X126786271Y-135424257D01*
X126718754Y-135261256D01*
X126684334Y-135088215D01*
X126684334Y-134911785D01*
X126718754Y-134738744D01*
X126786271Y-134575743D01*
X126884291Y-134429046D01*
X127009046Y-134304291D01*
X127155743Y-134206271D01*
X127318744Y-134138754D01*
X127491785Y-134104334D01*
X127668215Y-134104334D01*
X127841256Y-134138754D01*
G37*
G36*
X130381256Y-134138754D02*
G01*
X130544257Y-134206271D01*
X130690954Y-134304291D01*
X130815709Y-134429046D01*
X130913729Y-134575743D01*
X130981246Y-134738744D01*
X131015666Y-134911785D01*
X131015666Y-135088215D01*
X130981246Y-135261256D01*
X130913729Y-135424257D01*
X130815709Y-135570954D01*
X130690954Y-135695709D01*
X130544257Y-135793729D01*
X130381256Y-135861246D01*
X130208215Y-135895666D01*
X130031785Y-135895666D01*
X129858744Y-135861246D01*
X129695743Y-135793729D01*
X129549046Y-135695709D01*
X129424291Y-135570954D01*
X129326271Y-135424257D01*
X129258754Y-135261256D01*
X129224334Y-135088215D01*
X129224334Y-134911785D01*
X129258754Y-134738744D01*
X129326271Y-134575743D01*
X129424291Y-134429046D01*
X129549046Y-134304291D01*
X129695743Y-134206271D01*
X129858744Y-134138754D01*
X130031785Y-134104334D01*
X130208215Y-134104334D01*
X130381256Y-134138754D01*
G37*
G36*
X132921256Y-134138754D02*
G01*
X133084257Y-134206271D01*
X133230954Y-134304291D01*
X133355709Y-134429046D01*
X133453729Y-134575743D01*
X133521246Y-134738744D01*
X133555666Y-134911785D01*
X133555666Y-135088215D01*
X133521246Y-135261256D01*
X133453729Y-135424257D01*
X133355709Y-135570954D01*
X133230954Y-135695709D01*
X133084257Y-135793729D01*
X132921256Y-135861246D01*
X132748215Y-135895666D01*
X132571785Y-135895666D01*
X132398744Y-135861246D01*
X132235743Y-135793729D01*
X132089046Y-135695709D01*
X131964291Y-135570954D01*
X131866271Y-135424257D01*
X131798754Y-135261256D01*
X131764334Y-135088215D01*
X131764334Y-134911785D01*
X131798754Y-134738744D01*
X131866271Y-134575743D01*
X131964291Y-134429046D01*
X132089046Y-134304291D01*
X132235743Y-134206271D01*
X132398744Y-134138754D01*
X132571785Y-134104334D01*
X132748215Y-134104334D01*
X132921256Y-134138754D01*
G37*
G36*
X135461256Y-134138754D02*
G01*
X135624257Y-134206271D01*
X135770954Y-134304291D01*
X135895709Y-134429046D01*
X135993729Y-134575743D01*
X136061246Y-134738744D01*
X136095666Y-134911785D01*
X136095666Y-135088215D01*
X136061246Y-135261256D01*
X135993729Y-135424257D01*
X135895709Y-135570954D01*
X135770954Y-135695709D01*
X135624257Y-135793729D01*
X135461256Y-135861246D01*
X135288215Y-135895666D01*
X135111785Y-135895666D01*
X134938744Y-135861246D01*
X134775743Y-135793729D01*
X134629046Y-135695709D01*
X134504291Y-135570954D01*
X134406271Y-135424257D01*
X134338754Y-135261256D01*
X134304334Y-135088215D01*
X134304334Y-134911785D01*
X134338754Y-134738744D01*
X134406271Y-134575743D01*
X134504291Y-134429046D01*
X134629046Y-134304291D01*
X134775743Y-134206271D01*
X134938744Y-134138754D01*
X135111785Y-134104334D01*
X135288215Y-134104334D01*
X135461256Y-134138754D01*
G37*
G36*
X105232370Y-121206832D02*
G01*
X105339757Y-121268832D01*
X105427438Y-121356513D01*
X105489438Y-121463900D01*
X105521531Y-121583675D01*
X105521531Y-121707675D01*
X105489438Y-121827450D01*
X105427438Y-121934837D01*
X105339757Y-122022518D01*
X105232370Y-122084518D01*
X105230768Y-122084946D01*
X105210658Y-122096558D01*
X105230517Y-122170675D01*
X105475595Y-122170675D01*
X105494729Y-122174481D01*
X105510950Y-122185320D01*
X105521789Y-122201541D01*
X105525595Y-122220675D01*
X105525595Y-123070675D01*
X105521789Y-123089809D01*
X105510950Y-123106030D01*
X105494729Y-123116869D01*
X105475595Y-123120675D01*
X104625595Y-123120675D01*
X104606461Y-123116869D01*
X104590240Y-123106030D01*
X104579401Y-123089809D01*
X104575595Y-123070675D01*
X104575595Y-122220675D01*
X104579401Y-122201541D01*
X104590240Y-122185320D01*
X104606461Y-122174481D01*
X104625595Y-122170675D01*
X104870673Y-122170675D01*
X104890532Y-122096558D01*
X104870420Y-122084946D01*
X104868820Y-122084518D01*
X104761433Y-122022518D01*
X104673752Y-121934837D01*
X104611752Y-121827450D01*
X104579659Y-121707675D01*
X104579659Y-121583675D01*
X104611752Y-121463900D01*
X104673752Y-121356513D01*
X104761433Y-121268832D01*
X104868820Y-121206832D01*
X104988595Y-121174739D01*
X105112595Y-121174739D01*
X105232370Y-121206832D01*
G37*
G36*
X107702578Y-117756602D02*
G01*
X107767462Y-117799957D01*
X107810817Y-117864841D01*
X107826041Y-117941378D01*
X107826041Y-118241378D01*
X107810817Y-118317915D01*
X107767462Y-118382799D01*
X107702578Y-118426154D01*
X107626041Y-118441378D01*
X106601041Y-118441378D01*
X106524504Y-118426154D01*
X106459620Y-118382799D01*
X106416265Y-118317915D01*
X106401041Y-118241378D01*
X106401041Y-117941378D01*
X106416265Y-117864841D01*
X106459620Y-117799957D01*
X106524504Y-117756602D01*
X106601041Y-117741378D01*
X107626041Y-117741378D01*
X107702578Y-117756602D01*
G37*
G36*
X109977578Y-117756602D02*
G01*
X110042462Y-117799957D01*
X110085817Y-117864841D01*
X110101041Y-117941378D01*
X110101041Y-118241378D01*
X110085817Y-118317915D01*
X110042462Y-118382799D01*
X109977578Y-118426154D01*
X109901041Y-118441378D01*
X108876041Y-118441378D01*
X108799504Y-118426154D01*
X108734620Y-118382799D01*
X108691265Y-118317915D01*
X108676041Y-118241378D01*
X108676041Y-117941378D01*
X108691265Y-117864841D01*
X108734620Y-117799957D01*
X108799504Y-117756602D01*
X108876041Y-117741378D01*
X109901041Y-117741378D01*
X109977578Y-117756602D01*
G37*
G36*
X111509424Y-117250700D02*
G01*
X111572973Y-117259066D01*
X111588958Y-117266520D01*
X111608253Y-117270358D01*
X111633807Y-117287433D01*
X111660305Y-117299789D01*
X111676427Y-117315911D01*
X111697469Y-117329971D01*
X111711528Y-117351012D01*
X111727650Y-117367134D01*
X111740005Y-117393629D01*
X111757082Y-117419187D01*
X111760920Y-117438483D01*
X111768373Y-117454466D01*
X111776737Y-117518002D01*
X111778015Y-117524425D01*
X111778015Y-118024425D01*
X111776737Y-118030849D01*
X111768373Y-118094383D01*
X111760920Y-118110364D01*
X111757082Y-118129663D01*
X111740003Y-118155222D01*
X111727650Y-118181715D01*
X111711531Y-118197833D01*
X111697469Y-118218879D01*
X111676423Y-118232941D01*
X111660305Y-118249060D01*
X111633812Y-118261413D01*
X111608253Y-118278492D01*
X111588954Y-118282330D01*
X111572973Y-118289783D01*
X111509439Y-118298147D01*
X111503015Y-118299425D01*
X111053015Y-118299425D01*
X111046592Y-118298147D01*
X110983056Y-118289783D01*
X110967073Y-118282330D01*
X110947777Y-118278492D01*
X110922219Y-118261415D01*
X110895724Y-118249060D01*
X110879602Y-118232938D01*
X110858561Y-118218879D01*
X110844501Y-118197837D01*
X110828379Y-118181715D01*
X110816023Y-118155217D01*
X110798948Y-118129663D01*
X110795110Y-118110368D01*
X110787656Y-118094383D01*
X110779290Y-118030834D01*
X110778015Y-118024425D01*
X110778015Y-117524425D01*
X110779289Y-117518017D01*
X110787656Y-117454466D01*
X110795110Y-117438479D01*
X110798948Y-117419187D01*
X110816021Y-117393634D01*
X110828379Y-117367134D01*
X110844503Y-117351009D01*
X110858561Y-117329971D01*
X110879599Y-117315913D01*
X110895724Y-117299789D01*
X110922224Y-117287431D01*
X110947777Y-117270358D01*
X110967069Y-117266520D01*
X110983056Y-117259066D01*
X111046607Y-117250699D01*
X111053015Y-117249425D01*
X111503015Y-117249425D01*
X111509424Y-117250700D01*
G37*
G36*
X113059424Y-117250700D02*
G01*
X113122973Y-117259066D01*
X113138958Y-117266520D01*
X113158253Y-117270358D01*
X113183807Y-117287433D01*
X113210305Y-117299789D01*
X113226427Y-117315911D01*
X113247469Y-117329971D01*
X113261528Y-117351012D01*
X113277650Y-117367134D01*
X113290005Y-117393629D01*
X113307082Y-117419187D01*
X113310920Y-117438483D01*
X113318373Y-117454466D01*
X113326737Y-117518002D01*
X113328015Y-117524425D01*
X113328015Y-118024425D01*
X113326737Y-118030849D01*
X113318373Y-118094383D01*
X113310920Y-118110364D01*
X113307082Y-118129663D01*
X113290003Y-118155222D01*
X113277650Y-118181715D01*
X113261531Y-118197833D01*
X113247469Y-118218879D01*
X113226423Y-118232941D01*
X113210305Y-118249060D01*
X113183812Y-118261413D01*
X113158253Y-118278492D01*
X113138954Y-118282330D01*
X113122973Y-118289783D01*
X113059439Y-118298147D01*
X113053015Y-118299425D01*
X112603015Y-118299425D01*
X112596592Y-118298147D01*
X112533056Y-118289783D01*
X112517073Y-118282330D01*
X112497777Y-118278492D01*
X112472219Y-118261415D01*
X112445724Y-118249060D01*
X112429602Y-118232938D01*
X112408561Y-118218879D01*
X112394501Y-118197837D01*
X112378379Y-118181715D01*
X112366023Y-118155217D01*
X112348948Y-118129663D01*
X112345110Y-118110368D01*
X112337656Y-118094383D01*
X112329290Y-118030834D01*
X112328015Y-118024425D01*
X112328015Y-117524425D01*
X112329289Y-117518017D01*
X112337656Y-117454466D01*
X112345110Y-117438479D01*
X112348948Y-117419187D01*
X112366021Y-117393634D01*
X112378379Y-117367134D01*
X112394503Y-117351009D01*
X112408561Y-117329971D01*
X112429599Y-117315913D01*
X112445724Y-117299789D01*
X112472224Y-117287431D01*
X112497777Y-117270358D01*
X112517069Y-117266520D01*
X112533056Y-117259066D01*
X112596607Y-117250699D01*
X112603015Y-117249425D01*
X113053015Y-117249425D01*
X113059424Y-117250700D01*
G37*
G36*
X107702578Y-116806602D02*
G01*
X107767462Y-116849957D01*
X107810817Y-116914841D01*
X107826041Y-116991378D01*
X107826041Y-117291378D01*
X107810817Y-117367915D01*
X107767462Y-117432799D01*
X107702578Y-117476154D01*
X107626041Y-117491378D01*
X106601041Y-117491378D01*
X106524504Y-117476154D01*
X106459620Y-117432799D01*
X106416265Y-117367915D01*
X106401041Y-117291378D01*
X106401041Y-116991378D01*
X106416265Y-116914841D01*
X106459620Y-116849957D01*
X106524504Y-116806602D01*
X106601041Y-116791378D01*
X107626041Y-116791378D01*
X107702578Y-116806602D01*
G37*
G36*
X107702578Y-115856602D02*
G01*
X107767462Y-115899957D01*
X107810817Y-115964841D01*
X107826041Y-116041378D01*
X107826041Y-116341378D01*
X107810817Y-116417915D01*
X107767462Y-116482799D01*
X107702578Y-116526154D01*
X107626041Y-116541378D01*
X106601041Y-116541378D01*
X106524504Y-116526154D01*
X106459620Y-116482799D01*
X106416265Y-116417915D01*
X106401041Y-116341378D01*
X106401041Y-116041378D01*
X106416265Y-115964841D01*
X106459620Y-115899957D01*
X106524504Y-115856602D01*
X106601041Y-115841378D01*
X107626041Y-115841378D01*
X107702578Y-115856602D01*
G37*
G36*
X109977578Y-115856602D02*
G01*
X110042462Y-115899957D01*
X110085817Y-115964841D01*
X110101041Y-116041378D01*
X110101041Y-116341378D01*
X110085817Y-116417915D01*
X110042462Y-116482799D01*
X109977578Y-116526154D01*
X109901041Y-116541378D01*
X108876041Y-116541378D01*
X108799504Y-116526154D01*
X108734620Y-116482799D01*
X108691265Y-116417915D01*
X108676041Y-116341378D01*
X108676041Y-116041378D01*
X108691265Y-115964841D01*
X108734620Y-115899957D01*
X108799504Y-115856602D01*
X108876041Y-115841378D01*
X109901041Y-115841378D01*
X109977578Y-115856602D01*
G37*
G36*
X107523755Y-113931169D02*
G01*
X107587304Y-113939535D01*
X107603289Y-113946989D01*
X107622584Y-113950827D01*
X107648138Y-113967902D01*
X107674636Y-113980258D01*
X107690758Y-113996380D01*
X107711800Y-114010440D01*
X107725859Y-114031481D01*
X107741981Y-114047603D01*
X107754336Y-114074098D01*
X107771413Y-114099656D01*
X107775251Y-114118952D01*
X107782704Y-114134935D01*
X107791068Y-114198471D01*
X107792346Y-114204894D01*
X107792346Y-114654894D01*
X107791068Y-114661318D01*
X107782704Y-114724852D01*
X107775251Y-114740833D01*
X107771413Y-114760132D01*
X107754334Y-114785691D01*
X107741981Y-114812184D01*
X107725862Y-114828302D01*
X107711800Y-114849348D01*
X107690754Y-114863410D01*
X107674636Y-114879529D01*
X107648143Y-114891882D01*
X107622584Y-114908961D01*
X107603285Y-114912799D01*
X107587304Y-114920252D01*
X107523770Y-114928616D01*
X107517346Y-114929894D01*
X107017346Y-114929894D01*
X107010923Y-114928616D01*
X106947387Y-114920252D01*
X106931404Y-114912799D01*
X106912108Y-114908961D01*
X106886550Y-114891884D01*
X106860055Y-114879529D01*
X106843933Y-114863407D01*
X106822892Y-114849348D01*
X106808832Y-114828306D01*
X106792710Y-114812184D01*
X106780354Y-114785686D01*
X106763279Y-114760132D01*
X106759441Y-114740837D01*
X106751987Y-114724852D01*
X106743621Y-114661303D01*
X106742346Y-114654894D01*
X106742346Y-114204894D01*
X106743620Y-114198486D01*
X106751987Y-114134935D01*
X106759441Y-114118948D01*
X106763279Y-114099656D01*
X106780352Y-114074103D01*
X106792710Y-114047603D01*
X106808834Y-114031478D01*
X106822892Y-114010440D01*
X106843930Y-113996382D01*
X106860055Y-113980258D01*
X106886555Y-113967900D01*
X106912108Y-113950827D01*
X106931400Y-113946989D01*
X106947387Y-113939535D01*
X107010938Y-113931168D01*
X107017346Y-113929894D01*
X107517346Y-113929894D01*
X107523755Y-113931169D01*
G37*
G36*
X118036955Y-112622354D02*
G01*
X118190900Y-112686120D01*
X118329447Y-112778694D01*
X118447272Y-112896519D01*
X118539846Y-113035066D01*
X118603612Y-113189011D01*
X118636120Y-113352438D01*
X118636120Y-113519068D01*
X118603612Y-113682495D01*
X118539846Y-113836440D01*
X118447272Y-113974987D01*
X118329447Y-114092812D01*
X118190900Y-114185386D01*
X118036955Y-114249152D01*
X117873528Y-114281660D01*
X117706898Y-114281660D01*
X117543471Y-114249152D01*
X117389526Y-114185386D01*
X117250979Y-114092812D01*
X117133154Y-113974987D01*
X117040580Y-113836440D01*
X116976814Y-113682495D01*
X116944306Y-113519068D01*
X116944306Y-113352438D01*
X116976814Y-113189011D01*
X117040580Y-113035066D01*
X117133154Y-112896519D01*
X117250979Y-112778694D01*
X117389526Y-112686120D01*
X117543471Y-112622354D01*
X117706898Y-112589846D01*
X117873528Y-112589846D01*
X118036955Y-112622354D01*
G37*
G36*
X107523755Y-112381169D02*
G01*
X107587304Y-112389535D01*
X107603289Y-112396989D01*
X107622584Y-112400827D01*
X107648138Y-112417902D01*
X107674636Y-112430258D01*
X107690758Y-112446380D01*
X107711800Y-112460440D01*
X107725859Y-112481481D01*
X107741981Y-112497603D01*
X107754336Y-112524098D01*
X107771413Y-112549656D01*
X107775251Y-112568952D01*
X107782704Y-112584935D01*
X107791068Y-112648471D01*
X107792346Y-112654894D01*
X107792346Y-113104894D01*
X107791068Y-113111318D01*
X107782704Y-113174852D01*
X107775251Y-113190833D01*
X107771413Y-113210132D01*
X107754334Y-113235691D01*
X107741981Y-113262184D01*
X107725862Y-113278302D01*
X107711800Y-113299348D01*
X107690754Y-113313410D01*
X107674636Y-113329529D01*
X107648143Y-113341882D01*
X107622584Y-113358961D01*
X107603285Y-113362799D01*
X107587304Y-113370252D01*
X107523770Y-113378616D01*
X107517346Y-113379894D01*
X107017346Y-113379894D01*
X107010923Y-113378616D01*
X106947387Y-113370252D01*
X106931404Y-113362799D01*
X106912108Y-113358961D01*
X106886550Y-113341884D01*
X106860055Y-113329529D01*
X106843933Y-113313407D01*
X106822892Y-113299348D01*
X106808832Y-113278306D01*
X106792710Y-113262184D01*
X106780354Y-113235686D01*
X106763279Y-113210132D01*
X106759441Y-113190837D01*
X106751987Y-113174852D01*
X106743621Y-113111303D01*
X106742346Y-113104894D01*
X106742346Y-112654894D01*
X106743620Y-112648486D01*
X106751987Y-112584935D01*
X106759441Y-112568948D01*
X106763279Y-112549656D01*
X106780352Y-112524103D01*
X106792710Y-112497603D01*
X106808834Y-112481478D01*
X106822892Y-112460440D01*
X106843930Y-112446382D01*
X106860055Y-112430258D01*
X106886555Y-112417900D01*
X106912108Y-112400827D01*
X106931400Y-112396989D01*
X106947387Y-112389535D01*
X107010938Y-112381168D01*
X107017346Y-112379894D01*
X107517346Y-112379894D01*
X107523755Y-112381169D01*
G37*
G36*
X118559347Y-110099559D02*
G01*
X118575568Y-110110398D01*
X118586407Y-110126619D01*
X118590213Y-110145753D01*
X118590213Y-111645753D01*
X118586407Y-111664887D01*
X118575568Y-111681108D01*
X118559347Y-111691947D01*
X118540213Y-111695753D01*
X117040213Y-111695753D01*
X117021079Y-111691947D01*
X117004858Y-111681108D01*
X116994019Y-111664887D01*
X116990213Y-111645753D01*
X116990213Y-110145753D01*
X116994019Y-110126619D01*
X117004858Y-110110398D01*
X117021079Y-110099559D01*
X117040213Y-110095753D01*
X118540213Y-110095753D01*
X118559347Y-110099559D01*
G37*
G36*
X118036955Y-107542354D02*
G01*
X118190900Y-107606120D01*
X118329447Y-107698694D01*
X118447272Y-107816519D01*
X118539846Y-107955066D01*
X118603612Y-108109011D01*
X118636120Y-108272438D01*
X118636120Y-108439068D01*
X118603612Y-108602495D01*
X118539846Y-108756440D01*
X118447272Y-108894987D01*
X118329447Y-109012812D01*
X118190900Y-109105386D01*
X118036955Y-109169152D01*
X117873528Y-109201660D01*
X117706898Y-109201660D01*
X117543471Y-109169152D01*
X117389526Y-109105386D01*
X117250979Y-109012812D01*
X117133154Y-108894987D01*
X117040580Y-108756440D01*
X116976814Y-108602495D01*
X116944306Y-108439068D01*
X116944306Y-108272438D01*
X116976814Y-108109011D01*
X117040580Y-107955066D01*
X117133154Y-107816519D01*
X117250979Y-107698694D01*
X117389526Y-107606120D01*
X117543471Y-107542354D01*
X117706898Y-107509846D01*
X117873528Y-107509846D01*
X118036955Y-107542354D01*
G37*
G36*
X96089361Y-106181247D02*
G01*
X96152910Y-106189613D01*
X96168895Y-106197067D01*
X96188190Y-106200905D01*
X96213744Y-106217980D01*
X96240242Y-106230336D01*
X96256364Y-106246458D01*
X96277406Y-106260518D01*
X96291465Y-106281559D01*
X96307587Y-106297681D01*
X96319942Y-106324176D01*
X96337019Y-106349734D01*
X96340857Y-106369030D01*
X96348310Y-106385013D01*
X96356674Y-106448549D01*
X96357952Y-106454972D01*
X96357952Y-106904972D01*
X96356674Y-106911396D01*
X96348310Y-106974930D01*
X96340857Y-106990911D01*
X96337019Y-107010210D01*
X96319940Y-107035769D01*
X96307587Y-107062262D01*
X96291468Y-107078380D01*
X96277406Y-107099426D01*
X96256360Y-107113488D01*
X96240242Y-107129607D01*
X96213749Y-107141960D01*
X96188190Y-107159039D01*
X96168891Y-107162877D01*
X96152910Y-107170330D01*
X96089376Y-107178694D01*
X96082952Y-107179972D01*
X95582952Y-107179972D01*
X95576529Y-107178694D01*
X95512993Y-107170330D01*
X95497010Y-107162877D01*
X95477714Y-107159039D01*
X95452156Y-107141962D01*
X95425661Y-107129607D01*
X95409539Y-107113485D01*
X95388498Y-107099426D01*
X95374438Y-107078384D01*
X95358316Y-107062262D01*
X95345960Y-107035764D01*
X95328885Y-107010210D01*
X95325047Y-106990915D01*
X95317593Y-106974930D01*
X95309227Y-106911381D01*
X95307952Y-106904972D01*
X95307952Y-106454972D01*
X95309226Y-106448564D01*
X95317593Y-106385013D01*
X95325047Y-106369026D01*
X95328885Y-106349734D01*
X95345958Y-106324181D01*
X95358316Y-106297681D01*
X95374440Y-106281556D01*
X95388498Y-106260518D01*
X95409536Y-106246460D01*
X95425661Y-106230336D01*
X95452161Y-106217978D01*
X95477714Y-106200905D01*
X95497006Y-106197067D01*
X95512993Y-106189613D01*
X95576544Y-106181246D01*
X95582952Y-106179972D01*
X96082952Y-106179972D01*
X96089361Y-106181247D01*
G37*
G36*
X96089361Y-104631247D02*
G01*
X96152910Y-104639613D01*
X96168895Y-104647067D01*
X96188190Y-104650905D01*
X96213744Y-104667980D01*
X96240242Y-104680336D01*
X96256364Y-104696458D01*
X96277406Y-104710518D01*
X96291465Y-104731559D01*
X96307587Y-104747681D01*
X96319942Y-104774176D01*
X96337019Y-104799734D01*
X96340857Y-104819030D01*
X96348310Y-104835013D01*
X96356674Y-104898549D01*
X96357952Y-104904972D01*
X96357952Y-105354972D01*
X96356674Y-105361396D01*
X96348310Y-105424930D01*
X96340857Y-105440911D01*
X96337019Y-105460210D01*
X96319940Y-105485769D01*
X96307587Y-105512262D01*
X96291468Y-105528380D01*
X96277406Y-105549426D01*
X96256360Y-105563488D01*
X96240242Y-105579607D01*
X96213749Y-105591960D01*
X96188190Y-105609039D01*
X96168891Y-105612877D01*
X96152910Y-105620330D01*
X96089376Y-105628694D01*
X96082952Y-105629972D01*
X95582952Y-105629972D01*
X95576529Y-105628694D01*
X95512993Y-105620330D01*
X95497010Y-105612877D01*
X95477714Y-105609039D01*
X95452156Y-105591962D01*
X95425661Y-105579607D01*
X95409539Y-105563485D01*
X95388498Y-105549426D01*
X95374438Y-105528384D01*
X95358316Y-105512262D01*
X95345960Y-105485764D01*
X95328885Y-105460210D01*
X95325047Y-105440915D01*
X95317593Y-105424930D01*
X95309227Y-105361381D01*
X95307952Y-105354972D01*
X95307952Y-104904972D01*
X95309226Y-104898564D01*
X95317593Y-104835013D01*
X95325047Y-104819026D01*
X95328885Y-104799734D01*
X95345958Y-104774181D01*
X95358316Y-104747681D01*
X95374440Y-104731556D01*
X95388498Y-104710518D01*
X95409536Y-104696460D01*
X95425661Y-104680336D01*
X95452161Y-104667978D01*
X95477714Y-104650905D01*
X95497006Y-104647067D01*
X95512993Y-104639613D01*
X95576544Y-104631246D01*
X95582952Y-104629972D01*
X96082952Y-104629972D01*
X96089361Y-104631247D01*
G37*
G36*
X93319134Y-102303806D02*
G01*
X93335355Y-102314645D01*
X93346194Y-102330866D01*
X93350000Y-102350000D01*
X93350000Y-103150000D01*
X93346194Y-103169134D01*
X93335355Y-103185355D01*
X93319134Y-103196194D01*
X93300000Y-103200000D01*
X92500000Y-103200000D01*
X92480866Y-103196194D01*
X92464645Y-103185355D01*
X92453806Y-103169134D01*
X92450000Y-103150000D01*
X92450000Y-102350000D01*
X92453806Y-102330866D01*
X92464645Y-102314645D01*
X92480866Y-102303806D01*
X92500000Y-102300000D01*
X93300000Y-102300000D01*
X93319134Y-102303806D01*
G37*
G36*
X94169134Y-102303806D02*
G01*
X94185355Y-102314645D01*
X94196194Y-102330866D01*
X94200000Y-102350000D01*
X94200000Y-103150000D01*
X94196194Y-103169134D01*
X94185355Y-103185355D01*
X94169134Y-103196194D01*
X94150000Y-103200000D01*
X93750000Y-103200000D01*
X93730866Y-103196194D01*
X93714645Y-103185355D01*
X93703806Y-103169134D01*
X93700000Y-103150000D01*
X93700000Y-102350000D01*
X93703806Y-102330866D01*
X93714645Y-102314645D01*
X93730866Y-102303806D01*
X93750000Y-102300000D01*
X94150000Y-102300000D01*
X94169134Y-102303806D01*
G37*
G36*
X95019134Y-102303806D02*
G01*
X95035355Y-102314645D01*
X95046194Y-102330866D01*
X95050000Y-102350000D01*
X95050000Y-103150000D01*
X95046194Y-103169134D01*
X95035355Y-103185355D01*
X95019134Y-103196194D01*
X95000000Y-103200000D01*
X94600000Y-103200000D01*
X94580866Y-103196194D01*
X94564645Y-103185355D01*
X94553806Y-103169134D01*
X94550000Y-103150000D01*
X94550000Y-102350000D01*
X94553806Y-102330866D01*
X94564645Y-102314645D01*
X94580866Y-102303806D01*
X94600000Y-102300000D01*
X95000000Y-102300000D01*
X95019134Y-102303806D01*
G37*
G36*
X95869134Y-102303806D02*
G01*
X95885355Y-102314645D01*
X95896194Y-102330866D01*
X95900000Y-102350000D01*
X95900000Y-103150000D01*
X95896194Y-103169134D01*
X95885355Y-103185355D01*
X95869134Y-103196194D01*
X95850000Y-103200000D01*
X95450000Y-103200000D01*
X95430866Y-103196194D01*
X95414645Y-103185355D01*
X95403806Y-103169134D01*
X95400000Y-103150000D01*
X95400000Y-102350000D01*
X95403806Y-102330866D01*
X95414645Y-102314645D01*
X95430866Y-102303806D01*
X95450000Y-102300000D01*
X95850000Y-102300000D01*
X95869134Y-102303806D01*
G37*
G36*
X96719134Y-102303806D02*
G01*
X96735355Y-102314645D01*
X96746194Y-102330866D01*
X96750000Y-102350000D01*
X96750000Y-103150000D01*
X96746194Y-103169134D01*
X96735355Y-103185355D01*
X96719134Y-103196194D01*
X96700000Y-103200000D01*
X96300000Y-103200000D01*
X96280866Y-103196194D01*
X96264645Y-103185355D01*
X96253806Y-103169134D01*
X96250000Y-103150000D01*
X96250000Y-102350000D01*
X96253806Y-102330866D01*
X96264645Y-102314645D01*
X96280866Y-102303806D01*
X96300000Y-102300000D01*
X96700000Y-102300000D01*
X96719134Y-102303806D01*
G37*
G36*
X97569134Y-102303806D02*
G01*
X97585355Y-102314645D01*
X97596194Y-102330866D01*
X97600000Y-102350000D01*
X97600000Y-103150000D01*
X97596194Y-103169134D01*
X97585355Y-103185355D01*
X97569134Y-103196194D01*
X97550000Y-103200000D01*
X97150000Y-103200000D01*
X97130866Y-103196194D01*
X97114645Y-103185355D01*
X97103806Y-103169134D01*
X97100000Y-103150000D01*
X97100000Y-102350000D01*
X97103806Y-102330866D01*
X97114645Y-102314645D01*
X97130866Y-102303806D01*
X97150000Y-102300000D01*
X97550000Y-102300000D01*
X97569134Y-102303806D01*
G37*
G36*
X98419134Y-102303806D02*
G01*
X98435355Y-102314645D01*
X98446194Y-102330866D01*
X98450000Y-102350000D01*
X98450000Y-103150000D01*
X98446194Y-103169134D01*
X98435355Y-103185355D01*
X98419134Y-103196194D01*
X98400000Y-103200000D01*
X98000000Y-103200000D01*
X97980866Y-103196194D01*
X97964645Y-103185355D01*
X97953806Y-103169134D01*
X97950000Y-103150000D01*
X97950000Y-102350000D01*
X97953806Y-102330866D01*
X97964645Y-102314645D01*
X97980866Y-102303806D01*
X98000000Y-102300000D01*
X98400000Y-102300000D01*
X98419134Y-102303806D01*
G37*
G36*
X99269134Y-102303806D02*
G01*
X99285355Y-102314645D01*
X99296194Y-102330866D01*
X99300000Y-102350000D01*
X99300000Y-103150000D01*
X99296194Y-103169134D01*
X99285355Y-103185355D01*
X99269134Y-103196194D01*
X99250000Y-103200000D01*
X98850000Y-103200000D01*
X98830866Y-103196194D01*
X98814645Y-103185355D01*
X98803806Y-103169134D01*
X98800000Y-103150000D01*
X98800000Y-102350000D01*
X98803806Y-102330866D01*
X98814645Y-102314645D01*
X98830866Y-102303806D01*
X98850000Y-102300000D01*
X99250000Y-102300000D01*
X99269134Y-102303806D01*
G37*
G36*
X100119134Y-102303806D02*
G01*
X100135355Y-102314645D01*
X100146194Y-102330866D01*
X100150000Y-102350000D01*
X100150000Y-103150000D01*
X100146194Y-103169134D01*
X100135355Y-103185355D01*
X100119134Y-103196194D01*
X100100000Y-103200000D01*
X99700000Y-103200000D01*
X99680866Y-103196194D01*
X99664645Y-103185355D01*
X99653806Y-103169134D01*
X99650000Y-103150000D01*
X99650000Y-102350000D01*
X99653806Y-102330866D01*
X99664645Y-102314645D01*
X99680866Y-102303806D01*
X99700000Y-102300000D01*
X100100000Y-102300000D01*
X100119134Y-102303806D01*
G37*
G36*
X100969134Y-102303806D02*
G01*
X100985355Y-102314645D01*
X100996194Y-102330866D01*
X101000000Y-102350000D01*
X101000000Y-103150000D01*
X100996194Y-103169134D01*
X100985355Y-103185355D01*
X100969134Y-103196194D01*
X100950000Y-103200000D01*
X100550000Y-103200000D01*
X100530866Y-103196194D01*
X100514645Y-103185355D01*
X100503806Y-103169134D01*
X100500000Y-103150000D01*
X100500000Y-102350000D01*
X100503806Y-102330866D01*
X100514645Y-102314645D01*
X100530866Y-102303806D01*
X100550000Y-102300000D01*
X100950000Y-102300000D01*
X100969134Y-102303806D01*
G37*
G36*
X101819134Y-102303806D02*
G01*
X101835355Y-102314645D01*
X101846194Y-102330866D01*
X101850000Y-102350000D01*
X101850000Y-103150000D01*
X101846194Y-103169134D01*
X101835355Y-103185355D01*
X101819134Y-103196194D01*
X101800000Y-103200000D01*
X101400000Y-103200000D01*
X101380866Y-103196194D01*
X101364645Y-103185355D01*
X101353806Y-103169134D01*
X101350000Y-103150000D01*
X101350000Y-102350000D01*
X101353806Y-102330866D01*
X101364645Y-102314645D01*
X101380866Y-102303806D01*
X101400000Y-102300000D01*
X101800000Y-102300000D01*
X101819134Y-102303806D01*
G37*
G36*
X102669134Y-102303806D02*
G01*
X102685355Y-102314645D01*
X102696194Y-102330866D01*
X102700000Y-102350000D01*
X102700000Y-103150000D01*
X102696194Y-103169134D01*
X102685355Y-103185355D01*
X102669134Y-103196194D01*
X102650000Y-103200000D01*
X102250000Y-103200000D01*
X102230866Y-103196194D01*
X102214645Y-103185355D01*
X102203806Y-103169134D01*
X102200000Y-103150000D01*
X102200000Y-102350000D01*
X102203806Y-102330866D01*
X102214645Y-102314645D01*
X102230866Y-102303806D01*
X102250000Y-102300000D01*
X102650000Y-102300000D01*
X102669134Y-102303806D01*
G37*
G36*
X103519134Y-102303806D02*
G01*
X103535355Y-102314645D01*
X103546194Y-102330866D01*
X103550000Y-102350000D01*
X103550000Y-103150000D01*
X103546194Y-103169134D01*
X103535355Y-103185355D01*
X103519134Y-103196194D01*
X103500000Y-103200000D01*
X103100000Y-103200000D01*
X103080866Y-103196194D01*
X103064645Y-103185355D01*
X103053806Y-103169134D01*
X103050000Y-103150000D01*
X103050000Y-102350000D01*
X103053806Y-102330866D01*
X103064645Y-102314645D01*
X103080866Y-102303806D01*
X103100000Y-102300000D01*
X103500000Y-102300000D01*
X103519134Y-102303806D01*
G37*
G36*
X104369134Y-102303806D02*
G01*
X104385355Y-102314645D01*
X104396194Y-102330866D01*
X104400000Y-102350000D01*
X104400000Y-103150000D01*
X104396194Y-103169134D01*
X104385355Y-103185355D01*
X104369134Y-103196194D01*
X104350000Y-103200000D01*
X103950000Y-103200000D01*
X103930866Y-103196194D01*
X103914645Y-103185355D01*
X103903806Y-103169134D01*
X103900000Y-103150000D01*
X103900000Y-102350000D01*
X103903806Y-102330866D01*
X103914645Y-102314645D01*
X103930866Y-102303806D01*
X103950000Y-102300000D01*
X104350000Y-102300000D01*
X104369134Y-102303806D01*
G37*
G36*
X105219134Y-102303806D02*
G01*
X105235355Y-102314645D01*
X105246194Y-102330866D01*
X105250000Y-102350000D01*
X105250000Y-103150000D01*
X105246194Y-103169134D01*
X105235355Y-103185355D01*
X105219134Y-103196194D01*
X105200000Y-103200000D01*
X104800000Y-103200000D01*
X104780866Y-103196194D01*
X104764645Y-103185355D01*
X104753806Y-103169134D01*
X104750000Y-103150000D01*
X104750000Y-102350000D01*
X104753806Y-102330866D01*
X104764645Y-102314645D01*
X104780866Y-102303806D01*
X104800000Y-102300000D01*
X105200000Y-102300000D01*
X105219134Y-102303806D01*
G37*
G36*
X106069134Y-102303806D02*
G01*
X106085355Y-102314645D01*
X106096194Y-102330866D01*
X106100000Y-102350000D01*
X106100000Y-103150000D01*
X106096194Y-103169134D01*
X106085355Y-103185355D01*
X106069134Y-103196194D01*
X106050000Y-103200000D01*
X105650000Y-103200000D01*
X105630866Y-103196194D01*
X105614645Y-103185355D01*
X105603806Y-103169134D01*
X105600000Y-103150000D01*
X105600000Y-102350000D01*
X105603806Y-102330866D01*
X105614645Y-102314645D01*
X105630866Y-102303806D01*
X105650000Y-102300000D01*
X106050000Y-102300000D01*
X106069134Y-102303806D01*
G37*
G36*
X107319134Y-102303806D02*
G01*
X107335355Y-102314645D01*
X107346194Y-102330866D01*
X107350000Y-102350000D01*
X107350000Y-103150000D01*
X107346194Y-103169134D01*
X107335355Y-103185355D01*
X107319134Y-103196194D01*
X107300000Y-103200000D01*
X106500000Y-103200000D01*
X106480866Y-103196194D01*
X106464645Y-103185355D01*
X106453806Y-103169134D01*
X106450000Y-103150000D01*
X106450000Y-102350000D01*
X106453806Y-102330866D01*
X106464645Y-102314645D01*
X106480866Y-102303806D01*
X106500000Y-102300000D01*
X107300000Y-102300000D01*
X107319134Y-102303806D01*
G37*
G36*
X93319134Y-101453806D02*
G01*
X93335355Y-101464645D01*
X93346194Y-101480866D01*
X93350000Y-101500000D01*
X93350000Y-101900000D01*
X93346194Y-101919134D01*
X93335355Y-101935355D01*
X93319134Y-101946194D01*
X93300000Y-101950000D01*
X92500000Y-101950000D01*
X92480866Y-101946194D01*
X92464645Y-101935355D01*
X92453806Y-101919134D01*
X92450000Y-101900000D01*
X92450000Y-101500000D01*
X92453806Y-101480866D01*
X92464645Y-101464645D01*
X92480866Y-101453806D01*
X92500000Y-101450000D01*
X93300000Y-101450000D01*
X93319134Y-101453806D01*
G37*
G36*
X107319134Y-101453806D02*
G01*
X107335355Y-101464645D01*
X107346194Y-101480866D01*
X107350000Y-101500000D01*
X107350000Y-101900000D01*
X107346194Y-101919134D01*
X107335355Y-101935355D01*
X107319134Y-101946194D01*
X107300000Y-101950000D01*
X106500000Y-101950000D01*
X106480866Y-101946194D01*
X106464645Y-101935355D01*
X106453806Y-101919134D01*
X106450000Y-101900000D01*
X106450000Y-101500000D01*
X106453806Y-101480866D01*
X106464645Y-101464645D01*
X106480866Y-101453806D01*
X106500000Y-101450000D01*
X107300000Y-101450000D01*
X107319134Y-101453806D01*
G37*
G36*
X118958150Y-100453044D02*
G01*
X119021699Y-100461410D01*
X119037684Y-100468864D01*
X119056979Y-100472702D01*
X119082533Y-100489777D01*
X119109031Y-100502133D01*
X119125153Y-100518255D01*
X119146195Y-100532315D01*
X119160254Y-100553356D01*
X119176376Y-100569478D01*
X119188731Y-100595973D01*
X119205808Y-100621531D01*
X119209646Y-100640827D01*
X119217099Y-100656810D01*
X119225463Y-100720346D01*
X119226741Y-100726769D01*
X119226741Y-101176769D01*
X119225463Y-101183193D01*
X119217099Y-101246727D01*
X119209646Y-101262708D01*
X119205808Y-101282007D01*
X119188729Y-101307566D01*
X119176376Y-101334059D01*
X119160257Y-101350177D01*
X119146195Y-101371223D01*
X119125149Y-101385285D01*
X119109031Y-101401404D01*
X119082538Y-101413757D01*
X119056979Y-101430836D01*
X119037680Y-101434674D01*
X119021699Y-101442127D01*
X118958165Y-101450491D01*
X118951741Y-101451769D01*
X118451741Y-101451769D01*
X118445318Y-101450491D01*
X118381782Y-101442127D01*
X118365799Y-101434674D01*
X118346503Y-101430836D01*
X118320945Y-101413759D01*
X118294450Y-101401404D01*
X118278328Y-101385282D01*
X118257287Y-101371223D01*
X118243227Y-101350181D01*
X118227105Y-101334059D01*
X118214749Y-101307561D01*
X118197674Y-101282007D01*
X118193836Y-101262712D01*
X118186382Y-101246727D01*
X118178016Y-101183178D01*
X118176741Y-101176769D01*
X118176741Y-100726769D01*
X118178015Y-100720361D01*
X118186382Y-100656810D01*
X118193836Y-100640823D01*
X118197674Y-100621531D01*
X118214747Y-100595978D01*
X118227105Y-100569478D01*
X118243229Y-100553353D01*
X118257287Y-100532315D01*
X118278325Y-100518257D01*
X118294450Y-100502133D01*
X118320950Y-100489775D01*
X118346503Y-100472702D01*
X118365795Y-100468864D01*
X118381782Y-100461410D01*
X118445333Y-100453043D01*
X118451741Y-100451769D01*
X118951741Y-100451769D01*
X118958150Y-100453044D01*
G37*
G36*
X93319134Y-100603806D02*
G01*
X93335355Y-100614645D01*
X93346194Y-100630866D01*
X93350000Y-100650000D01*
X93350000Y-101050000D01*
X93346194Y-101069134D01*
X93335355Y-101085355D01*
X93319134Y-101096194D01*
X93300000Y-101100000D01*
X92500000Y-101100000D01*
X92480866Y-101096194D01*
X92464645Y-101085355D01*
X92453806Y-101069134D01*
X92450000Y-101050000D01*
X92450000Y-100650000D01*
X92453806Y-100630866D01*
X92464645Y-100614645D01*
X92480866Y-100603806D01*
X92500000Y-100600000D01*
X93300000Y-100600000D01*
X93319134Y-100603806D01*
G37*
G36*
X107319134Y-100603806D02*
G01*
X107335355Y-100614645D01*
X107346194Y-100630866D01*
X107350000Y-100650000D01*
X107350000Y-101050000D01*
X107346194Y-101069134D01*
X107335355Y-101085355D01*
X107319134Y-101096194D01*
X107300000Y-101100000D01*
X106500000Y-101100000D01*
X106480866Y-101096194D01*
X106464645Y-101085355D01*
X106453806Y-101069134D01*
X106450000Y-101050000D01*
X106450000Y-100650000D01*
X106453806Y-100630866D01*
X106464645Y-100614645D01*
X106480866Y-100603806D01*
X106500000Y-100600000D01*
X107300000Y-100600000D01*
X107319134Y-100603806D01*
G37*
G36*
X138266789Y-99524705D02*
G01*
X138405476Y-99561866D01*
X138529819Y-99633656D01*
X138631344Y-99735181D01*
X138703134Y-99859524D01*
X138740295Y-99998211D01*
X138740295Y-100141789D01*
X138703134Y-100280476D01*
X138631344Y-100404819D01*
X138529819Y-100506344D01*
X138405476Y-100578134D01*
X138266789Y-100615295D01*
X138195000Y-100620000D01*
X138193363Y-100620000D01*
X137096637Y-100620000D01*
X137095000Y-100620000D01*
X137023211Y-100615295D01*
X136884524Y-100578134D01*
X136760181Y-100506344D01*
X136658656Y-100404819D01*
X136586866Y-100280476D01*
X136549705Y-100141789D01*
X136549705Y-99998211D01*
X136586866Y-99859524D01*
X136658656Y-99735181D01*
X136760181Y-99633656D01*
X136884524Y-99561866D01*
X137023211Y-99524705D01*
X137095000Y-99520000D01*
X138195000Y-99520000D01*
X138266789Y-99524705D01*
G37*
G36*
X142296789Y-99524705D02*
G01*
X142435476Y-99561866D01*
X142559819Y-99633656D01*
X142661344Y-99735181D01*
X142733134Y-99859524D01*
X142770295Y-99998211D01*
X142770295Y-100141789D01*
X142733134Y-100280476D01*
X142661344Y-100404819D01*
X142559819Y-100506344D01*
X142435476Y-100578134D01*
X142296789Y-100615295D01*
X142225000Y-100620000D01*
X142223363Y-100620000D01*
X141426637Y-100620000D01*
X141425000Y-100620000D01*
X141353211Y-100615295D01*
X141214524Y-100578134D01*
X141090181Y-100506344D01*
X140988656Y-100404819D01*
X140916866Y-100280476D01*
X140879705Y-100141789D01*
X140879705Y-99998211D01*
X140916866Y-99859524D01*
X140988656Y-99735181D01*
X141090181Y-99633656D01*
X141214524Y-99561866D01*
X141353211Y-99524705D01*
X141425000Y-99520000D01*
X142225000Y-99520000D01*
X142296789Y-99524705D01*
G37*
G36*
X93319134Y-99753806D02*
G01*
X93335355Y-99764645D01*
X93346194Y-99780866D01*
X93350000Y-99800000D01*
X93350000Y-100200000D01*
X93346194Y-100219134D01*
X93335355Y-100235355D01*
X93319134Y-100246194D01*
X93300000Y-100250000D01*
X92500000Y-100250000D01*
X92480866Y-100246194D01*
X92464645Y-100235355D01*
X92453806Y-100219134D01*
X92450000Y-100200000D01*
X92450000Y-99800000D01*
X92453806Y-99780866D01*
X92464645Y-99764645D01*
X92480866Y-99753806D01*
X92500000Y-99750000D01*
X93300000Y-99750000D01*
X93319134Y-99753806D01*
G37*
G36*
X107319134Y-99753806D02*
G01*
X107335355Y-99764645D01*
X107346194Y-99780866D01*
X107350000Y-99800000D01*
X107350000Y-100200000D01*
X107346194Y-100219134D01*
X107335355Y-100235355D01*
X107319134Y-100246194D01*
X107300000Y-100250000D01*
X106500000Y-100250000D01*
X106480866Y-100246194D01*
X106464645Y-100235355D01*
X106453806Y-100219134D01*
X106450000Y-100200000D01*
X106450000Y-99800000D01*
X106453806Y-99780866D01*
X106464645Y-99764645D01*
X106480866Y-99753806D01*
X106500000Y-99750000D01*
X107300000Y-99750000D01*
X107319134Y-99753806D01*
G37*
G36*
X118958150Y-98903044D02*
G01*
X119021699Y-98911410D01*
X119037684Y-98918864D01*
X119056979Y-98922702D01*
X119082533Y-98939777D01*
X119109031Y-98952133D01*
X119125153Y-98968255D01*
X119146195Y-98982315D01*
X119160254Y-99003356D01*
X119176376Y-99019478D01*
X119188731Y-99045973D01*
X119205808Y-99071531D01*
X119209646Y-99090827D01*
X119217099Y-99106810D01*
X119225463Y-99170346D01*
X119226741Y-99176769D01*
X119226741Y-99626769D01*
X119225463Y-99633193D01*
X119217099Y-99696727D01*
X119209646Y-99712708D01*
X119205808Y-99732007D01*
X119188729Y-99757566D01*
X119176376Y-99784059D01*
X119160257Y-99800177D01*
X119146195Y-99821223D01*
X119125149Y-99835285D01*
X119109031Y-99851404D01*
X119082538Y-99863757D01*
X119056979Y-99880836D01*
X119037680Y-99884674D01*
X119021699Y-99892127D01*
X118958165Y-99900491D01*
X118951741Y-99901769D01*
X118451741Y-99901769D01*
X118445318Y-99900491D01*
X118381782Y-99892127D01*
X118365799Y-99884674D01*
X118346503Y-99880836D01*
X118320945Y-99863759D01*
X118294450Y-99851404D01*
X118278328Y-99835282D01*
X118257287Y-99821223D01*
X118243227Y-99800181D01*
X118227105Y-99784059D01*
X118214749Y-99757561D01*
X118197674Y-99732007D01*
X118193836Y-99712712D01*
X118186382Y-99696727D01*
X118178016Y-99633178D01*
X118176741Y-99626769D01*
X118176741Y-99176769D01*
X118178015Y-99170361D01*
X118186382Y-99106810D01*
X118193836Y-99090823D01*
X118197674Y-99071531D01*
X118214747Y-99045978D01*
X118227105Y-99019478D01*
X118243229Y-99003353D01*
X118257287Y-98982315D01*
X118278325Y-98968257D01*
X118294450Y-98952133D01*
X118320950Y-98939775D01*
X118346503Y-98922702D01*
X118365795Y-98918864D01*
X118381782Y-98911410D01*
X118445333Y-98903043D01*
X118451741Y-98901769D01*
X118951741Y-98901769D01*
X118958150Y-98903044D01*
G37*
G36*
X93319134Y-98903806D02*
G01*
X93335355Y-98914645D01*
X93346194Y-98930866D01*
X93350000Y-98950000D01*
X93350000Y-99350000D01*
X93346194Y-99369134D01*
X93335355Y-99385355D01*
X93319134Y-99396194D01*
X93300000Y-99400000D01*
X92500000Y-99400000D01*
X92480866Y-99396194D01*
X92464645Y-99385355D01*
X92453806Y-99369134D01*
X92450000Y-99350000D01*
X92450000Y-98950000D01*
X92453806Y-98930866D01*
X92464645Y-98914645D01*
X92480866Y-98903806D01*
X92500000Y-98900000D01*
X93300000Y-98900000D01*
X93319134Y-98903806D01*
G37*
G36*
X107319134Y-98903806D02*
G01*
X107335355Y-98914645D01*
X107346194Y-98930866D01*
X107350000Y-98950000D01*
X107350000Y-99350000D01*
X107346194Y-99369134D01*
X107335355Y-99385355D01*
X107319134Y-99396194D01*
X107300000Y-99400000D01*
X106500000Y-99400000D01*
X106480866Y-99396194D01*
X106464645Y-99385355D01*
X106453806Y-99369134D01*
X106450000Y-99350000D01*
X106450000Y-98950000D01*
X106453806Y-98930866D01*
X106464645Y-98914645D01*
X106480866Y-98903806D01*
X106500000Y-98900000D01*
X107300000Y-98900000D01*
X107319134Y-98903806D01*
G37*
G36*
X137571537Y-98615224D02*
G01*
X137636421Y-98658579D01*
X137679776Y-98723463D01*
X137695000Y-98800000D01*
X137695000Y-99100000D01*
X137679776Y-99176537D01*
X137636421Y-99241421D01*
X137571537Y-99284776D01*
X137495000Y-99300000D01*
X136645000Y-99300000D01*
X136568463Y-99284776D01*
X136503579Y-99241421D01*
X136460224Y-99176537D01*
X136445000Y-99100000D01*
X136445000Y-98800000D01*
X136460224Y-98723463D01*
X136503579Y-98658579D01*
X136568463Y-98615224D01*
X136645000Y-98600000D01*
X137495000Y-98600000D01*
X137571537Y-98615224D01*
G37*
G36*
X138288506Y-98293545D02*
G01*
X138373286Y-98342492D01*
X138442508Y-98411714D01*
X138491455Y-98496494D01*
X138516792Y-98591053D01*
X138516792Y-98688947D01*
X138491455Y-98783506D01*
X138442508Y-98868286D01*
X138373286Y-98937508D01*
X138288506Y-98986455D01*
X138193947Y-99011792D01*
X138096053Y-99011792D01*
X138001494Y-98986455D01*
X137916714Y-98937508D01*
X137847492Y-98868286D01*
X137798545Y-98783506D01*
X137773208Y-98688947D01*
X137773208Y-98591053D01*
X137798545Y-98496494D01*
X137847492Y-98411714D01*
X137916714Y-98342492D01*
X138001494Y-98293545D01*
X138096053Y-98268208D01*
X138193947Y-98268208D01*
X138288506Y-98293545D01*
G37*
G36*
X93319134Y-98053806D02*
G01*
X93335355Y-98064645D01*
X93346194Y-98080866D01*
X93350000Y-98100000D01*
X93350000Y-98500000D01*
X93346194Y-98519134D01*
X93335355Y-98535355D01*
X93319134Y-98546194D01*
X93300000Y-98550000D01*
X92500000Y-98550000D01*
X92480866Y-98546194D01*
X92464645Y-98535355D01*
X92453806Y-98519134D01*
X92450000Y-98500000D01*
X92450000Y-98100000D01*
X92453806Y-98080866D01*
X92464645Y-98064645D01*
X92480866Y-98053806D01*
X92500000Y-98050000D01*
X93300000Y-98050000D01*
X93319134Y-98053806D01*
G37*
G36*
X107319134Y-98053806D02*
G01*
X107335355Y-98064645D01*
X107346194Y-98080866D01*
X107350000Y-98100000D01*
X107350000Y-98500000D01*
X107346194Y-98519134D01*
X107335355Y-98535355D01*
X107319134Y-98546194D01*
X107300000Y-98550000D01*
X106500000Y-98550000D01*
X106480866Y-98546194D01*
X106464645Y-98535355D01*
X106453806Y-98519134D01*
X106450000Y-98500000D01*
X106450000Y-98100000D01*
X106453806Y-98080866D01*
X106464645Y-98064645D01*
X106480866Y-98053806D01*
X106500000Y-98050000D01*
X107300000Y-98050000D01*
X107319134Y-98053806D01*
G37*
G36*
X137571537Y-97815224D02*
G01*
X137636421Y-97858579D01*
X137679776Y-97923463D01*
X137695000Y-98000000D01*
X137695000Y-98300000D01*
X137679776Y-98376537D01*
X137636421Y-98441421D01*
X137571537Y-98484776D01*
X137495000Y-98500000D01*
X136645000Y-98500000D01*
X136568463Y-98484776D01*
X136503579Y-98441421D01*
X136460224Y-98376537D01*
X136445000Y-98300000D01*
X136445000Y-98000000D01*
X136460224Y-97923463D01*
X136503579Y-97858579D01*
X136568463Y-97815224D01*
X136645000Y-97800000D01*
X137495000Y-97800000D01*
X137571537Y-97815224D01*
G37*
G36*
X118571845Y-97033512D02*
G01*
X118635394Y-97041878D01*
X118651379Y-97049332D01*
X118670674Y-97053170D01*
X118696228Y-97070245D01*
X118722726Y-97082601D01*
X118738848Y-97098723D01*
X118759890Y-97112783D01*
X118773949Y-97133824D01*
X118790071Y-97149946D01*
X118802426Y-97176441D01*
X118819503Y-97201999D01*
X118823341Y-97221295D01*
X118830794Y-97237278D01*
X118839158Y-97300814D01*
X118840436Y-97307237D01*
X118840436Y-97807237D01*
X118839158Y-97813661D01*
X118830794Y-97877195D01*
X118823341Y-97893176D01*
X118819503Y-97912475D01*
X118802424Y-97938034D01*
X118790071Y-97964527D01*
X118773952Y-97980645D01*
X118759890Y-98001691D01*
X118738844Y-98015753D01*
X118722726Y-98031872D01*
X118696233Y-98044225D01*
X118670674Y-98061304D01*
X118651375Y-98065142D01*
X118635394Y-98072595D01*
X118571860Y-98080959D01*
X118565436Y-98082237D01*
X118115436Y-98082237D01*
X118109013Y-98080959D01*
X118045477Y-98072595D01*
X118029494Y-98065142D01*
X118010198Y-98061304D01*
X117984640Y-98044227D01*
X117958145Y-98031872D01*
X117942023Y-98015750D01*
X117920982Y-98001691D01*
X117906922Y-97980649D01*
X117890800Y-97964527D01*
X117878444Y-97938029D01*
X117861369Y-97912475D01*
X117857531Y-97893180D01*
X117850077Y-97877195D01*
X117841711Y-97813646D01*
X117840436Y-97807237D01*
X117840436Y-97307237D01*
X117841710Y-97300829D01*
X117850077Y-97237278D01*
X117857531Y-97221291D01*
X117861369Y-97201999D01*
X117878442Y-97176446D01*
X117890800Y-97149946D01*
X117906924Y-97133821D01*
X117920982Y-97112783D01*
X117942020Y-97098725D01*
X117958145Y-97082601D01*
X117984645Y-97070243D01*
X118010198Y-97053170D01*
X118029490Y-97049332D01*
X118045477Y-97041878D01*
X118109028Y-97033511D01*
X118115436Y-97032237D01*
X118565436Y-97032237D01*
X118571845Y-97033512D01*
G37*
G36*
X120121845Y-97033512D02*
G01*
X120185394Y-97041878D01*
X120201379Y-97049332D01*
X120220674Y-97053170D01*
X120246228Y-97070245D01*
X120272726Y-97082601D01*
X120288848Y-97098723D01*
X120309890Y-97112783D01*
X120323949Y-97133824D01*
X120340071Y-97149946D01*
X120352426Y-97176441D01*
X120369503Y-97201999D01*
X120373341Y-97221295D01*
X120380794Y-97237278D01*
X120389158Y-97300814D01*
X120390436Y-97307237D01*
X120390436Y-97807237D01*
X120389158Y-97813661D01*
X120380794Y-97877195D01*
X120373341Y-97893176D01*
X120369503Y-97912475D01*
X120352424Y-97938034D01*
X120340071Y-97964527D01*
X120323952Y-97980645D01*
X120309890Y-98001691D01*
X120288844Y-98015753D01*
X120272726Y-98031872D01*
X120246233Y-98044225D01*
X120220674Y-98061304D01*
X120201375Y-98065142D01*
X120185394Y-98072595D01*
X120121860Y-98080959D01*
X120115436Y-98082237D01*
X119665436Y-98082237D01*
X119659013Y-98080959D01*
X119595477Y-98072595D01*
X119579494Y-98065142D01*
X119560198Y-98061304D01*
X119534640Y-98044227D01*
X119508145Y-98031872D01*
X119492023Y-98015750D01*
X119470982Y-98001691D01*
X119456922Y-97980649D01*
X119440800Y-97964527D01*
X119428444Y-97938029D01*
X119411369Y-97912475D01*
X119407531Y-97893180D01*
X119400077Y-97877195D01*
X119391711Y-97813646D01*
X119390436Y-97807237D01*
X119390436Y-97307237D01*
X119391710Y-97300829D01*
X119400077Y-97237278D01*
X119407531Y-97221291D01*
X119411369Y-97201999D01*
X119428442Y-97176446D01*
X119440800Y-97149946D01*
X119456924Y-97133821D01*
X119470982Y-97112783D01*
X119492020Y-97098725D01*
X119508145Y-97082601D01*
X119534645Y-97070243D01*
X119560198Y-97053170D01*
X119579490Y-97049332D01*
X119595477Y-97041878D01*
X119659028Y-97033511D01*
X119665436Y-97032237D01*
X120115436Y-97032237D01*
X120121845Y-97033512D01*
G37*
G36*
X98869134Y-96753806D02*
G01*
X98885355Y-96764645D01*
X98896194Y-96780866D01*
X98900000Y-96800000D01*
X98900000Y-98000000D01*
X98896194Y-98019134D01*
X98885355Y-98035355D01*
X98869134Y-98046194D01*
X98850000Y-98050000D01*
X98046000Y-98050000D01*
X98036245Y-98049039D01*
X98018221Y-98041573D01*
X98010646Y-98035356D01*
X97614645Y-97639355D01*
X97608427Y-97631778D01*
X97600961Y-97613754D01*
X97600001Y-97604001D01*
X97600000Y-97601565D01*
X97599999Y-97601545D01*
X97599999Y-96804922D01*
X97600000Y-96804916D01*
X97600000Y-96800000D01*
X97603806Y-96780866D01*
X97614645Y-96764645D01*
X97630866Y-96753806D01*
X97650000Y-96750000D01*
X98850000Y-96750000D01*
X98869134Y-96753806D01*
G37*
G36*
X100519134Y-96753806D02*
G01*
X100535355Y-96764645D01*
X100546194Y-96780866D01*
X100550000Y-96800000D01*
X100550000Y-98000000D01*
X100546194Y-98019134D01*
X100535355Y-98035355D01*
X100519134Y-98046194D01*
X100500000Y-98050000D01*
X99300000Y-98050000D01*
X99280866Y-98046194D01*
X99264645Y-98035355D01*
X99253806Y-98019134D01*
X99250000Y-98000000D01*
X99250000Y-96800000D01*
X99253806Y-96780866D01*
X99264645Y-96764645D01*
X99280866Y-96753806D01*
X99300000Y-96750000D01*
X100500000Y-96750000D01*
X100519134Y-96753806D01*
G37*
G36*
X102169134Y-96753806D02*
G01*
X102185355Y-96764645D01*
X102196194Y-96780866D01*
X102200000Y-96800000D01*
X102200000Y-98000000D01*
X102196194Y-98019134D01*
X102185355Y-98035355D01*
X102169134Y-98046194D01*
X102150000Y-98050000D01*
X100950000Y-98050000D01*
X100930866Y-98046194D01*
X100914645Y-98035355D01*
X100903806Y-98019134D01*
X100900000Y-98000000D01*
X100900000Y-96800000D01*
X100903806Y-96780866D01*
X100914645Y-96764645D01*
X100930866Y-96753806D01*
X100950000Y-96750000D01*
X102150000Y-96750000D01*
X102169134Y-96753806D01*
G37*
G36*
X129177450Y-96340508D02*
G01*
X129242334Y-96383863D01*
X129285689Y-96448747D01*
X129300913Y-96525284D01*
X129300913Y-97550284D01*
X129285689Y-97626821D01*
X129242334Y-97691705D01*
X129177450Y-97735060D01*
X129100913Y-97750284D01*
X128800913Y-97750284D01*
X128724376Y-97735060D01*
X128659492Y-97691705D01*
X128616137Y-97626821D01*
X128600913Y-97550284D01*
X128600913Y-96525284D01*
X128616137Y-96448747D01*
X128659492Y-96383863D01*
X128724376Y-96340508D01*
X128800913Y-96325284D01*
X129100913Y-96325284D01*
X129177450Y-96340508D01*
G37*
G36*
X130127450Y-96340508D02*
G01*
X130192334Y-96383863D01*
X130235689Y-96448747D01*
X130250913Y-96525284D01*
X130250913Y-97550284D01*
X130235689Y-97626821D01*
X130192334Y-97691705D01*
X130127450Y-97735060D01*
X130050913Y-97750284D01*
X129750913Y-97750284D01*
X129674376Y-97735060D01*
X129609492Y-97691705D01*
X129566137Y-97626821D01*
X129550913Y-97550284D01*
X129550913Y-96525284D01*
X129566137Y-96448747D01*
X129609492Y-96383863D01*
X129674376Y-96340508D01*
X129750913Y-96325284D01*
X130050913Y-96325284D01*
X130127450Y-96340508D01*
G37*
G36*
X131077450Y-96340508D02*
G01*
X131142334Y-96383863D01*
X131185689Y-96448747D01*
X131200913Y-96525284D01*
X131200913Y-97550284D01*
X131185689Y-97626821D01*
X131142334Y-97691705D01*
X131077450Y-97735060D01*
X131000913Y-97750284D01*
X130700913Y-97750284D01*
X130624376Y-97735060D01*
X130559492Y-97691705D01*
X130516137Y-97626821D01*
X130500913Y-97550284D01*
X130500913Y-96525284D01*
X130516137Y-96448747D01*
X130559492Y-96383863D01*
X130624376Y-96340508D01*
X130700913Y-96325284D01*
X131000913Y-96325284D01*
X131077450Y-96340508D01*
G37*
G36*
X93319134Y-97203806D02*
G01*
X93335355Y-97214645D01*
X93346194Y-97230866D01*
X93350000Y-97250000D01*
X93350000Y-97650000D01*
X93346194Y-97669134D01*
X93335355Y-97685355D01*
X93319134Y-97696194D01*
X93300000Y-97700000D01*
X92500000Y-97700000D01*
X92480866Y-97696194D01*
X92464645Y-97685355D01*
X92453806Y-97669134D01*
X92450000Y-97650000D01*
X92450000Y-97250000D01*
X92453806Y-97230866D01*
X92464645Y-97214645D01*
X92480866Y-97203806D01*
X92500000Y-97200000D01*
X93300000Y-97200000D01*
X93319134Y-97203806D01*
G37*
G36*
X107319134Y-97203806D02*
G01*
X107335355Y-97214645D01*
X107346194Y-97230866D01*
X107350000Y-97250000D01*
X107350000Y-97650000D01*
X107346194Y-97669134D01*
X107335355Y-97685355D01*
X107319134Y-97696194D01*
X107300000Y-97700000D01*
X106500000Y-97700000D01*
X106480866Y-97696194D01*
X106464645Y-97685355D01*
X106453806Y-97669134D01*
X106450000Y-97650000D01*
X106450000Y-97250000D01*
X106453806Y-97230866D01*
X106464645Y-97214645D01*
X106480866Y-97203806D01*
X106500000Y-97200000D01*
X107300000Y-97200000D01*
X107319134Y-97203806D01*
G37*
G36*
X137617835Y-97309515D02*
G01*
X137658388Y-97336612D01*
X137685485Y-97377165D01*
X137695000Y-97425000D01*
X137695000Y-97575000D01*
X137685485Y-97622835D01*
X137658388Y-97663388D01*
X137617835Y-97690485D01*
X137570000Y-97700000D01*
X136570000Y-97700000D01*
X136522165Y-97690485D01*
X136481612Y-97663388D01*
X136454515Y-97622835D01*
X136445000Y-97575000D01*
X136445000Y-97425000D01*
X136454515Y-97377165D01*
X136481612Y-97336612D01*
X136522165Y-97309515D01*
X136570000Y-97300000D01*
X137570000Y-97300000D01*
X137617835Y-97309515D01*
G37*
G36*
X137617835Y-96809515D02*
G01*
X137658388Y-96836612D01*
X137685485Y-96877165D01*
X137695000Y-96925000D01*
X137695000Y-97075000D01*
X137685485Y-97122835D01*
X137658388Y-97163388D01*
X137617835Y-97190485D01*
X137570000Y-97200000D01*
X136570000Y-97200000D01*
X136522165Y-97190485D01*
X136481612Y-97163388D01*
X136454515Y-97122835D01*
X136445000Y-97075000D01*
X136445000Y-96925000D01*
X136454515Y-96877165D01*
X136481612Y-96836612D01*
X136522165Y-96809515D01*
X136570000Y-96800000D01*
X137570000Y-96800000D01*
X137617835Y-96809515D01*
G37*
G36*
X114562788Y-95915336D02*
G01*
X114626337Y-95923702D01*
X114642322Y-95931156D01*
X114661617Y-95934994D01*
X114687171Y-95952069D01*
X114713669Y-95964425D01*
X114729791Y-95980547D01*
X114750833Y-95994607D01*
X114764892Y-96015648D01*
X114781014Y-96031770D01*
X114793369Y-96058265D01*
X114810446Y-96083823D01*
X114814284Y-96103119D01*
X114821737Y-96119102D01*
X114830101Y-96182638D01*
X114831379Y-96189061D01*
X114831379Y-96689061D01*
X114830101Y-96695485D01*
X114821737Y-96759019D01*
X114814284Y-96775000D01*
X114810446Y-96794299D01*
X114793367Y-96819858D01*
X114781014Y-96846351D01*
X114764895Y-96862469D01*
X114750833Y-96883515D01*
X114729787Y-96897577D01*
X114713669Y-96913696D01*
X114687176Y-96926049D01*
X114661617Y-96943128D01*
X114642318Y-96946966D01*
X114626337Y-96954419D01*
X114562803Y-96962783D01*
X114556379Y-96964061D01*
X114106379Y-96964061D01*
X114099956Y-96962783D01*
X114036420Y-96954419D01*
X114020437Y-96946966D01*
X114001141Y-96943128D01*
X113975583Y-96926051D01*
X113949088Y-96913696D01*
X113932966Y-96897574D01*
X113911925Y-96883515D01*
X113897865Y-96862473D01*
X113881743Y-96846351D01*
X113869387Y-96819853D01*
X113852312Y-96794299D01*
X113848474Y-96775004D01*
X113841020Y-96759019D01*
X113832654Y-96695470D01*
X113831379Y-96689061D01*
X113831379Y-96189061D01*
X113832653Y-96182653D01*
X113841020Y-96119102D01*
X113848474Y-96103115D01*
X113852312Y-96083823D01*
X113869385Y-96058270D01*
X113881743Y-96031770D01*
X113897867Y-96015645D01*
X113911925Y-95994607D01*
X113932963Y-95980549D01*
X113949088Y-95964425D01*
X113975588Y-95952067D01*
X114001141Y-95934994D01*
X114020433Y-95931156D01*
X114036420Y-95923702D01*
X114099971Y-95915335D01*
X114106379Y-95914061D01*
X114556379Y-95914061D01*
X114562788Y-95915336D01*
G37*
G36*
X116112788Y-95915336D02*
G01*
X116176337Y-95923702D01*
X116192322Y-95931156D01*
X116211617Y-95934994D01*
X116237171Y-95952069D01*
X116263669Y-95964425D01*
X116279791Y-95980547D01*
X116300833Y-95994607D01*
X116314892Y-96015648D01*
X116331014Y-96031770D01*
X116343369Y-96058265D01*
X116360446Y-96083823D01*
X116364284Y-96103119D01*
X116371737Y-96119102D01*
X116380101Y-96182638D01*
X116381379Y-96189061D01*
X116381379Y-96689061D01*
X116380101Y-96695485D01*
X116371737Y-96759019D01*
X116364284Y-96775000D01*
X116360446Y-96794299D01*
X116343367Y-96819858D01*
X116331014Y-96846351D01*
X116314895Y-96862469D01*
X116300833Y-96883515D01*
X116279787Y-96897577D01*
X116263669Y-96913696D01*
X116237176Y-96926049D01*
X116211617Y-96943128D01*
X116192318Y-96946966D01*
X116176337Y-96954419D01*
X116112803Y-96962783D01*
X116106379Y-96964061D01*
X115656379Y-96964061D01*
X115649956Y-96962783D01*
X115586420Y-96954419D01*
X115570437Y-96946966D01*
X115551141Y-96943128D01*
X115525583Y-96926051D01*
X115499088Y-96913696D01*
X115482966Y-96897574D01*
X115461925Y-96883515D01*
X115447865Y-96862473D01*
X115431743Y-96846351D01*
X115419387Y-96819853D01*
X115402312Y-96794299D01*
X115398474Y-96775004D01*
X115391020Y-96759019D01*
X115382654Y-96695470D01*
X115381379Y-96689061D01*
X115381379Y-96189061D01*
X115382653Y-96182653D01*
X115391020Y-96119102D01*
X115398474Y-96103115D01*
X115402312Y-96083823D01*
X115419385Y-96058270D01*
X115431743Y-96031770D01*
X115447867Y-96015645D01*
X115461925Y-95994607D01*
X115482963Y-95980549D01*
X115499088Y-95964425D01*
X115525588Y-95952067D01*
X115551141Y-95934994D01*
X115570433Y-95931156D01*
X115586420Y-95923702D01*
X115649971Y-95915335D01*
X115656379Y-95914061D01*
X116106379Y-95914061D01*
X116112788Y-95915336D01*
G37*
G36*
X93319134Y-96353806D02*
G01*
X93335355Y-96364645D01*
X93346194Y-96380866D01*
X93350000Y-96400000D01*
X93350000Y-96800000D01*
X93346194Y-96819134D01*
X93335355Y-96835355D01*
X93319134Y-96846194D01*
X93300000Y-96850000D01*
X92500000Y-96850000D01*
X92480866Y-96846194D01*
X92464645Y-96835355D01*
X92453806Y-96819134D01*
X92450000Y-96800000D01*
X92450000Y-96400000D01*
X92453806Y-96380866D01*
X92464645Y-96364645D01*
X92480866Y-96353806D01*
X92500000Y-96350000D01*
X93300000Y-96350000D01*
X93319134Y-96353806D01*
G37*
G36*
X107319134Y-96353806D02*
G01*
X107335355Y-96364645D01*
X107346194Y-96380866D01*
X107350000Y-96400000D01*
X107350000Y-96800000D01*
X107346194Y-96819134D01*
X107335355Y-96835355D01*
X107319134Y-96846194D01*
X107300000Y-96850000D01*
X106500000Y-96850000D01*
X106480866Y-96846194D01*
X106464645Y-96835355D01*
X106453806Y-96819134D01*
X106450000Y-96800000D01*
X106450000Y-96400000D01*
X106453806Y-96380866D01*
X106464645Y-96364645D01*
X106480866Y-96353806D01*
X106500000Y-96350000D01*
X107300000Y-96350000D01*
X107319134Y-96353806D01*
G37*
G36*
X137617835Y-96309515D02*
G01*
X137658388Y-96336612D01*
X137685485Y-96377165D01*
X137695000Y-96425000D01*
X137695000Y-96575000D01*
X137685485Y-96622835D01*
X137658388Y-96663388D01*
X137617835Y-96690485D01*
X137570000Y-96700000D01*
X136570000Y-96700000D01*
X136522165Y-96690485D01*
X136481612Y-96663388D01*
X136454515Y-96622835D01*
X136445000Y-96575000D01*
X136445000Y-96425000D01*
X136454515Y-96377165D01*
X136481612Y-96336612D01*
X136522165Y-96309515D01*
X136570000Y-96300000D01*
X137570000Y-96300000D01*
X137617835Y-96309515D01*
G37*
G36*
X98869134Y-95103806D02*
G01*
X98885355Y-95114645D01*
X98896194Y-95130866D01*
X98900000Y-95150000D01*
X98900000Y-96350000D01*
X98896194Y-96369134D01*
X98885355Y-96385355D01*
X98869134Y-96396194D01*
X98850000Y-96400000D01*
X97650000Y-96400000D01*
X97630866Y-96396194D01*
X97614645Y-96385355D01*
X97603806Y-96369134D01*
X97600000Y-96350000D01*
X97600000Y-95150000D01*
X97603806Y-95130866D01*
X97614645Y-95114645D01*
X97630866Y-95103806D01*
X97650000Y-95100000D01*
X98850000Y-95100000D01*
X98869134Y-95103806D01*
G37*
G36*
X100519134Y-95103806D02*
G01*
X100535355Y-95114645D01*
X100546194Y-95130866D01*
X100550000Y-95150000D01*
X100550000Y-96350000D01*
X100546194Y-96369134D01*
X100535355Y-96385355D01*
X100519134Y-96396194D01*
X100500000Y-96400000D01*
X99300000Y-96400000D01*
X99280866Y-96396194D01*
X99264645Y-96385355D01*
X99253806Y-96369134D01*
X99250000Y-96350000D01*
X99250000Y-95150000D01*
X99253806Y-95130866D01*
X99264645Y-95114645D01*
X99280866Y-95103806D01*
X99300000Y-95100000D01*
X100500000Y-95100000D01*
X100519134Y-95103806D01*
G37*
G36*
X102169134Y-95103806D02*
G01*
X102185355Y-95114645D01*
X102196194Y-95130866D01*
X102200000Y-95150000D01*
X102200000Y-96350000D01*
X102196194Y-96369134D01*
X102185355Y-96385355D01*
X102169134Y-96396194D01*
X102150000Y-96400000D01*
X100950000Y-96400000D01*
X100930866Y-96396194D01*
X100914645Y-96385355D01*
X100903806Y-96369134D01*
X100900000Y-96350000D01*
X100900000Y-95150000D01*
X100903806Y-95130866D01*
X100914645Y-95114645D01*
X100930866Y-95103806D01*
X100950000Y-95100000D01*
X102150000Y-95100000D01*
X102169134Y-95103806D01*
G37*
G36*
X121598596Y-95348747D02*
G01*
X121662145Y-95357113D01*
X121678130Y-95364567D01*
X121697425Y-95368405D01*
X121722979Y-95385480D01*
X121749477Y-95397836D01*
X121765599Y-95413958D01*
X121786641Y-95428018D01*
X121800700Y-95449059D01*
X121816822Y-95465181D01*
X121829177Y-95491676D01*
X121846254Y-95517234D01*
X121850092Y-95536530D01*
X121857545Y-95552513D01*
X121865909Y-95616049D01*
X121867187Y-95622472D01*
X121867187Y-96122472D01*
X121865909Y-96128896D01*
X121857545Y-96192430D01*
X121850092Y-96208411D01*
X121846254Y-96227710D01*
X121829175Y-96253269D01*
X121816822Y-96279762D01*
X121800703Y-96295880D01*
X121786641Y-96316926D01*
X121765595Y-96330988D01*
X121749477Y-96347107D01*
X121722984Y-96359460D01*
X121697425Y-96376539D01*
X121678126Y-96380377D01*
X121662145Y-96387830D01*
X121598611Y-96396194D01*
X121592187Y-96397472D01*
X121142187Y-96397472D01*
X121135764Y-96396194D01*
X121072228Y-96387830D01*
X121056245Y-96380377D01*
X121036949Y-96376539D01*
X121011391Y-96359462D01*
X120984896Y-96347107D01*
X120968774Y-96330985D01*
X120947733Y-96316926D01*
X120933673Y-96295884D01*
X120917551Y-96279762D01*
X120905195Y-96253264D01*
X120888120Y-96227710D01*
X120884282Y-96208415D01*
X120876828Y-96192430D01*
X120868462Y-96128881D01*
X120867187Y-96122472D01*
X120867187Y-95622472D01*
X120868461Y-95616064D01*
X120876828Y-95552513D01*
X120884282Y-95536526D01*
X120888120Y-95517234D01*
X120905193Y-95491681D01*
X120917551Y-95465181D01*
X120933675Y-95449056D01*
X120947733Y-95428018D01*
X120968771Y-95413960D01*
X120984896Y-95397836D01*
X121011396Y-95385478D01*
X121036949Y-95368405D01*
X121056241Y-95364567D01*
X121072228Y-95357113D01*
X121135779Y-95348746D01*
X121142187Y-95347472D01*
X121592187Y-95347472D01*
X121598596Y-95348747D01*
G37*
G36*
X123148596Y-95348747D02*
G01*
X123212145Y-95357113D01*
X123228130Y-95364567D01*
X123247425Y-95368405D01*
X123272979Y-95385480D01*
X123299477Y-95397836D01*
X123315599Y-95413958D01*
X123336641Y-95428018D01*
X123350700Y-95449059D01*
X123366822Y-95465181D01*
X123379177Y-95491676D01*
X123396254Y-95517234D01*
X123400092Y-95536530D01*
X123407545Y-95552513D01*
X123415909Y-95616049D01*
X123417187Y-95622472D01*
X123417187Y-96122472D01*
X123415909Y-96128896D01*
X123407545Y-96192430D01*
X123400092Y-96208411D01*
X123396254Y-96227710D01*
X123379175Y-96253269D01*
X123366822Y-96279762D01*
X123350703Y-96295880D01*
X123336641Y-96316926D01*
X123315595Y-96330988D01*
X123299477Y-96347107D01*
X123272984Y-96359460D01*
X123247425Y-96376539D01*
X123228126Y-96380377D01*
X123212145Y-96387830D01*
X123148611Y-96396194D01*
X123142187Y-96397472D01*
X122692187Y-96397472D01*
X122685764Y-96396194D01*
X122622228Y-96387830D01*
X122606245Y-96380377D01*
X122586949Y-96376539D01*
X122561391Y-96359462D01*
X122534896Y-96347107D01*
X122518774Y-96330985D01*
X122497733Y-96316926D01*
X122483673Y-96295884D01*
X122467551Y-96279762D01*
X122455195Y-96253264D01*
X122438120Y-96227710D01*
X122434282Y-96208415D01*
X122426828Y-96192430D01*
X122418462Y-96128881D01*
X122417187Y-96122472D01*
X122417187Y-95622472D01*
X122418461Y-95616064D01*
X122426828Y-95552513D01*
X122434282Y-95536526D01*
X122438120Y-95517234D01*
X122455193Y-95491681D01*
X122467551Y-95465181D01*
X122483675Y-95449056D01*
X122497733Y-95428018D01*
X122518771Y-95413960D01*
X122534896Y-95397836D01*
X122561396Y-95385478D01*
X122586949Y-95368405D01*
X122606241Y-95364567D01*
X122622228Y-95357113D01*
X122685779Y-95348746D01*
X122692187Y-95347472D01*
X123142187Y-95347472D01*
X123148596Y-95348747D01*
G37*
G36*
X118328936Y-95793941D02*
G01*
X118397663Y-95833621D01*
X118453779Y-95889737D01*
X118493459Y-95958464D01*
X118513999Y-96035120D01*
X118513999Y-96114480D01*
X118493459Y-96191136D01*
X118453779Y-96259863D01*
X118397663Y-96315979D01*
X118328936Y-96355659D01*
X118252280Y-96376199D01*
X118172920Y-96376199D01*
X118096264Y-96355659D01*
X118027537Y-96315979D01*
X117971421Y-96259863D01*
X117931741Y-96191136D01*
X117911201Y-96114480D01*
X117911201Y-96035120D01*
X117931741Y-95958464D01*
X117971421Y-95889737D01*
X118027537Y-95833621D01*
X118096264Y-95793941D01*
X118172920Y-95773401D01*
X118252280Y-95773401D01*
X118328936Y-95793941D01*
G37*
G36*
X119116336Y-95793941D02*
G01*
X119185063Y-95833621D01*
X119241179Y-95889737D01*
X119280859Y-95958464D01*
X119301399Y-96035120D01*
X119301399Y-96114480D01*
X119280859Y-96191136D01*
X119241179Y-96259863D01*
X119185063Y-96315979D01*
X119116336Y-96355659D01*
X119039680Y-96376199D01*
X118960320Y-96376199D01*
X118883664Y-96355659D01*
X118814937Y-96315979D01*
X118758821Y-96259863D01*
X118719141Y-96191136D01*
X118698601Y-96114480D01*
X118698601Y-96035120D01*
X118719141Y-95958464D01*
X118758821Y-95889737D01*
X118814937Y-95833621D01*
X118883664Y-95793941D01*
X118960320Y-95773401D01*
X119039680Y-95773401D01*
X119116336Y-95793941D01*
G37*
G36*
X119903736Y-95793941D02*
G01*
X119972463Y-95833621D01*
X120028579Y-95889737D01*
X120068259Y-95958464D01*
X120088799Y-96035120D01*
X120088799Y-96114480D01*
X120068259Y-96191136D01*
X120028579Y-96259863D01*
X119972463Y-96315979D01*
X119903736Y-96355659D01*
X119827080Y-96376199D01*
X119747720Y-96376199D01*
X119671064Y-96355659D01*
X119602337Y-96315979D01*
X119546221Y-96259863D01*
X119506541Y-96191136D01*
X119486001Y-96114480D01*
X119486001Y-96035120D01*
X119506541Y-95958464D01*
X119546221Y-95889737D01*
X119602337Y-95833621D01*
X119671064Y-95793941D01*
X119747720Y-95773401D01*
X119827080Y-95773401D01*
X119903736Y-95793941D01*
G37*
G36*
X137617835Y-95809515D02*
G01*
X137658388Y-95836612D01*
X137685485Y-95877165D01*
X137695000Y-95925000D01*
X137695000Y-96075000D01*
X137685485Y-96122835D01*
X137658388Y-96163388D01*
X137617835Y-96190485D01*
X137570000Y-96200000D01*
X136570000Y-96200000D01*
X136522165Y-96190485D01*
X136481612Y-96163388D01*
X136454515Y-96122835D01*
X136445000Y-96075000D01*
X136445000Y-95925000D01*
X136454515Y-95877165D01*
X136481612Y-95836612D01*
X136522165Y-95809515D01*
X136570000Y-95800000D01*
X137570000Y-95800000D01*
X137617835Y-95809515D01*
G37*
G36*
X93319134Y-95503806D02*
G01*
X93335355Y-95514645D01*
X93346194Y-95530866D01*
X93350000Y-95550000D01*
X93350000Y-95950000D01*
X93346194Y-95969134D01*
X93335355Y-95985355D01*
X93319134Y-95996194D01*
X93300000Y-96000000D01*
X92500000Y-96000000D01*
X92480866Y-95996194D01*
X92464645Y-95985355D01*
X92453806Y-95969134D01*
X92450000Y-95950000D01*
X92450000Y-95550000D01*
X92453806Y-95530866D01*
X92464645Y-95514645D01*
X92480866Y-95503806D01*
X92500000Y-95500000D01*
X93300000Y-95500000D01*
X93319134Y-95503806D01*
G37*
G36*
X107319134Y-95503806D02*
G01*
X107335355Y-95514645D01*
X107346194Y-95530866D01*
X107350000Y-95550000D01*
X107350000Y-95950000D01*
X107346194Y-95969134D01*
X107335355Y-95985355D01*
X107319134Y-95996194D01*
X107300000Y-96000000D01*
X106500000Y-96000000D01*
X106480866Y-95996194D01*
X106464645Y-95985355D01*
X106453806Y-95969134D01*
X106450000Y-95950000D01*
X106450000Y-95550000D01*
X106453806Y-95530866D01*
X106464645Y-95514645D01*
X106480866Y-95503806D01*
X106500000Y-95500000D01*
X107300000Y-95500000D01*
X107319134Y-95503806D01*
G37*
G36*
X137617835Y-95309515D02*
G01*
X137658388Y-95336612D01*
X137685485Y-95377165D01*
X137695000Y-95425000D01*
X137695000Y-95575000D01*
X137685485Y-95622835D01*
X137658388Y-95663388D01*
X137617835Y-95690485D01*
X137570000Y-95700000D01*
X136570000Y-95700000D01*
X136522165Y-95690485D01*
X136481612Y-95663388D01*
X136454515Y-95622835D01*
X136445000Y-95575000D01*
X136445000Y-95425000D01*
X136454515Y-95377165D01*
X136481612Y-95336612D01*
X136522165Y-95309515D01*
X136570000Y-95300000D01*
X137570000Y-95300000D01*
X137617835Y-95309515D01*
G37*
G36*
X118328936Y-95006541D02*
G01*
X118397663Y-95046221D01*
X118453779Y-95102337D01*
X118493459Y-95171064D01*
X118513999Y-95247720D01*
X118513999Y-95327080D01*
X118493459Y-95403736D01*
X118453779Y-95472463D01*
X118397663Y-95528579D01*
X118328936Y-95568259D01*
X118252280Y-95588799D01*
X118172920Y-95588799D01*
X118096264Y-95568259D01*
X118027537Y-95528579D01*
X117971421Y-95472463D01*
X117931741Y-95403736D01*
X117911201Y-95327080D01*
X117911201Y-95247720D01*
X117931741Y-95171064D01*
X117971421Y-95102337D01*
X118027537Y-95046221D01*
X118096264Y-95006541D01*
X118172920Y-94986001D01*
X118252280Y-94986001D01*
X118328936Y-95006541D01*
G37*
G36*
X119116336Y-95006541D02*
G01*
X119185063Y-95046221D01*
X119241179Y-95102337D01*
X119280859Y-95171064D01*
X119301399Y-95247720D01*
X119301399Y-95327080D01*
X119280859Y-95403736D01*
X119241179Y-95472463D01*
X119185063Y-95528579D01*
X119116336Y-95568259D01*
X119039680Y-95588799D01*
X118960320Y-95588799D01*
X118883664Y-95568259D01*
X118814937Y-95528579D01*
X118758821Y-95472463D01*
X118719141Y-95403736D01*
X118698601Y-95327080D01*
X118698601Y-95247720D01*
X118719141Y-95171064D01*
X118758821Y-95102337D01*
X118814937Y-95046221D01*
X118883664Y-95006541D01*
X118960320Y-94986001D01*
X119039680Y-94986001D01*
X119116336Y-95006541D01*
G37*
G36*
X119903736Y-95006541D02*
G01*
X119972463Y-95046221D01*
X120028579Y-95102337D01*
X120068259Y-95171064D01*
X120088799Y-95247720D01*
X120088799Y-95327080D01*
X120068259Y-95403736D01*
X120028579Y-95472463D01*
X119972463Y-95528579D01*
X119903736Y-95568259D01*
X119827080Y-95588799D01*
X119747720Y-95588799D01*
X119671064Y-95568259D01*
X119602337Y-95528579D01*
X119546221Y-95472463D01*
X119506541Y-95403736D01*
X119486001Y-95327080D01*
X119486001Y-95247720D01*
X119506541Y-95171064D01*
X119546221Y-95102337D01*
X119602337Y-95046221D01*
X119671064Y-95006541D01*
X119747720Y-94986001D01*
X119827080Y-94986001D01*
X119903736Y-95006541D01*
G37*
G36*
X129177450Y-94065508D02*
G01*
X129242334Y-94108863D01*
X129285689Y-94173747D01*
X129300913Y-94250284D01*
X129300913Y-95275284D01*
X129285689Y-95351821D01*
X129242334Y-95416705D01*
X129177450Y-95460060D01*
X129100913Y-95475284D01*
X128800913Y-95475284D01*
X128724376Y-95460060D01*
X128659492Y-95416705D01*
X128616137Y-95351821D01*
X128600913Y-95275284D01*
X128600913Y-94250284D01*
X128616137Y-94173747D01*
X128659492Y-94108863D01*
X128724376Y-94065508D01*
X128800913Y-94050284D01*
X129100913Y-94050284D01*
X129177450Y-94065508D01*
G37*
G36*
X131077450Y-94065508D02*
G01*
X131142334Y-94108863D01*
X131185689Y-94173747D01*
X131200913Y-94250284D01*
X131200913Y-95275284D01*
X131185689Y-95351821D01*
X131142334Y-95416705D01*
X131077450Y-95460060D01*
X131000913Y-95475284D01*
X130700913Y-95475284D01*
X130624376Y-95460060D01*
X130559492Y-95416705D01*
X130516137Y-95351821D01*
X130500913Y-95275284D01*
X130500913Y-94250284D01*
X130516137Y-94173747D01*
X130559492Y-94108863D01*
X130624376Y-94065508D01*
X130700913Y-94050284D01*
X131000913Y-94050284D01*
X131077450Y-94065508D01*
G37*
G36*
X114562788Y-94201336D02*
G01*
X114626337Y-94209702D01*
X114642322Y-94217156D01*
X114661617Y-94220994D01*
X114687171Y-94238069D01*
X114713669Y-94250425D01*
X114729791Y-94266547D01*
X114750833Y-94280607D01*
X114764892Y-94301648D01*
X114781014Y-94317770D01*
X114793369Y-94344265D01*
X114810446Y-94369823D01*
X114814284Y-94389119D01*
X114821737Y-94405102D01*
X114830101Y-94468638D01*
X114831379Y-94475061D01*
X114831379Y-94975061D01*
X114830101Y-94981485D01*
X114821737Y-95045019D01*
X114814284Y-95061000D01*
X114810446Y-95080299D01*
X114793367Y-95105858D01*
X114781014Y-95132351D01*
X114764895Y-95148469D01*
X114750833Y-95169515D01*
X114729787Y-95183577D01*
X114713669Y-95199696D01*
X114687176Y-95212049D01*
X114661617Y-95229128D01*
X114642318Y-95232966D01*
X114626337Y-95240419D01*
X114562803Y-95248783D01*
X114556379Y-95250061D01*
X114106379Y-95250061D01*
X114099956Y-95248783D01*
X114036420Y-95240419D01*
X114020437Y-95232966D01*
X114001141Y-95229128D01*
X113975583Y-95212051D01*
X113949088Y-95199696D01*
X113932966Y-95183574D01*
X113911925Y-95169515D01*
X113897865Y-95148473D01*
X113881743Y-95132351D01*
X113869387Y-95105853D01*
X113852312Y-95080299D01*
X113848474Y-95061004D01*
X113841020Y-95045019D01*
X113832654Y-94981470D01*
X113831379Y-94975061D01*
X113831379Y-94475061D01*
X113832653Y-94468653D01*
X113841020Y-94405102D01*
X113848474Y-94389115D01*
X113852312Y-94369823D01*
X113869385Y-94344270D01*
X113881743Y-94317770D01*
X113897867Y-94301645D01*
X113911925Y-94280607D01*
X113932963Y-94266549D01*
X113949088Y-94250425D01*
X113975588Y-94238067D01*
X114001141Y-94220994D01*
X114020433Y-94217156D01*
X114036420Y-94209702D01*
X114099971Y-94201335D01*
X114106379Y-94200061D01*
X114556379Y-94200061D01*
X114562788Y-94201336D01*
G37*
G36*
X116112788Y-94201336D02*
G01*
X116176337Y-94209702D01*
X116192322Y-94217156D01*
X116211617Y-94220994D01*
X116237171Y-94238069D01*
X116263669Y-94250425D01*
X116279791Y-94266547D01*
X116300833Y-94280607D01*
X116314892Y-94301648D01*
X116331014Y-94317770D01*
X116343369Y-94344265D01*
X116360446Y-94369823D01*
X116364284Y-94389119D01*
X116371737Y-94405102D01*
X116380101Y-94468638D01*
X116381379Y-94475061D01*
X116381379Y-94975061D01*
X116380101Y-94981485D01*
X116371737Y-95045019D01*
X116364284Y-95061000D01*
X116360446Y-95080299D01*
X116343367Y-95105858D01*
X116331014Y-95132351D01*
X116314895Y-95148469D01*
X116300833Y-95169515D01*
X116279787Y-95183577D01*
X116263669Y-95199696D01*
X116237176Y-95212049D01*
X116211617Y-95229128D01*
X116192318Y-95232966D01*
X116176337Y-95240419D01*
X116112803Y-95248783D01*
X116106379Y-95250061D01*
X115656379Y-95250061D01*
X115649956Y-95248783D01*
X115586420Y-95240419D01*
X115570437Y-95232966D01*
X115551141Y-95229128D01*
X115525583Y-95212051D01*
X115499088Y-95199696D01*
X115482966Y-95183574D01*
X115461925Y-95169515D01*
X115447865Y-95148473D01*
X115431743Y-95132351D01*
X115419387Y-95105853D01*
X115402312Y-95080299D01*
X115398474Y-95061004D01*
X115391020Y-95045019D01*
X115382654Y-94981470D01*
X115381379Y-94975061D01*
X115381379Y-94475061D01*
X115382653Y-94468653D01*
X115391020Y-94405102D01*
X115398474Y-94389115D01*
X115402312Y-94369823D01*
X115419385Y-94344270D01*
X115431743Y-94317770D01*
X115447867Y-94301645D01*
X115461925Y-94280607D01*
X115482963Y-94266549D01*
X115499088Y-94250425D01*
X115525588Y-94238067D01*
X115551141Y-94220994D01*
X115570433Y-94217156D01*
X115586420Y-94209702D01*
X115649971Y-94201335D01*
X115656379Y-94200061D01*
X116106379Y-94200061D01*
X116112788Y-94201336D01*
G37*
G36*
X137617835Y-94809515D02*
G01*
X137658388Y-94836612D01*
X137685485Y-94877165D01*
X137695000Y-94925000D01*
X137695000Y-95075000D01*
X137685485Y-95122835D01*
X137658388Y-95163388D01*
X137617835Y-95190485D01*
X137570000Y-95200000D01*
X136570000Y-95200000D01*
X136522165Y-95190485D01*
X136481612Y-95163388D01*
X136454515Y-95122835D01*
X136445000Y-95075000D01*
X136445000Y-94925000D01*
X136454515Y-94877165D01*
X136481612Y-94836612D01*
X136522165Y-94809515D01*
X136570000Y-94800000D01*
X137570000Y-94800000D01*
X137617835Y-94809515D01*
G37*
G36*
X93319134Y-94653806D02*
G01*
X93335355Y-94664645D01*
X93346194Y-94680866D01*
X93350000Y-94700000D01*
X93350000Y-95100000D01*
X93346194Y-95119134D01*
X93335355Y-95135355D01*
X93319134Y-95146194D01*
X93300000Y-95150000D01*
X92500000Y-95150000D01*
X92480866Y-95146194D01*
X92464645Y-95135355D01*
X92453806Y-95119134D01*
X92450000Y-95100000D01*
X92450000Y-94700000D01*
X92453806Y-94680866D01*
X92464645Y-94664645D01*
X92480866Y-94653806D01*
X92500000Y-94650000D01*
X93300000Y-94650000D01*
X93319134Y-94653806D01*
G37*
G36*
X107319134Y-94653806D02*
G01*
X107335355Y-94664645D01*
X107346194Y-94680866D01*
X107350000Y-94700000D01*
X107350000Y-95100000D01*
X107346194Y-95119134D01*
X107335355Y-95135355D01*
X107319134Y-95146194D01*
X107300000Y-95150000D01*
X106500000Y-95150000D01*
X106480866Y-95146194D01*
X106464645Y-95135355D01*
X106453806Y-95119134D01*
X106450000Y-95100000D01*
X106450000Y-94700000D01*
X106453806Y-94680866D01*
X106464645Y-94664645D01*
X106480866Y-94653806D01*
X106500000Y-94650000D01*
X107300000Y-94650000D01*
X107319134Y-94653806D01*
G37*
G36*
X132696685Y-94000934D02*
G01*
X132760234Y-94009300D01*
X132776219Y-94016754D01*
X132795514Y-94020592D01*
X132821068Y-94037667D01*
X132847566Y-94050023D01*
X132863688Y-94066145D01*
X132884730Y-94080205D01*
X132898789Y-94101246D01*
X132914911Y-94117368D01*
X132927266Y-94143863D01*
X132944343Y-94169421D01*
X132948181Y-94188717D01*
X132955634Y-94204700D01*
X132963998Y-94268236D01*
X132965276Y-94274659D01*
X132965276Y-94774659D01*
X132963998Y-94781083D01*
X132955634Y-94844617D01*
X132948181Y-94860598D01*
X132944343Y-94879897D01*
X132927264Y-94905456D01*
X132914911Y-94931949D01*
X132898792Y-94948067D01*
X132884730Y-94969113D01*
X132863684Y-94983175D01*
X132847566Y-94999294D01*
X132821073Y-95011647D01*
X132795514Y-95028726D01*
X132776215Y-95032564D01*
X132760234Y-95040017D01*
X132696700Y-95048381D01*
X132690276Y-95049659D01*
X132240276Y-95049659D01*
X132233853Y-95048381D01*
X132170317Y-95040017D01*
X132154334Y-95032564D01*
X132135038Y-95028726D01*
X132109480Y-95011649D01*
X132082985Y-94999294D01*
X132066863Y-94983172D01*
X132045822Y-94969113D01*
X132031762Y-94948071D01*
X132015640Y-94931949D01*
X132003284Y-94905451D01*
X131986209Y-94879897D01*
X131982371Y-94860602D01*
X131974917Y-94844617D01*
X131966551Y-94781068D01*
X131965276Y-94774659D01*
X131965276Y-94274659D01*
X131966550Y-94268251D01*
X131974917Y-94204700D01*
X131982371Y-94188713D01*
X131986209Y-94169421D01*
X132003282Y-94143868D01*
X132015640Y-94117368D01*
X132031764Y-94101243D01*
X132045822Y-94080205D01*
X132066860Y-94066147D01*
X132082985Y-94050023D01*
X132109485Y-94037665D01*
X132135038Y-94020592D01*
X132154330Y-94016754D01*
X132170317Y-94009300D01*
X132233868Y-94000933D01*
X132240276Y-93999659D01*
X132690276Y-93999659D01*
X132696685Y-94000934D01*
G37*
G36*
X134246685Y-94000934D02*
G01*
X134310234Y-94009300D01*
X134326219Y-94016754D01*
X134345514Y-94020592D01*
X134371068Y-94037667D01*
X134397566Y-94050023D01*
X134413688Y-94066145D01*
X134434730Y-94080205D01*
X134448789Y-94101246D01*
X134464911Y-94117368D01*
X134477266Y-94143863D01*
X134494343Y-94169421D01*
X134498181Y-94188717D01*
X134505634Y-94204700D01*
X134513998Y-94268236D01*
X134515276Y-94274659D01*
X134515276Y-94774659D01*
X134513998Y-94781083D01*
X134505634Y-94844617D01*
X134498181Y-94860598D01*
X134494343Y-94879897D01*
X134477264Y-94905456D01*
X134464911Y-94931949D01*
X134448792Y-94948067D01*
X134434730Y-94969113D01*
X134413684Y-94983175D01*
X134397566Y-94999294D01*
X134371073Y-95011647D01*
X134345514Y-95028726D01*
X134326215Y-95032564D01*
X134310234Y-95040017D01*
X134246700Y-95048381D01*
X134240276Y-95049659D01*
X133790276Y-95049659D01*
X133783853Y-95048381D01*
X133720317Y-95040017D01*
X133704334Y-95032564D01*
X133685038Y-95028726D01*
X133659480Y-95011649D01*
X133632985Y-94999294D01*
X133616863Y-94983172D01*
X133595822Y-94969113D01*
X133581762Y-94948071D01*
X133565640Y-94931949D01*
X133553284Y-94905451D01*
X133536209Y-94879897D01*
X133532371Y-94860602D01*
X133524917Y-94844617D01*
X133516551Y-94781068D01*
X133515276Y-94774659D01*
X133515276Y-94274659D01*
X133516550Y-94268251D01*
X133524917Y-94204700D01*
X133532371Y-94188713D01*
X133536209Y-94169421D01*
X133553282Y-94143868D01*
X133565640Y-94117368D01*
X133581764Y-94101243D01*
X133595822Y-94080205D01*
X133616860Y-94066147D01*
X133632985Y-94050023D01*
X133659485Y-94037665D01*
X133685038Y-94020592D01*
X133704330Y-94016754D01*
X133720317Y-94009300D01*
X133783868Y-94000933D01*
X133790276Y-93999659D01*
X134240276Y-93999659D01*
X134246685Y-94000934D01*
G37*
G36*
X118328936Y-94219141D02*
G01*
X118397663Y-94258821D01*
X118453779Y-94314937D01*
X118493459Y-94383664D01*
X118513999Y-94460320D01*
X118513999Y-94539680D01*
X118493459Y-94616336D01*
X118453779Y-94685063D01*
X118397663Y-94741179D01*
X118328936Y-94780859D01*
X118252280Y-94801399D01*
X118172920Y-94801399D01*
X118096264Y-94780859D01*
X118027537Y-94741179D01*
X117971421Y-94685063D01*
X117931741Y-94616336D01*
X117911201Y-94539680D01*
X117911201Y-94460320D01*
X117931741Y-94383664D01*
X117971421Y-94314937D01*
X118027537Y-94258821D01*
X118096264Y-94219141D01*
X118172920Y-94198601D01*
X118252280Y-94198601D01*
X118328936Y-94219141D01*
G37*
G36*
X119116336Y-94219141D02*
G01*
X119185063Y-94258821D01*
X119241179Y-94314937D01*
X119280859Y-94383664D01*
X119301399Y-94460320D01*
X119301399Y-94539680D01*
X119280859Y-94616336D01*
X119241179Y-94685063D01*
X119185063Y-94741179D01*
X119116336Y-94780859D01*
X119039680Y-94801399D01*
X118960320Y-94801399D01*
X118883664Y-94780859D01*
X118814937Y-94741179D01*
X118758821Y-94685063D01*
X118719141Y-94616336D01*
X118698601Y-94539680D01*
X118698601Y-94460320D01*
X118719141Y-94383664D01*
X118758821Y-94314937D01*
X118814937Y-94258821D01*
X118883664Y-94219141D01*
X118960320Y-94198601D01*
X119039680Y-94198601D01*
X119116336Y-94219141D01*
G37*
G36*
X119903736Y-94219141D02*
G01*
X119972463Y-94258821D01*
X120028579Y-94314937D01*
X120068259Y-94383664D01*
X120088799Y-94460320D01*
X120088799Y-94539680D01*
X120068259Y-94616336D01*
X120028579Y-94685063D01*
X119972463Y-94741179D01*
X119903736Y-94780859D01*
X119827080Y-94801399D01*
X119747720Y-94801399D01*
X119671064Y-94780859D01*
X119602337Y-94741179D01*
X119546221Y-94685063D01*
X119506541Y-94616336D01*
X119486001Y-94539680D01*
X119486001Y-94460320D01*
X119506541Y-94383664D01*
X119546221Y-94314937D01*
X119602337Y-94258821D01*
X119671064Y-94219141D01*
X119747720Y-94198601D01*
X119827080Y-94198601D01*
X119903736Y-94219141D01*
G37*
G36*
X98869134Y-93453806D02*
G01*
X98885355Y-93464645D01*
X98896194Y-93480866D01*
X98900000Y-93500000D01*
X98900000Y-94700000D01*
X98896194Y-94719134D01*
X98885355Y-94735355D01*
X98869134Y-94746194D01*
X98850000Y-94750000D01*
X97650000Y-94750000D01*
X97630866Y-94746194D01*
X97614645Y-94735355D01*
X97603806Y-94719134D01*
X97600000Y-94700000D01*
X97600000Y-93500000D01*
X97603806Y-93480866D01*
X97614645Y-93464645D01*
X97630866Y-93453806D01*
X97650000Y-93450000D01*
X98850000Y-93450000D01*
X98869134Y-93453806D01*
G37*
G36*
X100519134Y-93453806D02*
G01*
X100535355Y-93464645D01*
X100546194Y-93480866D01*
X100550000Y-93500000D01*
X100550000Y-94700000D01*
X100546194Y-94719134D01*
X100535355Y-94735355D01*
X100519134Y-94746194D01*
X100500000Y-94750000D01*
X99300000Y-94750000D01*
X99280866Y-94746194D01*
X99264645Y-94735355D01*
X99253806Y-94719134D01*
X99250000Y-94700000D01*
X99250000Y-93500000D01*
X99253806Y-93480866D01*
X99264645Y-93464645D01*
X99280866Y-93453806D01*
X99300000Y-93450000D01*
X100500000Y-93450000D01*
X100519134Y-93453806D01*
G37*
G36*
X102169134Y-93453806D02*
G01*
X102185355Y-93464645D01*
X102196194Y-93480866D01*
X102200000Y-93500000D01*
X102200000Y-94700000D01*
X102196194Y-94719134D01*
X102185355Y-94735355D01*
X102169134Y-94746194D01*
X102150000Y-94750000D01*
X100950000Y-94750000D01*
X100930866Y-94746194D01*
X100914645Y-94735355D01*
X100903806Y-94719134D01*
X100900000Y-94700000D01*
X100900000Y-93500000D01*
X100903806Y-93480866D01*
X100914645Y-93464645D01*
X100930866Y-93453806D01*
X100950000Y-93450000D01*
X102150000Y-93450000D01*
X102169134Y-93453806D01*
G37*
G36*
X137617835Y-94309515D02*
G01*
X137658388Y-94336612D01*
X137685485Y-94377165D01*
X137695000Y-94425000D01*
X137695000Y-94575000D01*
X137685485Y-94622835D01*
X137658388Y-94663388D01*
X137617835Y-94690485D01*
X137570000Y-94700000D01*
X136570000Y-94700000D01*
X136522165Y-94690485D01*
X136481612Y-94663388D01*
X136454515Y-94622835D01*
X136445000Y-94575000D01*
X136445000Y-94425000D01*
X136454515Y-94377165D01*
X136481612Y-94336612D01*
X136522165Y-94309515D01*
X136570000Y-94300000D01*
X137570000Y-94300000D01*
X137617835Y-94309515D01*
G37*
G36*
X93319134Y-93803806D02*
G01*
X93335355Y-93814645D01*
X93346194Y-93830866D01*
X93350000Y-93850000D01*
X93350000Y-94250000D01*
X93346194Y-94269134D01*
X93335355Y-94285355D01*
X93319134Y-94296194D01*
X93300000Y-94300000D01*
X92500000Y-94300000D01*
X92480866Y-94296194D01*
X92464645Y-94285355D01*
X92453806Y-94269134D01*
X92450000Y-94250000D01*
X92450000Y-93850000D01*
X92453806Y-93830866D01*
X92464645Y-93814645D01*
X92480866Y-93803806D01*
X92500000Y-93800000D01*
X93300000Y-93800000D01*
X93319134Y-93803806D01*
G37*
G36*
X107319134Y-93803806D02*
G01*
X107335355Y-93814645D01*
X107346194Y-93830866D01*
X107350000Y-93850000D01*
X107350000Y-94250000D01*
X107346194Y-94269134D01*
X107335355Y-94285355D01*
X107319134Y-94296194D01*
X107300000Y-94300000D01*
X106500000Y-94300000D01*
X106480866Y-94296194D01*
X106464645Y-94285355D01*
X106453806Y-94269134D01*
X106450000Y-94250000D01*
X106450000Y-93850000D01*
X106453806Y-93830866D01*
X106464645Y-93814645D01*
X106480866Y-93803806D01*
X106500000Y-93800000D01*
X107300000Y-93800000D01*
X107319134Y-93803806D01*
G37*
G36*
X137617835Y-93809515D02*
G01*
X137658388Y-93836612D01*
X137685485Y-93877165D01*
X137695000Y-93925000D01*
X137695000Y-94075000D01*
X137685485Y-94122835D01*
X137658388Y-94163388D01*
X137617835Y-94190485D01*
X137570000Y-94200000D01*
X136570000Y-94200000D01*
X136522165Y-94190485D01*
X136481612Y-94163388D01*
X136454515Y-94122835D01*
X136445000Y-94075000D01*
X136445000Y-93925000D01*
X136454515Y-93877165D01*
X136481612Y-93836612D01*
X136522165Y-93809515D01*
X136570000Y-93800000D01*
X137570000Y-93800000D01*
X137617835Y-93809515D01*
G37*
G36*
X118621845Y-92703122D02*
G01*
X118685394Y-92711488D01*
X118701379Y-92718942D01*
X118720674Y-92722780D01*
X118746228Y-92739855D01*
X118772726Y-92752211D01*
X118788848Y-92768333D01*
X118809890Y-92782393D01*
X118823949Y-92803434D01*
X118840071Y-92819556D01*
X118852426Y-92846051D01*
X118869503Y-92871609D01*
X118873341Y-92890905D01*
X118880794Y-92906888D01*
X118889158Y-92970424D01*
X118890436Y-92976847D01*
X118890436Y-93426847D01*
X118889158Y-93433271D01*
X118880794Y-93496805D01*
X118873341Y-93512786D01*
X118869503Y-93532085D01*
X118852424Y-93557644D01*
X118840071Y-93584137D01*
X118823952Y-93600255D01*
X118809890Y-93621301D01*
X118788844Y-93635363D01*
X118772726Y-93651482D01*
X118746233Y-93663835D01*
X118720674Y-93680914D01*
X118701375Y-93684752D01*
X118685394Y-93692205D01*
X118621860Y-93700569D01*
X118615436Y-93701847D01*
X118115436Y-93701847D01*
X118109013Y-93700569D01*
X118045477Y-93692205D01*
X118029494Y-93684752D01*
X118010198Y-93680914D01*
X117984640Y-93663837D01*
X117958145Y-93651482D01*
X117942023Y-93635360D01*
X117920982Y-93621301D01*
X117906922Y-93600259D01*
X117890800Y-93584137D01*
X117878444Y-93557639D01*
X117861369Y-93532085D01*
X117857531Y-93512790D01*
X117850077Y-93496805D01*
X117841711Y-93433256D01*
X117840436Y-93426847D01*
X117840436Y-92976847D01*
X117841710Y-92970439D01*
X117850077Y-92906888D01*
X117857531Y-92890901D01*
X117861369Y-92871609D01*
X117878442Y-92846056D01*
X117890800Y-92819556D01*
X117906924Y-92803431D01*
X117920982Y-92782393D01*
X117942020Y-92768335D01*
X117958145Y-92752211D01*
X117984645Y-92739853D01*
X118010198Y-92722780D01*
X118029490Y-92718942D01*
X118045477Y-92711488D01*
X118109028Y-92703121D01*
X118115436Y-92701847D01*
X118615436Y-92701847D01*
X118621845Y-92703122D01*
G37*
G36*
X120303373Y-92703122D02*
G01*
X120366922Y-92711488D01*
X120382907Y-92718942D01*
X120402202Y-92722780D01*
X120427756Y-92739855D01*
X120454254Y-92752211D01*
X120470376Y-92768333D01*
X120491418Y-92782393D01*
X120505477Y-92803434D01*
X120521599Y-92819556D01*
X120533954Y-92846051D01*
X120551031Y-92871609D01*
X120554869Y-92890905D01*
X120562322Y-92906888D01*
X120570686Y-92970424D01*
X120571964Y-92976847D01*
X120571964Y-93426847D01*
X120570686Y-93433271D01*
X120562322Y-93496805D01*
X120554869Y-93512786D01*
X120551031Y-93532085D01*
X120533952Y-93557644D01*
X120521599Y-93584137D01*
X120505480Y-93600255D01*
X120491418Y-93621301D01*
X120470372Y-93635363D01*
X120454254Y-93651482D01*
X120427761Y-93663835D01*
X120402202Y-93680914D01*
X120382903Y-93684752D01*
X120366922Y-93692205D01*
X120303388Y-93700569D01*
X120296964Y-93701847D01*
X119796964Y-93701847D01*
X119790541Y-93700569D01*
X119727005Y-93692205D01*
X119711022Y-93684752D01*
X119691726Y-93680914D01*
X119666168Y-93663837D01*
X119639673Y-93651482D01*
X119623551Y-93635360D01*
X119602510Y-93621301D01*
X119588450Y-93600259D01*
X119572328Y-93584137D01*
X119559972Y-93557639D01*
X119542897Y-93532085D01*
X119539059Y-93512790D01*
X119531605Y-93496805D01*
X119523239Y-93433256D01*
X119521964Y-93426847D01*
X119521964Y-92976847D01*
X119523238Y-92970439D01*
X119531605Y-92906888D01*
X119539059Y-92890901D01*
X119542897Y-92871609D01*
X119559970Y-92846056D01*
X119572328Y-92819556D01*
X119588452Y-92803431D01*
X119602510Y-92782393D01*
X119623548Y-92768335D01*
X119639673Y-92752211D01*
X119666173Y-92739853D01*
X119691726Y-92722780D01*
X119711018Y-92718942D01*
X119727005Y-92711488D01*
X119790556Y-92703121D01*
X119796964Y-92701847D01*
X120296964Y-92701847D01*
X120303373Y-92703122D01*
G37*
G36*
X121934902Y-92653122D02*
G01*
X121998451Y-92661488D01*
X122014436Y-92668942D01*
X122033731Y-92672780D01*
X122059285Y-92689855D01*
X122085783Y-92702211D01*
X122101905Y-92718333D01*
X122122947Y-92732393D01*
X122137006Y-92753434D01*
X122153128Y-92769556D01*
X122165483Y-92796051D01*
X122182560Y-92821609D01*
X122186398Y-92840905D01*
X122193851Y-92856888D01*
X122202215Y-92920424D01*
X122203493Y-92926847D01*
X122203493Y-93426847D01*
X122202215Y-93433271D01*
X122193851Y-93496805D01*
X122186398Y-93512786D01*
X122182560Y-93532085D01*
X122165481Y-93557644D01*
X122153128Y-93584137D01*
X122137009Y-93600255D01*
X122122947Y-93621301D01*
X122101901Y-93635363D01*
X122085783Y-93651482D01*
X122059290Y-93663835D01*
X122033731Y-93680914D01*
X122014432Y-93684752D01*
X121998451Y-93692205D01*
X121934917Y-93700569D01*
X121928493Y-93701847D01*
X121478493Y-93701847D01*
X121472070Y-93700569D01*
X121408534Y-93692205D01*
X121392551Y-93684752D01*
X121373255Y-93680914D01*
X121347697Y-93663837D01*
X121321202Y-93651482D01*
X121305080Y-93635360D01*
X121284039Y-93621301D01*
X121269979Y-93600259D01*
X121253857Y-93584137D01*
X121241501Y-93557639D01*
X121224426Y-93532085D01*
X121220588Y-93512790D01*
X121213134Y-93496805D01*
X121204768Y-93433256D01*
X121203493Y-93426847D01*
X121203493Y-92926847D01*
X121204767Y-92920439D01*
X121213134Y-92856888D01*
X121220588Y-92840901D01*
X121224426Y-92821609D01*
X121241499Y-92796056D01*
X121253857Y-92769556D01*
X121269981Y-92753431D01*
X121284039Y-92732393D01*
X121305077Y-92718335D01*
X121321202Y-92702211D01*
X121347702Y-92689853D01*
X121373255Y-92672780D01*
X121392547Y-92668942D01*
X121408534Y-92661488D01*
X121472085Y-92653121D01*
X121478493Y-92651847D01*
X121928493Y-92651847D01*
X121934902Y-92653122D01*
G37*
G36*
X123484902Y-92653122D02*
G01*
X123548451Y-92661488D01*
X123564436Y-92668942D01*
X123583731Y-92672780D01*
X123609285Y-92689855D01*
X123635783Y-92702211D01*
X123651905Y-92718333D01*
X123672947Y-92732393D01*
X123687006Y-92753434D01*
X123703128Y-92769556D01*
X123715483Y-92796051D01*
X123732560Y-92821609D01*
X123736398Y-92840905D01*
X123743851Y-92856888D01*
X123752215Y-92920424D01*
X123753493Y-92926847D01*
X123753493Y-93426847D01*
X123752215Y-93433271D01*
X123743851Y-93496805D01*
X123736398Y-93512786D01*
X123732560Y-93532085D01*
X123715481Y-93557644D01*
X123703128Y-93584137D01*
X123687009Y-93600255D01*
X123672947Y-93621301D01*
X123651901Y-93635363D01*
X123635783Y-93651482D01*
X123609290Y-93663835D01*
X123583731Y-93680914D01*
X123564432Y-93684752D01*
X123548451Y-93692205D01*
X123484917Y-93700569D01*
X123478493Y-93701847D01*
X123028493Y-93701847D01*
X123022070Y-93700569D01*
X122958534Y-93692205D01*
X122942551Y-93684752D01*
X122923255Y-93680914D01*
X122897697Y-93663837D01*
X122871202Y-93651482D01*
X122855080Y-93635360D01*
X122834039Y-93621301D01*
X122819979Y-93600259D01*
X122803857Y-93584137D01*
X122791501Y-93557639D01*
X122774426Y-93532085D01*
X122770588Y-93512790D01*
X122763134Y-93496805D01*
X122754768Y-93433256D01*
X122753493Y-93426847D01*
X122753493Y-92926847D01*
X122754767Y-92920439D01*
X122763134Y-92856888D01*
X122770588Y-92840901D01*
X122774426Y-92821609D01*
X122791499Y-92796056D01*
X122803857Y-92769556D01*
X122819981Y-92753431D01*
X122834039Y-92732393D01*
X122855077Y-92718335D01*
X122871202Y-92702211D01*
X122897702Y-92689853D01*
X122923255Y-92672780D01*
X122942547Y-92668942D01*
X122958534Y-92661488D01*
X123022085Y-92653121D01*
X123028493Y-92651847D01*
X123478493Y-92651847D01*
X123484902Y-92653122D01*
G37*
G36*
X137571537Y-93015224D02*
G01*
X137636421Y-93058579D01*
X137679776Y-93123463D01*
X137695000Y-93200000D01*
X137695000Y-93500000D01*
X137679776Y-93576537D01*
X137636421Y-93641421D01*
X137571537Y-93684776D01*
X137495000Y-93700000D01*
X136645000Y-93700000D01*
X136568463Y-93684776D01*
X136503579Y-93641421D01*
X136460224Y-93576537D01*
X136445000Y-93500000D01*
X136445000Y-93200000D01*
X136460224Y-93123463D01*
X136503579Y-93058579D01*
X136568463Y-93015224D01*
X136645000Y-93000000D01*
X137495000Y-93000000D01*
X137571537Y-93015224D01*
G37*
G36*
X93319134Y-92953806D02*
G01*
X93335355Y-92964645D01*
X93346194Y-92980866D01*
X93350000Y-93000000D01*
X93350000Y-93400000D01*
X93346194Y-93419134D01*
X93335355Y-93435355D01*
X93319134Y-93446194D01*
X93300000Y-93450000D01*
X92500000Y-93450000D01*
X92480866Y-93446194D01*
X92464645Y-93435355D01*
X92453806Y-93419134D01*
X92450000Y-93400000D01*
X92450000Y-93000000D01*
X92453806Y-92980866D01*
X92464645Y-92964645D01*
X92480866Y-92953806D01*
X92500000Y-92950000D01*
X93300000Y-92950000D01*
X93319134Y-92953806D01*
G37*
G36*
X107319134Y-92953806D02*
G01*
X107335355Y-92964645D01*
X107346194Y-92980866D01*
X107350000Y-93000000D01*
X107350000Y-93400000D01*
X107346194Y-93419134D01*
X107335355Y-93435355D01*
X107319134Y-93446194D01*
X107300000Y-93450000D01*
X106500000Y-93450000D01*
X106480866Y-93446194D01*
X106464645Y-93435355D01*
X106453806Y-93419134D01*
X106450000Y-93400000D01*
X106450000Y-93000000D01*
X106453806Y-92980866D01*
X106464645Y-92964645D01*
X106480866Y-92953806D01*
X106500000Y-92950000D01*
X107300000Y-92950000D01*
X107319134Y-92953806D01*
G37*
G36*
X138288506Y-92513545D02*
G01*
X138373286Y-92562492D01*
X138442508Y-92631714D01*
X138491455Y-92716494D01*
X138516792Y-92811053D01*
X138516792Y-92908947D01*
X138491455Y-93003506D01*
X138442508Y-93088286D01*
X138373286Y-93157508D01*
X138288506Y-93206455D01*
X138193947Y-93231792D01*
X138096053Y-93231792D01*
X138001494Y-93206455D01*
X137916714Y-93157508D01*
X137847492Y-93088286D01*
X137798545Y-93003506D01*
X137773208Y-92908947D01*
X137773208Y-92811053D01*
X137798545Y-92716494D01*
X137847492Y-92631714D01*
X137916714Y-92562492D01*
X138001494Y-92513545D01*
X138096053Y-92488208D01*
X138193947Y-92488208D01*
X138288506Y-92513545D01*
G37*
G36*
X137571537Y-92215224D02*
G01*
X137636421Y-92258579D01*
X137679776Y-92323463D01*
X137695000Y-92400000D01*
X137695000Y-92700000D01*
X137679776Y-92776537D01*
X137636421Y-92841421D01*
X137571537Y-92884776D01*
X137495000Y-92900000D01*
X136645000Y-92900000D01*
X136568463Y-92884776D01*
X136503579Y-92841421D01*
X136460224Y-92776537D01*
X136445000Y-92700000D01*
X136445000Y-92400000D01*
X136460224Y-92323463D01*
X136503579Y-92258579D01*
X136568463Y-92215224D01*
X136645000Y-92200000D01*
X137495000Y-92200000D01*
X137571537Y-92215224D01*
G37*
G36*
X116940316Y-91692262D02*
G01*
X117003865Y-91700628D01*
X117019850Y-91708082D01*
X117039145Y-91711920D01*
X117064699Y-91728995D01*
X117091197Y-91741351D01*
X117107319Y-91757473D01*
X117128361Y-91771533D01*
X117142420Y-91792574D01*
X117158542Y-91808696D01*
X117170897Y-91835191D01*
X117187974Y-91860749D01*
X117191812Y-91880045D01*
X117199265Y-91896028D01*
X117207629Y-91959564D01*
X117208907Y-91965987D01*
X117208907Y-92415987D01*
X117207629Y-92422411D01*
X117199265Y-92485945D01*
X117191812Y-92501926D01*
X117187974Y-92521225D01*
X117170895Y-92546784D01*
X117158542Y-92573277D01*
X117142423Y-92589395D01*
X117128361Y-92610441D01*
X117107315Y-92624503D01*
X117091197Y-92640622D01*
X117064704Y-92652975D01*
X117039145Y-92670054D01*
X117019846Y-92673892D01*
X117003865Y-92681345D01*
X116940331Y-92689709D01*
X116933907Y-92690987D01*
X116433907Y-92690987D01*
X116427484Y-92689709D01*
X116363948Y-92681345D01*
X116347965Y-92673892D01*
X116328669Y-92670054D01*
X116303111Y-92652977D01*
X116276616Y-92640622D01*
X116260494Y-92624500D01*
X116239453Y-92610441D01*
X116225393Y-92589399D01*
X116209271Y-92573277D01*
X116196915Y-92546779D01*
X116179840Y-92521225D01*
X116176002Y-92501930D01*
X116168548Y-92485945D01*
X116160182Y-92422396D01*
X116158907Y-92415987D01*
X116158907Y-91965987D01*
X116160181Y-91959579D01*
X116168548Y-91896028D01*
X116176002Y-91880041D01*
X116179840Y-91860749D01*
X116196913Y-91835196D01*
X116209271Y-91808696D01*
X116225395Y-91792571D01*
X116239453Y-91771533D01*
X116260491Y-91757475D01*
X116276616Y-91741351D01*
X116303116Y-91728993D01*
X116328669Y-91711920D01*
X116347961Y-91708082D01*
X116363948Y-91700628D01*
X116427499Y-91692261D01*
X116433907Y-91690987D01*
X116933907Y-91690987D01*
X116940316Y-91692262D01*
G37*
G36*
X93319134Y-92103806D02*
G01*
X93335355Y-92114645D01*
X93346194Y-92130866D01*
X93350000Y-92150000D01*
X93350000Y-92550000D01*
X93346194Y-92569134D01*
X93335355Y-92585355D01*
X93319134Y-92596194D01*
X93300000Y-92600000D01*
X92500000Y-92600000D01*
X92480866Y-92596194D01*
X92464645Y-92585355D01*
X92453806Y-92569134D01*
X92450000Y-92550000D01*
X92450000Y-92150000D01*
X92453806Y-92130866D01*
X92464645Y-92114645D01*
X92480866Y-92103806D01*
X92500000Y-92100000D01*
X93300000Y-92100000D01*
X93319134Y-92103806D01*
G37*
G36*
X107319134Y-92103806D02*
G01*
X107335355Y-92114645D01*
X107346194Y-92130866D01*
X107350000Y-92150000D01*
X107350000Y-92550000D01*
X107346194Y-92569134D01*
X107335355Y-92585355D01*
X107319134Y-92596194D01*
X107300000Y-92600000D01*
X106500000Y-92600000D01*
X106480866Y-92596194D01*
X106464645Y-92585355D01*
X106453806Y-92569134D01*
X106450000Y-92550000D01*
X106450000Y-92150000D01*
X106453806Y-92130866D01*
X106464645Y-92114645D01*
X106480866Y-92103806D01*
X106500000Y-92100000D01*
X107300000Y-92100000D01*
X107319134Y-92103806D01*
G37*
G36*
X118621845Y-91153122D02*
G01*
X118685394Y-91161488D01*
X118701379Y-91168942D01*
X118720674Y-91172780D01*
X118746228Y-91189855D01*
X118772726Y-91202211D01*
X118788848Y-91218333D01*
X118809890Y-91232393D01*
X118823949Y-91253434D01*
X118840071Y-91269556D01*
X118852426Y-91296051D01*
X118869503Y-91321609D01*
X118873341Y-91340905D01*
X118880794Y-91356888D01*
X118889158Y-91420424D01*
X118890436Y-91426847D01*
X118890436Y-91876847D01*
X118889158Y-91883271D01*
X118880794Y-91946805D01*
X118873341Y-91962786D01*
X118869503Y-91982085D01*
X118852424Y-92007644D01*
X118840071Y-92034137D01*
X118823952Y-92050255D01*
X118809890Y-92071301D01*
X118788844Y-92085363D01*
X118772726Y-92101482D01*
X118746233Y-92113835D01*
X118720674Y-92130914D01*
X118701375Y-92134752D01*
X118685394Y-92142205D01*
X118621860Y-92150569D01*
X118615436Y-92151847D01*
X118115436Y-92151847D01*
X118109013Y-92150569D01*
X118045477Y-92142205D01*
X118029494Y-92134752D01*
X118010198Y-92130914D01*
X117984640Y-92113837D01*
X117958145Y-92101482D01*
X117942023Y-92085360D01*
X117920982Y-92071301D01*
X117906922Y-92050259D01*
X117890800Y-92034137D01*
X117878444Y-92007639D01*
X117861369Y-91982085D01*
X117857531Y-91962790D01*
X117850077Y-91946805D01*
X117841711Y-91883256D01*
X117840436Y-91876847D01*
X117840436Y-91426847D01*
X117841710Y-91420439D01*
X117850077Y-91356888D01*
X117857531Y-91340901D01*
X117861369Y-91321609D01*
X117878442Y-91296056D01*
X117890800Y-91269556D01*
X117906924Y-91253431D01*
X117920982Y-91232393D01*
X117942020Y-91218335D01*
X117958145Y-91202211D01*
X117984645Y-91189853D01*
X118010198Y-91172780D01*
X118029490Y-91168942D01*
X118045477Y-91161488D01*
X118109028Y-91153121D01*
X118115436Y-91151847D01*
X118615436Y-91151847D01*
X118621845Y-91153122D01*
G37*
G36*
X120303373Y-91153122D02*
G01*
X120366922Y-91161488D01*
X120382907Y-91168942D01*
X120402202Y-91172780D01*
X120427756Y-91189855D01*
X120454254Y-91202211D01*
X120470376Y-91218333D01*
X120491418Y-91232393D01*
X120505477Y-91253434D01*
X120521599Y-91269556D01*
X120533954Y-91296051D01*
X120551031Y-91321609D01*
X120554869Y-91340905D01*
X120562322Y-91356888D01*
X120570686Y-91420424D01*
X120571964Y-91426847D01*
X120571964Y-91876847D01*
X120570686Y-91883271D01*
X120562322Y-91946805D01*
X120554869Y-91962786D01*
X120551031Y-91982085D01*
X120533952Y-92007644D01*
X120521599Y-92034137D01*
X120505480Y-92050255D01*
X120491418Y-92071301D01*
X120470372Y-92085363D01*
X120454254Y-92101482D01*
X120427761Y-92113835D01*
X120402202Y-92130914D01*
X120382903Y-92134752D01*
X120366922Y-92142205D01*
X120303388Y-92150569D01*
X120296964Y-92151847D01*
X119796964Y-92151847D01*
X119790541Y-92150569D01*
X119727005Y-92142205D01*
X119711022Y-92134752D01*
X119691726Y-92130914D01*
X119666168Y-92113837D01*
X119639673Y-92101482D01*
X119623551Y-92085360D01*
X119602510Y-92071301D01*
X119588450Y-92050259D01*
X119572328Y-92034137D01*
X119559972Y-92007639D01*
X119542897Y-91982085D01*
X119539059Y-91962790D01*
X119531605Y-91946805D01*
X119523239Y-91883256D01*
X119521964Y-91876847D01*
X119521964Y-91426847D01*
X119523238Y-91420439D01*
X119531605Y-91356888D01*
X119539059Y-91340901D01*
X119542897Y-91321609D01*
X119559970Y-91296056D01*
X119572328Y-91269556D01*
X119588452Y-91253431D01*
X119602510Y-91232393D01*
X119623548Y-91218335D01*
X119639673Y-91202211D01*
X119666173Y-91189853D01*
X119691726Y-91172780D01*
X119711018Y-91168942D01*
X119727005Y-91161488D01*
X119790556Y-91153121D01*
X119796964Y-91151847D01*
X120296964Y-91151847D01*
X120303373Y-91153122D01*
G37*
G36*
X138266789Y-90884705D02*
G01*
X138405476Y-90921866D01*
X138529819Y-90993656D01*
X138631344Y-91095181D01*
X138703134Y-91219524D01*
X138740295Y-91358211D01*
X138740295Y-91501789D01*
X138703134Y-91640476D01*
X138631344Y-91764819D01*
X138529819Y-91866344D01*
X138405476Y-91938134D01*
X138266789Y-91975295D01*
X138195000Y-91980000D01*
X138193363Y-91980000D01*
X137096637Y-91980000D01*
X137095000Y-91980000D01*
X137023211Y-91975295D01*
X136884524Y-91938134D01*
X136760181Y-91866344D01*
X136658656Y-91764819D01*
X136586866Y-91640476D01*
X136549705Y-91501789D01*
X136549705Y-91358211D01*
X136586866Y-91219524D01*
X136658656Y-91095181D01*
X136760181Y-90993656D01*
X136884524Y-90921866D01*
X137023211Y-90884705D01*
X137095000Y-90880000D01*
X138195000Y-90880000D01*
X138266789Y-90884705D01*
G37*
G36*
X142296789Y-90884705D02*
G01*
X142435476Y-90921866D01*
X142559819Y-90993656D01*
X142661344Y-91095181D01*
X142733134Y-91219524D01*
X142770295Y-91358211D01*
X142770295Y-91501789D01*
X142733134Y-91640476D01*
X142661344Y-91764819D01*
X142559819Y-91866344D01*
X142435476Y-91938134D01*
X142296789Y-91975295D01*
X142225000Y-91980000D01*
X142223363Y-91980000D01*
X141426637Y-91980000D01*
X141425000Y-91980000D01*
X141353211Y-91975295D01*
X141214524Y-91938134D01*
X141090181Y-91866344D01*
X140988656Y-91764819D01*
X140916866Y-91640476D01*
X140879705Y-91501789D01*
X140879705Y-91358211D01*
X140916866Y-91219524D01*
X140988656Y-91095181D01*
X141090181Y-90993656D01*
X141214524Y-90921866D01*
X141353211Y-90884705D01*
X141425000Y-90880000D01*
X142225000Y-90880000D01*
X142296789Y-90884705D01*
G37*
G36*
X93319134Y-91253806D02*
G01*
X93335355Y-91264645D01*
X93346194Y-91280866D01*
X93350000Y-91300000D01*
X93350000Y-91700000D01*
X93346194Y-91719134D01*
X93335355Y-91735355D01*
X93319134Y-91746194D01*
X93300000Y-91750000D01*
X92500000Y-91750000D01*
X92480866Y-91746194D01*
X92464645Y-91735355D01*
X92453806Y-91719134D01*
X92450000Y-91700000D01*
X92450000Y-91300000D01*
X92453806Y-91280866D01*
X92464645Y-91264645D01*
X92480866Y-91253806D01*
X92500000Y-91250000D01*
X93300000Y-91250000D01*
X93319134Y-91253806D01*
G37*
G36*
X107319134Y-91253806D02*
G01*
X107335355Y-91264645D01*
X107346194Y-91280866D01*
X107350000Y-91300000D01*
X107350000Y-91700000D01*
X107346194Y-91719134D01*
X107335355Y-91735355D01*
X107319134Y-91746194D01*
X107300000Y-91750000D01*
X106500000Y-91750000D01*
X106480866Y-91746194D01*
X106464645Y-91735355D01*
X106453806Y-91719134D01*
X106450000Y-91700000D01*
X106450000Y-91300000D01*
X106453806Y-91280866D01*
X106464645Y-91264645D01*
X106480866Y-91253806D01*
X106500000Y-91250000D01*
X107300000Y-91250000D01*
X107319134Y-91253806D01*
G37*
G36*
X116940316Y-90142262D02*
G01*
X117003865Y-90150628D01*
X117019850Y-90158082D01*
X117039145Y-90161920D01*
X117064699Y-90178995D01*
X117091197Y-90191351D01*
X117107319Y-90207473D01*
X117128361Y-90221533D01*
X117142420Y-90242574D01*
X117158542Y-90258696D01*
X117170897Y-90285191D01*
X117187974Y-90310749D01*
X117191812Y-90330045D01*
X117199265Y-90346028D01*
X117207629Y-90409564D01*
X117208907Y-90415987D01*
X117208907Y-90865987D01*
X117207629Y-90872411D01*
X117199265Y-90935945D01*
X117191812Y-90951926D01*
X117187974Y-90971225D01*
X117170895Y-90996784D01*
X117158542Y-91023277D01*
X117142423Y-91039395D01*
X117128361Y-91060441D01*
X117107315Y-91074503D01*
X117091197Y-91090622D01*
X117064704Y-91102975D01*
X117039145Y-91120054D01*
X117019846Y-91123892D01*
X117003865Y-91131345D01*
X116940331Y-91139709D01*
X116933907Y-91140987D01*
X116433907Y-91140987D01*
X116427484Y-91139709D01*
X116363948Y-91131345D01*
X116347965Y-91123892D01*
X116328669Y-91120054D01*
X116303111Y-91102977D01*
X116276616Y-91090622D01*
X116260494Y-91074500D01*
X116239453Y-91060441D01*
X116225393Y-91039399D01*
X116209271Y-91023277D01*
X116196915Y-90996779D01*
X116179840Y-90971225D01*
X116176002Y-90951930D01*
X116168548Y-90935945D01*
X116160182Y-90872396D01*
X116158907Y-90865987D01*
X116158907Y-90415987D01*
X116160181Y-90409579D01*
X116168548Y-90346028D01*
X116176002Y-90330041D01*
X116179840Y-90310749D01*
X116196913Y-90285196D01*
X116209271Y-90258696D01*
X116225395Y-90242571D01*
X116239453Y-90221533D01*
X116260491Y-90207475D01*
X116276616Y-90191351D01*
X116303116Y-90178993D01*
X116328669Y-90161920D01*
X116347961Y-90158082D01*
X116363948Y-90150628D01*
X116427499Y-90142261D01*
X116433907Y-90140987D01*
X116933907Y-90140987D01*
X116940316Y-90142262D01*
G37*
G36*
X93319134Y-90403806D02*
G01*
X93335355Y-90414645D01*
X93346194Y-90430866D01*
X93350000Y-90450000D01*
X93350000Y-90850000D01*
X93346194Y-90869134D01*
X93335355Y-90885355D01*
X93319134Y-90896194D01*
X93300000Y-90900000D01*
X92500000Y-90900000D01*
X92480866Y-90896194D01*
X92464645Y-90885355D01*
X92453806Y-90869134D01*
X92450000Y-90850000D01*
X92450000Y-90450000D01*
X92453806Y-90430866D01*
X92464645Y-90414645D01*
X92480866Y-90403806D01*
X92500000Y-90400000D01*
X93300000Y-90400000D01*
X93319134Y-90403806D01*
G37*
G36*
X107319134Y-90403806D02*
G01*
X107335355Y-90414645D01*
X107346194Y-90430866D01*
X107350000Y-90450000D01*
X107350000Y-90850000D01*
X107346194Y-90869134D01*
X107335355Y-90885355D01*
X107319134Y-90896194D01*
X107300000Y-90900000D01*
X106500000Y-90900000D01*
X106480866Y-90896194D01*
X106464645Y-90885355D01*
X106453806Y-90869134D01*
X106450000Y-90850000D01*
X106450000Y-90450000D01*
X106453806Y-90430866D01*
X106464645Y-90414645D01*
X106480866Y-90403806D01*
X106500000Y-90400000D01*
X107300000Y-90400000D01*
X107319134Y-90403806D01*
G37*
G36*
X93319134Y-89553806D02*
G01*
X93335355Y-89564645D01*
X93346194Y-89580866D01*
X93350000Y-89600000D01*
X93350000Y-90000000D01*
X93346194Y-90019134D01*
X93335355Y-90035355D01*
X93319134Y-90046194D01*
X93300000Y-90050000D01*
X92500000Y-90050000D01*
X92480866Y-90046194D01*
X92464645Y-90035355D01*
X92453806Y-90019134D01*
X92450000Y-90000000D01*
X92450000Y-89600000D01*
X92453806Y-89580866D01*
X92464645Y-89564645D01*
X92480866Y-89553806D01*
X92500000Y-89550000D01*
X93300000Y-89550000D01*
X93319134Y-89553806D01*
G37*
G36*
X107319134Y-89553806D02*
G01*
X107335355Y-89564645D01*
X107346194Y-89580866D01*
X107350000Y-89600000D01*
X107350000Y-90000000D01*
X107346194Y-90019134D01*
X107335355Y-90035355D01*
X107319134Y-90046194D01*
X107300000Y-90050000D01*
X106500000Y-90050000D01*
X106480866Y-90046194D01*
X106464645Y-90035355D01*
X106453806Y-90019134D01*
X106450000Y-90000000D01*
X106450000Y-89600000D01*
X106453806Y-89580866D01*
X106464645Y-89564645D01*
X106480866Y-89553806D01*
X106500000Y-89550000D01*
X107300000Y-89550000D01*
X107319134Y-89553806D01*
G37*
G36*
X93319134Y-88303806D02*
G01*
X93335355Y-88314645D01*
X93346194Y-88330866D01*
X93350000Y-88350000D01*
X93350000Y-89150000D01*
X93346194Y-89169134D01*
X93335355Y-89185355D01*
X93319134Y-89196194D01*
X93300000Y-89200000D01*
X92500000Y-89200000D01*
X92480866Y-89196194D01*
X92464645Y-89185355D01*
X92453806Y-89169134D01*
X92450000Y-89150000D01*
X92450000Y-88350000D01*
X92453806Y-88330866D01*
X92464645Y-88314645D01*
X92480866Y-88303806D01*
X92500000Y-88300000D01*
X93300000Y-88300000D01*
X93319134Y-88303806D01*
G37*
G36*
X94169134Y-88303806D02*
G01*
X94185355Y-88314645D01*
X94196194Y-88330866D01*
X94200000Y-88350000D01*
X94200000Y-89150000D01*
X94196194Y-89169134D01*
X94185355Y-89185355D01*
X94169134Y-89196194D01*
X94150000Y-89200000D01*
X93750000Y-89200000D01*
X93730866Y-89196194D01*
X93714645Y-89185355D01*
X93703806Y-89169134D01*
X93700000Y-89150000D01*
X93700000Y-88350000D01*
X93703806Y-88330866D01*
X93714645Y-88314645D01*
X93730866Y-88303806D01*
X93750000Y-88300000D01*
X94150000Y-88300000D01*
X94169134Y-88303806D01*
G37*
G36*
X95019134Y-88303806D02*
G01*
X95035355Y-88314645D01*
X95046194Y-88330866D01*
X95050000Y-88350000D01*
X95050000Y-89150000D01*
X95046194Y-89169134D01*
X95035355Y-89185355D01*
X95019134Y-89196194D01*
X95000000Y-89200000D01*
X94600000Y-89200000D01*
X94580866Y-89196194D01*
X94564645Y-89185355D01*
X94553806Y-89169134D01*
X94550000Y-89150000D01*
X94550000Y-88350000D01*
X94553806Y-88330866D01*
X94564645Y-88314645D01*
X94580866Y-88303806D01*
X94600000Y-88300000D01*
X95000000Y-88300000D01*
X95019134Y-88303806D01*
G37*
G36*
X95869134Y-88303806D02*
G01*
X95885355Y-88314645D01*
X95896194Y-88330866D01*
X95900000Y-88350000D01*
X95900000Y-89150000D01*
X95896194Y-89169134D01*
X95885355Y-89185355D01*
X95869134Y-89196194D01*
X95850000Y-89200000D01*
X95450000Y-89200000D01*
X95430866Y-89196194D01*
X95414645Y-89185355D01*
X95403806Y-89169134D01*
X95400000Y-89150000D01*
X95400000Y-88350000D01*
X95403806Y-88330866D01*
X95414645Y-88314645D01*
X95430866Y-88303806D01*
X95450000Y-88300000D01*
X95850000Y-88300000D01*
X95869134Y-88303806D01*
G37*
G36*
X96719134Y-88303806D02*
G01*
X96735355Y-88314645D01*
X96746194Y-88330866D01*
X96750000Y-88350000D01*
X96750000Y-89150000D01*
X96746194Y-89169134D01*
X96735355Y-89185355D01*
X96719134Y-89196194D01*
X96700000Y-89200000D01*
X96300000Y-89200000D01*
X96280866Y-89196194D01*
X96264645Y-89185355D01*
X96253806Y-89169134D01*
X96250000Y-89150000D01*
X96250000Y-88350000D01*
X96253806Y-88330866D01*
X96264645Y-88314645D01*
X96280866Y-88303806D01*
X96300000Y-88300000D01*
X96700000Y-88300000D01*
X96719134Y-88303806D01*
G37*
G36*
X97569134Y-88303806D02*
G01*
X97585355Y-88314645D01*
X97596194Y-88330866D01*
X97600000Y-88350000D01*
X97600000Y-89150000D01*
X97596194Y-89169134D01*
X97585355Y-89185355D01*
X97569134Y-89196194D01*
X97550000Y-89200000D01*
X97150000Y-89200000D01*
X97130866Y-89196194D01*
X97114645Y-89185355D01*
X97103806Y-89169134D01*
X97100000Y-89150000D01*
X97100000Y-88350000D01*
X97103806Y-88330866D01*
X97114645Y-88314645D01*
X97130866Y-88303806D01*
X97150000Y-88300000D01*
X97550000Y-88300000D01*
X97569134Y-88303806D01*
G37*
G36*
X98419134Y-88303806D02*
G01*
X98435355Y-88314645D01*
X98446194Y-88330866D01*
X98450000Y-88350000D01*
X98450000Y-89150000D01*
X98446194Y-89169134D01*
X98435355Y-89185355D01*
X98419134Y-89196194D01*
X98400000Y-89200000D01*
X98000000Y-89200000D01*
X97980866Y-89196194D01*
X97964645Y-89185355D01*
X97953806Y-89169134D01*
X97950000Y-89150000D01*
X97950000Y-88350000D01*
X97953806Y-88330866D01*
X97964645Y-88314645D01*
X97980866Y-88303806D01*
X98000000Y-88300000D01*
X98400000Y-88300000D01*
X98419134Y-88303806D01*
G37*
G36*
X99269134Y-88303806D02*
G01*
X99285355Y-88314645D01*
X99296194Y-88330866D01*
X99300000Y-88350000D01*
X99300000Y-89150000D01*
X99296194Y-89169134D01*
X99285355Y-89185355D01*
X99269134Y-89196194D01*
X99250000Y-89200000D01*
X98850000Y-89200000D01*
X98830866Y-89196194D01*
X98814645Y-89185355D01*
X98803806Y-89169134D01*
X98800000Y-89150000D01*
X98800000Y-88350000D01*
X98803806Y-88330866D01*
X98814645Y-88314645D01*
X98830866Y-88303806D01*
X98850000Y-88300000D01*
X99250000Y-88300000D01*
X99269134Y-88303806D01*
G37*
G36*
X100119134Y-88303806D02*
G01*
X100135355Y-88314645D01*
X100146194Y-88330866D01*
X100150000Y-88350000D01*
X100150000Y-89150000D01*
X100146194Y-89169134D01*
X100135355Y-89185355D01*
X100119134Y-89196194D01*
X100100000Y-89200000D01*
X99700000Y-89200000D01*
X99680866Y-89196194D01*
X99664645Y-89185355D01*
X99653806Y-89169134D01*
X99650000Y-89150000D01*
X99650000Y-88350000D01*
X99653806Y-88330866D01*
X99664645Y-88314645D01*
X99680866Y-88303806D01*
X99700000Y-88300000D01*
X100100000Y-88300000D01*
X100119134Y-88303806D01*
G37*
G36*
X100969134Y-88303806D02*
G01*
X100985355Y-88314645D01*
X100996194Y-88330866D01*
X101000000Y-88350000D01*
X101000000Y-89150000D01*
X100996194Y-89169134D01*
X100985355Y-89185355D01*
X100969134Y-89196194D01*
X100950000Y-89200000D01*
X100550000Y-89200000D01*
X100530866Y-89196194D01*
X100514645Y-89185355D01*
X100503806Y-89169134D01*
X100500000Y-89150000D01*
X100500000Y-88350000D01*
X100503806Y-88330866D01*
X100514645Y-88314645D01*
X100530866Y-88303806D01*
X100550000Y-88300000D01*
X100950000Y-88300000D01*
X100969134Y-88303806D01*
G37*
G36*
X101819134Y-88303806D02*
G01*
X101835355Y-88314645D01*
X101846194Y-88330866D01*
X101850000Y-88350000D01*
X101850000Y-89150000D01*
X101846194Y-89169134D01*
X101835355Y-89185355D01*
X101819134Y-89196194D01*
X101800000Y-89200000D01*
X101400000Y-89200000D01*
X101380866Y-89196194D01*
X101364645Y-89185355D01*
X101353806Y-89169134D01*
X101350000Y-89150000D01*
X101350000Y-88350000D01*
X101353806Y-88330866D01*
X101364645Y-88314645D01*
X101380866Y-88303806D01*
X101400000Y-88300000D01*
X101800000Y-88300000D01*
X101819134Y-88303806D01*
G37*
G36*
X102669134Y-88303806D02*
G01*
X102685355Y-88314645D01*
X102696194Y-88330866D01*
X102700000Y-88350000D01*
X102700000Y-89150000D01*
X102696194Y-89169134D01*
X102685355Y-89185355D01*
X102669134Y-89196194D01*
X102650000Y-89200000D01*
X102250000Y-89200000D01*
X102230866Y-89196194D01*
X102214645Y-89185355D01*
X102203806Y-89169134D01*
X102200000Y-89150000D01*
X102200000Y-88350000D01*
X102203806Y-88330866D01*
X102214645Y-88314645D01*
X102230866Y-88303806D01*
X102250000Y-88300000D01*
X102650000Y-88300000D01*
X102669134Y-88303806D01*
G37*
G36*
X103519134Y-88303806D02*
G01*
X103535355Y-88314645D01*
X103546194Y-88330866D01*
X103550000Y-88350000D01*
X103550000Y-89150000D01*
X103546194Y-89169134D01*
X103535355Y-89185355D01*
X103519134Y-89196194D01*
X103500000Y-89200000D01*
X103100000Y-89200000D01*
X103080866Y-89196194D01*
X103064645Y-89185355D01*
X103053806Y-89169134D01*
X103050000Y-89150000D01*
X103050000Y-88350000D01*
X103053806Y-88330866D01*
X103064645Y-88314645D01*
X103080866Y-88303806D01*
X103100000Y-88300000D01*
X103500000Y-88300000D01*
X103519134Y-88303806D01*
G37*
G36*
X104369134Y-88303806D02*
G01*
X104385355Y-88314645D01*
X104396194Y-88330866D01*
X104400000Y-88350000D01*
X104400000Y-89150000D01*
X104396194Y-89169134D01*
X104385355Y-89185355D01*
X104369134Y-89196194D01*
X104350000Y-89200000D01*
X103950000Y-89200000D01*
X103930866Y-89196194D01*
X103914645Y-89185355D01*
X103903806Y-89169134D01*
X103900000Y-89150000D01*
X103900000Y-88350000D01*
X103903806Y-88330866D01*
X103914645Y-88314645D01*
X103930866Y-88303806D01*
X103950000Y-88300000D01*
X104350000Y-88300000D01*
X104369134Y-88303806D01*
G37*
G36*
X105219134Y-88303806D02*
G01*
X105235355Y-88314645D01*
X105246194Y-88330866D01*
X105250000Y-88350000D01*
X105250000Y-89150000D01*
X105246194Y-89169134D01*
X105235355Y-89185355D01*
X105219134Y-89196194D01*
X105200000Y-89200000D01*
X104800000Y-89200000D01*
X104780866Y-89196194D01*
X104764645Y-89185355D01*
X104753806Y-89169134D01*
X104750000Y-89150000D01*
X104750000Y-88350000D01*
X104753806Y-88330866D01*
X104764645Y-88314645D01*
X104780866Y-88303806D01*
X104800000Y-88300000D01*
X105200000Y-88300000D01*
X105219134Y-88303806D01*
G37*
G36*
X106069134Y-88303806D02*
G01*
X106085355Y-88314645D01*
X106096194Y-88330866D01*
X106100000Y-88350000D01*
X106100000Y-89150000D01*
X106096194Y-89169134D01*
X106085355Y-89185355D01*
X106069134Y-89196194D01*
X106050000Y-89200000D01*
X105650000Y-89200000D01*
X105630866Y-89196194D01*
X105614645Y-89185355D01*
X105603806Y-89169134D01*
X105600000Y-89150000D01*
X105600000Y-88350000D01*
X105603806Y-88330866D01*
X105614645Y-88314645D01*
X105630866Y-88303806D01*
X105650000Y-88300000D01*
X106050000Y-88300000D01*
X106069134Y-88303806D01*
G37*
G36*
X107319134Y-88303806D02*
G01*
X107335355Y-88314645D01*
X107346194Y-88330866D01*
X107350000Y-88350000D01*
X107350000Y-89150000D01*
X107346194Y-89169134D01*
X107335355Y-89185355D01*
X107319134Y-89196194D01*
X107300000Y-89200000D01*
X106500000Y-89200000D01*
X106480866Y-89196194D01*
X106464645Y-89185355D01*
X106453806Y-89169134D01*
X106450000Y-89150000D01*
X106450000Y-88350000D01*
X106453806Y-88330866D01*
X106464645Y-88314645D01*
X106480866Y-88303806D01*
X106500000Y-88300000D01*
X107300000Y-88300000D01*
X107319134Y-88303806D01*
G37*
G36*
X139809106Y-86301012D02*
G01*
X139872655Y-86309378D01*
X139888640Y-86316832D01*
X139907935Y-86320670D01*
X139933489Y-86337745D01*
X139959987Y-86350101D01*
X139976109Y-86366223D01*
X139997151Y-86380283D01*
X140011210Y-86401324D01*
X140027332Y-86417446D01*
X140039687Y-86443941D01*
X140056764Y-86469499D01*
X140060602Y-86488795D01*
X140068055Y-86504778D01*
X140076419Y-86568314D01*
X140077697Y-86574737D01*
X140077697Y-87024737D01*
X140076419Y-87031161D01*
X140068055Y-87094695D01*
X140060602Y-87110676D01*
X140056764Y-87129975D01*
X140039685Y-87155534D01*
X140027332Y-87182027D01*
X140011213Y-87198145D01*
X139997151Y-87219191D01*
X139976105Y-87233253D01*
X139959987Y-87249372D01*
X139933494Y-87261725D01*
X139907935Y-87278804D01*
X139888636Y-87282642D01*
X139872655Y-87290095D01*
X139809121Y-87298459D01*
X139802697Y-87299737D01*
X139302697Y-87299737D01*
X139296274Y-87298459D01*
X139232738Y-87290095D01*
X139216755Y-87282642D01*
X139197459Y-87278804D01*
X139171901Y-87261727D01*
X139145406Y-87249372D01*
X139129284Y-87233250D01*
X139108243Y-87219191D01*
X139094183Y-87198149D01*
X139078061Y-87182027D01*
X139065705Y-87155529D01*
X139048630Y-87129975D01*
X139044792Y-87110680D01*
X139037338Y-87094695D01*
X139028972Y-87031146D01*
X139027697Y-87024737D01*
X139027697Y-86574737D01*
X139028971Y-86568329D01*
X139037338Y-86504778D01*
X139044792Y-86488791D01*
X139048630Y-86469499D01*
X139065703Y-86443946D01*
X139078061Y-86417446D01*
X139094185Y-86401321D01*
X139108243Y-86380283D01*
X139129281Y-86366225D01*
X139145406Y-86350101D01*
X139171906Y-86337743D01*
X139197459Y-86320670D01*
X139216751Y-86316832D01*
X139232738Y-86309378D01*
X139296289Y-86301011D01*
X139302697Y-86299737D01*
X139802697Y-86299737D01*
X139809106Y-86301012D01*
G37*
G36*
X139809106Y-84751012D02*
G01*
X139872655Y-84759378D01*
X139888640Y-84766832D01*
X139907935Y-84770670D01*
X139933489Y-84787745D01*
X139959987Y-84800101D01*
X139976109Y-84816223D01*
X139997151Y-84830283D01*
X140011210Y-84851324D01*
X140027332Y-84867446D01*
X140039687Y-84893941D01*
X140056764Y-84919499D01*
X140060602Y-84938795D01*
X140068055Y-84954778D01*
X140076419Y-85018314D01*
X140077697Y-85024737D01*
X140077697Y-85474737D01*
X140076419Y-85481161D01*
X140068055Y-85544695D01*
X140060602Y-85560676D01*
X140056764Y-85579975D01*
X140039685Y-85605534D01*
X140027332Y-85632027D01*
X140011213Y-85648145D01*
X139997151Y-85669191D01*
X139976105Y-85683253D01*
X139959987Y-85699372D01*
X139933494Y-85711725D01*
X139907935Y-85728804D01*
X139888636Y-85732642D01*
X139872655Y-85740095D01*
X139809121Y-85748459D01*
X139802697Y-85749737D01*
X139302697Y-85749737D01*
X139296274Y-85748459D01*
X139232738Y-85740095D01*
X139216755Y-85732642D01*
X139197459Y-85728804D01*
X139171901Y-85711727D01*
X139145406Y-85699372D01*
X139129284Y-85683250D01*
X139108243Y-85669191D01*
X139094183Y-85648149D01*
X139078061Y-85632027D01*
X139065705Y-85605529D01*
X139048630Y-85579975D01*
X139044792Y-85560680D01*
X139037338Y-85544695D01*
X139028972Y-85481146D01*
X139027697Y-85474737D01*
X139027697Y-85024737D01*
X139028971Y-85018329D01*
X139037338Y-84954778D01*
X139044792Y-84938791D01*
X139048630Y-84919499D01*
X139065703Y-84893946D01*
X139078061Y-84867446D01*
X139094185Y-84851321D01*
X139108243Y-84830283D01*
X139129281Y-84816225D01*
X139145406Y-84800101D01*
X139171906Y-84787743D01*
X139197459Y-84770670D01*
X139216751Y-84766832D01*
X139232738Y-84759378D01*
X139296289Y-84751011D01*
X139302697Y-84749737D01*
X139802697Y-84749737D01*
X139809106Y-84751012D01*
G37*
G36*
X140459853Y-81843175D02*
G01*
X140468526Y-81847004D01*
X140476093Y-81848107D01*
X140523391Y-81871229D01*
X140560709Y-81887707D01*
X140564164Y-81891162D01*
X140565088Y-81891614D01*
X140634759Y-81961285D01*
X140635210Y-81962208D01*
X140638667Y-81965665D01*
X140655146Y-82002988D01*
X140678266Y-82050279D01*
X140679368Y-82057845D01*
X140683199Y-82066521D01*
X140691168Y-82135206D01*
X140691168Y-83535206D01*
X140683199Y-83603891D01*
X140679367Y-83612567D01*
X140678266Y-83620131D01*
X140655153Y-83667408D01*
X140638667Y-83704747D01*
X140635209Y-83708204D01*
X140634759Y-83709126D01*
X140565088Y-83778797D01*
X140564166Y-83779247D01*
X140560709Y-83782705D01*
X140523375Y-83799189D01*
X140476094Y-83822304D01*
X140468529Y-83823406D01*
X140459853Y-83827237D01*
X140391168Y-83835206D01*
X138391168Y-83835206D01*
X138322483Y-83827237D01*
X138313806Y-83823406D01*
X138306242Y-83822304D01*
X138258955Y-83799187D01*
X138221627Y-83782705D01*
X138218170Y-83779248D01*
X138217247Y-83778797D01*
X138147576Y-83709126D01*
X138147124Y-83708202D01*
X138143669Y-83704747D01*
X138127193Y-83667434D01*
X138104069Y-83620132D01*
X138102966Y-83612563D01*
X138099137Y-83603891D01*
X138091168Y-83535206D01*
X138091168Y-82135206D01*
X138099137Y-82066521D01*
X138102966Y-82057848D01*
X138104069Y-82050280D01*
X138127196Y-82002972D01*
X138143669Y-81965665D01*
X138147123Y-81962210D01*
X138147576Y-81961285D01*
X138217247Y-81891614D01*
X138218172Y-81891161D01*
X138221627Y-81887707D01*
X138258929Y-81871236D01*
X138306241Y-81848107D01*
X138313810Y-81847004D01*
X138322483Y-81843175D01*
X138391168Y-81835206D01*
X140391168Y-81835206D01*
X140459853Y-81843175D01*
G37*
G36*
X120326011Y-78650621D02*
G01*
X120377372Y-78656580D01*
X120394918Y-78664327D01*
X120417635Y-78668846D01*
X120441955Y-78685096D01*
X120462757Y-78694281D01*
X120476964Y-78708488D01*
X120498741Y-78723039D01*
X120513291Y-78744815D01*
X120527498Y-78759022D01*
X120536682Y-78779822D01*
X120552934Y-78804145D01*
X120557453Y-78826864D01*
X120565199Y-78844407D01*
X120571156Y-78895756D01*
X120571964Y-78899816D01*
X120571964Y-79299816D01*
X120571156Y-79303875D01*
X120565199Y-79355224D01*
X120557453Y-79372766D01*
X120552934Y-79395487D01*
X120536680Y-79419811D01*
X120527498Y-79440609D01*
X120513293Y-79454813D01*
X120498741Y-79476593D01*
X120476961Y-79491145D01*
X120462757Y-79505350D01*
X120441959Y-79514532D01*
X120417635Y-79530786D01*
X120394914Y-79535305D01*
X120377372Y-79543051D01*
X120326025Y-79549008D01*
X120321964Y-79549816D01*
X119771964Y-79549816D01*
X119767905Y-79549008D01*
X119716555Y-79543051D01*
X119699012Y-79535305D01*
X119676293Y-79530786D01*
X119651970Y-79514534D01*
X119631170Y-79505350D01*
X119616963Y-79491143D01*
X119595187Y-79476593D01*
X119580636Y-79454816D01*
X119566429Y-79440609D01*
X119557244Y-79419807D01*
X119540994Y-79395487D01*
X119536475Y-79372770D01*
X119528728Y-79355224D01*
X119522769Y-79303865D01*
X119521964Y-79299816D01*
X119521964Y-78899816D01*
X119522768Y-78895769D01*
X119528728Y-78844407D01*
X119536475Y-78826859D01*
X119540994Y-78804145D01*
X119557242Y-78779826D01*
X119566429Y-78759022D01*
X119580638Y-78744812D01*
X119595187Y-78723039D01*
X119616960Y-78708490D01*
X119631170Y-78694281D01*
X119651974Y-78685094D01*
X119676293Y-78668846D01*
X119699007Y-78664327D01*
X119716555Y-78656580D01*
X119767916Y-78650621D01*
X119771964Y-78649816D01*
X120321964Y-78649816D01*
X120326011Y-78650621D01*
G37*
G36*
X140459853Y-77443175D02*
G01*
X140468526Y-77447004D01*
X140476093Y-77448107D01*
X140523391Y-77471229D01*
X140560709Y-77487707D01*
X140564164Y-77491162D01*
X140565088Y-77491614D01*
X140634759Y-77561285D01*
X140635210Y-77562208D01*
X140638667Y-77565665D01*
X140655146Y-77602988D01*
X140678266Y-77650279D01*
X140679368Y-77657845D01*
X140683199Y-77666521D01*
X140691168Y-77735206D01*
X140691168Y-79135206D01*
X140683199Y-79203891D01*
X140679367Y-79212567D01*
X140678266Y-79220131D01*
X140655153Y-79267408D01*
X140638667Y-79304747D01*
X140635209Y-79308204D01*
X140634759Y-79309126D01*
X140565088Y-79378797D01*
X140564166Y-79379247D01*
X140560709Y-79382705D01*
X140523375Y-79399189D01*
X140476094Y-79422304D01*
X140468529Y-79423406D01*
X140459853Y-79427237D01*
X140391168Y-79435206D01*
X138391168Y-79435206D01*
X138322483Y-79427237D01*
X138313806Y-79423406D01*
X138306242Y-79422304D01*
X138258955Y-79399187D01*
X138221627Y-79382705D01*
X138218170Y-79379248D01*
X138217247Y-79378797D01*
X138147576Y-79309126D01*
X138147124Y-79308202D01*
X138143669Y-79304747D01*
X138127193Y-79267434D01*
X138104069Y-79220132D01*
X138102966Y-79212563D01*
X138099137Y-79203891D01*
X138091168Y-79135206D01*
X138091168Y-77735206D01*
X138099137Y-77666521D01*
X138102966Y-77657848D01*
X138104069Y-77650280D01*
X138127196Y-77602972D01*
X138143669Y-77565665D01*
X138147123Y-77562210D01*
X138147576Y-77561285D01*
X138217247Y-77491614D01*
X138218172Y-77491161D01*
X138221627Y-77487707D01*
X138258929Y-77471236D01*
X138306241Y-77448107D01*
X138313810Y-77447004D01*
X138322483Y-77443175D01*
X138391168Y-77435206D01*
X140391168Y-77435206D01*
X140459853Y-77443175D01*
G37*
G36*
X120326011Y-77000621D02*
G01*
X120377372Y-77006580D01*
X120394918Y-77014327D01*
X120417635Y-77018846D01*
X120441955Y-77035096D01*
X120462757Y-77044281D01*
X120476964Y-77058488D01*
X120498741Y-77073039D01*
X120513291Y-77094815D01*
X120527498Y-77109022D01*
X120536682Y-77129822D01*
X120552934Y-77154145D01*
X120557453Y-77176864D01*
X120565199Y-77194407D01*
X120571156Y-77245756D01*
X120571964Y-77249816D01*
X120571964Y-77649816D01*
X120571156Y-77653875D01*
X120565199Y-77705224D01*
X120557453Y-77722766D01*
X120552934Y-77745487D01*
X120536680Y-77769811D01*
X120527498Y-77790609D01*
X120513293Y-77804813D01*
X120498741Y-77826593D01*
X120476961Y-77841145D01*
X120462757Y-77855350D01*
X120441959Y-77864532D01*
X120417635Y-77880786D01*
X120394914Y-77885305D01*
X120377372Y-77893051D01*
X120326025Y-77899008D01*
X120321964Y-77899816D01*
X119771964Y-77899816D01*
X119767905Y-77899008D01*
X119716555Y-77893051D01*
X119699012Y-77885305D01*
X119676293Y-77880786D01*
X119651970Y-77864534D01*
X119631170Y-77855350D01*
X119616963Y-77841143D01*
X119595187Y-77826593D01*
X119580636Y-77804816D01*
X119566429Y-77790609D01*
X119557244Y-77769807D01*
X119540994Y-77745487D01*
X119536475Y-77722770D01*
X119528728Y-77705224D01*
X119522769Y-77653865D01*
X119521964Y-77649816D01*
X119521964Y-77249816D01*
X119522768Y-77245769D01*
X119528728Y-77194407D01*
X119536475Y-77176859D01*
X119540994Y-77154145D01*
X119557242Y-77129826D01*
X119566429Y-77109022D01*
X119580638Y-77094812D01*
X119595187Y-77073039D01*
X119616960Y-77058490D01*
X119631170Y-77044281D01*
X119651974Y-77035094D01*
X119676293Y-77018846D01*
X119699007Y-77014327D01*
X119716555Y-77006580D01*
X119767916Y-77000621D01*
X119771964Y-76999816D01*
X120321964Y-76999816D01*
X120326011Y-77000621D01*
G37*
G36*
X114795120Y-75131089D02*
G01*
X114846481Y-75137048D01*
X114864027Y-75144795D01*
X114886744Y-75149314D01*
X114911064Y-75165564D01*
X114931866Y-75174749D01*
X114946073Y-75188956D01*
X114967850Y-75203507D01*
X114982400Y-75225283D01*
X114996607Y-75239490D01*
X115005791Y-75260290D01*
X115022043Y-75284613D01*
X115026562Y-75307332D01*
X115034308Y-75324875D01*
X115040265Y-75376224D01*
X115041073Y-75380284D01*
X115041073Y-75930284D01*
X115040265Y-75934343D01*
X115034308Y-75985692D01*
X115026562Y-76003234D01*
X115022043Y-76025955D01*
X115005789Y-76050279D01*
X114996607Y-76071077D01*
X114982402Y-76085281D01*
X114967850Y-76107061D01*
X114946070Y-76121613D01*
X114931866Y-76135818D01*
X114911068Y-76145000D01*
X114886744Y-76161254D01*
X114864023Y-76165773D01*
X114846481Y-76173519D01*
X114795134Y-76179476D01*
X114791073Y-76180284D01*
X114391073Y-76180284D01*
X114387014Y-76179476D01*
X114335664Y-76173519D01*
X114318121Y-76165773D01*
X114295402Y-76161254D01*
X114271079Y-76145002D01*
X114250279Y-76135818D01*
X114236072Y-76121611D01*
X114214296Y-76107061D01*
X114199745Y-76085284D01*
X114185538Y-76071077D01*
X114176353Y-76050275D01*
X114160103Y-76025955D01*
X114155584Y-76003238D01*
X114147837Y-75985692D01*
X114141878Y-75934333D01*
X114141073Y-75930284D01*
X114141073Y-75380284D01*
X114141877Y-75376237D01*
X114147837Y-75324875D01*
X114155584Y-75307327D01*
X114160103Y-75284613D01*
X114176351Y-75260294D01*
X114185538Y-75239490D01*
X114199747Y-75225280D01*
X114214296Y-75203507D01*
X114236069Y-75188958D01*
X114250279Y-75174749D01*
X114271083Y-75165562D01*
X114295402Y-75149314D01*
X114318116Y-75144795D01*
X114335664Y-75137048D01*
X114387025Y-75131089D01*
X114391073Y-75130284D01*
X114791073Y-75130284D01*
X114795120Y-75131089D01*
G37*
G36*
X116445120Y-75131089D02*
G01*
X116496481Y-75137048D01*
X116514027Y-75144795D01*
X116536744Y-75149314D01*
X116561064Y-75165564D01*
X116581866Y-75174749D01*
X116596073Y-75188956D01*
X116617850Y-75203507D01*
X116632400Y-75225283D01*
X116646607Y-75239490D01*
X116655791Y-75260290D01*
X116672043Y-75284613D01*
X116676562Y-75307332D01*
X116684308Y-75324875D01*
X116690265Y-75376224D01*
X116691073Y-75380284D01*
X116691073Y-75930284D01*
X116690265Y-75934343D01*
X116684308Y-75985692D01*
X116676562Y-76003234D01*
X116672043Y-76025955D01*
X116655789Y-76050279D01*
X116646607Y-76071077D01*
X116632402Y-76085281D01*
X116617850Y-76107061D01*
X116596070Y-76121613D01*
X116581866Y-76135818D01*
X116561068Y-76145000D01*
X116536744Y-76161254D01*
X116514023Y-76165773D01*
X116496481Y-76173519D01*
X116445134Y-76179476D01*
X116441073Y-76180284D01*
X116041073Y-76180284D01*
X116037014Y-76179476D01*
X115985664Y-76173519D01*
X115968121Y-76165773D01*
X115945402Y-76161254D01*
X115921079Y-76145002D01*
X115900279Y-76135818D01*
X115886072Y-76121611D01*
X115864296Y-76107061D01*
X115849745Y-76085284D01*
X115835538Y-76071077D01*
X115826353Y-76050275D01*
X115810103Y-76025955D01*
X115805584Y-76003238D01*
X115797837Y-75985692D01*
X115791878Y-75934333D01*
X115791073Y-75930284D01*
X115791073Y-75380284D01*
X115791877Y-75376237D01*
X115797837Y-75324875D01*
X115805584Y-75307327D01*
X115810103Y-75284613D01*
X115826351Y-75260294D01*
X115835538Y-75239490D01*
X115849747Y-75225280D01*
X115864296Y-75203507D01*
X115886069Y-75188958D01*
X115900279Y-75174749D01*
X115921083Y-75165562D01*
X115945402Y-75149314D01*
X115968116Y-75144795D01*
X115985664Y-75137048D01*
X116037025Y-75131089D01*
X116041073Y-75130284D01*
X116441073Y-75130284D01*
X116445120Y-75131089D01*
G37*
G36*
X113986923Y-66104191D02*
G01*
X113995596Y-66108020D01*
X114003163Y-66109123D01*
X114050461Y-66132245D01*
X114087779Y-66148723D01*
X114091234Y-66152178D01*
X114092158Y-66152630D01*
X114161829Y-66222301D01*
X114162280Y-66223224D01*
X114165737Y-66226681D01*
X114182216Y-66264004D01*
X114205336Y-66311295D01*
X114206438Y-66318861D01*
X114210269Y-66327537D01*
X114218238Y-66396222D01*
X114218238Y-68396222D01*
X114210269Y-68464907D01*
X114206437Y-68473583D01*
X114205336Y-68481147D01*
X114182223Y-68528424D01*
X114165737Y-68565763D01*
X114162279Y-68569220D01*
X114161829Y-68570142D01*
X114092158Y-68639813D01*
X114091236Y-68640263D01*
X114087779Y-68643721D01*
X114050445Y-68660205D01*
X114003164Y-68683320D01*
X113995599Y-68684422D01*
X113986923Y-68688253D01*
X113918238Y-68696222D01*
X112518238Y-68696222D01*
X112449553Y-68688253D01*
X112440876Y-68684422D01*
X112433312Y-68683320D01*
X112386025Y-68660203D01*
X112348697Y-68643721D01*
X112345240Y-68640264D01*
X112344317Y-68639813D01*
X112274646Y-68570142D01*
X112274194Y-68569218D01*
X112270739Y-68565763D01*
X112254263Y-68528450D01*
X112231139Y-68481148D01*
X112230036Y-68473579D01*
X112226207Y-68464907D01*
X112218238Y-68396222D01*
X112218238Y-66396222D01*
X112226207Y-66327537D01*
X112230036Y-66318864D01*
X112231139Y-66311296D01*
X112254266Y-66263988D01*
X112270739Y-66226681D01*
X112274193Y-66223226D01*
X112274646Y-66222301D01*
X112344317Y-66152630D01*
X112345242Y-66152177D01*
X112348697Y-66148723D01*
X112385999Y-66132252D01*
X112433311Y-66109123D01*
X112440880Y-66108020D01*
X112449553Y-66104191D01*
X112518238Y-66096222D01*
X113918238Y-66096222D01*
X113986923Y-66104191D01*
G37*
G36*
X118386923Y-66104191D02*
G01*
X118395596Y-66108020D01*
X118403163Y-66109123D01*
X118450461Y-66132245D01*
X118487779Y-66148723D01*
X118491234Y-66152178D01*
X118492158Y-66152630D01*
X118561829Y-66222301D01*
X118562280Y-66223224D01*
X118565737Y-66226681D01*
X118582216Y-66264004D01*
X118605336Y-66311295D01*
X118606438Y-66318861D01*
X118610269Y-66327537D01*
X118618238Y-66396222D01*
X118618238Y-68396222D01*
X118610269Y-68464907D01*
X118606437Y-68473583D01*
X118605336Y-68481147D01*
X118582223Y-68528424D01*
X118565737Y-68565763D01*
X118562279Y-68569220D01*
X118561829Y-68570142D01*
X118492158Y-68639813D01*
X118491236Y-68640263D01*
X118487779Y-68643721D01*
X118450445Y-68660205D01*
X118403164Y-68683320D01*
X118395599Y-68684422D01*
X118386923Y-68688253D01*
X118318238Y-68696222D01*
X116918238Y-68696222D01*
X116849553Y-68688253D01*
X116840876Y-68684422D01*
X116833312Y-68683320D01*
X116786025Y-68660203D01*
X116748697Y-68643721D01*
X116745240Y-68640264D01*
X116744317Y-68639813D01*
X116674646Y-68570142D01*
X116674194Y-68569218D01*
X116670739Y-68565763D01*
X116654263Y-68528450D01*
X116631139Y-68481148D01*
X116630036Y-68473579D01*
X116626207Y-68464907D01*
X116618238Y-68396222D01*
X116618238Y-66396222D01*
X116626207Y-66327537D01*
X116630036Y-66318864D01*
X116631139Y-66311296D01*
X116654266Y-66263988D01*
X116670739Y-66226681D01*
X116674193Y-66223226D01*
X116674646Y-66222301D01*
X116744317Y-66152630D01*
X116745242Y-66152177D01*
X116748697Y-66148723D01*
X116785999Y-66132252D01*
X116833311Y-66109123D01*
X116840880Y-66108020D01*
X116849553Y-66104191D01*
X116918238Y-66096222D01*
X118318238Y-66096222D01*
X118386923Y-66104191D01*
G37*
G36*
X109491590Y-66707731D02*
G01*
X109555139Y-66716097D01*
X109571124Y-66723551D01*
X109590419Y-66727389D01*
X109615973Y-66744464D01*
X109642471Y-66756820D01*
X109658593Y-66772942D01*
X109679635Y-66787002D01*
X109693694Y-66808043D01*
X109709816Y-66824165D01*
X109722171Y-66850660D01*
X109739248Y-66876218D01*
X109743086Y-66895514D01*
X109750539Y-66911497D01*
X109758903Y-66975033D01*
X109760181Y-66981456D01*
X109760181Y-67481456D01*
X109758903Y-67487880D01*
X109750539Y-67551414D01*
X109743086Y-67567395D01*
X109739248Y-67586694D01*
X109722169Y-67612253D01*
X109709816Y-67638746D01*
X109693697Y-67654864D01*
X109679635Y-67675910D01*
X109658589Y-67689972D01*
X109642471Y-67706091D01*
X109615978Y-67718444D01*
X109590419Y-67735523D01*
X109571120Y-67739361D01*
X109555139Y-67746814D01*
X109491605Y-67755178D01*
X109485181Y-67756456D01*
X109035181Y-67756456D01*
X109028758Y-67755178D01*
X108965222Y-67746814D01*
X108949239Y-67739361D01*
X108929943Y-67735523D01*
X108904385Y-67718446D01*
X108877890Y-67706091D01*
X108861768Y-67689969D01*
X108840727Y-67675910D01*
X108826667Y-67654868D01*
X108810545Y-67638746D01*
X108798189Y-67612248D01*
X108781114Y-67586694D01*
X108777276Y-67567399D01*
X108769822Y-67551414D01*
X108761456Y-67487865D01*
X108760181Y-67481456D01*
X108760181Y-66981456D01*
X108761455Y-66975048D01*
X108769822Y-66911497D01*
X108777276Y-66895510D01*
X108781114Y-66876218D01*
X108798187Y-66850665D01*
X108810545Y-66824165D01*
X108826669Y-66808040D01*
X108840727Y-66787002D01*
X108861765Y-66772944D01*
X108877890Y-66756820D01*
X108904390Y-66744462D01*
X108929943Y-66727389D01*
X108949235Y-66723551D01*
X108965222Y-66716097D01*
X109028773Y-66707730D01*
X109035181Y-66706456D01*
X109485181Y-66706456D01*
X109491590Y-66707731D01*
G37*
G36*
X111041590Y-66707731D02*
G01*
X111105139Y-66716097D01*
X111121124Y-66723551D01*
X111140419Y-66727389D01*
X111165973Y-66744464D01*
X111192471Y-66756820D01*
X111208593Y-66772942D01*
X111229635Y-66787002D01*
X111243694Y-66808043D01*
X111259816Y-66824165D01*
X111272171Y-66850660D01*
X111289248Y-66876218D01*
X111293086Y-66895514D01*
X111300539Y-66911497D01*
X111308903Y-66975033D01*
X111310181Y-66981456D01*
X111310181Y-67481456D01*
X111308903Y-67487880D01*
X111300539Y-67551414D01*
X111293086Y-67567395D01*
X111289248Y-67586694D01*
X111272169Y-67612253D01*
X111259816Y-67638746D01*
X111243697Y-67654864D01*
X111229635Y-67675910D01*
X111208589Y-67689972D01*
X111192471Y-67706091D01*
X111165978Y-67718444D01*
X111140419Y-67735523D01*
X111121120Y-67739361D01*
X111105139Y-67746814D01*
X111041605Y-67755178D01*
X111035181Y-67756456D01*
X110585181Y-67756456D01*
X110578758Y-67755178D01*
X110515222Y-67746814D01*
X110499239Y-67739361D01*
X110479943Y-67735523D01*
X110454385Y-67718446D01*
X110427890Y-67706091D01*
X110411768Y-67689969D01*
X110390727Y-67675910D01*
X110376667Y-67654868D01*
X110360545Y-67638746D01*
X110348189Y-67612248D01*
X110331114Y-67586694D01*
X110327276Y-67567399D01*
X110319822Y-67551414D01*
X110311456Y-67487865D01*
X110310181Y-67481456D01*
X110310181Y-66981456D01*
X110311455Y-66975048D01*
X110319822Y-66911497D01*
X110327276Y-66895510D01*
X110331114Y-66876218D01*
X110348187Y-66850665D01*
X110360545Y-66824165D01*
X110376669Y-66808040D01*
X110390727Y-66787002D01*
X110411765Y-66772944D01*
X110427890Y-66756820D01*
X110454390Y-66744462D01*
X110479943Y-66727389D01*
X110499235Y-66723551D01*
X110515222Y-66716097D01*
X110578773Y-66707730D01*
X110585181Y-66706456D01*
X111035181Y-66706456D01*
X111041590Y-66707731D01*
G37*
G36*
X119294456Y-63725153D02*
G01*
X119358005Y-63733519D01*
X119373990Y-63740973D01*
X119393285Y-63744811D01*
X119418839Y-63761886D01*
X119445337Y-63774242D01*
X119461459Y-63790364D01*
X119482501Y-63804424D01*
X119496560Y-63825465D01*
X119512682Y-63841587D01*
X119525037Y-63868082D01*
X119542114Y-63893640D01*
X119545952Y-63912936D01*
X119553405Y-63928919D01*
X119561769Y-63992455D01*
X119563047Y-63998878D01*
X119563047Y-64448878D01*
X119561769Y-64455302D01*
X119553405Y-64518836D01*
X119545952Y-64534817D01*
X119542114Y-64554116D01*
X119525035Y-64579675D01*
X119512682Y-64606168D01*
X119496563Y-64622286D01*
X119482501Y-64643332D01*
X119461455Y-64657394D01*
X119445337Y-64673513D01*
X119418844Y-64685866D01*
X119393285Y-64702945D01*
X119373986Y-64706783D01*
X119358005Y-64714236D01*
X119294471Y-64722600D01*
X119288047Y-64723878D01*
X118788047Y-64723878D01*
X118781624Y-64722600D01*
X118718088Y-64714236D01*
X118702105Y-64706783D01*
X118682809Y-64702945D01*
X118657251Y-64685868D01*
X118630756Y-64673513D01*
X118614634Y-64657391D01*
X118593593Y-64643332D01*
X118579533Y-64622290D01*
X118563411Y-64606168D01*
X118551055Y-64579670D01*
X118533980Y-64554116D01*
X118530142Y-64534821D01*
X118522688Y-64518836D01*
X118514322Y-64455287D01*
X118513047Y-64448878D01*
X118513047Y-63998878D01*
X118514321Y-63992470D01*
X118522688Y-63928919D01*
X118530142Y-63912932D01*
X118533980Y-63893640D01*
X118551053Y-63868087D01*
X118563411Y-63841587D01*
X118579535Y-63825462D01*
X118593593Y-63804424D01*
X118614631Y-63790366D01*
X118630756Y-63774242D01*
X118657256Y-63761884D01*
X118682809Y-63744811D01*
X118702101Y-63740973D01*
X118718088Y-63733519D01*
X118781639Y-63725152D01*
X118788047Y-63723878D01*
X119288047Y-63723878D01*
X119294456Y-63725153D01*
G37*
G36*
X120975985Y-63725153D02*
G01*
X121039534Y-63733519D01*
X121055519Y-63740973D01*
X121074814Y-63744811D01*
X121100368Y-63761886D01*
X121126866Y-63774242D01*
X121142988Y-63790364D01*
X121164030Y-63804424D01*
X121178089Y-63825465D01*
X121194211Y-63841587D01*
X121206566Y-63868082D01*
X121223643Y-63893640D01*
X121227481Y-63912936D01*
X121234934Y-63928919D01*
X121243298Y-63992455D01*
X121244576Y-63998878D01*
X121244576Y-64448878D01*
X121243298Y-64455302D01*
X121234934Y-64518836D01*
X121227481Y-64534817D01*
X121223643Y-64554116D01*
X121206564Y-64579675D01*
X121194211Y-64606168D01*
X121178092Y-64622286D01*
X121164030Y-64643332D01*
X121142984Y-64657394D01*
X121126866Y-64673513D01*
X121100373Y-64685866D01*
X121074814Y-64702945D01*
X121055515Y-64706783D01*
X121039534Y-64714236D01*
X120976000Y-64722600D01*
X120969576Y-64723878D01*
X120469576Y-64723878D01*
X120463153Y-64722600D01*
X120399617Y-64714236D01*
X120383634Y-64706783D01*
X120364338Y-64702945D01*
X120338780Y-64685868D01*
X120312285Y-64673513D01*
X120296163Y-64657391D01*
X120275122Y-64643332D01*
X120261062Y-64622290D01*
X120244940Y-64606168D01*
X120232584Y-64579670D01*
X120215509Y-64554116D01*
X120211671Y-64534821D01*
X120204217Y-64518836D01*
X120195851Y-64455287D01*
X120194576Y-64448878D01*
X120194576Y-63998878D01*
X120195850Y-63992470D01*
X120204217Y-63928919D01*
X120211671Y-63912932D01*
X120215509Y-63893640D01*
X120232582Y-63868087D01*
X120244940Y-63841587D01*
X120261064Y-63825462D01*
X120275122Y-63804424D01*
X120296160Y-63790366D01*
X120312285Y-63774242D01*
X120338785Y-63761884D01*
X120364338Y-63744811D01*
X120383630Y-63740973D01*
X120399617Y-63733519D01*
X120463168Y-63725152D01*
X120469576Y-63723878D01*
X120969576Y-63723878D01*
X120975985Y-63725153D01*
G37*
G36*
X117276622Y-63388200D02*
G01*
X117340171Y-63396566D01*
X117356156Y-63404020D01*
X117375451Y-63407858D01*
X117401005Y-63424933D01*
X117427503Y-63437289D01*
X117443625Y-63453411D01*
X117464667Y-63467471D01*
X117478726Y-63488512D01*
X117494848Y-63504634D01*
X117507203Y-63531129D01*
X117524280Y-63556687D01*
X117528118Y-63575983D01*
X117535571Y-63591966D01*
X117543935Y-63655502D01*
X117545213Y-63661925D01*
X117545213Y-64111925D01*
X117543935Y-64118349D01*
X117535571Y-64181883D01*
X117528118Y-64197864D01*
X117524280Y-64217163D01*
X117507201Y-64242722D01*
X117494848Y-64269215D01*
X117478729Y-64285333D01*
X117464667Y-64306379D01*
X117443621Y-64320441D01*
X117427503Y-64336560D01*
X117401010Y-64348913D01*
X117375451Y-64365992D01*
X117356152Y-64369830D01*
X117340171Y-64377283D01*
X117276637Y-64385647D01*
X117270213Y-64386925D01*
X116770213Y-64386925D01*
X116763790Y-64385647D01*
X116700254Y-64377283D01*
X116684271Y-64369830D01*
X116664975Y-64365992D01*
X116639417Y-64348915D01*
X116612922Y-64336560D01*
X116596800Y-64320438D01*
X116575759Y-64306379D01*
X116561699Y-64285337D01*
X116545577Y-64269215D01*
X116533221Y-64242717D01*
X116516146Y-64217163D01*
X116512308Y-64197868D01*
X116504854Y-64181883D01*
X116496488Y-64118334D01*
X116495213Y-64111925D01*
X116495213Y-63661925D01*
X116496487Y-63655517D01*
X116504854Y-63591966D01*
X116512308Y-63575979D01*
X116516146Y-63556687D01*
X116533219Y-63531134D01*
X116545577Y-63504634D01*
X116561701Y-63488509D01*
X116575759Y-63467471D01*
X116596797Y-63453413D01*
X116612922Y-63437289D01*
X116639422Y-63424931D01*
X116664975Y-63407858D01*
X116684267Y-63404020D01*
X116700254Y-63396566D01*
X116763805Y-63388199D01*
X116770213Y-63386925D01*
X117270213Y-63386925D01*
X117276622Y-63388200D01*
G37*
G36*
X102730421Y-62744294D02*
G01*
X102792351Y-62752447D01*
X102807928Y-62759711D01*
X102826857Y-62763476D01*
X102851928Y-62780227D01*
X102877716Y-62792253D01*
X102893405Y-62807942D01*
X102914046Y-62821734D01*
X102927837Y-62842374D01*
X102943526Y-62858063D01*
X102955550Y-62883849D01*
X102972304Y-62908923D01*
X102976069Y-62927853D01*
X102983332Y-62943428D01*
X102991483Y-63005345D01*
X102992761Y-63011769D01*
X102992761Y-63449269D01*
X102991483Y-63455693D01*
X102983332Y-63517609D01*
X102976069Y-63533183D01*
X102972304Y-63552115D01*
X102955548Y-63577190D01*
X102943526Y-63602974D01*
X102927839Y-63618660D01*
X102914046Y-63639304D01*
X102893402Y-63653097D01*
X102877716Y-63668784D01*
X102851932Y-63680806D01*
X102826857Y-63697562D01*
X102807925Y-63701327D01*
X102792351Y-63708590D01*
X102730435Y-63716741D01*
X102724011Y-63718019D01*
X101961511Y-63718019D01*
X101955087Y-63716741D01*
X101893170Y-63708590D01*
X101877595Y-63701327D01*
X101858665Y-63697562D01*
X101833591Y-63680808D01*
X101807805Y-63668784D01*
X101792116Y-63653095D01*
X101771476Y-63639304D01*
X101757684Y-63618663D01*
X101741995Y-63602974D01*
X101729969Y-63577186D01*
X101713218Y-63552115D01*
X101709453Y-63533186D01*
X101702189Y-63517609D01*
X101694036Y-63455679D01*
X101692761Y-63449269D01*
X101692761Y-63011769D01*
X101694035Y-63005360D01*
X101702189Y-62943428D01*
X101709453Y-62927849D01*
X101713218Y-62908923D01*
X101729968Y-62883854D01*
X101741995Y-62858063D01*
X101757686Y-62842371D01*
X101771476Y-62821734D01*
X101792113Y-62807944D01*
X101807805Y-62792253D01*
X101833596Y-62780226D01*
X101858665Y-62763476D01*
X101877591Y-62759711D01*
X101893170Y-62752447D01*
X101955102Y-62744293D01*
X101961511Y-62743019D01*
X102724011Y-62743019D01*
X102730421Y-62744294D01*
G37*
G36*
X135015771Y-62744294D02*
G01*
X135077701Y-62752447D01*
X135093278Y-62759711D01*
X135112207Y-62763476D01*
X135137278Y-62780227D01*
X135163066Y-62792253D01*
X135178755Y-62807942D01*
X135199396Y-62821734D01*
X135213187Y-62842374D01*
X135228876Y-62858063D01*
X135240900Y-62883849D01*
X135257654Y-62908923D01*
X135261419Y-62927853D01*
X135268682Y-62943428D01*
X135276833Y-63005345D01*
X135278111Y-63011769D01*
X135278111Y-63449269D01*
X135276833Y-63455693D01*
X135268682Y-63517609D01*
X135261419Y-63533183D01*
X135257654Y-63552115D01*
X135240898Y-63577190D01*
X135228876Y-63602974D01*
X135213189Y-63618660D01*
X135199396Y-63639304D01*
X135178752Y-63653097D01*
X135163066Y-63668784D01*
X135137282Y-63680806D01*
X135112207Y-63697562D01*
X135093275Y-63701327D01*
X135077701Y-63708590D01*
X135015785Y-63716741D01*
X135009361Y-63718019D01*
X134246861Y-63718019D01*
X134240437Y-63716741D01*
X134178520Y-63708590D01*
X134162945Y-63701327D01*
X134144015Y-63697562D01*
X134118941Y-63680808D01*
X134093155Y-63668784D01*
X134077466Y-63653095D01*
X134056826Y-63639304D01*
X134043034Y-63618663D01*
X134027345Y-63602974D01*
X134015319Y-63577186D01*
X133998568Y-63552115D01*
X133994803Y-63533186D01*
X133987539Y-63517609D01*
X133979386Y-63455679D01*
X133978111Y-63449269D01*
X133978111Y-63011769D01*
X133979385Y-63005360D01*
X133987539Y-62943428D01*
X133994803Y-62927849D01*
X133998568Y-62908923D01*
X134015318Y-62883854D01*
X134027345Y-62858063D01*
X134043036Y-62842371D01*
X134056826Y-62821734D01*
X134077463Y-62807944D01*
X134093155Y-62792253D01*
X134118946Y-62780226D01*
X134144015Y-62763476D01*
X134162941Y-62759711D01*
X134178520Y-62752447D01*
X134240452Y-62744293D01*
X134246861Y-62743019D01*
X135009361Y-62743019D01*
X135015771Y-62744294D01*
G37*
G36*
X119294456Y-62175153D02*
G01*
X119358005Y-62183519D01*
X119373990Y-62190973D01*
X119393285Y-62194811D01*
X119418839Y-62211886D01*
X119445337Y-62224242D01*
X119461459Y-62240364D01*
X119482501Y-62254424D01*
X119496560Y-62275465D01*
X119512682Y-62291587D01*
X119525037Y-62318082D01*
X119542114Y-62343640D01*
X119545952Y-62362936D01*
X119553405Y-62378919D01*
X119561769Y-62442455D01*
X119563047Y-62448878D01*
X119563047Y-62898878D01*
X119561769Y-62905302D01*
X119553405Y-62968836D01*
X119545952Y-62984817D01*
X119542114Y-63004116D01*
X119525035Y-63029675D01*
X119512682Y-63056168D01*
X119496563Y-63072286D01*
X119482501Y-63093332D01*
X119461455Y-63107394D01*
X119445337Y-63123513D01*
X119418844Y-63135866D01*
X119393285Y-63152945D01*
X119373986Y-63156783D01*
X119358005Y-63164236D01*
X119294471Y-63172600D01*
X119288047Y-63173878D01*
X118788047Y-63173878D01*
X118781624Y-63172600D01*
X118718088Y-63164236D01*
X118702105Y-63156783D01*
X118682809Y-63152945D01*
X118657251Y-63135868D01*
X118630756Y-63123513D01*
X118614634Y-63107391D01*
X118593593Y-63093332D01*
X118579533Y-63072290D01*
X118563411Y-63056168D01*
X118551055Y-63029670D01*
X118533980Y-63004116D01*
X118530142Y-62984821D01*
X118522688Y-62968836D01*
X118514322Y-62905287D01*
X118513047Y-62898878D01*
X118513047Y-62448878D01*
X118514321Y-62442470D01*
X118522688Y-62378919D01*
X118530142Y-62362932D01*
X118533980Y-62343640D01*
X118551053Y-62318087D01*
X118563411Y-62291587D01*
X118579535Y-62275462D01*
X118593593Y-62254424D01*
X118614631Y-62240366D01*
X118630756Y-62224242D01*
X118657256Y-62211884D01*
X118682809Y-62194811D01*
X118702101Y-62190973D01*
X118718088Y-62183519D01*
X118781639Y-62175152D01*
X118788047Y-62173878D01*
X119288047Y-62173878D01*
X119294456Y-62175153D01*
G37*
G36*
X120975985Y-62175153D02*
G01*
X121039534Y-62183519D01*
X121055519Y-62190973D01*
X121074814Y-62194811D01*
X121100368Y-62211886D01*
X121126866Y-62224242D01*
X121142988Y-62240364D01*
X121164030Y-62254424D01*
X121178089Y-62275465D01*
X121194211Y-62291587D01*
X121206566Y-62318082D01*
X121223643Y-62343640D01*
X121227481Y-62362936D01*
X121234934Y-62378919D01*
X121243298Y-62442455D01*
X121244576Y-62448878D01*
X121244576Y-62898878D01*
X121243298Y-62905302D01*
X121234934Y-62968836D01*
X121227481Y-62984817D01*
X121223643Y-63004116D01*
X121206564Y-63029675D01*
X121194211Y-63056168D01*
X121178092Y-63072286D01*
X121164030Y-63093332D01*
X121142984Y-63107394D01*
X121126866Y-63123513D01*
X121100373Y-63135866D01*
X121074814Y-63152945D01*
X121055515Y-63156783D01*
X121039534Y-63164236D01*
X120976000Y-63172600D01*
X120969576Y-63173878D01*
X120469576Y-63173878D01*
X120463153Y-63172600D01*
X120399617Y-63164236D01*
X120383634Y-63156783D01*
X120364338Y-63152945D01*
X120338780Y-63135868D01*
X120312285Y-63123513D01*
X120296163Y-63107391D01*
X120275122Y-63093332D01*
X120261062Y-63072290D01*
X120244940Y-63056168D01*
X120232584Y-63029670D01*
X120215509Y-63004116D01*
X120211671Y-62984821D01*
X120204217Y-62968836D01*
X120195851Y-62905287D01*
X120194576Y-62898878D01*
X120194576Y-62448878D01*
X120195850Y-62442470D01*
X120204217Y-62378919D01*
X120211671Y-62362932D01*
X120215509Y-62343640D01*
X120232582Y-62318087D01*
X120244940Y-62291587D01*
X120261064Y-62275462D01*
X120275122Y-62254424D01*
X120296160Y-62240366D01*
X120312285Y-62224242D01*
X120338785Y-62211884D01*
X120364338Y-62194811D01*
X120383630Y-62190973D01*
X120399617Y-62183519D01*
X120463168Y-62175152D01*
X120469576Y-62173878D01*
X120969576Y-62173878D01*
X120975985Y-62175153D01*
G37*
G36*
X117276622Y-61838200D02*
G01*
X117340171Y-61846566D01*
X117356156Y-61854020D01*
X117375451Y-61857858D01*
X117401005Y-61874933D01*
X117427503Y-61887289D01*
X117443625Y-61903411D01*
X117464667Y-61917471D01*
X117478726Y-61938512D01*
X117494848Y-61954634D01*
X117507203Y-61981129D01*
X117524280Y-62006687D01*
X117528118Y-62025983D01*
X117535571Y-62041966D01*
X117543935Y-62105502D01*
X117545213Y-62111925D01*
X117545213Y-62561925D01*
X117543935Y-62568349D01*
X117535571Y-62631883D01*
X117528118Y-62647864D01*
X117524280Y-62667163D01*
X117507201Y-62692722D01*
X117494848Y-62719215D01*
X117478729Y-62735333D01*
X117464667Y-62756379D01*
X117443621Y-62770441D01*
X117427503Y-62786560D01*
X117401010Y-62798913D01*
X117375451Y-62815992D01*
X117356152Y-62819830D01*
X117340171Y-62827283D01*
X117276637Y-62835647D01*
X117270213Y-62836925D01*
X116770213Y-62836925D01*
X116763790Y-62835647D01*
X116700254Y-62827283D01*
X116684271Y-62819830D01*
X116664975Y-62815992D01*
X116639417Y-62798915D01*
X116612922Y-62786560D01*
X116596800Y-62770438D01*
X116575759Y-62756379D01*
X116561699Y-62735337D01*
X116545577Y-62719215D01*
X116533221Y-62692717D01*
X116516146Y-62667163D01*
X116512308Y-62647868D01*
X116504854Y-62631883D01*
X116496488Y-62568334D01*
X116495213Y-62561925D01*
X116495213Y-62111925D01*
X116496487Y-62105517D01*
X116504854Y-62041966D01*
X116512308Y-62025979D01*
X116516146Y-62006687D01*
X116533219Y-61981134D01*
X116545577Y-61954634D01*
X116561701Y-61938509D01*
X116575759Y-61917471D01*
X116596797Y-61903413D01*
X116612922Y-61887289D01*
X116639422Y-61874931D01*
X116664975Y-61857858D01*
X116684267Y-61854020D01*
X116700254Y-61846566D01*
X116763805Y-61838199D01*
X116770213Y-61836925D01*
X117270213Y-61836925D01*
X117276622Y-61838200D01*
G37*
G36*
X102730421Y-60619294D02*
G01*
X102792351Y-60627447D01*
X102807928Y-60634711D01*
X102826857Y-60638476D01*
X102851928Y-60655227D01*
X102877716Y-60667253D01*
X102893405Y-60682942D01*
X102914046Y-60696734D01*
X102927837Y-60717374D01*
X102943526Y-60733063D01*
X102955550Y-60758849D01*
X102972304Y-60783923D01*
X102976069Y-60802853D01*
X102983332Y-60818428D01*
X102991483Y-60880345D01*
X102992761Y-60886769D01*
X102992761Y-61324269D01*
X102991483Y-61330693D01*
X102983332Y-61392609D01*
X102976069Y-61408183D01*
X102972304Y-61427115D01*
X102955548Y-61452190D01*
X102943526Y-61477974D01*
X102927839Y-61493660D01*
X102914046Y-61514304D01*
X102893402Y-61528097D01*
X102877716Y-61543784D01*
X102851932Y-61555806D01*
X102826857Y-61572562D01*
X102807925Y-61576327D01*
X102792351Y-61583590D01*
X102730435Y-61591741D01*
X102724011Y-61593019D01*
X101961511Y-61593019D01*
X101955087Y-61591741D01*
X101893170Y-61583590D01*
X101877595Y-61576327D01*
X101858665Y-61572562D01*
X101833591Y-61555808D01*
X101807805Y-61543784D01*
X101792116Y-61528095D01*
X101771476Y-61514304D01*
X101757684Y-61493663D01*
X101741995Y-61477974D01*
X101729969Y-61452186D01*
X101713218Y-61427115D01*
X101709453Y-61408186D01*
X101702189Y-61392609D01*
X101694036Y-61330679D01*
X101692761Y-61324269D01*
X101692761Y-60886769D01*
X101694035Y-60880360D01*
X101702189Y-60818428D01*
X101709453Y-60802849D01*
X101713218Y-60783923D01*
X101729968Y-60758854D01*
X101741995Y-60733063D01*
X101757686Y-60717371D01*
X101771476Y-60696734D01*
X101792113Y-60682944D01*
X101807805Y-60667253D01*
X101833596Y-60655226D01*
X101858665Y-60638476D01*
X101877591Y-60634711D01*
X101893170Y-60627447D01*
X101955102Y-60619293D01*
X101961511Y-60618019D01*
X102724011Y-60618019D01*
X102730421Y-60619294D01*
G37*
G36*
X135015771Y-60619294D02*
G01*
X135077701Y-60627447D01*
X135093278Y-60634711D01*
X135112207Y-60638476D01*
X135137278Y-60655227D01*
X135163066Y-60667253D01*
X135178755Y-60682942D01*
X135199396Y-60696734D01*
X135213187Y-60717374D01*
X135228876Y-60733063D01*
X135240900Y-60758849D01*
X135257654Y-60783923D01*
X135261419Y-60802853D01*
X135268682Y-60818428D01*
X135276833Y-60880345D01*
X135278111Y-60886769D01*
X135278111Y-61324269D01*
X135276833Y-61330693D01*
X135268682Y-61392609D01*
X135261419Y-61408183D01*
X135257654Y-61427115D01*
X135240898Y-61452190D01*
X135228876Y-61477974D01*
X135213189Y-61493660D01*
X135199396Y-61514304D01*
X135178752Y-61528097D01*
X135163066Y-61543784D01*
X135137282Y-61555806D01*
X135112207Y-61572562D01*
X135093275Y-61576327D01*
X135077701Y-61583590D01*
X135015785Y-61591741D01*
X135009361Y-61593019D01*
X134246861Y-61593019D01*
X134240437Y-61591741D01*
X134178520Y-61583590D01*
X134162945Y-61576327D01*
X134144015Y-61572562D01*
X134118941Y-61555808D01*
X134093155Y-61543784D01*
X134077466Y-61528095D01*
X134056826Y-61514304D01*
X134043034Y-61493663D01*
X134027345Y-61477974D01*
X134015319Y-61452186D01*
X133998568Y-61427115D01*
X133994803Y-61408186D01*
X133987539Y-61392609D01*
X133979386Y-61330679D01*
X133978111Y-61324269D01*
X133978111Y-60886769D01*
X133979385Y-60880360D01*
X133987539Y-60818428D01*
X133994803Y-60802849D01*
X133998568Y-60783923D01*
X134015318Y-60758854D01*
X134027345Y-60733063D01*
X134043036Y-60717371D01*
X134056826Y-60696734D01*
X134077463Y-60682944D01*
X134093155Y-60667253D01*
X134118946Y-60655226D01*
X134144015Y-60638476D01*
X134162941Y-60634711D01*
X134178520Y-60627447D01*
X134240452Y-60619293D01*
X134246861Y-60618019D01*
X135009361Y-60618019D01*
X135015771Y-60619294D01*
G37*
G36*
X118605552Y-60171064D02*
G01*
X118642050Y-60195450D01*
X118666436Y-60231948D01*
X118675000Y-60275000D01*
X118675000Y-60975000D01*
X118666436Y-61018052D01*
X118642050Y-61054550D01*
X118605552Y-61078936D01*
X118562500Y-61087500D01*
X118437500Y-61087500D01*
X118394448Y-61078936D01*
X118357950Y-61054550D01*
X118333564Y-61018052D01*
X118325000Y-60975000D01*
X118325000Y-60275000D01*
X118333564Y-60231948D01*
X118357950Y-60195450D01*
X118394448Y-60171064D01*
X118437500Y-60162500D01*
X118562500Y-60162500D01*
X118605552Y-60171064D01*
G37*
G36*
X119105552Y-60171064D02*
G01*
X119142050Y-60195450D01*
X119166436Y-60231948D01*
X119175000Y-60275000D01*
X119175000Y-60975000D01*
X119166436Y-61018052D01*
X119142050Y-61054550D01*
X119105552Y-61078936D01*
X119062500Y-61087500D01*
X118937500Y-61087500D01*
X118894448Y-61078936D01*
X118857950Y-61054550D01*
X118833564Y-61018052D01*
X118825000Y-60975000D01*
X118825000Y-60275000D01*
X118833564Y-60231948D01*
X118857950Y-60195450D01*
X118894448Y-60171064D01*
X118937500Y-60162500D01*
X119062500Y-60162500D01*
X119105552Y-60171064D01*
G37*
G36*
X119605552Y-60171064D02*
G01*
X119642050Y-60195450D01*
X119666436Y-60231948D01*
X119675000Y-60275000D01*
X119675000Y-60975000D01*
X119666436Y-61018052D01*
X119642050Y-61054550D01*
X119605552Y-61078936D01*
X119562500Y-61087500D01*
X119437500Y-61087500D01*
X119394448Y-61078936D01*
X119357950Y-61054550D01*
X119333564Y-61018052D01*
X119325000Y-60975000D01*
X119325000Y-60275000D01*
X119333564Y-60231948D01*
X119357950Y-60195450D01*
X119394448Y-60171064D01*
X119437500Y-60162500D01*
X119562500Y-60162500D01*
X119605552Y-60171064D01*
G37*
G36*
X120105552Y-60171064D02*
G01*
X120142050Y-60195450D01*
X120166436Y-60231948D01*
X120175000Y-60275000D01*
X120175000Y-60975000D01*
X120166436Y-61018052D01*
X120142050Y-61054550D01*
X120105552Y-61078936D01*
X120062500Y-61087500D01*
X119937500Y-61087500D01*
X119894448Y-61078936D01*
X119857950Y-61054550D01*
X119833564Y-61018052D01*
X119825000Y-60975000D01*
X119825000Y-60275000D01*
X119833564Y-60231948D01*
X119857950Y-60195450D01*
X119894448Y-60171064D01*
X119937500Y-60162500D01*
X120062500Y-60162500D01*
X120105552Y-60171064D01*
G37*
G36*
X120605552Y-60171064D02*
G01*
X120642050Y-60195450D01*
X120666436Y-60231948D01*
X120675000Y-60275000D01*
X120675000Y-60975000D01*
X120666436Y-61018052D01*
X120642050Y-61054550D01*
X120605552Y-61078936D01*
X120562500Y-61087500D01*
X120437500Y-61087500D01*
X120394448Y-61078936D01*
X120357950Y-61054550D01*
X120333564Y-61018052D01*
X120325000Y-60975000D01*
X120325000Y-60275000D01*
X120333564Y-60231948D01*
X120357950Y-60195450D01*
X120394448Y-60171064D01*
X120437500Y-60162500D01*
X120562500Y-60162500D01*
X120605552Y-60171064D01*
G37*
G36*
X123956409Y-58976275D02*
G01*
X124019958Y-58984641D01*
X124035943Y-58992095D01*
X124055238Y-58995933D01*
X124080792Y-59013008D01*
X124107290Y-59025364D01*
X124123412Y-59041486D01*
X124144454Y-59055546D01*
X124158513Y-59076587D01*
X124174635Y-59092709D01*
X124186990Y-59119204D01*
X124204067Y-59144762D01*
X124207905Y-59164058D01*
X124215358Y-59180041D01*
X124223722Y-59243577D01*
X124225000Y-59250000D01*
X124225000Y-59750000D01*
X124223722Y-59756424D01*
X124215358Y-59819958D01*
X124207905Y-59835939D01*
X124204067Y-59855238D01*
X124186988Y-59880797D01*
X124174635Y-59907290D01*
X124158516Y-59923408D01*
X124144454Y-59944454D01*
X124123408Y-59958516D01*
X124107290Y-59974635D01*
X124080797Y-59986988D01*
X124055238Y-60004067D01*
X124035939Y-60007905D01*
X124019958Y-60015358D01*
X123956424Y-60023722D01*
X123950000Y-60025000D01*
X123500000Y-60025000D01*
X123493577Y-60023722D01*
X123430041Y-60015358D01*
X123414058Y-60007905D01*
X123394762Y-60004067D01*
X123369204Y-59986990D01*
X123342709Y-59974635D01*
X123326587Y-59958513D01*
X123305546Y-59944454D01*
X123291486Y-59923412D01*
X123275364Y-59907290D01*
X123263008Y-59880792D01*
X123245933Y-59855238D01*
X123242095Y-59835943D01*
X123234641Y-59819958D01*
X123226275Y-59756409D01*
X123225000Y-59750000D01*
X123225000Y-59250000D01*
X123226274Y-59243592D01*
X123234641Y-59180041D01*
X123242095Y-59164054D01*
X123245933Y-59144762D01*
X123263006Y-59119209D01*
X123275364Y-59092709D01*
X123291488Y-59076584D01*
X123305546Y-59055546D01*
X123326584Y-59041488D01*
X123342709Y-59025364D01*
X123369209Y-59013006D01*
X123394762Y-58995933D01*
X123414054Y-58992095D01*
X123430041Y-58984641D01*
X123493592Y-58976274D01*
X123500000Y-58975000D01*
X123950000Y-58975000D01*
X123956409Y-58976275D01*
G37*
G36*
X125506409Y-58976275D02*
G01*
X125569958Y-58984641D01*
X125585943Y-58992095D01*
X125605238Y-58995933D01*
X125630792Y-59013008D01*
X125657290Y-59025364D01*
X125673412Y-59041486D01*
X125694454Y-59055546D01*
X125708513Y-59076587D01*
X125724635Y-59092709D01*
X125736990Y-59119204D01*
X125754067Y-59144762D01*
X125757905Y-59164058D01*
X125765358Y-59180041D01*
X125773722Y-59243577D01*
X125775000Y-59250000D01*
X125775000Y-59750000D01*
X125773722Y-59756424D01*
X125765358Y-59819958D01*
X125757905Y-59835939D01*
X125754067Y-59855238D01*
X125736988Y-59880797D01*
X125724635Y-59907290D01*
X125708516Y-59923408D01*
X125694454Y-59944454D01*
X125673408Y-59958516D01*
X125657290Y-59974635D01*
X125630797Y-59986988D01*
X125605238Y-60004067D01*
X125585939Y-60007905D01*
X125569958Y-60015358D01*
X125506424Y-60023722D01*
X125500000Y-60025000D01*
X125050000Y-60025000D01*
X125043577Y-60023722D01*
X124980041Y-60015358D01*
X124964058Y-60007905D01*
X124944762Y-60004067D01*
X124919204Y-59986990D01*
X124892709Y-59974635D01*
X124876587Y-59958513D01*
X124855546Y-59944454D01*
X124841486Y-59923412D01*
X124825364Y-59907290D01*
X124813008Y-59880792D01*
X124795933Y-59855238D01*
X124792095Y-59835943D01*
X124784641Y-59819958D01*
X124776275Y-59756409D01*
X124775000Y-59750000D01*
X124775000Y-59250000D01*
X124776274Y-59243592D01*
X124784641Y-59180041D01*
X124792095Y-59164054D01*
X124795933Y-59144762D01*
X124813006Y-59119209D01*
X124825364Y-59092709D01*
X124841488Y-59076584D01*
X124855546Y-59055546D01*
X124876584Y-59041488D01*
X124892709Y-59025364D01*
X124919209Y-59013006D01*
X124944762Y-58995933D01*
X124964054Y-58992095D01*
X124980041Y-58984641D01*
X125043592Y-58976274D01*
X125050000Y-58975000D01*
X125500000Y-58975000D01*
X125506409Y-58976275D01*
G37*
G36*
X120769134Y-57391306D02*
G01*
X120785355Y-57402145D01*
X120796194Y-57418366D01*
X120800000Y-57437500D01*
X120800000Y-59937500D01*
X120796194Y-59956634D01*
X120785355Y-59972855D01*
X120769134Y-59983694D01*
X120750000Y-59987500D01*
X118250000Y-59987500D01*
X118230866Y-59983694D01*
X118214645Y-59972855D01*
X118203806Y-59956634D01*
X118200000Y-59937500D01*
X118200000Y-57437500D01*
X118203806Y-57418366D01*
X118214645Y-57402145D01*
X118230866Y-57391306D01*
X118250000Y-57387500D01*
X120750000Y-57387500D01*
X120769134Y-57391306D01*
G37*
G36*
X117955552Y-59521064D02*
G01*
X117992050Y-59545450D01*
X118016436Y-59581948D01*
X118025000Y-59625000D01*
X118025000Y-59750000D01*
X118016436Y-59793052D01*
X117992050Y-59829550D01*
X117955552Y-59853936D01*
X117912500Y-59862500D01*
X117212500Y-59862500D01*
X117169448Y-59853936D01*
X117132950Y-59829550D01*
X117108564Y-59793052D01*
X117100000Y-59750000D01*
X117100000Y-59625000D01*
X117108564Y-59581948D01*
X117132950Y-59545450D01*
X117169448Y-59521064D01*
X117212500Y-59512500D01*
X117912500Y-59512500D01*
X117955552Y-59521064D01*
G37*
G36*
X121830552Y-59521064D02*
G01*
X121867050Y-59545450D01*
X121891436Y-59581948D01*
X121900000Y-59625000D01*
X121900000Y-59750000D01*
X121891436Y-59793052D01*
X121867050Y-59829550D01*
X121830552Y-59853936D01*
X121787500Y-59862500D01*
X121087500Y-59862500D01*
X121044448Y-59853936D01*
X121007950Y-59829550D01*
X120983564Y-59793052D01*
X120975000Y-59750000D01*
X120975000Y-59625000D01*
X120983564Y-59581948D01*
X121007950Y-59545450D01*
X121044448Y-59521064D01*
X121087500Y-59512500D01*
X121787500Y-59512500D01*
X121830552Y-59521064D01*
G37*
G36*
X117955552Y-59021064D02*
G01*
X117992050Y-59045450D01*
X118016436Y-59081948D01*
X118025000Y-59125000D01*
X118025000Y-59250000D01*
X118016436Y-59293052D01*
X117992050Y-59329550D01*
X117955552Y-59353936D01*
X117912500Y-59362500D01*
X117212500Y-59362500D01*
X117169448Y-59353936D01*
X117132950Y-59329550D01*
X117108564Y-59293052D01*
X117100000Y-59250000D01*
X117100000Y-59125000D01*
X117108564Y-59081948D01*
X117132950Y-59045450D01*
X117169448Y-59021064D01*
X117212500Y-59012500D01*
X117912500Y-59012500D01*
X117955552Y-59021064D01*
G37*
G36*
X121830552Y-59021064D02*
G01*
X121867050Y-59045450D01*
X121891436Y-59081948D01*
X121900000Y-59125000D01*
X121900000Y-59250000D01*
X121891436Y-59293052D01*
X121867050Y-59329550D01*
X121830552Y-59353936D01*
X121787500Y-59362500D01*
X121087500Y-59362500D01*
X121044448Y-59353936D01*
X121007950Y-59329550D01*
X120983564Y-59293052D01*
X120975000Y-59250000D01*
X120975000Y-59125000D01*
X120983564Y-59081948D01*
X121007950Y-59045450D01*
X121044448Y-59021064D01*
X121087500Y-59012500D01*
X121787500Y-59012500D01*
X121830552Y-59021064D01*
G37*
G36*
X117955552Y-58521064D02*
G01*
X117992050Y-58545450D01*
X118016436Y-58581948D01*
X118025000Y-58625000D01*
X118025000Y-58750000D01*
X118016436Y-58793052D01*
X117992050Y-58829550D01*
X117955552Y-58853936D01*
X117912500Y-58862500D01*
X117212500Y-58862500D01*
X117169448Y-58853936D01*
X117132950Y-58829550D01*
X117108564Y-58793052D01*
X117100000Y-58750000D01*
X117100000Y-58625000D01*
X117108564Y-58581948D01*
X117132950Y-58545450D01*
X117169448Y-58521064D01*
X117212500Y-58512500D01*
X117912500Y-58512500D01*
X117955552Y-58521064D01*
G37*
G36*
X121830552Y-58521064D02*
G01*
X121867050Y-58545450D01*
X121891436Y-58581948D01*
X121900000Y-58625000D01*
X121900000Y-58750000D01*
X121891436Y-58793052D01*
X121867050Y-58829550D01*
X121830552Y-58853936D01*
X121787500Y-58862500D01*
X121087500Y-58862500D01*
X121044448Y-58853936D01*
X121007950Y-58829550D01*
X120983564Y-58793052D01*
X120975000Y-58750000D01*
X120975000Y-58625000D01*
X120983564Y-58581948D01*
X121007950Y-58545450D01*
X121044448Y-58521064D01*
X121087500Y-58512500D01*
X121787500Y-58512500D01*
X121830552Y-58521064D01*
G37*
G36*
X117955552Y-58021064D02*
G01*
X117992050Y-58045450D01*
X118016436Y-58081948D01*
X118025000Y-58125000D01*
X118025000Y-58250000D01*
X118016436Y-58293052D01*
X117992050Y-58329550D01*
X117955552Y-58353936D01*
X117912500Y-58362500D01*
X117212500Y-58362500D01*
X117169448Y-58353936D01*
X117132950Y-58329550D01*
X117108564Y-58293052D01*
X117100000Y-58250000D01*
X117100000Y-58125000D01*
X117108564Y-58081948D01*
X117132950Y-58045450D01*
X117169448Y-58021064D01*
X117212500Y-58012500D01*
X117912500Y-58012500D01*
X117955552Y-58021064D01*
G37*
G36*
X121830552Y-58021064D02*
G01*
X121867050Y-58045450D01*
X121891436Y-58081948D01*
X121900000Y-58125000D01*
X121900000Y-58250000D01*
X121891436Y-58293052D01*
X121867050Y-58329550D01*
X121830552Y-58353936D01*
X121787500Y-58362500D01*
X121087500Y-58362500D01*
X121044448Y-58353936D01*
X121007950Y-58329550D01*
X120983564Y-58293052D01*
X120975000Y-58250000D01*
X120975000Y-58125000D01*
X120983564Y-58081948D01*
X121007950Y-58045450D01*
X121044448Y-58021064D01*
X121087500Y-58012500D01*
X121787500Y-58012500D01*
X121830552Y-58021064D01*
G37*
G36*
X123956409Y-57273044D02*
G01*
X124019958Y-57281410D01*
X124035943Y-57288864D01*
X124055238Y-57292702D01*
X124080792Y-57309777D01*
X124107290Y-57322133D01*
X124123412Y-57338255D01*
X124144454Y-57352315D01*
X124158513Y-57373356D01*
X124174635Y-57389478D01*
X124186990Y-57415973D01*
X124204067Y-57441531D01*
X124207905Y-57460827D01*
X124215358Y-57476810D01*
X124223722Y-57540346D01*
X124225000Y-57546769D01*
X124225000Y-58046769D01*
X124223722Y-58053193D01*
X124215358Y-58116727D01*
X124207905Y-58132708D01*
X124204067Y-58152007D01*
X124186988Y-58177566D01*
X124174635Y-58204059D01*
X124158516Y-58220177D01*
X124144454Y-58241223D01*
X124123408Y-58255285D01*
X124107290Y-58271404D01*
X124080797Y-58283757D01*
X124055238Y-58300836D01*
X124035939Y-58304674D01*
X124019958Y-58312127D01*
X123956424Y-58320491D01*
X123950000Y-58321769D01*
X123500000Y-58321769D01*
X123493577Y-58320491D01*
X123430041Y-58312127D01*
X123414058Y-58304674D01*
X123394762Y-58300836D01*
X123369204Y-58283759D01*
X123342709Y-58271404D01*
X123326587Y-58255282D01*
X123305546Y-58241223D01*
X123291486Y-58220181D01*
X123275364Y-58204059D01*
X123263008Y-58177561D01*
X123245933Y-58152007D01*
X123242095Y-58132712D01*
X123234641Y-58116727D01*
X123226275Y-58053178D01*
X123225000Y-58046769D01*
X123225000Y-57546769D01*
X123226274Y-57540361D01*
X123234641Y-57476810D01*
X123242095Y-57460823D01*
X123245933Y-57441531D01*
X123263006Y-57415978D01*
X123275364Y-57389478D01*
X123291488Y-57373353D01*
X123305546Y-57352315D01*
X123326584Y-57338257D01*
X123342709Y-57322133D01*
X123369209Y-57309775D01*
X123394762Y-57292702D01*
X123414054Y-57288864D01*
X123430041Y-57281410D01*
X123493592Y-57273043D01*
X123500000Y-57271769D01*
X123950000Y-57271769D01*
X123956409Y-57273044D01*
G37*
G36*
X125506409Y-57273044D02*
G01*
X125569958Y-57281410D01*
X125585943Y-57288864D01*
X125605238Y-57292702D01*
X125630792Y-57309777D01*
X125657290Y-57322133D01*
X125673412Y-57338255D01*
X125694454Y-57352315D01*
X125708513Y-57373356D01*
X125724635Y-57389478D01*
X125736990Y-57415973D01*
X125754067Y-57441531D01*
X125757905Y-57460827D01*
X125765358Y-57476810D01*
X125773722Y-57540346D01*
X125775000Y-57546769D01*
X125775000Y-58046769D01*
X125773722Y-58053193D01*
X125765358Y-58116727D01*
X125757905Y-58132708D01*
X125754067Y-58152007D01*
X125736988Y-58177566D01*
X125724635Y-58204059D01*
X125708516Y-58220177D01*
X125694454Y-58241223D01*
X125673408Y-58255285D01*
X125657290Y-58271404D01*
X125630797Y-58283757D01*
X125605238Y-58300836D01*
X125585939Y-58304674D01*
X125569958Y-58312127D01*
X125506424Y-58320491D01*
X125500000Y-58321769D01*
X125050000Y-58321769D01*
X125043577Y-58320491D01*
X124980041Y-58312127D01*
X124964058Y-58304674D01*
X124944762Y-58300836D01*
X124919204Y-58283759D01*
X124892709Y-58271404D01*
X124876587Y-58255282D01*
X124855546Y-58241223D01*
X124841486Y-58220181D01*
X124825364Y-58204059D01*
X124813008Y-58177561D01*
X124795933Y-58152007D01*
X124792095Y-58132712D01*
X124784641Y-58116727D01*
X124776275Y-58053178D01*
X124775000Y-58046769D01*
X124775000Y-57546769D01*
X124776274Y-57540361D01*
X124784641Y-57476810D01*
X124792095Y-57460823D01*
X124795933Y-57441531D01*
X124813006Y-57415978D01*
X124825364Y-57389478D01*
X124841488Y-57373353D01*
X124855546Y-57352315D01*
X124876584Y-57338257D01*
X124892709Y-57322133D01*
X124919209Y-57309775D01*
X124944762Y-57292702D01*
X124964054Y-57288864D01*
X124980041Y-57281410D01*
X125043592Y-57273043D01*
X125050000Y-57271769D01*
X125500000Y-57271769D01*
X125506409Y-57273044D01*
G37*
G36*
X99349134Y-52913806D02*
G01*
X99365355Y-52924645D01*
X99376194Y-52940866D01*
X99380000Y-52960000D01*
X99380000Y-58040000D01*
X99376194Y-58059134D01*
X99365355Y-58075355D01*
X99349134Y-58086194D01*
X99330000Y-58090000D01*
X96910000Y-58090000D01*
X96890866Y-58086194D01*
X96874645Y-58075355D01*
X96863806Y-58059134D01*
X96860000Y-58040000D01*
X96860000Y-52960000D01*
X96863806Y-52940866D01*
X96874645Y-52924645D01*
X96890866Y-52913806D01*
X96910000Y-52910000D01*
X99330000Y-52910000D01*
X99349134Y-52913806D01*
G37*
G36*
X103664134Y-52913806D02*
G01*
X103680355Y-52924645D01*
X103691194Y-52940866D01*
X103695000Y-52960000D01*
X103695000Y-58040000D01*
X103691194Y-58059134D01*
X103680355Y-58075355D01*
X103664134Y-58086194D01*
X103645000Y-58090000D01*
X101355000Y-58090000D01*
X101335866Y-58086194D01*
X101319645Y-58075355D01*
X101308806Y-58059134D01*
X101305000Y-58040000D01*
X101305000Y-52960000D01*
X101308806Y-52940866D01*
X101319645Y-52924645D01*
X101335866Y-52913806D01*
X101355000Y-52910000D01*
X103645000Y-52910000D01*
X103664134Y-52913806D01*
G37*
G36*
X108109134Y-52913806D02*
G01*
X108125355Y-52924645D01*
X108136194Y-52940866D01*
X108140000Y-52960000D01*
X108140000Y-58040000D01*
X108136194Y-58059134D01*
X108125355Y-58075355D01*
X108109134Y-58086194D01*
X108090000Y-58090000D01*
X105670000Y-58090000D01*
X105650866Y-58086194D01*
X105634645Y-58075355D01*
X105623806Y-58059134D01*
X105620000Y-58040000D01*
X105620000Y-52960000D01*
X105623806Y-52940866D01*
X105634645Y-52924645D01*
X105650866Y-52913806D01*
X105670000Y-52910000D01*
X108090000Y-52910000D01*
X108109134Y-52913806D01*
G37*
G36*
X131599134Y-52913806D02*
G01*
X131615355Y-52924645D01*
X131626194Y-52940866D01*
X131630000Y-52960000D01*
X131630000Y-58040000D01*
X131626194Y-58059134D01*
X131615355Y-58075355D01*
X131599134Y-58086194D01*
X131580000Y-58090000D01*
X129160000Y-58090000D01*
X129140866Y-58086194D01*
X129124645Y-58075355D01*
X129113806Y-58059134D01*
X129110000Y-58040000D01*
X129110000Y-52960000D01*
X129113806Y-52940866D01*
X129124645Y-52924645D01*
X129140866Y-52913806D01*
X129160000Y-52910000D01*
X131580000Y-52910000D01*
X131599134Y-52913806D01*
G37*
G36*
X135914134Y-52913806D02*
G01*
X135930355Y-52924645D01*
X135941194Y-52940866D01*
X135945000Y-52960000D01*
X135945000Y-58040000D01*
X135941194Y-58059134D01*
X135930355Y-58075355D01*
X135914134Y-58086194D01*
X135895000Y-58090000D01*
X133605000Y-58090000D01*
X133585866Y-58086194D01*
X133569645Y-58075355D01*
X133558806Y-58059134D01*
X133555000Y-58040000D01*
X133555000Y-52960000D01*
X133558806Y-52940866D01*
X133569645Y-52924645D01*
X133585866Y-52913806D01*
X133605000Y-52910000D01*
X135895000Y-52910000D01*
X135914134Y-52913806D01*
G37*
G36*
X140359134Y-52913806D02*
G01*
X140375355Y-52924645D01*
X140386194Y-52940866D01*
X140390000Y-52960000D01*
X140390000Y-58040000D01*
X140386194Y-58059134D01*
X140375355Y-58075355D01*
X140359134Y-58086194D01*
X140340000Y-58090000D01*
X137920000Y-58090000D01*
X137900866Y-58086194D01*
X137884645Y-58075355D01*
X137873806Y-58059134D01*
X137870000Y-58040000D01*
X137870000Y-52960000D01*
X137873806Y-52940866D01*
X137884645Y-52924645D01*
X137900866Y-52913806D01*
X137920000Y-52910000D01*
X140340000Y-52910000D01*
X140359134Y-52913806D01*
G37*
G36*
X117955552Y-57521064D02*
G01*
X117992050Y-57545450D01*
X118016436Y-57581948D01*
X118025000Y-57625000D01*
X118025000Y-57750000D01*
X118016436Y-57793052D01*
X117992050Y-57829550D01*
X117955552Y-57853936D01*
X117912500Y-57862500D01*
X117212500Y-57862500D01*
X117169448Y-57853936D01*
X117132950Y-57829550D01*
X117108564Y-57793052D01*
X117100000Y-57750000D01*
X117100000Y-57625000D01*
X117108564Y-57581948D01*
X117132950Y-57545450D01*
X117169448Y-57521064D01*
X117212500Y-57512500D01*
X117912500Y-57512500D01*
X117955552Y-57521064D01*
G37*
G36*
X121830552Y-57521064D02*
G01*
X121867050Y-57545450D01*
X121891436Y-57581948D01*
X121900000Y-57625000D01*
X121900000Y-57750000D01*
X121891436Y-57793052D01*
X121867050Y-57829550D01*
X121830552Y-57853936D01*
X121787500Y-57862500D01*
X121087500Y-57862500D01*
X121044448Y-57853936D01*
X121007950Y-57829550D01*
X120983564Y-57793052D01*
X120975000Y-57750000D01*
X120975000Y-57625000D01*
X120983564Y-57581948D01*
X121007950Y-57545450D01*
X121044448Y-57521064D01*
X121087500Y-57512500D01*
X121787500Y-57512500D01*
X121830552Y-57521064D01*
G37*
G36*
X118605552Y-56296064D02*
G01*
X118642050Y-56320450D01*
X118666436Y-56356948D01*
X118675000Y-56400000D01*
X118675000Y-57100000D01*
X118666436Y-57143052D01*
X118642050Y-57179550D01*
X118605552Y-57203936D01*
X118562500Y-57212500D01*
X118437500Y-57212500D01*
X118394448Y-57203936D01*
X118357950Y-57179550D01*
X118333564Y-57143052D01*
X118325000Y-57100000D01*
X118325000Y-56400000D01*
X118333564Y-56356948D01*
X118357950Y-56320450D01*
X118394448Y-56296064D01*
X118437500Y-56287500D01*
X118562500Y-56287500D01*
X118605552Y-56296064D01*
G37*
G36*
X119105552Y-56296064D02*
G01*
X119142050Y-56320450D01*
X119166436Y-56356948D01*
X119175000Y-56400000D01*
X119175000Y-57100000D01*
X119166436Y-57143052D01*
X119142050Y-57179550D01*
X119105552Y-57203936D01*
X119062500Y-57212500D01*
X118937500Y-57212500D01*
X118894448Y-57203936D01*
X118857950Y-57179550D01*
X118833564Y-57143052D01*
X118825000Y-57100000D01*
X118825000Y-56400000D01*
X118833564Y-56356948D01*
X118857950Y-56320450D01*
X118894448Y-56296064D01*
X118937500Y-56287500D01*
X119062500Y-56287500D01*
X119105552Y-56296064D01*
G37*
G36*
X119605552Y-56296064D02*
G01*
X119642050Y-56320450D01*
X119666436Y-56356948D01*
X119675000Y-56400000D01*
X119675000Y-57100000D01*
X119666436Y-57143052D01*
X119642050Y-57179550D01*
X119605552Y-57203936D01*
X119562500Y-57212500D01*
X119437500Y-57212500D01*
X119394448Y-57203936D01*
X119357950Y-57179550D01*
X119333564Y-57143052D01*
X119325000Y-57100000D01*
X119325000Y-56400000D01*
X119333564Y-56356948D01*
X119357950Y-56320450D01*
X119394448Y-56296064D01*
X119437500Y-56287500D01*
X119562500Y-56287500D01*
X119605552Y-56296064D01*
G37*
G36*
X120105552Y-56296064D02*
G01*
X120142050Y-56320450D01*
X120166436Y-56356948D01*
X120175000Y-56400000D01*
X120175000Y-57100000D01*
X120166436Y-57143052D01*
X120142050Y-57179550D01*
X120105552Y-57203936D01*
X120062500Y-57212500D01*
X119937500Y-57212500D01*
X119894448Y-57203936D01*
X119857950Y-57179550D01*
X119833564Y-57143052D01*
X119825000Y-57100000D01*
X119825000Y-56400000D01*
X119833564Y-56356948D01*
X119857950Y-56320450D01*
X119894448Y-56296064D01*
X119937500Y-56287500D01*
X120062500Y-56287500D01*
X120105552Y-56296064D01*
G37*
G36*
X120605552Y-56296064D02*
G01*
X120642050Y-56320450D01*
X120666436Y-56356948D01*
X120675000Y-56400000D01*
X120675000Y-57100000D01*
X120666436Y-57143052D01*
X120642050Y-57179550D01*
X120605552Y-57203936D01*
X120562500Y-57212500D01*
X120437500Y-57212500D01*
X120394448Y-57203936D01*
X120357950Y-57179550D01*
X120333564Y-57143052D01*
X120325000Y-57100000D01*
X120325000Y-56400000D01*
X120333564Y-56356948D01*
X120357950Y-56320450D01*
X120394448Y-56296064D01*
X120437500Y-56287500D01*
X120562500Y-56287500D01*
X120605552Y-56296064D01*
G37*
G36*
X119294456Y-54627419D02*
G01*
X119358005Y-54635785D01*
X119373990Y-54643239D01*
X119393285Y-54647077D01*
X119418839Y-54664152D01*
X119445337Y-54676508D01*
X119461459Y-54692630D01*
X119482501Y-54706690D01*
X119496560Y-54727731D01*
X119512682Y-54743853D01*
X119525037Y-54770348D01*
X119542114Y-54795906D01*
X119545952Y-54815202D01*
X119553405Y-54831185D01*
X119561769Y-54894721D01*
X119563047Y-54901144D01*
X119563047Y-55351144D01*
X119561769Y-55357568D01*
X119553405Y-55421102D01*
X119545952Y-55437083D01*
X119542114Y-55456382D01*
X119525035Y-55481941D01*
X119512682Y-55508434D01*
X119496563Y-55524552D01*
X119482501Y-55545598D01*
X119461455Y-55559660D01*
X119445337Y-55575779D01*
X119418844Y-55588132D01*
X119393285Y-55605211D01*
X119373986Y-55609049D01*
X119358005Y-55616502D01*
X119294471Y-55624866D01*
X119288047Y-55626144D01*
X118788047Y-55626144D01*
X118781624Y-55624866D01*
X118718088Y-55616502D01*
X118702105Y-55609049D01*
X118682809Y-55605211D01*
X118657251Y-55588134D01*
X118630756Y-55575779D01*
X118614634Y-55559657D01*
X118593593Y-55545598D01*
X118579533Y-55524556D01*
X118563411Y-55508434D01*
X118551055Y-55481936D01*
X118533980Y-55456382D01*
X118530142Y-55437087D01*
X118522688Y-55421102D01*
X118514322Y-55357553D01*
X118513047Y-55351144D01*
X118513047Y-54901144D01*
X118514321Y-54894736D01*
X118522688Y-54831185D01*
X118530142Y-54815198D01*
X118533980Y-54795906D01*
X118551053Y-54770353D01*
X118563411Y-54743853D01*
X118579535Y-54727728D01*
X118593593Y-54706690D01*
X118614631Y-54692632D01*
X118630756Y-54676508D01*
X118657256Y-54664150D01*
X118682809Y-54647077D01*
X118702101Y-54643239D01*
X118718088Y-54635785D01*
X118781639Y-54627418D01*
X118788047Y-54626144D01*
X119288047Y-54626144D01*
X119294456Y-54627419D01*
G37*
G36*
X119294456Y-53077419D02*
G01*
X119358005Y-53085785D01*
X119373990Y-53093239D01*
X119393285Y-53097077D01*
X119418839Y-53114152D01*
X119445337Y-53126508D01*
X119461459Y-53142630D01*
X119482501Y-53156690D01*
X119496560Y-53177731D01*
X119512682Y-53193853D01*
X119525037Y-53220348D01*
X119542114Y-53245906D01*
X119545952Y-53265202D01*
X119553405Y-53281185D01*
X119561769Y-53344721D01*
X119563047Y-53351144D01*
X119563047Y-53801144D01*
X119561769Y-53807568D01*
X119553405Y-53871102D01*
X119545952Y-53887083D01*
X119542114Y-53906382D01*
X119525035Y-53931941D01*
X119512682Y-53958434D01*
X119496563Y-53974552D01*
X119482501Y-53995598D01*
X119461455Y-54009660D01*
X119445337Y-54025779D01*
X119418844Y-54038132D01*
X119393285Y-54055211D01*
X119373986Y-54059049D01*
X119358005Y-54066502D01*
X119294471Y-54074866D01*
X119288047Y-54076144D01*
X118788047Y-54076144D01*
X118781624Y-54074866D01*
X118718088Y-54066502D01*
X118702105Y-54059049D01*
X118682809Y-54055211D01*
X118657251Y-54038134D01*
X118630756Y-54025779D01*
X118614634Y-54009657D01*
X118593593Y-53995598D01*
X118579533Y-53974556D01*
X118563411Y-53958434D01*
X118551055Y-53931936D01*
X118533980Y-53906382D01*
X118530142Y-53887087D01*
X118522688Y-53871102D01*
X118514322Y-53807553D01*
X118513047Y-53801144D01*
X118513047Y-53351144D01*
X118514321Y-53344736D01*
X118522688Y-53281185D01*
X118530142Y-53265198D01*
X118533980Y-53245906D01*
X118551053Y-53220353D01*
X118563411Y-53193853D01*
X118579535Y-53177728D01*
X118593593Y-53156690D01*
X118614631Y-53142632D01*
X118630756Y-53126508D01*
X118657256Y-53114150D01*
X118682809Y-53097077D01*
X118702101Y-53093239D01*
X118718088Y-53085785D01*
X118781639Y-53077418D01*
X118788047Y-53076144D01*
X119288047Y-53076144D01*
X119294456Y-53077419D01*
G37*
M02*
