M48
; DRILL file KiCad 10.0.4 date 2026-07-07T20:32:42
; FORMAT={-:-/ absolute / metric / decimal}
; #@! TF.CreationDate,2026-07-07T20:32:42-04:00
; #@! TF.GenerationSoftware,Kicad,Pcbnew,10.0.4
; #@! TF.FileFunction,Plated,1,2,PTH
FMAT,2
METRIC
; #@! TA.AperFunction,Plated,PTH,ViaDrill
T1C0.250
; #@! TA.AperFunction,Plated,PTH,ComponentDrill
T2C0.254
; #@! TA.AperFunction,Plated,PTH,ViaDrill
T3C0.300
; #@! TA.AperFunction,Plated,PTH,ComponentDrill
T4C0.460
; #@! TA.AperFunction,Plated,PTH,ComponentDrill
T5C0.500
; #@! TA.AperFunction,Plated,PTH,ComponentDrill
T6C0.600
; #@! TA.AperFunction,Plated,PTH,ComponentDrill
T7C0.800
; #@! TA.AperFunction,Plated,PTH,ComponentDrill
T8C1.000
%
G90
G05
T1
X92.654Y-58.661
X92.654Y-65.477
X92.654Y-72.293
X92.654Y-79.11
X92.654Y-109.733
X92.654Y-116.549
X92.654Y-123.365
X92.774Y-136.878
X94.0Y-96.572
X94.75Y-96.245
X95.305Y-103.626
X96.25Y-101.832
X97.192Y-89.522
X97.192Y-87.977
X97.356Y-98.082
X98.729Y-52.587
X99.453Y-115.636
X99.59Y-136.878
X99.72Y-89.534
X99.836Y-70.702
X99.836Y-77.518
X99.969Y-104.876
X100.961Y-90.291
X101.0Y-98.832
X101.276Y-107.906
X101.288Y-63.209
X101.5Y-126.272
X102.933Y-91.533
X103.171Y-92.485
X103.637Y-100.957
X103.727Y-88.26
X103.754Y-101.897
X104.068Y-100.498
X104.273Y-120.455
X104.911Y-107.125
X104.918Y-127.615
X105.103Y-95.373
X105.216Y-54.759
X105.284Y-93.057
X105.732Y-92.98
X105.84Y-92.09
X106.145Y-116.078
X106.171Y-117.982
X106.207Y-97.257
X106.406Y-136.878
X106.561Y-105.658
X106.596Y-88.14
X106.652Y-70.267
X106.652Y-77.083
X106.652Y-83.9
X106.876Y-110.844
X107.532Y-98.013
X107.583Y-91.632
X107.597Y-93.401
X107.6Y-102.619
X107.668Y-103.474
X107.896Y-99.688
X108.246Y-99.011
X108.259Y-103.823
X108.463Y-92.222
X108.537Y-94.579
X108.543Y-98.436
X108.669Y-106.487
X108.683Y-99.555
X108.69Y-116.86
X109.036Y-117.271
X109.182Y-130.553
X109.201Y-118.779
X109.39Y-95.713
X109.487Y-61.198
X109.936Y-132.18
X110.382Y-105.682
X110.39Y-62.498
X110.985Y-60.794
X111.34Y-110.218
X111.554Y-118.784
X111.713Y-115.679
X112.71Y-109.153
X112.916Y-118.628
X112.956Y-105.326
X113.087Y-103.92
X113.223Y-136.878
X113.821Y-74.512
X113.912Y-76.459
X114.082Y-92.543
X114.094Y-56.326
X114.119Y-97.449
X114.215Y-62.887
X114.338Y-94.031
X114.441Y-109.079
X114.638Y-99.346
X114.778Y-113.124
X114.794Y-63.379
X115.19Y-62.303
X115.538Y-58.895
X115.764Y-97.893
X115.773Y-92.921
X115.785Y-92.277
X115.903Y-66.049
X116.059Y-78.494
X116.316Y-85.777
X116.573Y-59.584
X116.702Y-93.069
X116.832Y-59.21
X117.294Y-93.385
X117.315Y-99.894
X117.341Y-97.97
X117.396Y-103.337
X117.488Y-91.386
X117.576Y-99.038
X117.58Y-93.829
X118.232Y-129.065
X118.241Y-65.799
X118.586Y-100.243
X118.613Y-56.139
X119.306Y-79.684
X119.542Y-71.586
X119.768Y-62.023
X119.772Y-63.553
X119.879Y-61.431
X120.026Y-105.252
X120.039Y-136.878
X120.153Y-55.6
X120.539Y-56.135
X120.696Y-118.832
X120.803Y-91.733
X120.899Y-78.037
X120.905Y-60.707
X121.017Y-93.886
X121.687Y-94.769
X121.702Y-96.952
X121.806Y-99.153
X121.934Y-91.833
X122.03Y-94.057
X122.039Y-55.176
X122.122Y-95.307
X122.15Y-58.292
X122.153Y-58.789
X122.156Y-59.295
X122.97Y-92.018
X123.085Y-94.047
X123.723Y-124.395
X124.659Y-79.471
X124.845Y-110.071
X124.922Y-93.018
X126.855Y-136.878
X127.39Y-74.46
X127.593Y-94.846
X127.633Y-102.988
X127.79Y-84.725
X129.569Y-59.513
X130.15Y-95.676
X130.486Y-68.885
X130.68Y-98.062
X131.611Y-94.101
X131.824Y-52.688
X132.122Y-106.763
X133.165Y-113.169
X133.165Y-119.986
X133.671Y-136.878
X134.38Y-82.853
X134.601Y-64.056
X134.893Y-126.108
X135.298Y-64.137
X136.201Y-96.987
X136.349Y-57.604
X136.78Y-89.174
X137.16Y-101.72
X137.861Y-78.658
X137.986Y-77.241
X144.146Y-51.926
X144.146Y-58.742
X144.146Y-65.558
X144.146Y-72.374
X144.146Y-79.19
X144.146Y-86.007
X144.146Y-92.823
X144.146Y-99.639
X144.146Y-106.455
X144.146Y-113.271
X144.146Y-120.088
X144.146Y-126.904
X144.146Y-133.72
T2
X118.213Y-94.5
X118.213Y-95.287
X118.213Y-96.075
X119.0Y-94.5
X119.0Y-95.287
X119.0Y-96.075
X119.787Y-94.5
X119.787Y-95.287
X119.787Y-96.075
T3
X95.02Y-91.83
X102.726Y-88.208
X103.47Y-96.66
X103.72Y-106.01
X103.96Y-125.89
X104.075Y-91.794
X104.33Y-89.55
X105.42Y-90.05
X105.79Y-93.79
X105.973Y-95.115
X109.52Y-105.87
X111.03Y-107.86
X111.19Y-99.24
X112.4Y-97.03
X113.68Y-111.36
X115.245Y-73.24
X116.81Y-71.35
X122.9Y-65.85
T4
X98.12Y-58.94
X106.88Y-58.94
X130.37Y-58.94
X139.13Y-58.94
T5
X105.051Y-121.646
X105.051Y-122.646
T7
X117.79Y-108.356
X117.79Y-110.896
X117.79Y-113.436
T8
X102.18Y-135.0
X104.72Y-135.0
X107.26Y-135.0
X109.8Y-135.0
X112.34Y-135.0
X114.88Y-135.0
X117.42Y-135.0
X119.96Y-135.0
X122.5Y-135.0
X125.04Y-135.0
X127.58Y-135.0
X130.12Y-135.0
X132.66Y-135.0
X135.2Y-135.0
T6
G00X137.095Y-91.43
M15
G01X138.195Y-91.43
M16
G05
G00X137.095Y-100.07
M15
G01X138.195Y-100.07
M16
G05
G00X141.425Y-91.43
M15
G01X142.225Y-91.43
M16
G05
G00X141.425Y-100.07
M15
G01X142.225Y-100.07
M16
G05
M30
