%TF.GenerationSoftware,KiCad,Pcbnew,10.0.4*%
%TF.CreationDate,2026-07-07T20:32:40-04:00*%
%TF.ProjectId,diddys disciples,64696464-7973-4206-9469-736369706c65,rev?*%
%TF.SameCoordinates,Original*%
%TF.FileFunction,Legend,Bot*%
%TF.FilePolarity,Positive*%
%FSLAX46Y46*%
G04 Gerber Fmt 4.6, Leading zero omitted, Abs format (unit mm)*
G04 Created by KiCad (PCBNEW 10.0.4) date 2026-07-07 20:32:40*
%MOMM*%
%LPD*%
G01*
G04 APERTURE LIST*
%ADD10C,0.150000*%
%ADD11C,0.120000*%
%ADD12C,0.152400*%
%ADD13C,0.000000*%
G04 APERTURE END LIST*
D10*
X98094841Y-99614635D02*
X98428174Y-99138444D01*
X98666269Y-99614635D02*
X98666269Y-98614635D01*
X98666269Y-98614635D02*
X98285317Y-98614635D01*
X98285317Y-98614635D02*
X98190079Y-98662254D01*
X98190079Y-98662254D02*
X98142460Y-98709873D01*
X98142460Y-98709873D02*
X98094841Y-98805111D01*
X98094841Y-98805111D02*
X98094841Y-98947968D01*
X98094841Y-98947968D02*
X98142460Y-99043206D01*
X98142460Y-99043206D02*
X98190079Y-99090825D01*
X98190079Y-99090825D02*
X98285317Y-99138444D01*
X98285317Y-99138444D02*
X98666269Y-99138444D01*
X97761507Y-98614635D02*
X97094841Y-98614635D01*
X97094841Y-98614635D02*
X97523412Y-99614635D01*
X115180127Y-72418385D02*
X115656317Y-72418385D01*
X115656317Y-72418385D02*
X115656317Y-71418385D01*
X114894412Y-71513623D02*
X114846793Y-71466004D01*
X114846793Y-71466004D02*
X114751555Y-71418385D01*
X114751555Y-71418385D02*
X114513460Y-71418385D01*
X114513460Y-71418385D02*
X114418222Y-71466004D01*
X114418222Y-71466004D02*
X114370603Y-71513623D01*
X114370603Y-71513623D02*
X114322984Y-71608861D01*
X114322984Y-71608861D02*
X114322984Y-71704099D01*
X114322984Y-71704099D02*
X114370603Y-71846956D01*
X114370603Y-71846956D02*
X114942031Y-72418385D01*
X114942031Y-72418385D02*
X114322984Y-72418385D01*
X-47646370Y-68191193D02*
X-47646370Y-68905478D01*
X-47646370Y-68905478D02*
X-47598751Y-69048335D01*
X-47598751Y-69048335D02*
X-47503513Y-69143574D01*
X-47503513Y-69143574D02*
X-47360656Y-69191193D01*
X-47360656Y-69191193D02*
X-47265418Y-69191193D01*
X-48646370Y-69191193D02*
X-48074942Y-69191193D01*
X-48360656Y-69191193D02*
X-48360656Y-68191193D01*
X-48360656Y-68191193D02*
X-48265418Y-68334050D01*
X-48265418Y-68334050D02*
X-48170180Y-68429288D01*
X-48170180Y-68429288D02*
X-48074942Y-68476907D01*
X114940876Y-63956117D02*
X114988496Y-63908498D01*
X114988496Y-63908498D02*
X115036115Y-63765641D01*
X115036115Y-63765641D02*
X115036115Y-63670403D01*
X115036115Y-63670403D02*
X114988496Y-63527546D01*
X114988496Y-63527546D02*
X114893257Y-63432308D01*
X114893257Y-63432308D02*
X114798019Y-63384689D01*
X114798019Y-63384689D02*
X114607543Y-63337070D01*
X114607543Y-63337070D02*
X114464686Y-63337070D01*
X114464686Y-63337070D02*
X114274210Y-63384689D01*
X114274210Y-63384689D02*
X114178972Y-63432308D01*
X114178972Y-63432308D02*
X114083734Y-63527546D01*
X114083734Y-63527546D02*
X114036115Y-63670403D01*
X114036115Y-63670403D02*
X114036115Y-63765641D01*
X114036115Y-63765641D02*
X114083734Y-63908498D01*
X114083734Y-63908498D02*
X114131353Y-63956117D01*
X114036115Y-64289451D02*
X114036115Y-64956117D01*
X114036115Y-64956117D02*
X115036115Y-64527546D01*
X122811657Y-56679580D02*
X122859276Y-56727200D01*
X122859276Y-56727200D02*
X123002133Y-56774819D01*
X123002133Y-56774819D02*
X123097371Y-56774819D01*
X123097371Y-56774819D02*
X123240228Y-56727200D01*
X123240228Y-56727200D02*
X123335466Y-56631961D01*
X123335466Y-56631961D02*
X123383085Y-56536723D01*
X123383085Y-56536723D02*
X123430704Y-56346247D01*
X123430704Y-56346247D02*
X123430704Y-56203390D01*
X123430704Y-56203390D02*
X123383085Y-56012914D01*
X123383085Y-56012914D02*
X123335466Y-55917676D01*
X123335466Y-55917676D02*
X123240228Y-55822438D01*
X123240228Y-55822438D02*
X123097371Y-55774819D01*
X123097371Y-55774819D02*
X123002133Y-55774819D01*
X123002133Y-55774819D02*
X122859276Y-55822438D01*
X122859276Y-55822438D02*
X122811657Y-55870057D01*
X121859276Y-56774819D02*
X122430704Y-56774819D01*
X122144990Y-56774819D02*
X122144990Y-55774819D01*
X122144990Y-55774819D02*
X122240228Y-55917676D01*
X122240228Y-55917676D02*
X122335466Y-56012914D01*
X122335466Y-56012914D02*
X122430704Y-56060533D01*
X121525942Y-55774819D02*
X120906895Y-55774819D01*
X120906895Y-55774819D02*
X121240228Y-56155771D01*
X121240228Y-56155771D02*
X121097371Y-56155771D01*
X121097371Y-56155771D02*
X121002133Y-56203390D01*
X121002133Y-56203390D02*
X120954514Y-56251009D01*
X120954514Y-56251009D02*
X120906895Y-56346247D01*
X120906895Y-56346247D02*
X120906895Y-56584342D01*
X120906895Y-56584342D02*
X120954514Y-56679580D01*
X120954514Y-56679580D02*
X121002133Y-56727200D01*
X121002133Y-56727200D02*
X121097371Y-56774819D01*
X121097371Y-56774819D02*
X121383085Y-56774819D01*
X121383085Y-56774819D02*
X121478323Y-56727200D01*
X121478323Y-56727200D02*
X121525942Y-56679580D01*
X118778395Y-58257062D02*
X119254586Y-58257062D01*
X118254586Y-57923729D02*
X118778395Y-58257062D01*
X118778395Y-58257062D02*
X118254586Y-58590395D01*
X119254586Y-59447538D02*
X119254586Y-58876110D01*
X119254586Y-59161824D02*
X118254586Y-59161824D01*
X118254586Y-59161824D02*
X118397443Y-59066586D01*
X118397443Y-59066586D02*
X118492681Y-58971348D01*
X118492681Y-58971348D02*
X118540300Y-58876110D01*
X120737413Y-109562420D02*
X120785032Y-109705277D01*
X120785032Y-109705277D02*
X120785032Y-109943372D01*
X120785032Y-109943372D02*
X120737413Y-110038610D01*
X120737413Y-110038610D02*
X120689793Y-110086229D01*
X120689793Y-110086229D02*
X120594555Y-110133848D01*
X120594555Y-110133848D02*
X120499317Y-110133848D01*
X120499317Y-110133848D02*
X120404079Y-110086229D01*
X120404079Y-110086229D02*
X120356460Y-110038610D01*
X120356460Y-110038610D02*
X120308841Y-109943372D01*
X120308841Y-109943372D02*
X120261222Y-109752896D01*
X120261222Y-109752896D02*
X120213603Y-109657658D01*
X120213603Y-109657658D02*
X120165984Y-109610039D01*
X120165984Y-109610039D02*
X120070746Y-109562420D01*
X120070746Y-109562420D02*
X119975508Y-109562420D01*
X119975508Y-109562420D02*
X119880270Y-109610039D01*
X119880270Y-109610039D02*
X119832651Y-109657658D01*
X119832651Y-109657658D02*
X119785032Y-109752896D01*
X119785032Y-109752896D02*
X119785032Y-109990991D01*
X119785032Y-109990991D02*
X119832651Y-110133848D01*
X119785032Y-110467182D02*
X120785032Y-110705277D01*
X120785032Y-110705277D02*
X120070746Y-110895753D01*
X120070746Y-110895753D02*
X120785032Y-111086229D01*
X120785032Y-111086229D02*
X119785032Y-111324325D01*
X120785032Y-112229086D02*
X120785032Y-111657658D01*
X120785032Y-111943372D02*
X119785032Y-111943372D01*
X119785032Y-111943372D02*
X119927889Y-111848134D01*
X119927889Y-111848134D02*
X120023127Y-111752896D01*
X120023127Y-111752896D02*
X120070746Y-111657658D01*
X105860621Y-108294692D02*
X105908241Y-108247073D01*
X105908241Y-108247073D02*
X105955860Y-108104216D01*
X105955860Y-108104216D02*
X105955860Y-108008978D01*
X105955860Y-108008978D02*
X105908241Y-107866121D01*
X105908241Y-107866121D02*
X105813002Y-107770883D01*
X105813002Y-107770883D02*
X105717764Y-107723264D01*
X105717764Y-107723264D02*
X105527288Y-107675645D01*
X105527288Y-107675645D02*
X105384431Y-107675645D01*
X105384431Y-107675645D02*
X105193955Y-107723264D01*
X105193955Y-107723264D02*
X105098717Y-107770883D01*
X105098717Y-107770883D02*
X105003479Y-107866121D01*
X105003479Y-107866121D02*
X104955860Y-108008978D01*
X104955860Y-108008978D02*
X104955860Y-108104216D01*
X104955860Y-108104216D02*
X105003479Y-108247073D01*
X105003479Y-108247073D02*
X105051098Y-108294692D01*
X105051098Y-108675645D02*
X105003479Y-108723264D01*
X105003479Y-108723264D02*
X104955860Y-108818502D01*
X104955860Y-108818502D02*
X104955860Y-109056597D01*
X104955860Y-109056597D02*
X105003479Y-109151835D01*
X105003479Y-109151835D02*
X105051098Y-109199454D01*
X105051098Y-109199454D02*
X105146336Y-109247073D01*
X105146336Y-109247073D02*
X105241574Y-109247073D01*
X105241574Y-109247073D02*
X105384431Y-109199454D01*
X105384431Y-109199454D02*
X105955860Y-108628026D01*
X105955860Y-108628026D02*
X105955860Y-109247073D01*
X105289193Y-110104216D02*
X105955860Y-110104216D01*
X104908241Y-109866121D02*
X105622526Y-109628026D01*
X105622526Y-109628026D02*
X105622526Y-110247073D01*
X125797898Y-78849008D02*
X125797898Y-78372818D01*
X125797898Y-78372818D02*
X124797898Y-78372818D01*
X125131231Y-79610913D02*
X125797898Y-79610913D01*
X124750279Y-79372818D02*
X125464564Y-79134723D01*
X125464564Y-79134723D02*
X125464564Y-79753770D01*
X109462930Y-117907056D02*
X109939120Y-117907056D01*
X109939120Y-117907056D02*
X109939120Y-116907056D01*
X108605787Y-117907056D02*
X109177215Y-117907056D01*
X108891501Y-117907056D02*
X108891501Y-116907056D01*
X108891501Y-116907056D02*
X108986739Y-117049913D01*
X108986739Y-117049913D02*
X109081977Y-117145151D01*
X109081977Y-117145151D02*
X109177215Y-117192770D01*
X119761904Y-94742219D02*
X119761904Y-95551742D01*
X119761904Y-95551742D02*
X119714285Y-95646980D01*
X119714285Y-95646980D02*
X119666666Y-95694600D01*
X119666666Y-95694600D02*
X119571428Y-95742219D01*
X119571428Y-95742219D02*
X119380952Y-95742219D01*
X119380952Y-95742219D02*
X119285714Y-95694600D01*
X119285714Y-95694600D02*
X119238095Y-95646980D01*
X119238095Y-95646980D02*
X119190476Y-95551742D01*
X119190476Y-95551742D02*
X119190476Y-94742219D01*
X118809523Y-94742219D02*
X118190476Y-94742219D01*
X118190476Y-94742219D02*
X118523809Y-95123171D01*
X118523809Y-95123171D02*
X118380952Y-95123171D01*
X118380952Y-95123171D02*
X118285714Y-95170790D01*
X118285714Y-95170790D02*
X118238095Y-95218409D01*
X118238095Y-95218409D02*
X118190476Y-95313647D01*
X118190476Y-95313647D02*
X118190476Y-95551742D01*
X118190476Y-95551742D02*
X118238095Y-95646980D01*
X118238095Y-95646980D02*
X118285714Y-95694600D01*
X118285714Y-95694600D02*
X118380952Y-95742219D01*
X118380952Y-95742219D02*
X118666666Y-95742219D01*
X118666666Y-95742219D02*
X118761904Y-95694600D01*
X118761904Y-95694600D02*
X118809523Y-95646980D01*
X122005098Y-93492219D02*
X122005098Y-93730314D01*
X122243193Y-93635076D02*
X122005098Y-93730314D01*
X122005098Y-93730314D02*
X121767003Y-93635076D01*
X122147955Y-93920790D02*
X122005098Y-93730314D01*
X122005098Y-93730314D02*
X121862241Y-93920790D01*
X122005098Y-93492219D02*
X122005098Y-93730314D01*
X122243193Y-93635076D02*
X122005098Y-93730314D01*
X122005098Y-93730314D02*
X121767003Y-93635076D01*
X122147955Y-93920790D02*
X122005098Y-93730314D01*
X122005098Y-93730314D02*
X121862241Y-93920790D01*
X100588866Y-110561510D02*
X100922199Y-110085319D01*
X101160294Y-110561510D02*
X101160294Y-109561510D01*
X101160294Y-109561510D02*
X100779342Y-109561510D01*
X100779342Y-109561510D02*
X100684104Y-109609129D01*
X100684104Y-109609129D02*
X100636485Y-109656748D01*
X100636485Y-109656748D02*
X100588866Y-109751986D01*
X100588866Y-109751986D02*
X100588866Y-109894843D01*
X100588866Y-109894843D02*
X100636485Y-109990081D01*
X100636485Y-109990081D02*
X100684104Y-110037700D01*
X100684104Y-110037700D02*
X100779342Y-110085319D01*
X100779342Y-110085319D02*
X101160294Y-110085319D01*
X99636485Y-110561510D02*
X100207913Y-110561510D01*
X99922199Y-110561510D02*
X99922199Y-109561510D01*
X99922199Y-109561510D02*
X100017437Y-109704367D01*
X100017437Y-109704367D02*
X100112675Y-109799605D01*
X100112675Y-109799605D02*
X100207913Y-109847224D01*
X98779342Y-109894843D02*
X98779342Y-110561510D01*
X99017437Y-109513891D02*
X99255532Y-110228176D01*
X99255532Y-110228176D02*
X98636485Y-110228176D01*
X111547070Y-62212838D02*
X111880403Y-61736647D01*
X112118498Y-62212838D02*
X112118498Y-61212838D01*
X112118498Y-61212838D02*
X111737546Y-61212838D01*
X111737546Y-61212838D02*
X111642308Y-61260457D01*
X111642308Y-61260457D02*
X111594689Y-61308076D01*
X111594689Y-61308076D02*
X111547070Y-61403314D01*
X111547070Y-61403314D02*
X111547070Y-61546171D01*
X111547070Y-61546171D02*
X111594689Y-61641409D01*
X111594689Y-61641409D02*
X111642308Y-61689028D01*
X111642308Y-61689028D02*
X111737546Y-61736647D01*
X111737546Y-61736647D02*
X112118498Y-61736647D01*
X111213736Y-61212838D02*
X110594689Y-61212838D01*
X110594689Y-61212838D02*
X110928022Y-61593790D01*
X110928022Y-61593790D02*
X110785165Y-61593790D01*
X110785165Y-61593790D02*
X110689927Y-61641409D01*
X110689927Y-61641409D02*
X110642308Y-61689028D01*
X110642308Y-61689028D02*
X110594689Y-61784266D01*
X110594689Y-61784266D02*
X110594689Y-62022361D01*
X110594689Y-62022361D02*
X110642308Y-62117599D01*
X110642308Y-62117599D02*
X110689927Y-62165219D01*
X110689927Y-62165219D02*
X110785165Y-62212838D01*
X110785165Y-62212838D02*
X111070879Y-62212838D01*
X111070879Y-62212838D02*
X111166117Y-62165219D01*
X111166117Y-62165219D02*
X111213736Y-62117599D01*
X108054321Y-106103759D02*
X107244798Y-106103759D01*
X107244798Y-106103759D02*
X107149560Y-106056140D01*
X107149560Y-106056140D02*
X107101941Y-106008521D01*
X107101941Y-106008521D02*
X107054321Y-105913283D01*
X107054321Y-105913283D02*
X107054321Y-105722807D01*
X107054321Y-105722807D02*
X107101941Y-105627569D01*
X107101941Y-105627569D02*
X107149560Y-105579950D01*
X107149560Y-105579950D02*
X107244798Y-105532331D01*
X107244798Y-105532331D02*
X108054321Y-105532331D01*
X108054321Y-105151378D02*
X108054321Y-104484712D01*
X108054321Y-104484712D02*
X107054321Y-104913283D01*
X130043885Y-95398619D02*
X130377218Y-94922428D01*
X130615313Y-95398619D02*
X130615313Y-94398619D01*
X130615313Y-94398619D02*
X130234361Y-94398619D01*
X130234361Y-94398619D02*
X130139123Y-94446238D01*
X130139123Y-94446238D02*
X130091504Y-94493857D01*
X130091504Y-94493857D02*
X130043885Y-94589095D01*
X130043885Y-94589095D02*
X130043885Y-94731952D01*
X130043885Y-94731952D02*
X130091504Y-94827190D01*
X130091504Y-94827190D02*
X130139123Y-94874809D01*
X130139123Y-94874809D02*
X130234361Y-94922428D01*
X130234361Y-94922428D02*
X130615313Y-94922428D01*
X129091504Y-95398619D02*
X129662932Y-95398619D01*
X129377218Y-95398619D02*
X129377218Y-94398619D01*
X129377218Y-94398619D02*
X129472456Y-94541476D01*
X129472456Y-94541476D02*
X129567694Y-94636714D01*
X129567694Y-94636714D02*
X129662932Y-94684333D01*
X130355575Y-84305084D02*
X130355575Y-84781275D01*
X130688908Y-83781275D02*
X130355575Y-84305084D01*
X130355575Y-84305084D02*
X130022242Y-83781275D01*
X129784146Y-83781275D02*
X129165099Y-83781275D01*
X129165099Y-83781275D02*
X129498432Y-84162227D01*
X129498432Y-84162227D02*
X129355575Y-84162227D01*
X129355575Y-84162227D02*
X129260337Y-84209846D01*
X129260337Y-84209846D02*
X129212718Y-84257465D01*
X129212718Y-84257465D02*
X129165099Y-84352703D01*
X129165099Y-84352703D02*
X129165099Y-84590798D01*
X129165099Y-84590798D02*
X129212718Y-84686036D01*
X129212718Y-84686036D02*
X129260337Y-84733656D01*
X129260337Y-84733656D02*
X129355575Y-84781275D01*
X129355575Y-84781275D02*
X129641289Y-84781275D01*
X129641289Y-84781275D02*
X129736527Y-84733656D01*
X129736527Y-84733656D02*
X129784146Y-84686036D01*
X122811657Y-58640750D02*
X122859276Y-58688370D01*
X122859276Y-58688370D02*
X123002133Y-58735989D01*
X123002133Y-58735989D02*
X123097371Y-58735989D01*
X123097371Y-58735989D02*
X123240228Y-58688370D01*
X123240228Y-58688370D02*
X123335466Y-58593131D01*
X123335466Y-58593131D02*
X123383085Y-58497893D01*
X123383085Y-58497893D02*
X123430704Y-58307417D01*
X123430704Y-58307417D02*
X123430704Y-58164560D01*
X123430704Y-58164560D02*
X123383085Y-57974084D01*
X123383085Y-57974084D02*
X123335466Y-57878846D01*
X123335466Y-57878846D02*
X123240228Y-57783608D01*
X123240228Y-57783608D02*
X123097371Y-57735989D01*
X123097371Y-57735989D02*
X123002133Y-57735989D01*
X123002133Y-57735989D02*
X122859276Y-57783608D01*
X122859276Y-57783608D02*
X122811657Y-57831227D01*
X121859276Y-58735989D02*
X122430704Y-58735989D01*
X122144990Y-58735989D02*
X122144990Y-57735989D01*
X122144990Y-57735989D02*
X122240228Y-57878846D01*
X122240228Y-57878846D02*
X122335466Y-57974084D01*
X122335466Y-57974084D02*
X122430704Y-58021703D01*
X121478323Y-57831227D02*
X121430704Y-57783608D01*
X121430704Y-57783608D02*
X121335466Y-57735989D01*
X121335466Y-57735989D02*
X121097371Y-57735989D01*
X121097371Y-57735989D02*
X121002133Y-57783608D01*
X121002133Y-57783608D02*
X120954514Y-57831227D01*
X120954514Y-57831227D02*
X120906895Y-57926465D01*
X120906895Y-57926465D02*
X120906895Y-58021703D01*
X120906895Y-58021703D02*
X120954514Y-58164560D01*
X120954514Y-58164560D02*
X121525942Y-58735989D01*
X121525942Y-58735989D02*
X120906895Y-58735989D01*
X128698662Y-94560338D02*
X129031995Y-94084147D01*
X129270090Y-94560338D02*
X129270090Y-93560338D01*
X129270090Y-93560338D02*
X128889138Y-93560338D01*
X128889138Y-93560338D02*
X128793900Y-93607957D01*
X128793900Y-93607957D02*
X128746281Y-93655576D01*
X128746281Y-93655576D02*
X128698662Y-93750814D01*
X128698662Y-93750814D02*
X128698662Y-93893671D01*
X128698662Y-93893671D02*
X128746281Y-93988909D01*
X128746281Y-93988909D02*
X128793900Y-94036528D01*
X128793900Y-94036528D02*
X128889138Y-94084147D01*
X128889138Y-94084147D02*
X129270090Y-94084147D01*
X128317709Y-93655576D02*
X128270090Y-93607957D01*
X128270090Y-93607957D02*
X128174852Y-93560338D01*
X128174852Y-93560338D02*
X127936757Y-93560338D01*
X127936757Y-93560338D02*
X127841519Y-93607957D01*
X127841519Y-93607957D02*
X127793900Y-93655576D01*
X127793900Y-93655576D02*
X127746281Y-93750814D01*
X127746281Y-93750814D02*
X127746281Y-93846052D01*
X127746281Y-93846052D02*
X127793900Y-93988909D01*
X127793900Y-93988909D02*
X128365328Y-94560338D01*
X128365328Y-94560338D02*
X127746281Y-94560338D01*
X135900968Y-88901271D02*
X135948587Y-88948891D01*
X135948587Y-88948891D02*
X136091444Y-88996510D01*
X136091444Y-88996510D02*
X136186682Y-88996510D01*
X136186682Y-88996510D02*
X136329539Y-88948891D01*
X136329539Y-88948891D02*
X136424777Y-88853652D01*
X136424777Y-88853652D02*
X136472396Y-88758414D01*
X136472396Y-88758414D02*
X136520015Y-88567938D01*
X136520015Y-88567938D02*
X136520015Y-88425081D01*
X136520015Y-88425081D02*
X136472396Y-88234605D01*
X136472396Y-88234605D02*
X136424777Y-88139367D01*
X136424777Y-88139367D02*
X136329539Y-88044129D01*
X136329539Y-88044129D02*
X136186682Y-87996510D01*
X136186682Y-87996510D02*
X136091444Y-87996510D01*
X136091444Y-87996510D02*
X135948587Y-88044129D01*
X135948587Y-88044129D02*
X135900968Y-88091748D01*
X135520015Y-88091748D02*
X135472396Y-88044129D01*
X135472396Y-88044129D02*
X135377158Y-87996510D01*
X135377158Y-87996510D02*
X135139063Y-87996510D01*
X135139063Y-87996510D02*
X135043825Y-88044129D01*
X135043825Y-88044129D02*
X134996206Y-88091748D01*
X134996206Y-88091748D02*
X134948587Y-88186986D01*
X134948587Y-88186986D02*
X134948587Y-88282224D01*
X134948587Y-88282224D02*
X134996206Y-88425081D01*
X134996206Y-88425081D02*
X135567634Y-88996510D01*
X135567634Y-88996510D02*
X134948587Y-88996510D01*
X134567634Y-88091748D02*
X134520015Y-88044129D01*
X134520015Y-88044129D02*
X134424777Y-87996510D01*
X134424777Y-87996510D02*
X134186682Y-87996510D01*
X134186682Y-87996510D02*
X134091444Y-88044129D01*
X134091444Y-88044129D02*
X134043825Y-88091748D01*
X134043825Y-88091748D02*
X133996206Y-88186986D01*
X133996206Y-88186986D02*
X133996206Y-88282224D01*
X133996206Y-88282224D02*
X134043825Y-88425081D01*
X134043825Y-88425081D02*
X134615253Y-88996510D01*
X134615253Y-88996510D02*
X133996206Y-88996510D01*
%TO.C,R7*%
D11*
X97690917Y-100067316D02*
X98165433Y-100067316D01*
X97690917Y-101112316D02*
X98165433Y-101112316D01*
%TO.C,L2*%
X114613839Y-72953566D02*
X115413083Y-72953566D01*
X114613839Y-74073566D02*
X115413083Y-74073566D01*
%TO.C,J1*%
X103950595Y-120835675D02*
X103950595Y-122145675D01*
X104365595Y-122145675D02*
X103950595Y-122145675D01*
X105570595Y-120835675D02*
X103950595Y-120835675D01*
X105570595Y-120835675D02*
X105570595Y-121199777D01*
X105735595Y-122645675D02*
X105735595Y-123455675D01*
X105735595Y-123455675D02*
X105050595Y-123455675D01*
%TO.C,C7*%
X115501296Y-64263364D02*
X115501296Y-63982204D01*
X116521296Y-64263364D02*
X116521296Y-63982204D01*
%TO.C,C13*%
X122028220Y-57240000D02*
X122309380Y-57240000D01*
X122028220Y-58260000D02*
X122309380Y-58260000D01*
%TO.C,Y1*%
X113839767Y-55473253D02*
X113839767Y-62143253D01*
X113839767Y-62143253D02*
X117859767Y-62143253D01*
X117859767Y-62143253D02*
X117859767Y-55473253D01*
%TO.C,SW1*%
X116430213Y-105785753D02*
X119150213Y-105785753D01*
X119150213Y-116005753D01*
X116430213Y-116005753D01*
X116430213Y-105785753D01*
%TO.C,C24*%
X106421041Y-109078130D02*
X106421041Y-108796970D01*
X107441041Y-109078130D02*
X107441041Y-108796970D01*
%TO.C,L4*%
X126333079Y-79415297D02*
X126333079Y-78616053D01*
X127453079Y-79415297D02*
X127453079Y-78616053D01*
%TO.C,L1*%
X108896642Y-118442237D02*
X109695886Y-118442237D01*
X108896642Y-119562237D02*
X109695886Y-119562237D01*
%TO.C,U3*%
D12*
X116802900Y-93090300D02*
X117539859Y-93090300D01*
X116802900Y-93827259D02*
X116802900Y-93090300D01*
X116802900Y-97484500D02*
X116802900Y-96747541D01*
X117539859Y-97484500D02*
X116802900Y-97484500D01*
X120460141Y-93090300D02*
X121197100Y-93090300D01*
X121197100Y-93090300D02*
X121197100Y-93827259D01*
X121197100Y-96747541D02*
X121197100Y-97484500D01*
X121197100Y-97484500D02*
X120460141Y-97484500D01*
D13*
G36*
X118190499Y-98165499D02*
G01*
X117809499Y-98165499D01*
X117809499Y-97911499D01*
X118190499Y-97911499D01*
X118190499Y-98165499D01*
G37*
G36*
X120190501Y-92663301D02*
G01*
X119809501Y-92663301D01*
X119809501Y-92409301D01*
X120190501Y-92409301D01*
X120190501Y-92663301D01*
G37*
%TO.C,R14*%
D11*
X100183267Y-108154191D02*
X99708751Y-108154191D01*
X100183267Y-109199191D02*
X99708751Y-109199191D01*
%TO.C,R3*%
X111143146Y-62665519D02*
X111617662Y-62665519D01*
X111143146Y-63710519D02*
X111617662Y-63710519D01*
%TO.C,U7*%
D12*
X106328041Y-104830107D02*
X106328041Y-105853603D01*
X108690241Y-105853603D02*
X108690241Y-104830107D01*
X108360741Y-107246754D02*
G75*
G02*
X108157541Y-107246754I-101600J0D01*
G01*
X108157541Y-107246754D02*
G75*
G02*
X108360741Y-107246754I101600J0D01*
G01*
%TO.C,R1*%
D11*
X130114477Y-92991300D02*
X129639961Y-92991300D01*
X130114477Y-94036300D02*
X129639961Y-94036300D01*
%TO.C,Y3*%
X126619385Y-89286456D02*
X133289385Y-89286456D01*
X133289385Y-85266456D02*
X126619385Y-85266456D01*
X133289385Y-89286456D02*
X133289385Y-85266456D01*
%TO.C,C12*%
X122028220Y-59201170D02*
X122309380Y-59201170D01*
X122028220Y-60221170D02*
X122309380Y-60221170D01*
%TO.C,R2*%
X128294738Y-95013019D02*
X128769254Y-95013019D01*
X128294738Y-96058019D02*
X128769254Y-96058019D01*
%TO.C,C22*%
X135398691Y-86601691D02*
X135117531Y-86601691D01*
X135398691Y-87621691D02*
X135117531Y-87621691D01*
%TD*%
M02*
