%TF.GenerationSoftware,KiCad,Pcbnew,10.0.4*%
%TF.CreationDate,2026-07-07T20:32:40-04:00*%
%TF.ProjectId,diddys disciples,64696464-7973-4206-9469-736369706c65,rev?*%
%TF.SameCoordinates,Original*%
%TF.FileFunction,Paste,Bot*%
%TF.FilePolarity,Positive*%
%FSLAX46Y46*%
G04 Gerber Fmt 4.6, Leading zero omitted, Abs format (unit mm)*
G04 Created by KiCad (PCBNEW 10.0.4) date 2026-07-07 20:32:40*
%MOMM*%
%LPD*%
G01*
G04 APERTURE LIST*
G04 Aperture macros list*
%AMRoundRect*
0 Rectangle with rounded corners*
0 $1 Rounding radius*
0 $2 $3 $4 $5 $6 $7 $8 $9 X,Y pos of 4 corners*
0 Add a 4 corners polygon primitive as box body*
4,1,4,$2,$3,$4,$5,$6,$7,$8,$9,$2,$3,0*
0 Add four circle primitives for the rounded corners*
1,1,$1+$1,$2,$3*
1,1,$1+$1,$4,$5*
1,1,$1+$1,$6,$7*
1,1,$1+$1,$8,$9*
0 Add four rect primitives between the rounded corners*
20,1,$1+$1,$2,$3,$4,$5,0*
20,1,$1+$1,$4,$5,$6,$7,0*
20,1,$1+$1,$6,$7,$8,$9,0*
20,1,$1+$1,$8,$9,$2,$3,0*%
G04 Aperture macros list end*
%ADD10C,0.000000*%
%ADD11R,2.420000X5.080000*%
%ADD12RoundRect,0.200000X0.200000X0.275000X-0.200000X0.275000X-0.200000X-0.275000X0.200000X-0.275000X0*%
%ADD13RoundRect,0.218750X0.218750X0.381250X-0.218750X0.381250X-0.218750X-0.381250X0.218750X-0.381250X0*%
%ADD14RoundRect,0.225000X-0.250000X0.225000X-0.250000X-0.225000X0.250000X-0.225000X0.250000X0.225000X0*%
%ADD15RoundRect,0.225000X0.225000X0.250000X-0.225000X0.250000X-0.225000X-0.250000X0.225000X-0.250000X0*%
%ADD16RoundRect,0.250000X1.000000X-0.700000X1.000000X0.700000X-1.000000X0.700000X-1.000000X-0.700000X0*%
%ADD17RoundRect,0.218750X-0.381250X0.218750X-0.381250X-0.218750X0.381250X-0.218750X0.381250X0.218750X0*%
%ADD18R,0.947699X0.254800*%
%ADD19R,0.254800X0.947699*%
%ADD20RoundRect,0.200000X-0.200000X-0.275000X0.200000X-0.275000X0.200000X0.275000X-0.200000X0.275000X0*%
%ADD21R,0.254800X0.706399*%
%ADD22R,1.295400X0.889000*%
%ADD23RoundRect,0.250000X0.700000X1.000000X-0.700000X1.000000X-0.700000X-1.000000X0.700000X-1.000000X0*%
%ADD24RoundRect,0.225000X-0.225000X-0.250000X0.225000X-0.250000X0.225000X0.250000X-0.225000X0.250000X0*%
G04 APERTURE END LIST*
D10*
%TO.C,U3*%
G36*
X118112600Y-96316221D02*
G01*
X118112600Y-96418970D01*
X117868430Y-96418970D01*
X117868430Y-96174800D01*
X117971179Y-96174800D01*
X118112600Y-96316221D01*
G37*
G36*
X118112600Y-94258579D02*
G01*
X117971179Y-94400000D01*
X117868430Y-94400000D01*
X117868430Y-94155830D01*
X118112600Y-94155830D01*
X118112600Y-94258579D01*
G37*
G36*
X120131570Y-94400000D02*
G01*
X120028821Y-94400000D01*
X119887400Y-94258579D01*
X119887400Y-94155830D01*
X120131570Y-94155830D01*
X120131570Y-94400000D01*
G37*
G36*
X120131570Y-96418970D02*
G01*
X119887400Y-96418970D01*
X119887400Y-96316221D01*
X120028821Y-96174800D01*
X120131570Y-96174800D01*
X120131570Y-96418970D01*
G37*
G36*
X118112600Y-94741421D02*
G01*
X118112600Y-95045979D01*
X117971179Y-95187400D01*
X117868430Y-95187400D01*
X117868430Y-94600000D01*
X117971179Y-94600000D01*
X118112600Y-94741421D01*
G37*
G36*
X118112600Y-95528821D02*
G01*
X118112600Y-95833379D01*
X117971179Y-95974800D01*
X117868430Y-95974800D01*
X117868430Y-95387400D01*
X117971179Y-95387400D01*
X118112600Y-95528821D01*
G37*
G36*
X118900000Y-96316221D02*
G01*
X118900000Y-96418970D01*
X118312600Y-96418970D01*
X118312600Y-96316221D01*
X118454021Y-96174800D01*
X118758579Y-96174800D01*
X118900000Y-96316221D01*
G37*
G36*
X118900000Y-94258579D02*
G01*
X118758579Y-94400000D01*
X118454021Y-94400000D01*
X118312600Y-94258579D01*
X118312600Y-94155830D01*
X118900000Y-94155830D01*
X118900000Y-94258579D01*
G37*
G36*
X119687400Y-96316221D02*
G01*
X119687400Y-96418970D01*
X119100000Y-96418970D01*
X119100000Y-96316221D01*
X119241421Y-96174800D01*
X119545979Y-96174800D01*
X119687400Y-96316221D01*
G37*
G36*
X119687400Y-94258579D02*
G01*
X119545979Y-94400000D01*
X119241421Y-94400000D01*
X119100000Y-94258579D01*
X119100000Y-94155830D01*
X119687400Y-94155830D01*
X119687400Y-94258579D01*
G37*
G36*
X120131570Y-95187400D02*
G01*
X120028821Y-95187400D01*
X119887400Y-95045979D01*
X119887400Y-94741421D01*
X120028821Y-94600000D01*
X120131570Y-94600000D01*
X120131570Y-95187400D01*
G37*
G36*
X120131570Y-95974800D02*
G01*
X120028821Y-95974800D01*
X119887400Y-95833379D01*
X119887400Y-95528821D01*
X120028821Y-95387400D01*
X120131570Y-95387400D01*
X120131570Y-95974800D01*
G37*
G36*
X118900000Y-94741421D02*
G01*
X118900000Y-95045979D01*
X118758579Y-95187400D01*
X118454021Y-95187400D01*
X118312600Y-95045979D01*
X118312600Y-94741421D01*
X118454021Y-94600000D01*
X118758579Y-94600000D01*
X118900000Y-94741421D01*
G37*
G36*
X118900000Y-95528821D02*
G01*
X118900000Y-95833379D01*
X118758579Y-95974800D01*
X118454021Y-95974800D01*
X118312600Y-95833379D01*
X118312600Y-95528821D01*
X118454021Y-95387400D01*
X118758579Y-95387400D01*
X118900000Y-95528821D01*
G37*
G36*
X119687400Y-94741421D02*
G01*
X119687400Y-95045979D01*
X119545979Y-95187400D01*
X119241421Y-95187400D01*
X119100000Y-95045979D01*
X119100000Y-94741421D01*
X119241421Y-94600000D01*
X119545979Y-94600000D01*
X119687400Y-94741421D01*
G37*
G36*
X119687400Y-95528821D02*
G01*
X119687400Y-95833379D01*
X119545979Y-95974800D01*
X119241421Y-95974800D01*
X119100000Y-95833379D01*
X119100000Y-95528821D01*
X119241421Y-95387400D01*
X119545979Y-95387400D01*
X119687400Y-95528821D01*
G37*
%TD*%
D11*
%TO.C,J2*%
X106880000Y-55500000D03*
X98120000Y-55500000D03*
%TD*%
%TO.C,J4*%
X139130000Y-55500000D03*
X130370000Y-55500000D03*
%TD*%
D12*
%TO.C,R7*%
X98753175Y-100589816D03*
X97103175Y-100589816D03*
%TD*%
D13*
%TO.C,L2*%
X116075961Y-73513566D03*
X113950961Y-73513566D03*
%TD*%
D14*
%TO.C,C7*%
X116011296Y-63347784D03*
X116011296Y-64897784D03*
%TD*%
D15*
%TO.C,C13*%
X122943800Y-57750000D03*
X121393800Y-57750000D03*
%TD*%
D16*
%TO.C,Y1*%
X115849767Y-60933253D03*
X115849767Y-56533253D03*
%TD*%
D14*
%TO.C,C24*%
X106931041Y-108162550D03*
X106931041Y-109712550D03*
%TD*%
D17*
%TO.C,L4*%
X126893079Y-77953175D03*
X126893079Y-80078175D03*
%TD*%
D13*
%TO.C,L1*%
X110358764Y-119002237D03*
X108233764Y-119002237D03*
%TD*%
D18*
%TO.C,U3*%
X120896250Y-94287399D03*
X120896250Y-94787401D03*
X120896250Y-95287400D03*
X120896250Y-95787399D03*
X120896250Y-96287401D03*
D19*
X120000001Y-97183650D03*
X119499999Y-97183650D03*
X119000000Y-97183650D03*
X118500001Y-97183650D03*
X117999999Y-97183650D03*
D18*
X117103750Y-96287401D03*
X117103750Y-95787399D03*
X117103750Y-95287400D03*
X117103750Y-94787401D03*
X117103750Y-94287399D03*
D19*
X117999999Y-93391150D03*
X118500001Y-93391150D03*
X119000000Y-93391150D03*
X119499999Y-93391150D03*
X120000001Y-93391150D03*
%TD*%
D20*
%TO.C,R14*%
X99121009Y-108676691D03*
X100771009Y-108676691D03*
%TD*%
D12*
%TO.C,R3*%
X112205404Y-63188019D03*
X110555404Y-63188019D03*
%TD*%
D21*
%TO.C,U7*%
X108259142Y-106342755D03*
X107759141Y-106342755D03*
X107259141Y-106342755D03*
X106759140Y-106342755D03*
X106759140Y-104340955D03*
X107259141Y-104340955D03*
X107759141Y-104340955D03*
X108259142Y-104340955D03*
D22*
X107509141Y-105341855D03*
%TD*%
D20*
%TO.C,R1*%
X129052219Y-93513800D03*
X130702219Y-93513800D03*
%TD*%
D23*
%TO.C,Y3*%
X132079385Y-87276456D03*
X127679385Y-87276456D03*
%TD*%
D15*
%TO.C,C12*%
X122943800Y-59711170D03*
X121393800Y-59711170D03*
%TD*%
D12*
%TO.C,R2*%
X129356996Y-95535519D03*
X127706996Y-95535519D03*
%TD*%
D24*
%TO.C,C22*%
X134483111Y-87111691D03*
X136033111Y-87111691D03*
%TD*%
M02*
