%TF.GenerationSoftware,KiCad,Pcbnew,10.0.4*%
%TF.CreationDate,2026-07-07T20:32:40-04:00*%
%TF.ProjectId,diddys disciples,64696464-7973-4206-9469-736369706c65,rev?*%
%TF.SameCoordinates,Original*%
%TF.FileFunction,Paste,Top*%
%TF.FilePolarity,Positive*%
%FSLAX46Y46*%
G04 Gerber Fmt 4.6, Leading zero omitted, Abs format (unit mm)*
G04 Created by KiCad (PCBNEW 10.0.4) date 2026-07-07 20:32:40*
%MOMM*%
%LPD*%
G01*
G04 APERTURE LIST*
G04 Aperture macros list*
%AMRoundRect*
0 Rectangle with rounded corners*
0 $1 Rounding radius*
0 $2 $3 $4 $5 $6 $7 $8 $9 X,Y pos of 4 corners*
0 Add a 4 corners polygon primitive as box body*
4,1,4,$2,$3,$4,$5,$6,$7,$8,$9,$2,$3,0*
0 Add four circle primitives for the rounded corners*
1,1,$1+$1,$2,$3*
1,1,$1+$1,$4,$5*
1,1,$1+$1,$6,$7*
1,1,$1+$1,$8,$9*
0 Add four rect primitives between the rounded corners*
20,1,$1+$1,$2,$3,$4,$5,0*
20,1,$1+$1,$4,$5,$6,$7,0*
20,1,$1+$1,$6,$7,$8,$9,0*
20,1,$1+$1,$8,$9,$2,$3,0*%
%AMOutline5P*
0 Free polygon, 5 corners , with rotation*
0 The origin of the aperture is its center*
0 number of corners: always 5*
0 $1 to $10 corner X, Y*
0 $11 Rotation angle, in degrees counterclockwise*
0 create outline with 5 corners*
4,1,5,$1,$2,$3,$4,$5,$6,$7,$8,$9,$10,$1,$2,$11*%
%AMOutline6P*
0 Free polygon, 6 corners , with rotation*
0 The origin of the aperture is its center*
0 number of corners: always 6*
0 $1 to $12 corner X, Y*
0 $13 Rotation angle, in degrees counterclockwise*
0 create outline with 6 corners*
4,1,6,$1,$2,$3,$4,$5,$6,$7,$8,$9,$10,$11,$12,$1,$2,$13*%
%AMOutline7P*
0 Free polygon, 7 corners , with rotation*
0 The origin of the aperture is its center*
0 number of corners: always 7*
0 $1 to $14 corner X, Y*
0 $15 Rotation angle, in degrees counterclockwise*
0 create outline with 7 corners*
4,1,7,$1,$2,$3,$4,$5,$6,$7,$8,$9,$10,$11,$12,$13,$14,$1,$2,$15*%
%AMOutline8P*
0 Free polygon, 8 corners , with rotation*
0 The origin of the aperture is its center*
0 number of corners: always 8*
0 $1 to $16 corner X, Y*
0 $17 Rotation angle, in degrees counterclockwise*
0 create outline with 8 corners*
4,1,8,$1,$2,$3,$4,$5,$6,$7,$8,$9,$10,$11,$12,$13,$14,$15,$16,$1,$2,$17*%
G04 Aperture macros list end*
%ADD10RoundRect,0.250000X-1.000000X0.700000X-1.000000X-0.700000X1.000000X-0.700000X1.000000X0.700000X0*%
%ADD11RoundRect,0.225000X-0.225000X-0.250000X0.225000X-0.250000X0.225000X0.250000X-0.225000X0.250000X0*%
%ADD12R,0.400000X0.800000*%
%ADD13R,0.800000X0.400000*%
%ADD14Outline5P,-0.600000X0.204000X-0.204000X0.600000X0.600000X0.600000X0.600000X-0.600000X-0.600000X-0.600000X90.000000*%
%ADD15R,1.200000X1.200000*%
%ADD16R,0.800000X0.800000*%
%ADD17RoundRect,0.225000X0.225000X0.250000X-0.225000X0.250000X-0.225000X-0.250000X0.225000X-0.250000X0*%
%ADD18RoundRect,0.225000X-0.250000X0.225000X-0.250000X-0.225000X0.250000X-0.225000X0.250000X0.225000X0*%
%ADD19RoundRect,0.200000X-0.200000X-0.275000X0.200000X-0.275000X0.200000X0.275000X-0.200000X0.275000X0*%
%ADD20RoundRect,0.225000X0.250000X-0.225000X0.250000X0.225000X-0.250000X0.225000X-0.250000X-0.225000X0*%
%ADD21R,2.290000X5.080000*%
%ADD22R,2.420000X5.080000*%
%ADD23RoundRect,0.218750X0.381250X-0.218750X0.381250X0.218750X-0.381250X0.218750X-0.381250X-0.218750X0*%
%ADD24RoundRect,0.150000X0.150000X-0.512500X0.150000X0.512500X-0.150000X0.512500X-0.150000X-0.512500X0*%
%ADD25RoundRect,0.250000X-0.255000X-0.255000X0.255000X-0.255000X0.255000X0.255000X-0.255000X0.255000X0*%
%ADD26RoundRect,0.062500X-0.350000X-0.062500X0.350000X-0.062500X0.350000X0.062500X-0.350000X0.062500X0*%
%ADD27RoundRect,0.062500X-0.062500X-0.350000X0.062500X-0.350000X0.062500X0.350000X-0.062500X0.350000X0*%
%ADD28RoundRect,0.150000X-0.512500X-0.150000X0.512500X-0.150000X0.512500X0.150000X-0.512500X0.150000X0*%
%ADD29RoundRect,0.150000X0.425000X-0.150000X0.425000X0.150000X-0.425000X0.150000X-0.425000X-0.150000X0*%
%ADD30RoundRect,0.075000X0.500000X-0.075000X0.500000X0.075000X-0.500000X0.075000X-0.500000X-0.075000X0*%
%ADD31O,2.100000X1.000000*%
%ADD32O,1.800000X1.000000*%
%ADD33RoundRect,0.200000X0.275000X-0.200000X0.275000X0.200000X-0.275000X0.200000X-0.275000X-0.200000X0*%
%ADD34RoundRect,0.250000X0.700000X1.000000X-0.700000X1.000000X-0.700000X-1.000000X0.700000X-1.000000X0*%
G04 APERTURE END LIST*
D10*
%TO.C,Y4*%
X139391168Y-78435206D03*
X139391168Y-82835206D03*
%TD*%
D11*
%TO.C,C16*%
X118340436Y-97557237D03*
X119890436Y-97557237D03*
%TD*%
D12*
%TO.C,U4*%
X93950000Y-102750000D03*
X94800000Y-102750000D03*
X95650000Y-102750000D03*
X96500000Y-102750000D03*
X97350000Y-102750000D03*
X98200000Y-102750000D03*
X99050000Y-102750000D03*
X99900000Y-102750000D03*
X100750000Y-102750000D03*
X101600000Y-102750000D03*
X102450000Y-102750000D03*
X103300000Y-102750000D03*
X104150000Y-102750000D03*
X105000000Y-102750000D03*
X105850000Y-102750000D03*
D13*
X106900000Y-101700000D03*
X106900000Y-100850000D03*
X106900000Y-100000000D03*
X106900000Y-99150000D03*
X106900000Y-98300000D03*
X106900000Y-97450000D03*
X106900000Y-96600000D03*
X106900000Y-95750000D03*
X106900000Y-94900000D03*
X106900000Y-94050000D03*
X106900000Y-93200000D03*
X106900000Y-92350000D03*
X106900000Y-91500000D03*
X106900000Y-90650000D03*
X106900000Y-89800000D03*
D12*
X105850000Y-88750000D03*
X105000000Y-88750000D03*
X104150000Y-88750000D03*
X103300000Y-88750000D03*
X102450000Y-88750000D03*
X101600000Y-88750000D03*
X100750000Y-88750000D03*
X99900000Y-88750000D03*
X99050000Y-88750000D03*
X98200000Y-88750000D03*
X97350000Y-88750000D03*
X96500000Y-88750000D03*
X95650000Y-88750000D03*
X94800000Y-88750000D03*
X93950000Y-88750000D03*
D13*
X92900000Y-89800000D03*
X92900000Y-90650000D03*
X92900000Y-91500000D03*
X92900000Y-92350000D03*
X92900000Y-93200000D03*
X92900000Y-94050000D03*
X92900000Y-94900000D03*
X92900000Y-95750000D03*
X92900000Y-96600000D03*
X92900000Y-97450000D03*
X92900000Y-98300000D03*
X92900000Y-99150000D03*
X92900000Y-100000000D03*
X92900000Y-100850000D03*
X92900000Y-101700000D03*
D14*
X98250000Y-97400000D03*
D15*
X99900000Y-97400000D03*
X101550000Y-97400000D03*
X98250000Y-95750000D03*
X99900000Y-95750000D03*
X101550000Y-95750000D03*
X98250000Y-94100000D03*
X99900000Y-94100000D03*
X101550000Y-94100000D03*
D16*
X92900000Y-102750000D03*
X106900000Y-102750000D03*
X106900000Y-88750000D03*
X92900000Y-88750000D03*
%TD*%
D11*
%TO.C,C26*%
X114331379Y-94725061D03*
X115881379Y-94725061D03*
%TD*%
D17*
%TO.C,C19*%
X125275000Y-57796769D03*
X123725000Y-57796769D03*
%TD*%
D18*
%TO.C,C14*%
X118365436Y-91651847D03*
X118365436Y-93201847D03*
%TD*%
D19*
%TO.C,R4*%
X114591073Y-75655284D03*
X116241073Y-75655284D03*
%TD*%
D20*
%TO.C,C11*%
X119038047Y-55126144D03*
X119038047Y-53576144D03*
%TD*%
D11*
%TO.C,C10*%
X123725000Y-59500000D03*
X125275000Y-59500000D03*
%TD*%
D21*
%TO.C,J2*%
X102500000Y-55500000D03*
D22*
X106880000Y-55500000D03*
X98120000Y-55500000D03*
%TD*%
D20*
%TO.C,C4*%
X95832952Y-106679972D03*
X95832952Y-105129972D03*
%TD*%
D23*
%TO.C,L3*%
X102342761Y-63230519D03*
X102342761Y-61105519D03*
%TD*%
D24*
%TO.C,U12*%
X128950913Y-97037784D03*
X129900913Y-97037784D03*
X130850913Y-97037784D03*
X130850913Y-94762784D03*
X128950913Y-94762784D03*
%TD*%
D17*
%TO.C,C21*%
X123253493Y-93176847D03*
X121703493Y-93176847D03*
%TD*%
D21*
%TO.C,J4*%
X134750000Y-55500000D03*
D22*
X139130000Y-55500000D03*
X130370000Y-55500000D03*
%TD*%
D20*
%TO.C,C23*%
X139552697Y-86799737D03*
X139552697Y-85249737D03*
%TD*%
D18*
%TO.C,C18*%
X118701741Y-99401769D03*
X118701741Y-100951769D03*
%TD*%
D20*
%TO.C,C6*%
X120719576Y-64223878D03*
X120719576Y-62673878D03*
%TD*%
D25*
%TO.C,U2*%
X118875000Y-58062500D03*
X118875000Y-59312500D03*
X120125000Y-58062500D03*
X120125000Y-59312500D03*
D26*
X117562500Y-57687500D03*
X117562500Y-58187500D03*
X117562500Y-58687500D03*
X117562500Y-59187500D03*
X117562500Y-59687500D03*
D27*
X118500000Y-60625000D03*
X119000000Y-60625000D03*
X119500000Y-60625000D03*
X120000000Y-60625000D03*
X120500000Y-60625000D03*
D26*
X121437500Y-59687500D03*
X121437500Y-59187500D03*
X121437500Y-58687500D03*
X121437500Y-58187500D03*
X121437500Y-57687500D03*
D27*
X120500000Y-56750000D03*
X120000000Y-56750000D03*
X119500000Y-56750000D03*
X119000000Y-56750000D03*
X118500000Y-56750000D03*
%TD*%
D28*
%TO.C,U6*%
X107113541Y-116191378D03*
X107113541Y-117141378D03*
X107113541Y-118091378D03*
X109388541Y-118091378D03*
X109388541Y-116191378D03*
%TD*%
D29*
%TO.C,P1*%
X137070000Y-98950000D03*
X137070000Y-98150000D03*
D30*
X137070000Y-97000000D03*
X137070000Y-96000000D03*
X137070000Y-95500000D03*
X137070000Y-94500000D03*
D29*
X137070000Y-93350000D03*
X137070000Y-92550000D03*
X137070000Y-92550000D03*
X137070000Y-93350000D03*
D30*
X137070000Y-94000000D03*
X137070000Y-95000000D03*
X137070000Y-96500000D03*
X137070000Y-97500000D03*
D29*
X137070000Y-98150000D03*
X137070000Y-98950000D03*
D31*
X137645000Y-100070000D03*
D32*
X141825000Y-100070000D03*
D31*
X137645000Y-91430000D03*
D32*
X141825000Y-91430000D03*
%TD*%
D11*
%TO.C,C25*%
X114331379Y-96439061D03*
X115881379Y-96439061D03*
%TD*%
D20*
%TO.C,C15*%
X116683907Y-92190987D03*
X116683907Y-90640987D03*
%TD*%
D11*
%TO.C,C17*%
X121367187Y-95872472D03*
X122917187Y-95872472D03*
%TD*%
D20*
%TO.C,C2*%
X107267346Y-114429894D03*
X107267346Y-112879894D03*
%TD*%
D33*
%TO.C,R5*%
X120046964Y-79099816D03*
X120046964Y-77449816D03*
%TD*%
D11*
%TO.C,C8*%
X109260181Y-67231456D03*
X110810181Y-67231456D03*
%TD*%
D20*
%TO.C,C9*%
X117020213Y-63886925D03*
X117020213Y-62336925D03*
%TD*%
D34*
%TO.C,Y2*%
X117618238Y-67396222D03*
X113218238Y-67396222D03*
%TD*%
D17*
%TO.C,C1*%
X134015276Y-94524659D03*
X132465276Y-94524659D03*
%TD*%
D20*
%TO.C,C5*%
X119038047Y-64223878D03*
X119038047Y-62673878D03*
%TD*%
D18*
%TO.C,C20*%
X120046964Y-91651847D03*
X120046964Y-93201847D03*
%TD*%
D11*
%TO.C,C3*%
X111278015Y-117774425D03*
X112828015Y-117774425D03*
%TD*%
D23*
%TO.C,L5*%
X134628111Y-63230519D03*
X134628111Y-61105519D03*
%TD*%
M02*
